<svg width="28" height="19" viewBox="0 0 28 19" fill="none" xmlns="http://www.w3.org/2000/svg">
<path id="BrowserDisabledItem" fill-rule="evenodd" clip-rule="evenodd" d="M6.57505 5.73619H7.0547C7.92628 5.73619 8.63286 4.88263 8.63286 4.01104C8.63286 3.13944 7.92628 2.43809 7.0547 2.43809C7.04006 2.43809 7.02541 2.4377 7.01092 2.43732L7.0107 2.43731C6.98185 2.43655 6.95329 2.4358 6.92501 2.43809H6.42807C6.42807 1.62058 5.60443 0.885644 4.57911 0.885644C3.53671 0.885644 2.69168 1.73056 2.69147 2.77288V3.3612L2.05077 3.36577C2.01733 3.36276 1.98338 3.3612 1.94886 3.3612C1.33357 3.3612 0.834833 3.85996 0.834833 4.47521C0.842584 5.29524 1.33357 5.73619 1.94886 5.73619C2.02665 5.73619 2.11066 5.73602 2.19694 5.73583H2.19701L2.19784 5.73583L2.20508 5.73582C2.33843 5.73553 2.47695 5.73523 2.60642 5.73553V6.32414H1.85398C1.80187 6.32414 1.75027 6.32179 1.69931 6.3172C0.831819 6.23903 0.254639 5.44222 0.246888 4.47521C0.246888 3.58901 0.924188 2.86102 1.78938 2.78063C1.83223 2.77665 1.87551 2.77426 1.91914 2.77351L1.94886 2.77326L1.97376 2.77344C2.0174 2.77407 2.06075 2.77634 2.1036 2.7802L2.10352 2.77326C2.10352 2.61814 2.11781 2.46636 2.14515 2.31914C2.35838 1.16882 3.36705 0.297699 4.57911 0.297699C5.62079 0.297699 6.51218 0.941042 6.87764 1.85205C6.93599 1.84734 6.99506 1.84492 7.0547 1.84492C8.25097 1.84492 9.22081 2.81472 9.22081 4.01104C9.22081 5.20735 8.25097 6.32414 7.0547 6.32414H6.57505V5.73619ZM5.98711 5.14825L4.66423 6.7651L3.34135 5.14825H4.37026V3.38441H4.9582V5.14825H5.98711ZM12.4546 5.4035C12.7368 5.58381 13.0641 5.67396 13.4364 5.67396C13.8676 5.67396 14.2302 5.55637 14.5241 5.32119C14.822 5.08209 15.0357 4.72933 15.165 4.26289L14.5183 4.06887C14.436 4.37852 14.3066 4.6235 14.1302 4.8038C13.9538 4.98018 13.7265 5.06838 13.4482 5.06838C13.2091 5.06838 12.9974 5.00174 12.8132 4.86847C12.629 4.73521 12.4859 4.54902 12.384 4.30993C12.286 4.07083 12.237 3.80037 12.237 3.49856C12.237 3.20067 12.2841 2.93413 12.3781 2.69896C12.4761 2.46378 12.6133 2.27955 12.7897 2.14629C12.97 2.0091 13.1777 1.94051 13.4129 1.94051C13.6481 1.94051 13.848 2.00126 14.0126 2.12277C14.1812 2.24428 14.3027 2.4285 14.3772 2.67544L15.0357 2.49317C14.9298 2.11297 14.7338 1.82488 14.4477 1.62889C14.1616 1.43291 13.8186 1.33492 13.4188 1.33492C13.0582 1.33492 12.7368 1.42703 12.4546 1.61126C12.1763 1.79156 11.9587 2.04634 11.802 2.37559C11.6452 2.70483 11.5668 3.07916 11.5668 3.49856C11.5668 3.9258 11.6432 4.30405 11.7961 4.6333C11.9529 4.96255 12.1724 5.21928 12.4546 5.4035ZM16.4956 1.41723H15.8606V5.59165H16.4956V1.41723ZM17.9913 5.4623C18.2265 5.59949 18.491 5.66808 18.785 5.66808C19.079 5.66808 19.3436 5.59949 19.5787 5.4623C19.8139 5.32511 19.9962 5.13501 20.1255 4.89199C20.2588 4.64897 20.3254 4.3746 20.3254 4.06887C20.3254 3.76706 20.2588 3.49464 20.1255 3.25162C19.9962 3.00861 19.8139 2.8185 19.5787 2.68132C19.3436 2.54413 19.079 2.47554 18.785 2.47554C18.491 2.47554 18.2265 2.54413 17.9913 2.68132C17.76 2.8185 17.5778 3.00861 17.4445 3.25162C17.3151 3.49464 17.2505 3.76706 17.2505 4.06887C17.2505 4.3746 17.3151 4.64897 17.4445 4.89199C17.5778 5.13501 17.76 5.32511 17.9913 5.4623ZM19.2554 4.96255C19.1182 5.0527 18.9614 5.09777 18.785 5.09777C18.6086 5.09777 18.4518 5.0527 18.3146 4.96255C18.1775 4.87239 18.0716 4.74893 17.9972 4.59214C17.9227 4.43535 17.8854 4.26093 17.8854 4.06887C17.8854 3.88073 17.9227 3.70826 17.9972 3.55148C18.0716 3.39469 18.1775 3.27122 18.3146 3.18107C18.4518 3.09092 18.6086 3.04584 18.785 3.04584C18.9614 3.04584 19.1182 3.09092 19.2554 3.18107C19.3965 3.27122 19.5043 3.39469 19.5787 3.55148C19.6532 3.70826 19.6904 3.88073 19.6904 4.06887C19.6904 4.26093 19.6532 4.43535 19.5787 4.59214C19.5043 4.74893 19.3965 4.87239 19.2554 4.96255ZM23.743 5.59165V2.55197H23.1081V4.28641C23.1081 4.5451 23.0434 4.74305 22.914 4.88023C22.7886 5.0135 22.6161 5.08013 22.3966 5.08013C22.1693 5.08013 21.991 5.01546 21.8616 4.88611C21.7323 4.75284 21.6676 4.55882 21.6676 4.30405V2.55197H21.0326V4.3746C21.0326 4.78224 21.1424 5.09973 21.3619 5.32707C21.5853 5.55441 21.889 5.66808 22.2732 5.66808C22.6691 5.66808 22.9591 5.53089 23.1433 5.25652V5.59165H23.743ZM27.513 5.59165V1.41723H26.878V2.88122C26.6389 2.61076 26.3273 2.47554 25.9432 2.47554C25.661 2.47554 25.4101 2.54413 25.1906 2.68132C24.975 2.81458 24.8065 3.00273 24.685 3.24574C24.5674 3.48876 24.5086 3.76314 24.5086 4.06887C24.5086 4.37852 24.5674 4.65485 24.685 4.89787C24.8065 5.14089 24.975 5.33099 25.1906 5.46818C25.4101 5.60145 25.661 5.66808 25.9432 5.66808C26.3273 5.66808 26.6389 5.53285 26.878 5.2624V5.59165H27.513ZM26.4723 4.96255C26.3391 5.0527 26.1862 5.09777 26.0137 5.09777C25.759 5.09777 25.5493 5.0037 25.3846 4.81556C25.2239 4.6235 25.1436 4.3746 25.1436 4.06887C25.1436 3.76706 25.2239 3.52208 25.3846 3.33394C25.5493 3.14187 25.759 3.04584 26.0137 3.04584C26.2803 3.04584 26.4939 3.13991 26.6546 3.32806C26.8192 3.51228 26.9015 3.75922 26.9015 4.06887C26.9015 4.26093 26.8643 4.43535 26.7898 4.59214C26.7154 4.74893 26.6095 4.87239 26.4723 4.96255ZM14.0714 13.0468C13.8558 12.937 13.6128 12.8822 13.3424 12.8822H11.8078V17.0566H12.4781V15.5162H13.3424C13.6207 15.5162 13.8656 15.4613 14.0773 15.3515C14.2929 15.2418 14.4595 15.0889 14.5771 14.8929C14.6986 14.693 14.7593 14.4637 14.7593 14.205C14.7593 13.9424 14.6986 13.7112 14.5771 13.5113C14.4556 13.3114 14.287 13.1565 14.0714 13.0468ZM13.8715 14.7166C13.7304 14.8459 13.5442 14.9106 13.313 14.9106H12.4781V13.4936H13.313C13.5442 13.4936 13.7304 13.5603 13.8715 13.6935C14.0166 13.8229 14.0891 13.9934 14.0891 14.205C14.0891 14.4167 14.0166 14.5872 13.8715 14.7166ZM18.1564 17.0566V14.0169H17.5214V15.7513C17.5214 16.01 17.4568 16.208 17.3274 16.3452C17.202 16.4784 17.0295 16.5451 16.81 16.5451C16.5827 16.5451 16.4043 16.4804 16.275 16.351C16.1456 16.2178 16.081 16.0238 16.081 15.769V14.0169H15.446V15.8395C15.446 16.2472 15.5557 16.5647 15.7752 16.792C15.9986 17.0193 16.3024 17.133 16.6865 17.133C17.0824 17.133 17.3725 16.9958 17.5567 16.7214V17.0566H18.1564ZM19.2806 16.9037C19.5354 17.0605 19.8333 17.1389 20.1743 17.1389C20.5114 17.1389 20.7897 17.0527 21.0092 16.8802C21.2287 16.7038 21.3384 16.4647 21.3384 16.1629C21.3384 15.963 21.2894 15.8023 21.1914 15.6808C21.0935 15.5593 20.968 15.4672 20.8152 15.4045C20.6623 15.3378 20.4644 15.2751 20.2213 15.2163C20.0018 15.1614 19.8451 15.1085 19.751 15.0576C19.6569 15.0027 19.6099 14.9204 19.6099 14.8106C19.6099 14.7087 19.6491 14.6244 19.7275 14.5578C19.8098 14.4912 19.9254 14.4579 20.0744 14.4579C20.2194 14.4579 20.3428 14.4931 20.4448 14.5637C20.5506 14.6342 20.627 14.7303 20.6741 14.8518L21.2385 14.6636C21.1875 14.4481 21.0601 14.2717 20.8563 14.1345C20.6525 13.9973 20.3977 13.9287 20.092 13.9287C19.8764 13.9287 19.6843 13.9699 19.5158 14.0522C19.3473 14.1306 19.216 14.2403 19.1219 14.3814C19.0317 14.5186 18.9867 14.6754 18.9867 14.8518C18.9867 15.0438 19.0376 15.2006 19.1395 15.3221C19.2453 15.4397 19.3727 15.5299 19.5217 15.5926C19.6706 15.6553 19.847 15.7102 20.0508 15.7572C20.286 15.8121 20.4565 15.8709 20.5623 15.9336C20.6682 15.9924 20.7211 16.0825 20.7211 16.2041C20.7211 16.3295 20.6701 16.4275 20.5682 16.498C20.4663 16.5686 20.337 16.6039 20.1802 16.6039C19.9646 16.6039 19.7882 16.5529 19.651 16.451C19.5178 16.3491 19.4315 16.2158 19.3923 16.0512L18.822 16.2041C18.8769 16.5137 19.0298 16.7469 19.2806 16.9037ZM24.454 14.2874C24.2384 14.0561 23.9386 13.9405 23.5544 13.9405C23.1664 13.9405 22.8783 14.0737 22.6902 14.3403V12.8822H22.0552V17.0566H22.6902V15.3339C22.6902 15.0752 22.7568 14.8773 22.8901 14.7401C23.0233 14.599 23.2017 14.5284 23.4251 14.5284C23.6485 14.5284 23.8229 14.597 23.9484 14.7342C24.0777 14.8675 24.1424 15.0654 24.1424 15.328V17.0566H24.7774V15.2516C24.7774 14.8361 24.6696 14.5147 24.454 14.2874ZM0.107666 10.8807H0.401639H8.92685H9.22082V11.1747V18.524V18.818H8.92685H0.401639H0.107666V18.524V11.1747V10.8807ZM0.695612 11.4687V18.23H8.63288V11.4687H0.695612ZM1.87158 13.2325H2.16556H7.16309H7.45707V13.5265V17.3481V17.6421H7.16309H2.16556H1.87158V17.3481V13.5265V13.2325ZM2.45953 13.8204V17.0541H6.86912V13.8204H2.45953ZM7.45703 12.0566H1.87155V12.6445H7.45703V12.0566Z" fill="#C7B6A7"/>
</svg>
