<svg width="1134" height="330" viewBox="0 0 1134 330" fill="none" xmlns="http://www.w3.org/2000/svg">
<path id="ControlOffDisabled" fill-rule="evenodd" clip-rule="evenodd" d="M0.712647 0.13089L3.36107 2.01282L0.712646 3.89475L0.712647 0.13089ZM1131.06 37.8684C1132.21 37.8684 1133.15 36.9329 1133.15 35.7789C1133.15 34.6249 1132.21 33.6894 1131.06 33.6894C1129.9 33.6894 1128.97 34.6249 1128.97 35.7789C1128.97 36.9329 1129.9 37.8684 1131.06 37.8684ZM216.28 329.143C217.434 329.143 218.369 328.207 218.369 327.053C218.369 325.899 217.434 324.964 216.28 324.964C215.126 324.964 214.19 325.899 214.19 327.053C214.19 328.207 215.126 329.143 216.28 329.143ZM271.024 329.143C272.178 329.143 273.114 328.207 273.114 327.053C273.114 325.899 272.178 324.964 271.024 324.964C269.87 324.964 268.935 325.899 268.935 327.053C268.935 328.207 269.87 329.143 271.024 329.143ZM382.603 327.053C382.603 328.207 381.668 329.143 380.514 329.143C379.36 329.143 378.424 328.207 378.424 327.053C378.424 325.899 379.36 324.964 380.514 324.964C381.668 324.964 382.603 325.899 382.603 327.053ZM1133.15 97.6278C1133.15 98.7817 1132.21 99.7172 1131.06 99.7172C1129.9 99.7172 1128.97 98.7817 1128.97 97.6278C1128.97 96.4738 1129.9 95.5383 1131.06 95.5383C1132.21 95.5383 1133.15 96.4738 1133.15 97.6278Z" fill="#FF00FF"/>
</svg>
