<svg width="986" height="11" viewBox="0 0 986 11" fill="none" xmlns="http://www.w3.org/2000/svg">
<path id="ControlContrastTransport" fill-rule="evenodd" clip-rule="evenodd" d="M882.689 0.973243H878.656V5.00595H882.689V0.973243ZM878.656 0.691162H878.374V0.973243V5.00595V5.28803H878.656H882.689H882.971V5.00595V0.973243V0.691162H882.689H878.656ZM24.2025 0.973245H1.07188V9.99983H24.2025V0.973245ZM1.07188 0.691164H0.789795V0.973245V9.99983V10.2819H1.07188H24.2025H24.4846V9.99983V0.973245V0.691164H24.2025H1.07188ZM981.459 0.973243H985.492V5.00595H981.459V0.973243ZM981.177 0.691162H981.459H985.492H985.774V0.973243V5.00595V5.28803H985.492H981.459H981.177V5.00595V0.973243V0.691162ZM882.689 5.98802H878.656V10.0207H882.689V5.98802ZM878.656 5.70594H878.374V5.98802V10.0207V10.3028H878.656H882.689H882.971V10.0207V5.98802V5.70594H882.689H878.656ZM981.459 5.98802H985.492V10.0207H981.459V5.98802ZM981.177 5.70594H981.459H985.492H985.774V5.98802V10.0207V10.3028H985.492H981.459H981.177V10.0207V5.98802V5.70594Z" fill="#978577"/>
</svg>
