<svg width="865" height="297" viewBox="0 0 865 297" fill="none" xmlns="http://www.w3.org/2000/svg">
<path id="ControlOffDisabled" fill-rule="evenodd" clip-rule="evenodd" d="M864.402 2.77885C864.402 3.93284 863.467 4.86834 862.313 4.86834C861.159 4.86834 860.223 3.93284 860.223 2.77885C860.223 1.62486 861.159 0.689362 862.313 0.689362C863.467 0.689362 864.402 1.62486 864.402 2.77885ZM2.27992 296.143C3.43391 296.143 4.3694 295.207 4.3694 294.053C4.3694 292.899 3.43391 291.964 2.27992 291.964C1.12593 291.964 0.19043 292.899 0.19043 294.053C0.19043 295.207 1.12593 296.143 2.27992 296.143ZM111.769 296.143C112.923 296.143 113.859 295.207 113.859 294.053C113.859 292.899 112.923 291.964 111.769 291.964C110.615 291.964 109.68 292.899 109.68 294.053C109.68 295.207 110.615 296.143 111.769 296.143ZM862.313 66.7172C863.467 66.7172 864.402 65.7817 864.402 64.6277C864.402 63.4737 863.467 62.5382 862.313 62.5382C861.159 62.5382 860.223 63.4737 860.223 64.6277C860.223 65.7817 861.159 66.7172 862.313 66.7172Z" fill="#FF00FF"/>
</svg>
