<svg width="1078" height="612" viewBox="0 0 1078 612" fill="none" xmlns="http://www.w3.org/2000/svg">
<path id="ControlOnForeground" fill-rule="evenodd" clip-rule="evenodd" d="M206.898 2.80953H207.453V3.55423H207.881V2.80953H208.536V3.55423H208.965V2.80953H209.515V2.34466H208.965V1.46457H209.515V1.00421H208.965V0.259521H208.536V1.00421H207.881V0.259521H207.453V1.00421H206.898V1.46457H207.453V2.34466H206.898V2.80953ZM208.536 1.46457V2.34466H207.881V1.46457H208.536ZM205.232 1.65413V6.19394H205.452C205.609 6.19394 205.755 6.18171 205.892 6.15727C206.029 6.13282 206.164 6.09126 206.296 6.03259C206.589 5.90057 206.819 5.71722 206.985 5.48253C207.151 5.24784 207.235 4.97892 207.235 4.67578C207.235 4.41664 207.173 4.21129 207.051 4.05971C206.934 3.90325 206.77 3.82502 206.56 3.82502C206.398 3.82502 206.235 3.87636 206.068 3.97904C205.971 4.03908 205.883 4.1175 205.804 4.21432V1.65413H205.232ZM205.804 4.81913V5.6754C205.814 5.67345 205.824 5.67135 205.834 5.66912C205.839 5.66807 205.844 5.66699 205.848 5.66588C205.956 5.63655 206.054 5.59254 206.142 5.53387C206.235 5.4752 206.31 5.4043 206.369 5.32118C206.438 5.24295 206.486 5.15738 206.516 5.06449C206.545 4.9667 206.56 4.86647 206.56 4.76379C206.56 4.64644 206.54 4.56332 206.501 4.51443C206.462 4.46553 206.411 4.44109 206.347 4.44109C206.24 4.44109 206.13 4.48998 206.017 4.58777C205.936 4.65473 205.865 4.73185 205.804 4.81913ZM547.8 0.926932C547.333 0.926932 546.954 1.30581 546.954 1.77317C546.954 2.24054 547.333 2.61942 547.8 2.61942C548.267 2.61942 548.646 2.24054 548.646 1.77317C548.646 1.30581 548.267 0.926932 547.8 0.926932ZM546.39 1.77317C546.39 0.99423 547.021 0.362771 547.8 0.362771C548.579 0.362771 549.21 0.99423 549.21 1.77317C549.21 2.55212 548.579 3.18358 547.8 3.18358C547.512 3.18358 547.245 3.09756 547.022 2.94987L545.592 4.38019C545.74 4.60319 545.826 4.87063 545.826 5.15816C545.826 5.93711 545.194 6.56857 544.415 6.56857C543.636 6.56857 543.005 5.93711 543.005 5.15816C543.005 4.37922 543.636 3.74776 544.415 3.74776C544.703 3.74776 544.97 3.83372 545.193 3.98132L546.623 2.55092C546.475 2.32797 546.39 2.06061 546.39 1.77317ZM544.415 4.31192C543.948 4.31192 543.569 4.6908 543.569 5.15816C543.569 5.62553 543.948 6.0044 544.415 6.0044C544.883 6.0044 545.261 5.62553 545.261 5.15816C545.261 4.6908 544.883 4.31192 544.415 4.31192ZM535.107 0.926887V3.18353H532.851V3.74769H535.107V6.00434H535.671V3.74769H537.928V3.18353H535.671V0.926887H535.107ZM417.678 3.30895V1.61646L420.499 3.59103L417.678 5.5656V3.87311H415.421V3.30895H417.678ZM421.063 3.30895H422.191V3.87311H421.063V3.30895ZM423.884 3.30895H422.756V3.87311H423.884V3.30895ZM660.591 1.76272C660.591 1.60693 660.717 1.48064 660.873 1.48064H666.515C666.671 1.48064 666.797 1.60693 666.797 1.76272V5.14769C666.797 5.30348 666.671 5.42977 666.515 5.42977H665.033V4.49039L663.129 5.71184L665.033 6.93328V5.99393H666.515C666.982 5.99393 667.361 5.61506 667.361 5.14769V1.76272C667.361 1.29536 666.982 0.916481 666.515 0.916481H660.873C660.406 0.916481 660.027 1.29536 660.027 1.76272V5.14769C660.027 5.61506 660.406 5.99393 660.873 5.99393H662.284V5.42977H660.873C660.717 5.42977 660.591 5.30348 660.591 5.14769V1.76272ZM1076.01 68.7867C1075.72 68.7867 1075.46 68.7058 1075.24 68.5441C1075.02 68.3786 1074.85 68.1398 1074.72 67.8276C1074.6 67.5155 1074.54 67.145 1074.54 66.7162C1074.54 66.2875 1074.6 65.917 1074.72 65.6048C1074.85 65.2927 1075.02 65.0557 1075.24 64.894C1075.46 64.7285 1075.72 64.6458 1076.01 64.6458C1076.3 64.6458 1076.55 64.7285 1076.78 64.894C1077 65.0557 1077.17 65.2927 1077.29 65.6048C1077.41 65.917 1077.48 66.2875 1077.48 66.7162C1077.48 67.145 1077.41 67.5155 1077.29 67.8276C1077.17 68.1398 1077 68.3786 1076.78 68.5441C1076.55 68.7058 1076.3 68.7867 1076.01 68.7867ZM1076.01 68.2225C1076.17 68.2225 1076.32 68.1643 1076.45 68.0477C1076.58 67.9273 1076.68 67.7543 1076.75 67.5286C1076.82 67.2992 1076.85 67.0284 1076.85 66.7162C1076.85 66.4003 1076.82 66.1295 1076.75 65.9038C1076.68 65.6744 1076.58 65.5014 1076.45 65.3848C1076.32 65.2682 1076.17 65.2099 1076.01 65.2099C1075.84 65.2099 1075.7 65.2682 1075.57 65.3848C1075.44 65.5014 1075.34 65.6744 1075.27 65.9038C1075.2 66.1295 1075.16 66.4003 1075.16 66.7162C1075.16 67.0284 1075.2 67.2992 1075.27 67.5286C1075.34 67.7543 1075.44 67.9273 1075.57 68.0477C1075.7 68.1643 1075.84 68.2225 1076.01 68.2225ZM1074.82 160.064C1075.05 160.225 1075.3 160.306 1075.59 160.306C1075.88 160.306 1076.14 160.225 1076.36 160.064C1076.58 159.898 1076.75 159.659 1076.87 159.347C1077 159.035 1077.06 158.664 1077.06 158.236C1077.06 157.807 1077 157.436 1076.87 157.124C1076.75 156.812 1076.58 156.575 1076.36 156.413C1076.14 156.248 1075.88 156.165 1075.59 156.165C1075.3 156.165 1075.05 156.248 1074.82 156.413C1074.6 156.575 1074.43 156.812 1074.31 157.124C1074.19 157.436 1074.12 157.807 1074.12 158.236C1074.12 158.664 1074.19 159.035 1074.31 159.347C1074.43 159.659 1074.6 159.898 1074.82 160.064ZM1076.03 159.567C1075.9 159.684 1075.76 159.742 1075.59 159.742C1075.43 159.742 1075.28 159.684 1075.15 159.567C1075.02 159.447 1074.92 159.274 1074.85 159.048C1074.78 158.819 1074.75 158.548 1074.75 158.236C1074.75 157.92 1074.78 157.649 1074.85 157.423C1074.92 157.194 1075.02 157.021 1075.15 156.904C1075.28 156.788 1075.43 156.729 1075.59 156.729C1075.76 156.729 1075.9 156.788 1076.03 156.904C1076.16 157.021 1076.26 157.194 1076.33 157.423C1076.4 157.649 1076.44 157.92 1076.44 158.236C1076.44 158.548 1076.4 158.819 1076.33 159.048C1076.26 159.274 1076.16 159.447 1076.03 159.567ZM1076.01 130.97C1075.72 130.97 1075.46 130.889 1075.24 130.727C1075.02 130.562 1074.85 130.323 1074.72 130.011C1074.6 129.699 1074.54 129.328 1074.54 128.899C1074.54 128.471 1074.6 128.1 1074.72 127.788C1074.85 127.476 1075.02 127.239 1075.24 127.077C1075.46 126.912 1075.72 126.829 1076.01 126.829C1076.3 126.829 1076.55 126.912 1076.78 127.077C1077 127.239 1077.17 127.476 1077.29 127.788C1077.41 128.1 1077.48 128.471 1077.48 128.899C1077.48 129.328 1077.41 129.699 1077.29 130.011C1077.17 130.323 1077 130.562 1076.78 130.727C1076.55 130.889 1076.3 130.97 1076.01 130.97ZM1076.01 130.406C1076.17 130.406 1076.32 130.347 1076.45 130.231C1076.58 130.11 1076.68 129.937 1076.75 129.712C1076.82 129.482 1076.85 129.212 1076.85 128.899C1076.85 128.583 1076.82 128.313 1076.75 128.087C1076.68 127.858 1076.58 127.685 1076.45 127.568C1076.32 127.451 1076.17 127.393 1076.01 127.393C1075.84 127.393 1075.7 127.451 1075.57 127.568C1075.44 127.685 1075.34 127.858 1075.27 128.087C1075.2 128.313 1075.16 128.583 1075.16 128.899C1075.16 129.212 1075.2 129.482 1075.27 129.712C1075.34 129.937 1075.44 130.11 1075.57 130.231C1075.7 130.347 1075.84 130.406 1076.01 130.406ZM33.3641 560.69H32.1083V560.074H35.313V560.69H34.0394V564.28H33.3641V560.69ZM38.2399 563.575C38.1096 563.812 37.9319 564.001 37.7068 564.143C37.4857 564.286 37.2112 564.357 36.8834 564.357C36.5793 564.357 36.3088 564.29 36.0719 564.155C35.8389 564.017 35.6572 563.826 35.5269 563.581C35.3966 563.336 35.3314 563.057 35.3314 562.745C35.3314 562.437 35.3946 562.161 35.521 561.916C35.6513 561.671 35.829 561.48 36.0541 561.341C36.2831 561.203 36.5398 561.134 36.8242 561.134C37.1164 561.134 37.3692 561.193 37.5824 561.312C37.7957 561.43 37.9576 561.598 38.0682 561.815C38.1787 562.029 38.234 562.275 38.234 562.556C38.234 562.67 38.2261 562.787 38.2103 562.905H35.9712C36.0028 563.186 36.1035 563.403 36.2733 563.557C36.4431 563.711 36.6544 563.788 36.9071 563.788C37.0927 563.788 37.2507 563.749 37.381 563.669C37.5113 563.587 37.6219 563.47 37.7127 563.32L38.2399 563.575ZM36.8242 561.673C36.5912 561.673 36.4036 561.742 36.2614 561.881C36.1193 562.019 36.0265 562.202 35.983 562.431H37.612C37.5962 562.179 37.5192 561.989 37.381 561.863C37.2467 561.736 37.0611 561.673 36.8242 561.673ZM41.5628 564.28H40.8341L40.0996 563.178L39.3532 564.28H38.6365L39.7027 562.698L38.7016 561.217H39.4184L40.0996 562.212L40.7631 561.217H41.4917L40.5024 562.698L41.5628 564.28ZM44.2419 564.12C44.0326 564.278 43.7719 564.357 43.46 564.357C43.1401 564.357 42.8814 564.274 42.684 564.108C42.4905 563.938 42.3937 563.685 42.3937 563.35V561.727H41.8073V561.217H42.3937V560.275H43.0335V561.217H44.0227V561.727H43.0335V563.237C43.0335 563.407 43.069 563.541 43.1401 563.64C43.2112 563.739 43.3375 563.788 43.5192 563.788C43.614 563.788 43.6989 563.776 43.7739 563.752C43.849 563.729 43.9299 563.691 44.0168 563.64L44.2419 564.12ZM96.9681 584.009H95.7123V583.393H98.917V584.009H97.6434V587.598H96.9681V584.009ZM101.844 586.893C101.714 587.13 101.536 587.32 101.311 587.462C101.09 587.604 100.815 587.675 100.487 587.675C100.183 587.675 99.9128 587.608 99.6759 587.474C99.4429 587.336 99.2612 587.144 99.1309 586.899C99.0006 586.655 98.9354 586.376 98.9354 586.064C98.9354 585.756 98.9986 585.48 99.125 585.235C99.2553 584.99 99.433 584.798 99.6581 584.66C99.8872 584.522 100.144 584.453 100.428 584.453C100.72 584.453 100.973 584.512 101.186 584.631C101.4 584.749 101.562 584.917 101.672 585.134C101.783 585.347 101.838 585.594 101.838 585.875C101.838 585.989 101.83 586.106 101.814 586.224H99.5752C99.6068 586.504 99.7075 586.722 99.8773 586.876C100.047 587.03 100.258 587.107 100.511 587.107C100.697 587.107 100.855 587.067 100.985 586.988C101.115 586.905 101.226 586.789 101.317 586.639L101.844 586.893ZM100.428 584.992C100.195 584.992 100.008 585.061 99.8654 585.199C99.7233 585.338 99.6305 585.521 99.587 585.75H101.216C101.2 585.497 101.123 585.308 100.985 585.182C100.851 585.055 100.665 584.992 100.428 584.992ZM105.167 587.598H104.438L103.704 586.497L102.957 587.598H102.24L103.307 586.017L102.306 584.536H103.022L103.704 585.531L104.367 584.536H105.096L104.106 586.017L105.167 587.598ZM107.846 587.438C107.637 587.596 107.376 587.675 107.064 587.675C106.744 587.675 106.485 587.592 106.288 587.427C106.094 587.257 105.998 587.004 105.998 586.668V585.045H105.411V584.536H105.998V583.594H106.637V584.536H107.627V585.045H106.637V586.556C106.637 586.726 106.673 586.86 106.744 586.959C106.815 587.057 106.942 587.107 107.123 587.107C107.218 587.107 107.303 587.095 107.378 587.071C107.453 587.047 107.534 587.01 107.621 586.959L107.846 587.438ZM95.2732 607.826H96.529V611.416H97.2043V607.826H98.4779V607.21H95.2732V607.826ZM100.872 611.279C101.097 611.137 101.275 610.948 101.405 610.711L100.878 610.456C100.787 610.606 100.676 610.723 100.546 610.805C100.416 610.884 100.258 610.924 100.072 610.924C99.8193 610.924 99.608 610.847 99.4382 610.693C99.2684 610.539 99.1677 610.322 99.1361 610.041H101.375C101.391 609.923 101.399 609.806 101.399 609.692C101.399 609.411 101.344 609.165 101.233 608.951C101.123 608.734 100.961 608.566 100.747 608.448C100.534 608.329 100.281 608.27 99.9891 608.27C99.7048 608.27 99.4481 608.339 99.219 608.477C98.9939 608.616 98.8162 608.807 98.6859 609.052C98.5595 609.297 98.4963 609.573 98.4963 609.881C98.4963 610.193 98.5615 610.472 98.6918 610.717C98.8221 610.961 99.0038 611.153 99.2368 611.291C99.4737 611.425 99.7443 611.493 100.048 611.493C100.376 611.493 100.651 611.422 100.872 611.279ZM99.4264 609.016C99.5685 608.878 99.7561 608.809 99.9891 608.809C100.226 608.809 100.412 608.872 100.546 608.999C100.684 609.125 100.761 609.315 100.777 609.567H99.1479C99.1914 609.338 99.2842 609.155 99.4264 609.016ZM103.999 611.416H104.728L103.667 609.834L104.657 608.353H103.928L103.265 609.348L102.583 608.353H101.867L102.868 609.834L101.801 611.416H102.518L103.265 610.314L103.999 611.416ZM106.625 611.493C106.937 611.493 107.198 611.414 107.407 611.256L107.182 610.776C107.167 610.784 107.153 610.792 107.139 610.8C107.123 610.809 107.107 610.817 107.091 610.825C107.038 610.852 106.987 610.873 106.939 610.888C106.864 610.912 106.779 610.924 106.684 610.924C106.502 610.924 106.376 610.875 106.305 610.776C106.234 610.677 106.198 610.543 106.198 610.373V608.862H107.188V608.353H106.198V607.411H105.559V608.353H104.972V608.862H105.559V610.486C105.559 610.821 105.655 611.074 105.849 611.244C106.046 611.41 106.305 611.493 106.625 611.493ZM1.77072 584.222H0.514893V583.606H3.71961V584.222H2.44602V587.812H1.77072V584.222ZM6.64656 587.107C6.51624 587.344 6.33853 587.533 6.11343 587.675C5.89228 587.818 5.61782 587.889 5.29004 587.889C4.98596 587.889 4.71544 587.822 4.47849 587.687C4.24549 587.549 4.06383 587.358 3.93351 587.113C3.80319 586.868 3.73803 586.589 3.73803 586.277C3.73803 585.969 3.80122 585.693 3.92759 585.448C4.05791 585.203 4.23562 585.012 4.46072 584.874C4.68977 584.735 4.94646 584.666 5.2308 584.666C5.52304 584.666 5.77578 584.725 5.98903 584.844C6.20229 584.962 6.3642 585.13 6.47478 585.347C6.58535 585.561 6.64064 585.807 6.64064 586.088C6.64064 586.202 6.63274 586.319 6.61695 586.437H4.37779C4.40938 586.718 4.51009 586.935 4.6799 587.089C4.84971 587.243 5.06099 587.32 5.31373 587.32C5.49934 587.32 5.65731 587.281 5.78763 587.202C5.91795 587.119 6.02853 587.002 6.11936 586.852L6.64656 587.107ZM5.2308 585.205C4.9978 585.205 4.81022 585.274 4.66805 585.413C4.52588 585.551 4.43308 585.734 4.38964 585.964H6.01865C6.00286 585.711 5.92585 585.521 5.78763 585.395C5.65336 585.268 5.46775 585.205 5.2308 585.205ZM9.96939 587.812H9.24077L8.50623 586.71L7.75985 587.812H7.04308L8.10935 586.23L7.10824 584.749H7.82501L8.50623 585.744L9.16969 584.749H9.8983L8.90905 586.23L9.96939 587.812ZM12.6485 587.652C12.4392 587.81 12.1786 587.889 11.8666 587.889C11.5467 587.889 11.288 587.806 11.0906 587.64C10.8971 587.47 10.8003 587.217 10.8003 586.882V585.259H10.2139V584.749H10.8003V583.807H11.4401V584.749H12.4293V585.259H11.4401V586.769C11.4401 586.939 11.4756 587.073 11.5467 587.172C11.6178 587.271 11.7442 587.32 11.9258 587.32C12.0206 587.32 12.1055 587.308 12.1805 587.284C12.2556 587.261 12.3365 587.223 12.4234 587.172L12.6485 587.652Z" fill="#2B2929"/>
</svg>
