<svg width="56" height="53" viewBox="0 0 56 53" fill="none" xmlns="http://www.w3.org/2000/svg">
<path id="ControlForeground" fill-rule="evenodd" clip-rule="evenodd" d="M7.75536 1.14267H2.61523V0.557617H8.04789H8.34042V0.850145V5.86491H7.75536V1.14267ZM1.77941 1.97845H6.91954V6.70069H7.5046V1.68592V1.39339H7.21207H1.77941V1.97845ZM6.08373 2.81426H0.943593V2.2292H6.37626H6.66879V2.52173V7.5365H6.08373V2.81426ZM0.233154 3.065H0.525682H5.54045H5.83298V3.35753V7.9544V8.24693H5.54045H0.525682H0.233154V7.9544V3.35753V3.065ZM0.818211 3.65006V7.66188H5.24792V3.65006H0.818211ZM13.4547 2.09365C13.7251 2.09365 13.9682 2.14853 14.1837 2.25828C14.3993 2.36803 14.5679 2.52285 14.6894 2.72276C14.8109 2.92266 14.8716 3.15392 14.8716 3.41653C14.8716 3.67523 14.8109 3.90453 14.6894 4.10443C14.5718 4.30041 14.4052 4.45327 14.1896 4.56302C13.978 4.67277 13.733 4.72765 13.4547 4.72765H12.5904V6.26807H11.9201V2.09365H13.4547ZM13.4253 4.12207C13.6565 4.12207 13.8427 4.05739 13.9838 3.92804C14.1289 3.7987 14.2014 3.62819 14.2014 3.41653C14.2014 3.20487 14.1289 3.03437 13.9838 2.90502C13.8427 2.77175 13.6565 2.70512 13.4253 2.70512H12.5904V4.12207H13.4253ZM16.712 3.14608C17.1118 3.14608 17.4313 3.24799 17.6704 3.45181C17.9095 3.65563 18.029 3.95352 18.029 4.34548V6.26807H17.4411V5.87414C17.3627 6.01917 17.2471 6.1348 17.0942 6.22103C16.9413 6.30726 16.7552 6.35038 16.5357 6.35038C16.3044 6.35038 16.1025 6.30922 15.9301 6.22691C15.7615 6.14068 15.6322 6.02701 15.542 5.8859C15.4519 5.74088 15.4068 5.57821 15.4068 5.39791C15.4068 5.10785 15.5166 4.88248 15.7361 4.72177C15.9556 4.55715 16.2554 4.47483 16.6356 4.47483H17.4117V4.38664C17.4117 4.16322 17.3529 3.99076 17.2353 3.86925C17.1177 3.74774 16.9413 3.68699 16.7062 3.68699C16.5298 3.68699 16.3808 3.7301 16.2593 3.81633C16.1417 3.89865 16.0516 4.00448 15.9889 4.13382L15.4186 3.93392C15.5205 3.67915 15.6871 3.48512 15.9183 3.35186C16.1535 3.21467 16.4181 3.14608 16.712 3.14608ZM16.6591 5.82123C16.8747 5.82123 17.0531 5.76635 17.1942 5.6566C17.3392 5.54293 17.4117 5.36851 17.4117 5.13333V4.94519H16.6944C16.471 4.94519 16.3024 4.98635 16.1888 5.06866C16.079 5.14705 16.0241 5.25288 16.0241 5.38615C16.0241 5.5155 16.079 5.62133 16.1888 5.70364C16.2985 5.78203 16.4553 5.82123 16.6591 5.82123ZM20.2755 6.3445C19.9776 6.3445 19.711 6.27787 19.4758 6.1446C19.2446 6.00741 19.0623 5.81731 18.9291 5.57429C18.7997 5.33127 18.735 5.05494 18.735 4.74529C18.735 4.43956 18.8017 4.16518 18.9349 3.92216C19.0721 3.67915 19.2563 3.491 19.4876 3.35774C19.7189 3.22055 19.9736 3.15196 20.2519 3.15196C20.5733 3.15196 20.8536 3.22839 21.0927 3.38125C21.3357 3.5302 21.5023 3.7595 21.5924 4.06915L20.9986 4.25141C20.8654 3.89865 20.6145 3.72226 20.2461 3.72226C20.0814 3.72226 19.9325 3.76734 19.7992 3.85749C19.6659 3.94372 19.5601 4.06523 19.4817 4.22202C19.4073 4.3788 19.37 4.55323 19.37 4.74529C19.37 5.04318 19.4543 5.29012 19.6228 5.4861C19.7914 5.67816 20.0089 5.77419 20.2755 5.77419C20.6517 5.77419 20.9281 5.56645 21.1045 5.15097L21.6748 5.34499C21.5611 5.66248 21.3886 5.90942 21.1574 6.0858C20.9261 6.25827 20.6321 6.3445 20.2755 6.3445ZM24.375 6.26807L23.3167 4.80996L22.9345 5.17449V6.26807H22.2995V2.09365H22.9345V4.47483L24.1986 3.22839H24.9688L23.7635 4.38664L25.1276 6.26807H24.375ZM26.7 6.35038C26.359 6.35038 26.0611 6.27199 25.8064 6.1152C25.5555 5.95842 25.4026 5.7252 25.3478 5.41555L25.9181 5.26268C25.9573 5.4273 26.0435 5.56057 26.1768 5.66248C26.314 5.76439 26.4903 5.81535 26.7059 5.81535C26.8627 5.81535 26.9921 5.78007 27.094 5.70952C27.1959 5.63897 27.2468 5.54097 27.2468 5.41555C27.2468 5.29404 27.1939 5.20389 27.0881 5.14509C26.9823 5.08238 26.8118 5.02358 26.5766 4.96871C26.3728 4.92167 26.1964 4.8668 26.0474 4.80408C25.8985 4.74137 25.7711 4.65122 25.6653 4.53363C25.5633 4.41212 25.5124 4.25533 25.5124 4.06327C25.5124 3.88689 25.5575 3.7301 25.6476 3.59291C25.7417 3.45181 25.873 3.34206 26.0415 3.26367C26.2101 3.18135 26.4021 3.1402 26.6177 3.1402C26.9235 3.1402 27.1782 3.20879 27.3821 3.34598C27.5859 3.48317 27.7133 3.65955 27.7642 3.87513L27.1998 4.06327C27.1528 3.94176 27.0763 3.84573 26.9705 3.77518C26.8686 3.70462 26.7451 3.66935 26.6001 3.66935C26.4511 3.66935 26.3355 3.70266 26.2532 3.7693C26.1748 3.83593 26.1356 3.9202 26.1356 4.02211C26.1356 4.13186 26.1826 4.21418 26.2767 4.26905C26.3708 4.32001 26.5276 4.37292 26.7471 4.4278C26.9901 4.48659 27.188 4.54931 27.3409 4.61594C27.4938 4.67865 27.6192 4.77077 27.7172 4.89227C27.8152 5.01378 27.8642 5.17449 27.8642 5.37439C27.8642 5.6762 27.7544 5.9153 27.5349 6.09168C27.3154 6.26415 27.0371 6.35038 26.7 6.35038ZM4.81123 33.9335C3.99945 33.9335 3.34137 34.5916 3.34137 35.4034C3.34137 36.2151 3.99945 36.8732 4.81123 36.8732C5.62302 36.8732 6.2811 36.2151 6.2811 35.4034C6.2811 34.5916 5.62302 33.9335 4.81123 33.9335ZM2.75342 35.4034C2.75342 34.2669 3.67474 33.3455 4.81123 33.3455C5.94773 33.3455 6.86904 34.2669 6.86904 35.4034C6.86904 36.5398 5.94773 37.4612 4.81123 37.4612C3.67474 37.4612 2.75342 36.5398 2.75342 35.4034ZM0.401674 39.519C0.401674 38.7072 1.05975 38.0491 1.87154 38.0491H7.75099C8.56277 38.0491 9.22086 38.7072 9.22086 39.519V40.6949V40.9889H8.92688H0.695646H0.401674V40.6949V39.519ZM1.87154 38.6371C1.38447 38.6371 0.989619 39.0319 0.989619 39.519V40.4009H8.63291V39.519C8.63291 39.0319 8.23806 38.6371 7.75099 38.6371H1.87154ZM12.5723 39.4274C12.8075 39.541 13.076 39.5979 13.3778 39.5979C13.6757 39.5979 13.9422 39.541 14.1774 39.4274C14.4126 39.3098 14.5968 39.1353 14.73 38.9041C14.8672 38.6689 14.9358 38.3828 14.9358 38.0457V35.347H14.2715V38.0163C14.2715 38.3377 14.1872 38.5807 14.0186 38.7453C13.854 38.906 13.6404 38.9864 13.3778 38.9864C13.1152 38.9864 12.8996 38.906 12.731 38.7453C12.5625 38.5807 12.4782 38.3377 12.4782 38.0163V35.347H11.808V38.0457C11.808 38.3828 11.8766 38.6689 12.0137 38.9041C12.1509 39.1353 12.3371 39.3098 12.5723 39.4274ZM16.1228 39.3686C16.3776 39.5253 16.6755 39.6037 17.0165 39.6037C17.3536 39.6037 17.6319 39.5175 17.8514 39.345C18.0709 39.1687 18.1806 38.9296 18.1806 38.6277C18.1806 38.4278 18.1317 38.2671 18.0337 38.1456C17.9357 38.0241 17.8102 37.932 17.6574 37.8693C17.5045 37.8027 17.3066 37.7399 17.0635 37.6812C16.844 37.6263 16.6873 37.5734 16.5932 37.5224C16.4991 37.4675 16.4521 37.3852 16.4521 37.2755C16.4521 37.1736 16.4913 37.0893 16.5697 37.0227C16.652 36.956 16.7676 36.9227 16.9166 36.9227C17.0616 36.9227 17.1851 36.958 17.287 37.0285C17.3928 37.0991 17.4692 37.1951 17.5163 37.3166L18.0807 37.1285C18.0297 36.9129 17.9024 36.7365 17.6985 36.5993C17.4947 36.4621 17.2399 36.3936 16.9342 36.3936C16.7186 36.3936 16.5266 36.4347 16.358 36.517C16.1895 36.5954 16.0582 36.7052 15.9641 36.8463C15.8739 36.9835 15.8289 37.1402 15.8289 37.3166C15.8289 37.5087 15.8798 37.6655 15.9817 37.787C16.0876 37.9046 16.2149 37.9947 16.3639 38.0574C16.5128 38.1202 16.6892 38.175 16.893 38.2221C17.1282 38.2769 17.2987 38.3357 17.4046 38.3984C17.5104 38.4572 17.5633 38.5474 17.5633 38.6689C17.5633 38.7943 17.5123 38.8923 17.4104 38.9629C17.3085 39.0334 17.1792 39.0687 17.0224 39.0687C16.8068 39.0687 16.6304 39.0177 16.4932 38.9158C16.36 38.8139 16.2737 38.6807 16.2345 38.516L15.6642 38.6689C15.7191 38.9786 15.872 39.2118 16.1228 39.3686ZM21.0551 39.3862C21.2786 39.2451 21.455 39.0569 21.5843 38.8218L21.061 38.569C20.9709 38.7179 20.8611 38.8335 20.7318 38.9158C20.6024 38.9942 20.4456 39.0334 20.2614 39.0334C20.0106 39.0334 19.8009 38.957 19.6323 38.8041C19.4638 38.6513 19.3638 38.4357 19.3325 38.1574H21.5549C21.5706 38.0398 21.5784 37.9242 21.5784 37.8105C21.5784 37.5322 21.5235 37.2872 21.4138 37.0756C21.304 36.86 21.1433 36.6934 20.9317 36.5758C20.72 36.4582 20.4692 36.3994 20.1791 36.3994C19.8969 36.3994 19.6421 36.468 19.4148 36.6052C19.1914 36.7424 19.015 36.9325 18.8856 37.1755C18.7602 37.4185 18.6975 37.6929 18.6975 37.9986C18.6975 38.3083 18.7622 38.5846 18.8915 38.8276C19.0209 39.0707 19.2012 39.2608 19.4324 39.398C19.6676 39.5312 19.9361 39.5979 20.2379 39.5979C20.5632 39.5979 20.8356 39.5273 21.0551 39.3862ZM19.6206 37.1402C19.7617 37.0031 19.9479 36.9345 20.1791 36.9345C20.4143 36.9345 20.5985 36.9972 20.7318 37.1226C20.869 37.248 20.9454 37.4362 20.9611 37.687H19.3442C19.3873 37.4597 19.4795 37.2774 19.6206 37.1402ZM24.1709 36.5405C24.0376 36.4739 23.8867 36.4406 23.7182 36.4406C23.3772 36.4406 23.1224 36.5758 22.9538 36.8463V36.4817H22.3424V39.5214H22.9774V37.8575C22.9774 37.5753 23.0322 37.3676 23.142 37.2343C23.2557 37.101 23.4066 37.0344 23.5947 37.0344C23.8064 37.0344 23.9827 37.1167 24.1239 37.2813L24.5178 36.8228C24.4237 36.7012 24.3081 36.6072 24.1709 36.5405ZM27.0965 35.347H26.4262V39.5214H28.7427V38.91H27.0965V35.347ZM30.0288 36.4817H29.3938V39.5214H30.0288V36.4817ZM29.4056 35.7586C29.4918 35.8409 29.5918 35.882 29.7054 35.882C29.8191 35.882 29.9171 35.8409 29.9994 35.7586C30.0856 35.6763 30.1288 35.5783 30.1288 35.4646C30.1288 35.3549 30.0856 35.2588 29.9994 35.1765C29.9171 35.0942 29.8191 35.053 29.7054 35.053C29.5918 35.053 29.4918 35.0942 29.4056 35.1765C29.3233 35.2588 29.2821 35.3549 29.2821 35.4646C29.2821 35.5783 29.3233 35.6763 29.4056 35.7586ZM33.306 36.6111C33.0904 36.4739 32.8395 36.4053 32.5534 36.4053C32.1693 36.4053 31.8577 36.5405 31.6186 36.811V35.347H30.9836V39.5214H31.6186V39.1981C31.7322 39.3274 31.8675 39.4274 32.0242 39.4979C32.1849 39.5645 32.3613 39.5979 32.5534 39.5979C32.8395 39.5979 33.0904 39.5312 33.306 39.398C33.5255 39.2608 33.694 39.0707 33.8116 38.8276C33.9331 38.5846 33.9939 38.3083 33.9939 37.9986C33.9939 37.689 33.9331 37.4146 33.8116 37.1755C33.694 36.9325 33.5255 36.7444 33.306 36.6111ZM32.9356 38.8982C32.8062 38.9844 32.6573 39.0275 32.4887 39.0275C32.3162 39.0275 32.1614 38.9825 32.0242 38.8923C31.891 38.8022 31.7851 38.6787 31.7067 38.5219C31.6323 38.3651 31.595 38.1907 31.595 37.9986C31.595 37.689 31.6773 37.4421 31.842 37.2578C32.0066 37.0697 32.2222 36.9756 32.4887 36.9756C32.6573 36.9756 32.8062 37.0187 32.9356 37.105C33.0688 37.1912 33.1727 37.3127 33.2472 37.4695C33.3216 37.6224 33.3589 37.7987 33.3589 37.9986C33.3589 38.1985 33.3216 38.3769 33.2472 38.5337C33.1727 38.6905 33.0688 38.812 32.9356 38.8982ZM36.5729 36.5405C36.4396 36.4739 36.2887 36.4406 36.1202 36.4406C35.7791 36.4406 35.5244 36.5758 35.3558 36.8463V36.4817H34.7444V39.5214H35.3793V37.8575C35.3793 37.5753 35.4342 37.3676 35.544 37.2343C35.6576 37.101 35.8085 37.0344 35.9967 37.0344C36.2083 37.0344 36.3847 37.1167 36.5258 37.2813L36.9198 36.8228C36.8257 36.7012 36.7101 36.6072 36.5729 36.5405ZM39.5487 36.7052C39.3096 36.5013 38.9902 36.3994 38.5904 36.3994C38.2964 36.3994 38.0318 36.468 37.7967 36.6052C37.5654 36.7385 37.3988 36.9325 37.2969 37.1873L37.8672 37.3872C37.9299 37.2578 38.0201 37.152 38.1377 37.0697C38.2592 36.9835 38.4081 36.9403 38.5845 36.9403C38.8197 36.9403 38.9961 37.0011 39.1137 37.1226C39.2313 37.2441 39.2901 37.4166 39.2901 37.64V37.7282H38.514C38.1338 37.7282 37.8339 37.8105 37.6144 37.9751C37.3949 38.1358 37.2852 38.3612 37.2852 38.6513C37.2852 38.8316 37.3302 38.9942 37.4204 39.1393C37.5105 39.2804 37.6399 39.394 37.8084 39.4803C37.9809 39.5626 38.1828 39.6037 38.414 39.6037C38.6335 39.6037 38.8197 39.5606 38.9726 39.4744C39.1254 39.3882 39.2411 39.2725 39.3194 39.1275V39.5214H39.9074V37.5988C39.9074 37.2069 39.7878 36.909 39.5487 36.7052ZM39.0725 38.91C38.9314 39.0197 38.7531 39.0746 38.5375 39.0746C38.3337 39.0746 38.1769 39.0354 38.0671 38.957C37.9574 38.8747 37.9025 38.7689 37.9025 38.6395C37.9025 38.5062 37.9574 38.4004 38.0671 38.322C38.1808 38.2397 38.3493 38.1985 38.5728 38.1985H39.2901V38.3867C39.2901 38.6219 39.2175 38.7963 39.0725 38.91ZM42.6418 36.5405C42.5085 36.4739 42.3576 36.4406 42.1891 36.4406C41.8481 36.4406 41.5933 36.5758 41.4248 36.8463V36.4817H40.8133V39.5214H41.4483V37.8575C41.4483 37.5753 41.5031 37.3676 41.6129 37.2343C41.7266 37.101 41.8775 37.0344 42.0656 37.0344C42.2773 37.0344 42.4537 37.1167 42.5948 37.2813L42.9887 36.8228C42.8946 36.7012 42.779 36.6072 42.6418 36.5405ZM44.9414 39.592L46.0879 36.4817H45.4412L44.6709 38.5807L43.8067 36.4817H43.1305L44.3711 39.4038L44.3476 39.4685C44.277 39.6606 44.1888 39.8017 44.083 39.8918C43.9811 39.982 43.8478 40.0271 43.6832 40.0271C43.5813 40.0271 43.4833 40.0114 43.3892 39.98C43.2952 39.9526 43.2168 39.9173 43.154 39.8742L42.913 40.4092C43.0031 40.4641 43.1168 40.5092 43.254 40.5444C43.3951 40.5836 43.546 40.6032 43.7067 40.6032C44.0164 40.6032 44.2672 40.5229 44.4593 40.3622C44.6553 40.2015 44.816 39.9447 44.9414 39.592ZM0.989691 45.1044H3.92942V45.6924H0.989691V45.1044ZM0.401746 45.6924V45.1044V44.5165H0.989691H3.92942H4.51736V45.1044V45.6924H8.33894H8.92688V46.2803V51.5718V52.1598H8.33894H0.989619H0.401674V51.5718V46.2803V45.6924H0.401746ZM0.989619 46.2803V51.5718H8.33894V46.2803H4.51736L3.92942 46.2803H0.989691H0.989619ZM5.10533 48.0442H3.3415V48.6321H5.10533V48.0442ZM3.3415 49.2201H5.10533V49.808H3.3415V49.2201ZM7.45714 50.396H5.6933V50.9839H7.45714V50.396ZM5.6933 48.0442H7.45714V48.6321H5.6933V48.0442ZM12.1759 49.8119C12.4581 49.9922 12.7854 50.0823 13.1578 50.0823C13.5889 50.0823 13.9515 49.9647 14.2455 49.7295C14.5434 49.4904 14.757 49.1377 14.8863 48.6712L14.2396 48.4772C14.1573 48.7869 14.0279 49.0318 13.8515 49.2122C13.6752 49.3885 13.4478 49.4767 13.1695 49.4767C12.9304 49.4767 12.7188 49.4101 12.5345 49.2768C12.3503 49.1436 12.2072 48.9574 12.1053 48.7183C12.0073 48.4792 11.9584 48.2087 11.9584 47.9069C11.9584 47.609 12.0054 47.3425 12.0995 47.1073C12.1974 46.8721 12.3346 46.6879 12.511 46.5546C12.6913 46.4174 12.8991 46.3489 13.1342 46.3489C13.3694 46.3489 13.5693 46.4096 13.7339 46.5311C13.9025 46.6526 14.024 46.8369 14.0985 47.0838L14.757 46.9015C14.6511 46.5213 14.4552 46.2332 14.169 46.0372C13.8829 45.8413 13.5399 45.7433 13.1401 45.7433C12.7795 45.7433 12.4581 45.8354 12.1759 46.0196C11.8976 46.1999 11.6801 46.4547 11.5233 46.7839C11.3665 47.1132 11.2881 47.4875 11.2881 47.9069C11.2881 48.3342 11.3645 48.7124 11.5174 49.0416C11.6742 49.3709 11.8937 49.6276 12.1759 49.8119ZM18.2394 50V46.9603H17.6045V48.6948C17.6045 48.9535 17.5398 49.1514 17.4104 49.2886C17.285 49.4219 17.1126 49.4885 16.8931 49.4885C16.6657 49.4885 16.4874 49.4238 16.358 49.2945C16.2287 49.1612 16.164 48.9672 16.164 48.7124V46.9603H15.529V48.783C15.529 49.1906 15.6388 49.5081 15.8583 49.7354C16.0817 49.9628 16.3855 50.0764 16.7696 50.0764C17.1655 50.0764 17.4555 49.9392 17.6397 49.6649V50H18.2394ZM21.004 47.0191C20.8708 46.9525 20.7199 46.9192 20.5513 46.9192C20.2103 46.9192 19.9555 47.0544 19.787 47.3248V46.9603H19.1755V50H19.8105V48.3361C19.8105 48.0539 19.8654 47.8462 19.9751 47.7129C20.0888 47.5796 20.2397 47.513 20.4278 47.513C20.6395 47.513 20.8159 47.5953 20.957 47.7599L21.3509 47.3013C21.2568 47.1798 21.1412 47.0858 21.004 47.0191ZM23.6682 47.0191C23.5349 46.9525 23.384 46.9192 23.2154 46.9192C22.8744 46.9192 22.6197 47.0544 22.4511 47.3248V46.9603H21.8396V50H22.4746V48.3361C22.4746 48.0539 22.5295 47.8462 22.6393 47.7129C22.7529 47.5796 22.9038 47.513 23.092 47.513C23.3036 47.513 23.48 47.5953 23.6211 47.7599L24.015 47.3013C23.921 47.1798 23.8053 47.0858 23.6682 47.0191ZM26.5697 49.8648C26.7931 49.7237 26.9695 49.5355 27.0988 49.3003L26.5755 49.0475C26.4854 49.1965 26.3756 49.3121 26.2463 49.3944C26.117 49.4728 25.9602 49.512 25.7759 49.512C25.5251 49.512 25.3154 49.4356 25.1468 49.2827C24.9783 49.1298 24.8783 48.9143 24.847 48.636H27.0694C27.0851 48.5184 27.0929 48.4027 27.0929 48.2891C27.0929 48.0108 27.0381 47.7658 26.9283 47.5541C26.8186 47.3386 26.6579 47.172 26.4462 47.0544C26.2345 46.9368 25.9837 46.878 25.6936 46.878C25.4114 46.878 25.1566 46.9466 24.9293 47.0838C24.7059 47.221 24.5295 47.4111 24.4002 47.6541C24.2747 47.8971 24.212 48.1715 24.212 48.4772C24.212 48.7869 24.2767 49.0632 24.406 49.3062C24.5354 49.5492 24.7157 49.7393 24.9469 49.8765C25.1821 50.0098 25.4506 50.0764 25.7524 50.0764C26.0778 50.0764 26.3502 50.0059 26.5697 49.8648ZM25.1351 47.6188C25.2762 47.4816 25.4624 47.413 25.6936 47.413C25.9288 47.413 26.113 47.4758 26.2463 47.6012C26.3835 47.7266 26.4599 47.9148 26.4756 48.1656H24.8587C24.9019 47.9383 24.994 47.756 25.1351 47.6188ZM30.2498 47.2249C30.0343 46.9976 29.7364 46.8839 29.3562 46.8839C28.9524 46.8839 28.6565 47.0289 28.4684 47.319V46.9603H27.8569V50H28.4919V48.2891C28.4919 48.0265 28.5585 47.8246 28.6918 47.6835C28.8251 47.5424 29.0034 47.4718 29.2268 47.4718C29.4502 47.4718 29.6247 47.5404 29.7501 47.6776C29.8794 47.8109 29.9441 48.0088 29.9441 48.2714V50H30.5791V48.1832C30.5791 47.7717 30.4693 47.4522 30.2498 47.2249ZM32.7162 50.0764C33.0259 50.0764 33.2846 49.998 33.4923 49.8413L33.2689 49.365C33.1827 49.416 33.1023 49.4532 33.0278 49.4767C32.9534 49.5002 32.8691 49.512 32.775 49.512C32.5947 49.512 32.4693 49.463 32.3987 49.365C32.3282 49.267 32.2929 49.1338 32.2929 48.9652V47.466H33.2748V46.9603H32.2929V46.0255H31.6579V46.9603H31.0759V47.466H31.6579V49.0769C31.6579 49.4101 31.754 49.6609 31.946 49.8295C32.142 49.9941 32.3987 50.0764 32.7162 50.0764ZM37.7354 45.9902C37.5199 45.8805 37.2768 45.8256 37.0064 45.8256H35.4719V50H36.1421V48.4596H37.0064C37.2847 48.4596 37.5297 48.4047 37.7413 48.295C37.9569 48.1852 38.1235 48.0323 38.2411 47.8364C38.3626 47.6365 38.4233 47.4072 38.4233 47.1485C38.4233 46.8858 38.3626 46.6546 38.2411 46.4547C38.1196 46.2548 37.951 46.1 37.7354 45.9902ZM37.5355 47.66C37.3944 47.7893 37.2083 47.854 36.977 47.854H36.1421V46.437H36.977C37.2083 46.437 37.3944 46.5037 37.5355 46.637C37.6806 46.7663 37.7531 46.9368 37.7531 47.1485C37.7531 47.3601 37.6806 47.5306 37.5355 47.66ZM40.962 47.0191C40.8288 46.9525 40.6779 46.9192 40.5093 46.9192C40.1683 46.9192 39.9135 47.0544 39.745 47.3248V46.9603H39.1335V50H39.7685V48.3361C39.7685 48.0539 39.8234 47.8462 39.9331 47.7129C40.0468 47.5796 40.1977 47.513 40.3858 47.513C40.5975 47.513 40.7739 47.5953 40.915 47.7599L41.3089 47.3013C41.2148 47.1798 41.0992 47.0858 40.962 47.0191ZM42.2467 49.8707C42.4819 50.0078 42.7464 50.0764 43.0404 50.0764C43.3344 50.0764 43.599 50.0078 43.8341 49.8707C44.0693 49.7335 44.2516 49.5434 44.3809 49.3003C44.5142 49.0573 44.5808 48.783 44.5808 48.4772C44.5808 48.1754 44.5142 47.903 44.3809 47.66C44.2516 47.417 44.0693 47.2269 43.8341 47.0897C43.599 46.9525 43.3344 46.8839 43.0404 46.8839C42.7464 46.8839 42.4819 46.9525 42.2467 47.0897C42.0154 47.2269 41.8332 47.417 41.6999 47.66C41.5705 47.903 41.5059 48.1754 41.5059 48.4772C41.5059 48.783 41.5705 49.0573 41.6999 49.3003C41.8332 49.5434 42.0154 49.7335 42.2467 49.8707ZM43.5108 49.3709C43.3736 49.461 43.2168 49.5061 43.0404 49.5061C42.864 49.5061 42.7072 49.461 42.5701 49.3709C42.4329 49.2807 42.327 49.1573 42.2526 49.0005C42.1781 48.8437 42.1409 48.6693 42.1409 48.4772C42.1409 48.2891 42.1781 48.1166 42.2526 47.9598C42.327 47.803 42.4329 47.6796 42.5701 47.5894C42.7072 47.4993 42.864 47.4542 43.0404 47.4542C43.2168 47.4542 43.3736 47.4993 43.5108 47.5894C43.6519 47.6796 43.7597 47.803 43.8341 47.9598C43.9086 48.1166 43.9458 48.2891 43.9458 48.4772C43.9458 48.6693 43.9086 48.8437 43.8341 49.0005C43.7597 49.1573 43.6519 49.2807 43.5108 49.3709ZM44.2885 50.9877C44.4453 51.0465 44.6217 51.0759 44.8177 51.0759C45.1783 51.0759 45.4605 50.974 45.6643 50.7702C45.872 50.5703 45.9759 50.3018 45.9759 49.9647V46.9603H45.3409V49.8824C45.3409 50.1019 45.2939 50.2607 45.1998 50.3586C45.1097 50.4606 44.9744 50.5115 44.7941 50.5115C44.6883 50.5115 44.5864 50.4919 44.4884 50.4527C44.3865 50.4174 44.3042 50.3724 44.2415 50.3175L43.9005 50.7643C43.9985 50.8545 44.1278 50.929 44.2885 50.9877ZM45.3586 46.2371C45.4448 46.3195 45.5448 46.3606 45.6584 46.3606C45.7721 46.3606 45.8701 46.3195 45.9524 46.2371C46.0386 46.1548 46.0817 46.0568 46.0817 45.9432C46.0817 45.8334 46.0386 45.7374 45.9524 45.6551C45.8701 45.5728 45.7721 45.5316 45.6584 45.5316C45.5448 45.5316 45.4448 45.5728 45.3586 45.6551C45.2763 45.7374 45.2351 45.8334 45.2351 45.9432C45.2351 46.0568 45.2763 46.1548 45.3586 46.2371ZM49.0884 49.8648C49.3119 49.7237 49.4882 49.5355 49.6176 49.3003L49.0943 49.0475C49.0042 49.1965 48.8944 49.3121 48.7651 49.3944C48.6357 49.4728 48.4789 49.512 48.2947 49.512C48.0439 49.512 47.8342 49.4356 47.6656 49.2827C47.4971 49.1298 47.3971 48.9143 47.3658 48.636H49.5882C49.6039 48.5184 49.6117 48.4027 49.6117 48.2891C49.6117 48.0108 49.5568 47.7658 49.4471 47.5541C49.3373 47.3386 49.1766 47.172 48.965 47.0544C48.7533 46.9368 48.5025 46.878 48.2124 46.878C47.9302 46.878 47.6754 46.9466 47.4481 47.0838C47.2247 47.221 47.0483 47.4111 46.9189 47.6541C46.7935 47.8971 46.7308 48.1715 46.7308 48.4772C46.7308 48.7869 46.7955 49.0632 46.9248 49.3062C47.0541 49.5492 47.2345 49.7393 47.4657 49.8765C47.7009 50.0098 47.9694 50.0764 48.2712 50.0764C48.5965 50.0764 48.8689 50.0059 49.0884 49.8648ZM47.6539 47.6188C47.795 47.4816 47.9811 47.413 48.2124 47.413C48.4476 47.413 48.6318 47.4758 48.7651 47.6012C48.9023 47.7266 48.9787 47.9148 48.9944 48.1656H47.3775C47.4206 47.9383 47.5127 47.756 47.6539 47.6188ZM50.9166 49.8765C51.1518 50.0098 51.4183 50.0764 51.7162 50.0764C52.0729 50.0764 52.3669 49.9902 52.5981 49.8177C52.8294 49.6414 53.0018 49.3944 53.1155 49.0769L52.5452 48.8829C52.3688 49.2984 52.0925 49.5061 51.7162 49.5061C51.4497 49.5061 51.2321 49.4101 51.0636 49.218C50.895 49.022 50.8108 48.7751 50.8108 48.4772C50.8108 48.2852 50.848 48.1107 50.9225 47.9539C51.0009 47.7972 51.1067 47.6757 51.24 47.5894C51.3732 47.4993 51.5222 47.4542 51.6868 47.4542C52.0552 47.4542 52.3061 47.6306 52.4394 47.9833L53.0332 47.8011C52.943 47.4914 52.7765 47.2621 52.5334 47.1132C52.2943 46.9603 52.0141 46.8839 51.6927 46.8839C51.4144 46.8839 51.1596 46.9525 50.9283 47.0897C50.6971 47.2229 50.5129 47.4111 50.3757 47.6541C50.2424 47.8971 50.1758 48.1715 50.1758 48.4772C50.1758 48.7869 50.2404 49.0632 50.3698 49.3062C50.5031 49.5492 50.6853 49.7393 50.9166 49.8765ZM55.0513 50.0764C55.3609 50.0764 55.6196 49.998 55.8274 49.8413L55.6039 49.365C55.5177 49.416 55.4374 49.4532 55.3629 49.4767C55.2884 49.5002 55.2041 49.512 55.1101 49.512C54.9298 49.512 54.8043 49.463 54.7338 49.365C54.6632 49.267 54.6279 49.1338 54.6279 48.9652V47.466H55.6098V46.9603H54.6279V46.0255H53.993V46.9603H53.4109V47.466H53.993V49.0769C53.993 49.4101 54.089 49.6609 54.2811 49.8295C54.477 49.9941 54.7338 50.0764 55.0513 50.0764Z" fill="black"/>
</svg>
