<svg width="292" height="91" viewBox="0 0 292 91" fill="none" xmlns="http://www.w3.org/2000/svg">
<path id="DimmedWaveformColor" fill-rule="evenodd" clip-rule="evenodd" d="M0.742854 1.70507V4.36359L0.951788 4.3058L1.36969 4.88375L1.99653 4.3058L2.41443 4.65257L2.83233 4.3058L3.45917 5.69287L4.50392 5.57728L5.75761 5.69287L7.0113 5.57728L8.26499 5.69287L9.30974 5.57728L10.3545 5.69287L10.9813 5.3461L11.6082 5.46169L12.235 5.11492L13.2798 4.88375L14.1156 4.65257L15.3692 5.46169L16.414 4.53698L17.6677 4.88375L18.7124 4.19021L19.1303 4.65257L19.9661 4.07463L20.593 4.42139L21.4288 4.07463L22.2646 4.19021L23.1004 3.61227L24.1451 3.72786L24.354 3.2655L25.1898 3.61227L25.6077 3.2655H26.8614H29.1599H31.2494H32.9209H33.9657H35.0104H36.4731L37.3089 4.65257H38.1447L38.3536 5.3461L39.1894 5.23051L40.2341 5.46169L41.2789 5.23051L42.3236 5.46169L42.7415 4.65257L43.5773 5.23051L43.9952 4.65257L44.831 5.23051L45.04 4.65257H46.2937L46.9205 5.23051L47.3384 4.65257H48.5921L49.2189 5.23051L49.8458 4.65257L50.6816 4.88375L51.5174 4.53698L52.1442 4.65257L52.7711 4.53698L53.3979 4.88375L54.2337 4.65257L54.8606 5.46169L55.2785 5.23051L55.9053 5.46169L56.7411 5.23051L57.3679 5.46169L57.9948 5.23051L58.6216 5.46169L59.4574 5.11492L60.0843 5.46169L60.5022 5.23051L60.9201 5.46169L61.5469 5.11492L61.9648 5.3461L62.3827 5.11492L63.2185 5.3461L63.6364 4.88375H64.2633L64.6811 4.42139L65.5169 5.23051L66.3527 4.53698L67.3975 5.23051L68.2333 4.53698L69.0691 4.65257L69.9049 4.3058L70.3228 4.42139L70.7407 4.3058L71.1586 4.88375L71.5765 4.3058L71.9944 4.42139L72.6212 4.3058L73.0391 4.88375L73.8749 4.3058L74.2928 4.42139L74.7107 4.07463L75.3375 4.3058L75.9644 3.95904H78.6807L78.8897 4.3058L79.7255 3.95904L80.1434 4.3058L80.5613 3.95904L81.1881 4.65257L82.0239 3.95904L82.6508 4.47919V1.58945L82.0239 2.10962L81.1881 1.41609L80.5612 2.10962L80.1433 1.76286L79.7254 2.10962L78.8896 1.76286L78.6807 2.10962H75.9644L75.3375 1.76286L74.7107 1.99403L74.2928 1.64727L73.8749 1.76286L73.0391 1.18491L72.6212 1.76286L71.9943 1.64727L71.5764 1.76286L71.1585 1.18491L70.7406 1.76286L70.3227 1.64727L69.9048 1.76286L69.0691 1.41609L68.2333 1.53168L67.3975 0.838148L66.3527 1.53168L65.5169 0.838148L64.6811 1.64727L64.2632 1.18491H63.6364L63.2185 0.722559L62.3827 0.953737L61.9648 0.722559L61.5469 0.953737L60.9201 0.606971L60.5022 0.838148L60.0843 0.606971L59.4574 0.953737L58.6216 0.606971L57.9948 0.838148L57.3679 0.606971L56.7411 0.838148L55.9053 0.606971L55.2784 0.838148L54.8605 0.606971L54.2337 1.41609L53.3979 1.18491L52.7711 1.53168L52.1442 1.41609L51.5174 1.53168L50.6816 1.18491L49.8458 1.41609L49.2189 0.838148L48.5921 1.41609H47.3384L46.9205 0.838148L46.2936 1.41609H45.0399L44.831 0.838148L43.9952 1.41609L43.5773 0.838148L42.7415 1.41609L42.3236 0.606971L41.2789 0.838148L40.2341 0.606971L39.1894 0.838148L38.3536 0.722559L38.1446 1.41609H37.3088L36.4731 2.80315H35.0104H33.9657H32.9209H31.2493H29.1598H26.8614H25.6077L25.1898 2.45639L24.354 2.80315L24.1451 2.3408L23.1003 2.45639L22.2645 1.87845L21.4287 1.99403L20.5929 1.64727L19.9661 1.99403L19.1303 1.41609L18.7124 1.87845L17.6677 1.18491L16.414 1.53168L15.3692 0.606971L14.1155 1.41609L13.2797 1.18491L12.235 0.953737L11.6082 0.606971L10.9813 0.722559L10.3545 0.375793L9.30972 0.491382L8.26497 0.375793L7.01128 0.491382L5.75759 0.375793L4.5039 0.491382L3.45915 0.375793L2.83231 1.76286L2.41441 1.41609L1.99651 1.76286L1.36967 1.18491L0.951768 1.76286L0.742854 1.70507ZM0.742854 7.19551V9.96963L1.16074 9.85404L1.57864 10.432L2.20548 9.85404L2.62338 10.2008L3.04128 9.85404L3.47928 10.8232H12.1546L12.444 10.6632L13.4887 10.432L14.3245 10.2008L15.2889 10.8232H15.7891L16.6229 10.0852L17.8766 10.432L18.9214 9.73845L19.3393 10.2008L20.1751 9.62286L20.8019 9.96963L21.6377 9.62286L22.4735 9.73845L23.3093 9.16051L24.354 9.2761L24.563 8.81374L25.3988 9.16051L25.8167 8.81374H27.0704H29.3688H31.4583H33.1299H34.1746H35.2194H36.682L37.5178 10.2008H38.3536L38.5411 10.8232H39.0767L39.3984 10.7787L39.5994 10.8232H41.2868L41.4878 10.7787L41.6889 10.8232H42.629L42.9505 10.2008L43.7863 10.7787L44.2042 10.2008L45.04 10.7787L45.2489 10.2008H46.5026L47.1295 10.7787L47.5474 10.2008H48.801L49.4279 10.7787L50.0547 10.2008L50.8905 10.432L51.7263 10.0852L52.3532 10.2008L52.98 10.0852L53.6069 10.432L54.4427 10.2008L54.9249 10.8232H55.407L55.4874 10.7787L55.608 10.8232H56.7892L56.95 10.7787L57.0707 10.8232H58.0831L58.2037 10.7787L58.3243 10.8232H59.2806L59.6664 10.6632L59.9557 10.8232H60.6307L60.7111 10.7787L60.7915 10.8232H61.4665L61.7559 10.6632L62.0452 10.8232H62.3023L62.5917 10.6632L63.1704 10.8232H63.4917L63.8454 10.432H64.4722L64.8901 9.96963L65.7259 10.7787L66.5617 10.0852L67.6064 10.7787L68.4422 10.0852L69.278 10.2008L70.1138 9.85404L70.5317 9.96963L70.9496 9.85404L71.3675 10.432L71.7854 9.85404L72.2033 9.96963L72.8302 9.85404L73.2481 10.432L74.0839 9.85404L74.5017 9.96963L74.9196 9.62286L75.5465 9.85404L76.1733 9.50727H78.8897L79.0986 9.85404L79.9344 9.50727L80.3523 9.85404L80.7702 9.50727L81.3971 10.2008L82.2328 9.50727L82.6508 9.85405V7.3111L82.2329 7.65786L81.3971 6.96433L80.7702 7.65786L80.3523 7.3111L79.9344 7.65786L79.0986 7.3111L78.8897 7.65786H76.1734L75.5465 7.3111L74.9197 7.54227L74.5018 7.19551L74.0839 7.3111L73.2481 6.73315L72.8302 7.3111L72.2033 7.19551L71.7854 7.3111L71.3675 6.73315L70.9496 7.3111L70.5317 7.19551L70.1138 7.3111L69.278 6.96433L68.4422 7.07992L67.6064 6.38639L66.5617 7.07992L65.7259 6.38639L64.8901 7.19551L64.4722 6.73315H63.8454L63.4275 6.2708L62.5917 6.50198L62.1738 6.2708L61.7559 6.50198L61.129 6.15521L60.7111 6.38639L60.2932 6.15521L59.6664 6.50198L58.8306 6.15521L58.2038 6.38639L57.5769 6.15521L56.9501 6.38639L56.1143 6.15521L55.4874 6.38639L55.0695 6.15521L54.4427 6.96433L53.6069 6.73315L52.98 7.07992L52.3532 6.96433L51.7263 7.07992L50.8905 6.73315L50.0548 6.96433L49.4279 6.38639L48.8011 6.96433H47.5474L47.1295 6.38639L46.5026 6.96433H45.2489L45.04 6.38639L44.2042 6.96433L43.7863 6.38639L42.9505 6.96433L42.5326 6.15521L41.4879 6.38639L40.4431 6.15521L39.3984 6.38639L38.5626 6.2708L38.3536 6.96433H37.5178L36.682 8.35139H35.2194H34.1747H33.1299H31.4583H29.3688H27.0704H25.8167L25.3988 8.00463L24.563 8.35139L24.3541 7.88904L23.3093 8.00463L22.4735 7.42669L21.6377 7.54227L20.8019 7.19551L20.1751 7.54227L19.3393 6.96433L18.9214 7.42669L17.8767 6.73315L16.623 7.07992L15.5782 6.15521L14.3245 6.96433L13.4887 6.73315L12.444 6.50198L11.8171 6.15521L11.1903 6.2708L10.5634 5.92403L9.5187 6.03962L8.47396 5.92403L7.22027 6.03962L5.96657 5.92403L4.71288 6.03962L3.66814 5.92403L3.04129 7.3111L2.62339 6.96433L2.2055 7.3111L1.57865 6.73315L1.16075 7.3111L0.742855 7.19551L0.742854 7.19551ZM0.742854 63.8695V65.0966V66.3236L0.951788 66.2702L1.36969 66.8037L1.99653 66.2702L2.41443 66.5903L2.83233 66.2702L3.45917 67.5506L4.50392 67.4439L5.75761 67.5506L7.0113 67.4439L8.26499 67.5506L9.30974 67.4439L10.3545 67.5506L10.9813 67.2305L11.6082 67.3372L12.235 67.0171L13.2798 66.8037L14.1156 66.5903L15.3692 67.3372L16.414 66.4836L17.6677 66.8037L18.7124 66.1635L19.1303 66.5903L19.9661 66.0568L20.593 66.3769L21.4288 66.0568L22.2646 66.1635L23.1004 65.63L24.1451 65.7367L24.354 65.31L25.1898 65.63L25.6077 65.31H26.8614H29.1599H31.2494H32.9209H33.9657H35.0104H36.4731L37.3089 66.5903H38.1447L38.3536 67.2305L39.1894 67.1238L40.2341 67.3372L41.2789 67.1238L42.3236 67.3372L42.7415 66.5903L43.5773 67.1238L43.9952 66.5903L44.831 67.1238L45.04 66.5903H46.2937L46.9205 67.1238L47.3384 66.5903H48.5921L49.2189 67.1238L49.8458 66.5903L50.6816 66.8037L51.5174 66.4836L52.1442 66.5903L52.7711 66.4836L53.3979 66.8037L54.2337 66.5903L54.8606 67.3372L55.2785 67.1238L55.9053 67.3372L56.7411 67.1238L57.3679 67.3372L57.9948 67.1238L58.6216 67.3372L59.4574 67.0171L60.0843 67.3372L60.5022 67.1238L60.9201 67.3372L61.5469 67.0171L61.9648 67.2305L62.3827 67.0171L63.2185 67.2305L63.6364 66.8037H64.2633L64.6811 66.3769L65.5169 67.1238L66.3527 66.4836L67.3975 67.1238L68.2333 66.4836L69.0691 66.5903L69.9049 66.2702L70.3228 66.3769L70.7407 66.2702L71.1586 66.8037L71.5765 66.2702L71.9944 66.3769L72.6212 66.2702L73.0391 66.8037L73.8749 66.2702L74.2928 66.3769L74.7107 66.0568L75.3375 66.2702L75.9644 65.9501H78.6807L78.8897 66.2702L79.7255 65.9501L80.1434 66.2702L80.5613 65.9501L81.1881 66.5903L82.0239 65.9501L82.6508 66.4303V65.0966V63.7628L82.0239 64.243L81.1881 63.6028L80.5612 64.243L80.1433 63.9229L79.7254 64.243L78.8896 63.9229L78.6807 64.243H75.9644L75.3375 63.9229L74.7107 64.1363L74.2928 63.8162L73.8749 63.9229L73.0391 63.3894L72.6212 63.9229L71.9943 63.8162L71.5764 63.9229L71.1585 63.3894L70.7406 63.9229L70.3227 63.8162L69.9048 63.9229L69.0691 63.6028L68.2333 63.7095L67.3975 63.0693L66.3527 63.7095L65.5169 63.0693L64.6811 63.8162L64.2632 63.3894H63.6364L63.2185 62.9626L62.3827 63.176L61.9648 62.9626L61.5469 63.176L60.9201 62.8559L60.5022 63.0693L60.0843 62.8559L59.4574 63.176L58.6216 62.8559L57.9948 63.0693L57.3679 62.8559L56.7411 63.0693L55.9053 62.8559L55.2784 63.0693L54.8605 62.8559L54.2337 63.6028L53.3979 63.3894L52.7711 63.7095L52.1442 63.6028L51.5174 63.7095L50.6816 63.3894L49.8458 63.6028L49.2189 63.0693L48.5921 63.6028H47.3384L46.9205 63.0693L46.2936 63.6028H45.0399L44.831 63.0693L43.9952 63.6028L43.5773 63.0693L42.7415 63.6028L42.3236 62.8559L41.2789 63.0693L40.2341 62.8559L39.1894 63.0693L38.3536 62.9626L38.1446 63.6028H37.3088L36.4731 64.8832H35.0104H33.9657H32.9209H31.2493H29.1598H26.8614H25.6077L25.1898 64.5631L24.354 64.8832L24.1451 64.4564L23.1003 64.5631L22.2645 64.0296L21.4287 64.1363L20.5929 63.8162L19.9661 64.1363L19.1303 63.6028L18.7124 64.0296L17.6677 63.3894L16.414 63.7095L15.3692 62.8559L14.1155 63.6028L13.2797 63.3894L12.235 63.176L11.6082 62.8559L10.9813 62.9626L10.3545 62.6425L9.30972 62.7492L8.26497 62.6425L7.01128 62.7492L5.75759 62.6425L4.5039 62.7492L3.45915 62.6425L2.83231 63.9229L2.41441 63.6028L1.99651 63.9229L1.36967 63.3894L0.951768 63.9229L0.742854 63.8695ZM0.742854 68.9377V71.4984L1.16074 71.3917L1.57864 71.9252L2.20548 71.3917L2.62338 71.7118L3.04128 71.3917L3.66812 72.672L4.71287 72.5654L5.96656 72.672L7.22025 72.5654L8.47395 72.672L9.51869 72.5654L10.5634 72.672L11.1903 72.352L11.8171 72.4587L12.444 72.1386L13.4887 71.9252L14.3245 71.7118L15.5782 72.4587L16.6229 71.6051L17.8766 71.9252L18.9214 71.285L19.3393 71.7118L20.1751 71.1783L20.8019 71.4984L21.6377 71.1783L22.4735 71.285L23.3093 70.7515L24.354 70.8582L24.563 70.4314L25.3988 70.7515L25.8167 70.4314H27.0704H29.3688H31.4583H33.1299H34.1746H35.2194H36.682L37.5178 71.7118H38.3536L38.5626 72.352L39.3984 72.2453L40.4431 72.4587L41.4878 72.2453L42.5326 72.4587L42.9505 71.7118L43.7863 72.2453L44.2042 71.7118L45.04 72.2453L45.2489 71.7118H46.5026L47.1295 72.2453L47.5474 71.7118H48.801L49.4279 72.2453L50.0547 71.7118L50.8905 71.9252L51.7263 71.6051L52.3532 71.7118L52.98 71.6051L53.6069 71.9252L54.4427 71.7118L55.0695 72.4587L55.4874 72.2453L56.1143 72.4587L56.95 72.2453L57.5769 72.4587L58.2037 72.2453L58.8306 72.4587L59.6664 72.1386L60.2932 72.4587L60.7111 72.2453L61.129 72.4587L61.7559 72.1386L62.1738 72.352L62.5917 72.1386L63.4275 72.352L63.8454 71.9252H64.4722L64.8901 71.4984L65.7259 72.2453L66.5617 71.6051L67.6064 72.2453L68.4422 71.6051L69.278 71.7118L70.1138 71.3917L70.5317 71.4984L70.9496 71.3917L71.3675 71.9252L71.7854 71.3917L72.2033 71.4984L72.8302 71.3917L73.2481 71.9252L74.0839 71.3917L74.5017 71.4984L74.9196 71.1783L75.5465 71.3917L76.1733 71.0716H78.8897L79.0986 71.3917L79.9344 71.0716L80.3523 71.3917L80.7702 71.0716L81.3971 71.7118L82.2328 71.0716L82.6508 71.3917V69.0444L82.2329 69.3645L81.3971 68.7243L80.7702 69.3645L80.3523 69.0444L79.9344 69.3645L79.0986 69.0444L78.8897 69.3645H76.1734L75.5465 69.0444L74.9197 69.2578L74.5018 68.9377L74.0839 69.0444L73.2481 68.5109L72.8302 69.0444L72.2033 68.9377L71.7854 69.0444L71.3675 68.5109L70.9496 69.0444L70.5317 68.9377L70.1138 69.0444L69.278 68.7243L68.4422 68.831L67.6064 68.1908L66.5617 68.831L65.7259 68.1908L64.8901 68.9377L64.4722 68.5109H63.8454L63.4275 68.0841L62.5917 68.2975L62.1738 68.0841L61.7559 68.2975L61.129 67.9774L60.7111 68.1908L60.2932 67.9774L59.6664 68.2975L58.8306 67.9774L58.2038 68.1908L57.5769 67.9774L56.9501 68.1908L56.1143 67.9774L55.4874 68.1908L55.0695 67.9774L54.4427 68.7243L53.6069 68.5109L52.98 68.831L52.3532 68.7243L51.7263 68.831L50.8905 68.5109L50.0548 68.7243L49.4279 68.1908L48.8011 68.7243H47.5474L47.1295 68.1908L46.5026 68.7243H45.2489L45.04 68.1908L44.2042 68.7243L43.7863 68.1908L42.9505 68.7243L42.5326 67.9774L41.4879 68.1908L40.4431 67.9774L39.3984 68.1908L38.5626 68.0841L38.3536 68.7243H37.5178L36.682 70.0046H35.2194H34.1747H33.1299H31.4583H29.3688H27.0704H25.8167L25.3988 69.6845L24.563 70.0046L24.3541 69.5778L23.3093 69.6845L22.4735 69.1511L21.6377 69.2578L20.8019 68.9377L20.1751 69.2578L19.3393 68.7243L18.9214 69.1511L17.8767 68.5109L16.623 68.831L15.5782 67.9774L14.3245 68.7243L13.4887 68.5109L12.444 68.2975L11.8171 67.9774L11.1903 68.0841L10.5634 67.764L9.5187 67.8707L8.47396 67.764L7.22027 67.8707L5.96657 67.764L4.71288 67.8707L3.66814 67.764L3.04129 69.0444L2.62339 68.7243L2.2055 69.0444L1.57865 68.5109L1.16075 69.0444L0.742854 68.9377ZM155.992 63.8162L155.783 64.9899V65.0966L155.783 65.2033L155.992 66.3769L156.41 66.2702L156.828 66.8037L157.454 66.2702L157.872 66.5903L158.29 66.2702L158.917 67.5506L159.962 67.4439L161.216 67.5506L162.469 67.4439L163.723 67.5506L164.768 67.4439L165.812 67.5506L166.439 67.2305L167.066 67.3372L167.693 67.0171L168.738 66.8037L169.573 66.5903L170.827 67.3372L171.872 66.4836L173.126 66.8037L174.17 66.1635L174.588 66.5903L175.424 66.0568L176.051 66.3769L176.887 66.0568L177.722 66.1635L178.558 65.63L179.603 65.7367L179.812 65.31L180.648 65.63L181.066 65.31H182.319H184.618H186.707H188.379H189.424H190.468H191.931L192.767 66.5903H193.603L193.812 67.2305L194.647 67.1238L195.692 67.3372L196.737 67.1238L197.782 67.3372L198.199 66.5903L199.035 67.1238L199.453 66.5903L200.289 67.1238L200.498 66.5903H201.752L202.378 67.1238L202.796 66.5903H204.05L204.677 67.1238L205.304 66.5903L206.139 66.8037L206.975 66.4836L207.602 66.5903L208.229 66.4836L208.856 66.8037L209.692 66.5903L210.318 67.3372L210.736 67.1238L211.363 67.3372L212.199 67.1238L212.826 67.3372L213.453 67.1238L214.08 67.3372L214.915 67.0171L215.542 67.3372L215.96 67.1238L216.378 67.3372L217.005 67.0171L217.423 67.2305L217.841 67.0171L218.676 67.2305L219.094 66.8037H219.721L220.139 66.3769L220.975 67.1238L221.811 66.4836L222.855 67.1238L223.691 66.4836L224.527 66.5903L225.363 66.2702L225.781 66.3769L226.199 66.2702L226.616 66.8037L227.034 66.2702L227.452 66.3769L228.079 66.2702L228.497 66.8037L229.333 66.2702L229.751 66.3769L230.169 66.0568L230.795 66.2702L231.422 65.9501H234.139L234.348 66.2702L235.183 65.9501L235.601 66.2702L236.019 65.9501L236.646 66.5903L237.482 65.9501L238.318 66.5903L239.153 65.9501L239.989 66.5903L240.825 66.0568L242.288 66.5903L243.541 66.0568L244.168 67.0171L245.213 66.0568L246.258 67.1238L247.093 66.8037L247.929 67.3372L248.765 67.0171L249.392 67.3372L250.228 67.0171L250.646 67.2305L251.272 66.8037L252.108 67.0171L252.735 66.3769L254.198 66.8037L254.616 66.4836L255.242 66.8037L256.078 66.3769L256.287 66.9104L257.123 66.3769L257.959 67.0171L258.795 66.5903L259.839 67.1238L260.257 66.8037L261.093 67.1238L261.72 66.8037L262.138 67.2305L262.765 66.8037L263.182 67.2305L264.018 66.9104L264.645 67.0171L265.272 66.3769L266.108 66.5903L266.735 65.9501L267.361 66.2702L268.615 65.5234L270.078 65.7367L270.496 65.31L271.331 65.5234L272.376 65.31L273.212 65.5234L273.63 65.31L274.466 65.5234L275.302 65.31H276.137H276.973H291.182L291.182 65.0966V64.8832H276.973H276.137H275.301L274.466 64.6698L273.63 64.8832L273.212 64.6698L272.376 64.8832L271.331 64.6698L270.496 64.8832L270.078 64.4564L268.615 64.6698L267.361 63.9229L266.735 64.243L266.108 63.6028L265.272 63.8162L264.645 63.176L264.018 63.2827L263.182 62.9626L262.765 63.3894L262.138 62.9626L261.72 63.3894L261.093 63.0693L260.257 63.3894L259.839 63.0693L258.795 63.6028L257.959 63.176L257.123 63.8162L256.287 63.2827L256.078 63.8162L255.242 63.3894L254.616 63.7095L254.198 63.3894L252.735 63.8162L252.108 63.176L251.272 63.3894L250.645 62.9626L250.228 63.176L249.392 62.8559L248.765 63.176L247.929 62.8559L247.093 63.3894L246.258 63.0693L245.213 64.1363L244.168 63.176L243.541 64.1363L242.288 63.6028L240.825 64.1363L239.989 63.6028L239.153 64.243L238.318 63.6028L237.482 64.243L236.646 63.6028L236.019 64.243L235.601 63.9229L235.183 64.243L234.347 63.9229L234.139 64.243H231.422L230.795 63.9229L230.169 64.1363L229.751 63.8162L229.333 63.9229L228.497 63.3894L228.079 63.9229L227.452 63.8162L227.034 63.9229L226.616 63.3894L226.198 63.9229L225.781 63.8162L225.363 63.9229L224.527 63.6028L223.691 63.7095L222.855 63.0693L221.811 63.7095L220.975 63.0693L220.139 63.8162L219.721 63.3894H219.094L218.676 62.9626L217.841 63.176L217.423 62.9626L217.005 63.176L216.378 62.8559L215.96 63.0693L215.542 62.8559L214.915 63.176L214.079 62.8559L213.453 63.0693L212.826 62.8559L212.199 63.0693L211.363 62.8559L210.736 63.0693L210.318 62.8559L209.692 63.6028L208.856 63.3894L208.229 63.7095L207.602 63.6028L206.975 63.7095L206.139 63.3894L205.304 63.6028L204.677 63.0693L204.05 63.6028H202.796L202.378 63.0693L201.751 63.6028H200.498L200.289 63.0693L199.453 63.6028L199.035 63.0693L198.199 63.6028L197.781 62.8559L196.737 63.0693L195.692 62.8559L194.647 63.0693L193.811 62.9626L193.602 63.6028H192.767L191.931 64.8832H190.468H189.424H188.379H186.707H184.618H182.319H181.066L180.648 64.5631L179.812 64.8832L179.603 64.4564L178.558 64.5631L177.722 64.0296L176.887 64.1363L176.051 63.8162L175.424 64.1363L174.588 63.6028L174.17 64.0296L173.126 63.3894L171.872 63.7095L170.827 62.8559L169.573 63.6028L168.738 63.3894L167.693 63.176L167.066 62.8559L166.439 62.9626L165.812 62.6425L164.768 62.7492L163.723 62.6425L162.469 62.7492L161.215 62.6425L159.962 62.7492L158.917 62.6425L158.29 63.9229L157.872 63.6028L157.454 63.9229L156.828 63.3894L156.41 63.9229L155.992 63.8162ZM156.201 68.9377L155.992 70.1113V70.218L155.992 70.3247L156.201 71.4984L156.619 71.3917L157.037 71.9252L157.663 71.3917L158.081 71.7118L158.499 71.3917L159.126 72.672L160.171 72.5654L161.424 72.672L162.678 72.5654L163.932 72.672L164.977 72.5654L166.021 72.672L166.648 72.352L167.275 72.4587L167.902 72.1386L168.947 71.9252L169.782 71.7118L171.036 72.4587L172.081 71.6051L173.335 71.9252L174.379 71.285L174.797 71.7118L175.633 71.1783L176.26 71.4984L177.096 71.1783L177.931 71.285L178.767 70.7515L179.812 70.8582L180.021 70.4314L180.857 70.7515L181.275 70.4314H182.528H184.827H186.916H188.588H189.633H190.677H192.14L192.976 71.7118H193.812L194.02 72.352L194.856 72.2453L195.901 72.4587L196.946 72.2453L197.99 72.4587L198.408 71.7118L199.244 72.2453L199.662 71.7118L200.498 72.2453L200.707 71.7118H201.961L202.587 72.2453L203.005 71.7118H204.259L204.886 72.2453L205.513 71.7118L206.348 71.9252L207.184 71.6051L207.811 71.7118L208.438 71.6051L209.065 71.9252L209.901 71.7118L210.527 72.4587L210.945 72.2453L211.572 72.4587L212.408 72.2453L213.035 72.4587L213.662 72.2453L214.288 72.4587L215.124 72.1386L215.751 72.4587L216.169 72.2453L216.587 72.4587L217.214 72.1386L217.632 72.352L218.05 72.1386L218.885 72.352L219.303 71.9252H219.93L220.348 71.4984L221.184 72.2453L222.02 71.6051L223.064 72.2453L223.9 71.6051L224.736 71.7118L225.572 71.3917L225.99 71.4984L226.408 71.3917L226.825 71.9252L227.243 71.3917L227.661 71.4984L228.288 71.3917L228.706 71.9252L229.542 71.3917L229.96 71.4984L230.378 71.1783L231.004 71.3917L231.631 71.0716H234.348L234.557 71.3917L235.392 71.0716L235.81 71.3917L236.228 71.0716L236.855 71.7118L237.691 71.0716L238.527 71.7118L239.362 71.0716L240.198 71.7118L241.034 71.1783L242.497 71.7118L243.75 71.1783L244.377 72.1386L245.422 71.1783L246.467 72.2453L247.302 71.9252L248.138 72.4587L248.974 72.1386L249.601 72.4587L250.437 72.1386L250.855 72.352L251.481 71.9252L252.317 72.1386L252.944 71.4984L254.407 71.9252L254.825 71.6051L255.451 71.9252L256.287 71.4984L256.496 72.0319L257.332 71.4984L258.168 72.1386L259.004 71.7118L260.048 72.2453L260.466 71.9252L261.302 72.2453L261.929 71.9252L262.347 72.352L262.974 71.9252L263.391 72.352L264.227 72.0319L264.854 72.1386L265.481 71.4984L266.317 71.7118L266.944 71.0716L267.57 71.3917L268.824 70.6448L270.287 70.8582L270.705 70.4314L271.54 70.6448L272.585 70.4314L273.421 70.6448L273.839 70.4314L274.675 70.6448L275.51 70.4314H276.346H277.182H291.391V70.218V70.0046H277.182H276.346H275.51L274.675 69.7913L273.839 70.0046L273.421 69.7913L272.585 70.0046L271.54 69.7913L270.705 70.0046L270.287 69.5778L268.824 69.7913L267.57 69.0444L266.944 69.3645L266.317 68.7243L265.481 68.9377L264.854 68.2975L264.227 68.4042L263.391 68.0841L262.974 68.5109L262.347 68.0841L261.929 68.5109L261.302 68.1908L260.466 68.5109L260.048 68.1908L259.004 68.7243L258.168 68.2975L257.332 68.9377L256.496 68.4042L256.287 68.9377L255.451 68.5109L254.825 68.831L254.407 68.5109L252.944 68.9377L252.317 68.2975L251.481 68.5109L250.855 68.0841L250.437 68.2975L249.601 67.9774L248.974 68.2975L248.138 67.9774L247.302 68.5109L246.467 68.1908L245.422 69.2578L244.377 68.2975L243.75 69.2578L242.497 68.7243L241.034 69.2578L240.198 68.7243L239.362 69.3645L238.527 68.7243L237.691 69.3645L236.855 68.7243L236.228 69.3645L235.81 69.0444L235.392 69.3645L234.557 69.0444L234.348 69.3645H231.631L231.004 69.0444L230.378 69.2578L229.96 68.9377L229.542 69.0444L228.706 68.5109L228.288 69.0444L227.661 68.9377L227.243 69.0444L226.825 68.5109L226.408 69.0444L225.99 68.9377L225.572 69.0444L224.736 68.7243L223.9 68.831L223.064 68.1908L222.02 68.831L221.184 68.1908L220.348 68.9377L219.93 68.5109H219.303L218.885 68.0841L218.05 68.2975L217.632 68.0841L217.214 68.2975L216.587 67.9774L216.169 68.1908L215.751 67.9774L215.124 68.2975L214.288 67.9774L213.662 68.1908L213.035 67.9774L212.408 68.1908L211.572 67.9774L210.945 68.1908L210.527 67.9774L209.901 68.7243L209.065 68.5109L208.438 68.831L207.811 68.7243L207.184 68.831L206.348 68.5109L205.513 68.7243L204.886 68.1908L204.259 68.7243H203.005L202.587 68.1908L201.961 68.7243H200.707L200.498 68.1908L199.662 68.7243L199.244 68.1908L198.408 68.7243L197.99 67.9774L196.946 68.1908L195.901 67.9774L194.856 68.1908L194.02 68.0841L193.812 68.7243H192.976L192.14 70.0046H190.677H189.633H188.588H186.916H184.827H182.528H181.275L180.857 69.6845L180.021 70.0046L179.812 69.5778L178.767 69.6845L177.931 69.1511L177.096 69.2578L176.26 68.9377L175.633 69.2578L174.797 68.7243L174.379 69.1511L173.335 68.5109L172.081 68.831L171.036 67.9774L169.782 68.7243L168.947 68.5109L167.902 68.2975L167.275 67.9774L166.648 68.0841L166.021 67.764L164.977 67.8707L163.932 67.764L162.678 67.8707L161.424 67.764L160.171 67.8707L159.126 67.764L158.499 69.0444L158.081 68.7243L157.663 69.0444L157.037 68.5109L156.619 69.0444L156.201 68.9377ZM155.783 3.14105L155.992 1.96738L156.41 2.07408L156.828 1.54059L157.454 2.07408L157.872 1.75399L158.29 2.07408L158.917 0.793711L159.962 0.900408L161.215 0.793711L162.469 0.900408L163.723 0.793711L164.768 0.900408L165.812 0.793711L166.439 1.1138L167.066 1.00711L167.693 1.3272L168.738 1.54059L169.573 1.75399L170.827 1.00711L171.872 1.86068L173.126 1.54059L174.17 2.18078L174.588 1.75399L175.424 2.28747L176.051 1.96738L176.887 2.28747L177.722 2.18078L178.558 2.71426L179.603 2.60756L179.812 3.03435L180.648 2.71426L181.066 3.03435H182.319H184.618H186.707H188.379H189.424H190.468H191.931L192.767 1.75399H193.602L193.811 1.1138L194.647 1.2205L195.692 1.00711L196.737 1.2205L197.781 1.00711L198.199 1.75399L199.035 1.2205L199.453 1.75399L200.289 1.2205L200.498 1.75399H201.751L202.378 1.2205L202.796 1.75399H204.05L204.677 1.2205L205.304 1.75399L206.139 1.54059L206.975 1.86068L207.602 1.75399L208.229 1.86068L208.856 1.54059L209.692 1.75399L210.318 1.00711L210.736 1.2205L211.363 1.00711L212.199 1.2205L212.826 1.00711L213.453 1.2205L214.079 1.00711L214.915 1.3272L215.542 1.00711L215.96 1.2205L216.378 1.00711L217.005 1.3272L217.423 1.1138L217.841 1.3272L218.676 1.1138L219.094 1.54059H219.721L220.139 1.96738L220.975 1.2205L221.811 1.86068L222.855 1.2205L223.691 1.86068L224.527 1.75399L225.363 2.07408L225.781 1.96738L226.198 2.07408L226.616 1.54059L227.034 2.07408L227.452 1.96738L228.079 2.07408L228.497 1.54059L229.333 2.07408L229.751 1.96738L230.169 2.28747L230.795 2.07408L231.422 2.39417H234.139L234.347 2.07408L235.183 2.39417L235.601 2.07408L236.019 2.39417L236.646 1.75399L237.482 2.39417L238.318 1.75399L239.153 2.39417L239.989 1.75399L240.825 2.28747L242.288 1.75399L243.541 2.28747L244.168 1.3272L245.213 2.28747L246.258 1.2205L247.093 1.54059L247.929 1.00711L248.765 1.3272L249.392 1.00711L250.228 1.3272L250.645 1.1138L251.272 1.54059L252.108 1.3272L252.735 1.96738L254.198 1.54059L254.616 1.86068L255.242 1.54059L256.078 1.96738L256.287 1.43389L257.123 1.96738L257.959 1.3272L258.795 1.75399L259.839 1.2205L260.257 1.54059L261.093 1.2205L261.72 1.54059L262.138 1.1138L262.765 1.54059L263.182 1.1138L264.018 1.43389L264.645 1.3272L265.272 1.96738L266.108 1.75399L266.735 2.39417L267.361 2.07408L268.615 2.82096L270.078 2.60756L270.496 3.03435L271.331 2.82096L272.376 3.03435L273.212 2.82096L273.63 3.03435L274.466 2.82096L275.301 3.03435H276.137H276.973H291.182V3.24775L291.182 3.46113H276.973H276.137H275.302L274.466 3.67453L273.63 3.46113L273.212 3.67453L272.376 3.46113L271.331 3.67453L270.496 3.46113L270.078 3.88792L268.615 3.67453L267.361 4.42141L266.735 4.10131L266.108 4.7415L265.272 4.5281L264.645 5.16829L264.018 5.06159L263.182 5.38168L262.765 4.95489L262.138 5.38168L261.72 4.95489L261.093 5.27498L260.257 4.95489L259.839 5.27498L258.795 4.7415L257.959 5.16829L257.123 4.5281L256.287 5.06159L256.078 4.5281L255.242 4.95489L254.616 4.6348L254.198 4.95489L252.735 4.5281L252.108 5.16829L251.272 4.95489L250.646 5.38168L250.228 5.16829L249.392 5.48838L248.765 5.16829L247.929 5.48838L247.093 4.95489L246.258 5.27498L245.213 4.20801L244.168 5.16829L243.541 4.20801L242.288 4.7415L240.825 4.20801L239.989 4.7415L239.153 4.10131L238.318 4.7415L237.482 4.10131L236.646 4.7415L236.019 4.10131L235.601 4.42141L235.183 4.10131L234.348 4.42141L234.139 4.10131H231.422L230.795 4.42141L230.169 4.20801L229.751 4.5281L229.333 4.42141L228.497 4.95489L228.079 4.42141L227.452 4.5281L227.034 4.42141L226.616 4.95489L226.199 4.42141L225.781 4.5281L225.363 4.42141L224.527 4.7415L223.691 4.6348L222.855 5.27498L221.811 4.6348L220.975 5.27498L220.139 4.5281L219.721 4.95489H219.094L218.676 5.38168L217.841 5.16829L217.423 5.38168L217.005 5.16829L216.378 5.48838L215.96 5.27498L215.542 5.48838L214.915 5.16829L214.08 5.48838L213.453 5.27498L212.826 5.48838L212.199 5.27498L211.363 5.48838L210.736 5.27498L210.318 5.48838L209.692 4.7415L208.856 4.95489L208.229 4.6348L207.602 4.7415L206.975 4.6348L206.139 4.95489L205.304 4.7415L204.677 5.27498L204.05 4.7415H202.796L202.378 5.27498L201.752 4.7415H200.498L200.289 5.27498L199.453 4.7415L199.035 5.27498L198.199 4.7415L197.782 5.48838L196.737 5.27498L195.692 5.48838L194.647 5.27498L193.812 5.38168L193.603 4.7415H192.767L191.931 3.46113H190.468H189.424H188.379H186.707H184.618H182.319H181.066L180.648 3.78122L179.812 3.46113L179.603 3.88792L178.558 3.78122L177.722 4.31471L176.887 4.20801L176.051 4.5281L175.424 4.20801L174.588 4.7415L174.17 4.31471L173.126 4.95489L171.872 4.6348L170.827 5.48838L169.573 4.7415L168.738 4.95489L167.693 5.16829L167.066 5.48838L166.439 5.38168L165.812 5.70177L164.768 5.59508L163.723 5.70177L162.469 5.59508L161.216 5.70177L159.962 5.59508L158.917 5.70177L158.29 4.42141L157.872 4.7415L157.454 4.42141L156.828 4.95489L156.41 4.42141L155.992 4.5281L155.783 3.35443L155.783 3.24775V3.14105ZM155.992 8.26256L156.201 7.08889L156.619 7.19559L157.037 6.6621L157.663 7.19559L158.081 6.87549L158.499 7.19559L159.126 5.91522L160.171 6.02192L161.424 5.91522L162.678 6.02192L163.932 5.91522L164.977 6.02192L166.021 5.91522L166.648 6.23531L167.275 6.12861L167.902 6.4487L168.947 6.6621L169.782 6.87549L171.036 6.12861L172.081 6.98219L173.335 6.6621L174.379 7.30228L174.797 6.87549L175.633 7.40898L176.26 7.08889L177.096 7.40898L177.931 7.30228L178.767 7.83577L179.812 7.72907L180.021 8.15586L180.857 7.83577L181.275 8.15586H182.528H184.827H186.916H188.588H189.633H190.677H192.14L192.976 6.87549H193.812L194.02 6.23531L194.856 6.34201L195.901 6.12861L196.946 6.34201L197.99 6.12861L198.408 6.87549L199.244 6.34201L199.662 6.87549L200.498 6.34201L200.707 6.87549H201.961L202.587 6.34201L203.005 6.87549H204.259L204.886 6.34201L205.513 6.87549L206.348 6.6621L207.184 6.98219L207.811 6.87549L208.438 6.98219L209.065 6.6621L209.901 6.87549L210.527 6.12861L210.945 6.34201L211.572 6.12861L212.408 6.34201L213.035 6.12861L213.662 6.34201L214.288 6.12861L215.124 6.4487L215.751 6.12861L216.169 6.34201L216.587 6.12861L217.214 6.4487L217.632 6.23531L218.05 6.4487L218.885 6.23531L219.303 6.6621H219.93L220.348 7.08889L221.184 6.34201L222.02 6.98219L223.064 6.34201L223.9 6.98219L224.736 6.87549L225.572 7.19559L225.99 7.08889L226.408 7.19559L226.825 6.6621L227.243 7.19559L227.661 7.08889L228.288 7.19559L228.706 6.6621L229.542 7.19559L229.96 7.08889L230.378 7.40898L231.004 7.19559L231.631 7.51568H234.348L234.557 7.19559L235.392 7.51568L235.81 7.19559L236.228 7.51568L236.855 6.87549L237.691 7.51568L238.527 6.87549L239.362 7.51568L240.198 6.87549L241.034 7.40898L242.497 6.87549L243.75 7.40898L244.377 6.4487L245.422 7.40898L246.467 6.34201L247.302 6.6621L248.138 6.12861L248.974 6.4487L249.601 6.12861L250.437 6.4487L250.855 6.23531L251.481 6.6621L252.317 6.4487L252.944 7.08889L254.407 6.6621L254.825 6.98219L255.451 6.6621L256.287 7.08889L256.496 6.5554L257.332 7.08889L258.168 6.4487L259.004 6.87549L260.048 6.34201L260.466 6.6621L261.302 6.34201L261.929 6.6621L262.347 6.23531L262.974 6.6621L263.391 6.23531L264.227 6.5554L264.854 6.4487L265.481 7.08889L266.317 6.87549L266.944 7.51568L267.57 7.19559L268.824 7.94247L270.287 7.72907L270.705 8.15586L271.54 7.94247L272.585 8.15586L273.421 7.94247L273.839 8.15586L274.675 7.94247L275.51 8.15586H276.346H277.182H291.391V8.36926V8.58261H277.182H276.346H275.51L274.675 8.796L273.839 8.58261L273.421 8.796L272.585 8.58261L271.54 8.796L270.705 8.58261L270.287 9.0094L268.824 8.796L267.57 9.54288L266.944 9.22279L266.317 9.86297L265.481 9.64958L264.854 10.2898L264.227 10.1831L263.391 10.5032L262.974 10.0764L262.347 10.5032L261.929 10.0764L261.302 10.3965L260.466 10.0764L260.048 10.3965L259.004 9.86297L258.168 10.2898L257.332 9.64958L256.496 10.1831L256.287 9.64958L255.451 10.0764L254.825 9.75628L254.407 10.0764L252.944 9.64958L252.317 10.2898L251.481 10.0764L250.855 10.5032L250.437 10.2898L249.601 10.6099L248.974 10.2898L248.138 10.6099L247.302 10.0764L246.467 10.3965L245.422 9.32949L244.377 10.2898L243.75 9.32949L242.497 9.86297L241.034 9.32949L240.198 9.86297L239.362 9.22279L238.527 9.86297L237.691 9.22279L236.855 9.86297L236.228 9.22279L235.81 9.54288L235.392 9.22279L234.557 9.54288L234.348 9.22279H231.631L231.004 9.54288L230.378 9.32949L229.96 9.64958L229.542 9.54288L228.706 10.0764L228.288 9.54288L227.661 9.64958L227.243 9.54288L226.825 10.0764L226.408 9.54288L225.99 9.64958L225.572 9.54288L224.736 9.86297L223.9 9.75628L223.064 10.3965L222.02 9.75628L221.184 10.3965L220.348 9.64958L219.93 10.0764H219.303L218.885 10.5032L218.05 10.2898L217.632 10.5032L217.214 10.2898L216.587 10.6099L216.169 10.3965L215.751 10.6099L215.124 10.2898L214.288 10.6099L213.662 10.3965L213.035 10.6099L212.408 10.3965L211.572 10.6099L210.945 10.3965L210.527 10.6099L209.901 9.86297L209.065 10.0764L208.438 9.75628L207.811 9.86297L207.184 9.75628L206.348 10.0764L205.513 9.86297L204.886 10.3965L204.259 9.86297H203.005L202.587 10.3965L201.961 9.86297H200.707L200.498 10.3965L199.662 9.86297L199.244 10.3965L198.408 9.86297L197.99 10.6099L196.946 10.3965L195.901 10.6099L194.856 10.3965L194.02 10.5032L193.812 9.86297H192.976L192.14 8.58261H190.677H189.633H188.588H186.916H184.827H182.528H181.275L180.857 8.9027L180.021 8.58261L179.812 9.0094L178.767 8.9027L177.931 9.43619L177.096 9.32949L176.26 9.64958L175.633 9.32949L174.797 9.86297L174.379 9.43619L173.335 10.0764L172.081 9.75628L171.036 10.6099L169.782 9.86297L168.947 10.0764L167.902 10.2898L167.275 10.6099L166.648 10.5032L166.021 10.8233L164.977 10.7166L163.932 10.8233L162.678 10.7166L161.424 10.8233L160.171 10.7166L159.126 10.8233L158.499 9.54288L158.081 9.86297L157.663 9.54288L157.037 10.0764L156.619 9.54288L156.201 9.64958L155.992 8.47591L155.992 8.36926V8.26256ZM0.5339 34.0165L0.324951 36.315V36.5239H135.724V36.106H121.515H120.679H119.844L119.008 35.6881L118.172 36.106L117.754 35.6881L116.918 36.106L115.874 35.6881L115.038 36.106L114.62 35.2702L113.157 35.6881L111.904 34.2255L111.277 34.8523L110.65 33.5986L109.814 34.0165L109.187 32.7628L108.56 32.9718L107.725 32.3449L107.307 33.1807L106.68 32.3449L106.262 33.1807L105.635 32.5539L104.799 33.1807L104.381 32.5539L103.337 33.5986L102.501 32.7628L101.665 34.0165L100.829 32.9718L100.62 34.0165L99.7845 33.1807L99.1577 33.8076L98.7398 33.1807L97.2772 34.0165L96.6503 32.7628L95.8145 33.1807L95.1877 32.3449L94.7698 32.7628L93.934 32.136L93.3071 32.7628L92.4713 32.136L91.6355 33.1807L90.7998 32.5539L89.755 34.6434L88.7103 32.7628L88.0834 34.6434L86.8297 33.5986L85.3671 34.6434L84.5313 33.5986L83.6955 34.8523L82.8597 33.5986L82.0239 34.8523L81.1881 33.5986L80.5613 34.8523L80.1434 34.2255L79.7255 34.8523L78.8897 34.2255L78.6807 34.8523H75.9644L75.3376 34.2255L74.7107 34.6434L74.2928 34.0165L73.8749 34.2255L73.0391 33.1807L72.6212 34.2255L71.9944 34.0165L71.5765 34.2255L71.1586 33.1807L70.7407 34.2255L70.3228 34.0165L69.9049 34.2255L69.0691 33.5986L68.2333 33.8076L67.3975 32.5539L66.3528 33.8076L65.517 32.5539L64.6812 34.0165L64.2633 33.1807H63.6364L63.2185 32.3449L62.3827 32.7628L61.9648 32.3449L61.5469 32.7628L60.9201 32.136L60.5022 32.5539L60.0843 32.136L59.4574 32.7628L58.6216 32.136L57.9948 32.5539L57.368 32.136L56.7411 32.5539L55.9053 32.136L55.2785 32.5539L54.8606 32.136L54.2337 33.5986L53.3979 33.1807L52.7711 33.8076L52.1442 33.5986L51.5174 33.8076L50.6816 33.1807L49.8458 33.5986L49.219 32.5539L48.5921 33.5986H47.3384L46.9205 32.5539L46.2937 33.5986H45.04L44.831 32.5539L43.9952 33.5986L43.5773 32.5539L42.7415 33.5986L42.3236 32.136L41.2789 32.5539L40.2342 32.136L39.1894 32.5539L38.3536 32.3449L38.1447 33.5986H37.3089L36.4731 36.106H35.0104H33.9657H32.921H31.2494H29.1599H26.8614H25.6077L25.1898 35.4792L24.3541 36.106L24.1451 35.2702L23.1004 35.4792L22.2646 34.4344L21.4288 34.6434L20.593 34.0165L19.9661 34.6434L19.1303 33.5986L18.7124 34.4344L17.6677 33.1807L16.414 33.8076L15.3693 32.136L14.1156 33.5986L13.2798 33.1807L12.235 32.7628L11.6082 32.136L10.9813 32.3449L10.3545 31.7181L9.30975 31.927L8.265 31.7181L7.01131 31.927L5.75762 31.7181L4.50393 31.927L3.45918 31.7181L2.83234 34.2255L2.41444 33.5986L1.99654 34.2255L1.36969 33.1807L0.951797 34.2255L0.5339 34.0165ZM0.533918 39.0313L0.324969 36.7329V36.5239H135.724V36.9418H121.515H120.679H119.844L119.008 37.3597L118.172 36.9418L117.754 37.3597L116.918 36.9418L115.874 37.3597L115.038 36.9418L114.62 37.7776L113.157 37.3597L111.904 38.8223L111.277 38.1955L110.65 39.4492L109.814 39.0313L109.187 40.285L108.56 40.076L107.725 40.7029L107.307 39.8671L106.68 40.7029L106.262 39.8671L105.635 40.4939L104.799 39.8671L104.381 40.4939L103.337 39.4492L102.501 40.285L101.665 39.0313L100.829 40.076L100.62 39.0313L99.7846 39.8671L99.1577 39.2402L98.7398 39.8671L97.2772 39.0313L96.6503 40.285L95.8145 39.8671L95.1877 40.7029L94.7698 40.285L93.934 40.9118L93.3072 40.285L92.4714 40.9118L91.6356 39.8671L90.7998 40.4939L89.755 38.4044L88.7103 40.285L88.0834 38.4044L86.8297 39.4492L85.3671 38.4044L84.5313 39.4492L83.6955 38.1955L82.8597 39.4492L82.0239 38.1955L81.1881 39.4492L80.5613 38.1955L80.1434 38.8223L79.7255 38.1955L78.8897 38.8223L78.6807 38.1955H75.9644L75.3376 38.8223L74.7107 38.4044L74.2928 39.0313L73.8749 38.8223L73.0391 39.8671L72.6212 38.8223L71.9944 39.0313L71.5765 38.8223L71.1586 39.8671L70.7407 38.8223L70.3228 39.0313L69.9049 38.8223L69.0691 39.4492L68.2333 39.2402L67.3975 40.4939L66.3528 39.2402L65.517 40.4939L64.6812 39.0313L64.2633 39.8671H63.6364L63.2185 40.7029L62.3827 40.285L61.9648 40.7029L61.5469 40.285L60.9201 40.9118L60.5022 40.4939L60.0843 40.9118L59.4575 40.285L58.6217 40.9118L57.9948 40.4939L57.368 40.9118L56.7411 40.4939L55.9053 40.9118L55.2785 40.4939L54.8606 40.9118L54.2337 39.4492L53.3979 39.8671L52.7711 39.2402L52.1443 39.4492L51.5174 39.2402L50.6816 39.8671L49.8458 39.4492L49.219 40.4939L48.5921 39.4492H47.3384L46.9205 40.4939L46.2937 39.4492H45.04L44.8311 40.4939L43.9953 39.4492L43.5774 40.4939L42.7416 39.4492L42.3237 40.9118L41.2789 40.4939L40.2342 40.9118L39.1894 40.4939L38.3536 40.7029L38.1447 39.4492H37.3089L36.4731 36.9418H35.0105H33.9657H32.921H31.2494H29.1599H26.8615H25.6078L25.1899 37.5687L24.3541 36.9418L24.1451 37.7776L23.1004 37.5687L22.2646 38.6134L21.4288 38.4044L20.593 39.0313L19.9661 38.4044L19.1304 39.4492L18.7125 38.6134L17.6677 39.8671L16.414 39.2402L15.3693 40.9118L14.1156 39.4492L13.2798 39.8671L12.235 40.285L11.6082 40.9118L10.9814 40.7029L10.3545 41.3297L9.30976 41.1208L8.26502 41.3297L7.01133 41.1208L5.75764 41.3297L4.50394 41.1208L3.4592 41.3297L2.83235 38.8223L2.41446 39.4492L1.99656 38.8223L1.36971 39.8671L0.951816 38.8223L0.533918 39.0313ZM0.742899 44.0461L0.53395 46.3445V46.5535H0.533965V46.7624L0.742913 49.0608L1.16081 48.8519L1.57871 49.8966L2.20555 48.8519L2.62345 49.4787L3.04135 48.8519L3.6682 51.3593L4.71294 51.1503L5.96663 51.3593L7.22032 51.1503L8.47402 51.3593L9.51876 51.1503L10.5635 51.3593L11.1903 50.7324L11.8172 50.9414L12.444 50.3145L13.4888 49.8966L14.3246 49.4787L15.5783 50.9414L16.623 49.2698L17.8767 49.8966L18.9215 48.6429L19.3394 49.4787L20.1751 48.434L20.802 49.0608L21.6378 48.434L22.4736 48.6429L23.3094 47.5982L24.3541 47.8071L24.5631 46.9713L25.3989 47.5982L25.8168 46.9713H27.0705H29.3689H31.4584H33.13H34.1747H35.2195H36.6821L37.5179 49.4787H38.3537L38.5626 50.7324L39.3984 50.5235L40.4432 50.9414L41.4879 50.5235L42.5327 50.9414L42.9506 49.4787L43.7864 50.5235L44.2042 49.4787L45.04 50.5235L45.249 49.4787H46.5027L47.1295 50.5235L47.5474 49.4787H48.8011L49.428 50.5235L50.0548 49.4787L50.8906 49.8966L51.7264 49.2698L52.3533 49.4787L52.9801 49.2698L53.6069 49.8966L54.4427 49.4787L55.0696 50.9414L55.4875 50.5235L56.1143 50.9414L56.9501 50.5235L57.577 50.9414L58.2038 50.5235L58.8307 50.9414L59.6665 50.3145L60.2933 50.9414L60.7112 50.5235L61.1291 50.9414L61.7559 50.3145L62.1738 50.7324L62.5917 50.3145L63.4275 50.7324L63.8454 49.8966H64.4723L64.8902 49.0608L65.726 50.5235L66.5618 49.2698L67.6065 50.5235L68.4423 49.2698L69.2781 49.4787L70.1139 48.8519L70.5318 49.0608L70.9497 48.8519L71.3676 49.8966L71.7855 48.8519L72.2034 49.0608L72.8302 48.8519L73.2481 49.8966L74.0839 48.8519L74.5018 49.0608L74.9197 48.434L75.5466 48.8519L76.1734 48.225H78.8897L79.0987 48.8519L79.9345 48.225L80.3524 48.8519L80.7703 48.225L81.3971 49.4787L82.2329 48.225L83.0687 49.4787L83.9045 48.225L84.7403 49.4787L85.5761 48.434L87.0387 49.4787L88.2924 48.434L88.9193 50.3145L89.964 48.434L91.0088 50.5235L91.8446 49.8966L92.6804 50.9414L93.5162 50.3145L94.143 50.9414L94.9788 50.3145L95.3967 50.7324L96.0235 49.8966L96.8593 50.3145L97.4862 49.0608L98.9488 49.8966L99.3667 49.2698L99.9936 49.8966L100.829 49.0608L101.038 50.1056L101.874 49.0608L102.71 50.3145L103.546 49.4787L104.59 50.5235L105.008 49.8966L105.844 50.5235L106.471 49.8966L106.889 50.7324L107.516 49.8966L107.934 50.7324L108.769 50.1056L109.396 50.3145L110.023 49.0608L110.859 49.4787L111.486 48.225L112.113 48.8519L113.366 47.3892L114.829 47.8071L115.247 46.9713L116.083 47.3892L117.127 46.9713L117.963 47.3892L118.381 46.9713L119.217 47.3892L120.053 46.9713H120.888H121.724H135.933L135.933 46.5535V46.1356H121.724H120.888H120.053L119.217 45.7177L118.381 46.1356L117.963 45.7177L117.127 46.1356L116.083 45.7177L115.247 46.1356L114.829 45.2998L113.366 45.7177L112.113 44.255L111.486 44.8819L110.859 43.6282L110.023 44.0461L109.396 42.7924L108.769 43.0013L107.934 42.3745L107.516 43.2103L106.889 42.3745L106.471 43.2103L105.844 42.5834L105.008 43.2103L104.59 42.5834L103.546 43.6282L102.71 42.7924L101.874 44.0461L101.038 43.0013L100.829 44.0461L99.9935 43.2103L99.3667 43.8371L98.9488 43.2103L97.4862 44.0461L96.8593 42.7924L96.0235 43.2103L95.3967 42.3745L94.9788 42.7924L94.143 42.1655L93.5161 42.7924L92.6803 42.1655L91.8445 43.2103L91.0088 42.5834L89.964 44.6729L88.9193 42.7924L88.2924 44.6729L87.0387 43.6282L85.5761 44.6729L84.7403 43.6282L83.9045 44.8819L83.0687 43.6282L82.2329 44.8819L81.3971 43.6282L80.7703 44.8819L80.3524 44.255L79.9345 44.8819L79.0987 44.255L78.8897 44.8819H76.1734L75.5466 44.255L74.9197 44.6729L74.5018 44.0461L74.0839 44.255L73.2481 43.2103L72.8302 44.255L72.2034 44.0461L71.7855 44.255L71.3676 43.2103L70.9497 44.255L70.5318 44.0461L70.1139 44.255L69.2781 43.6282L68.4423 43.8371L67.6065 42.5834L66.5618 43.8371L65.726 42.5834L64.8902 44.0461L64.4723 43.2103H63.8454L63.4275 42.3745L62.5917 42.7924L62.1738 42.3745L61.7559 42.7924L61.1291 42.1655L60.7112 42.5834L60.2933 42.1655L59.6664 42.7924L58.8306 42.1655L58.2038 42.5834L57.577 42.1655L56.9501 42.5834L56.1143 42.1655L55.4875 42.5834L55.0696 42.1655L54.4427 43.6282L53.6069 43.2103L52.9801 43.8371L52.3532 43.6282L51.7264 43.8371L50.8906 43.2103L50.0548 43.6282L49.428 42.5834L48.8011 43.6282H47.5474L47.1295 42.5834L46.5027 43.6282H45.249L45.04 42.5834L44.2042 43.6282L43.7863 42.5834L42.9505 43.6282L42.5326 42.1655L41.4879 42.5834L40.4432 42.1655L39.3984 42.5834L38.5626 42.3745L38.3537 43.6282H37.5179L36.6821 46.1356H35.2194H34.1747H33.13H31.4584H29.3689H27.0704H25.8167L25.3988 45.5087L24.5631 46.1356L24.3541 45.2998L23.3094 45.5087L22.4736 44.464L21.6378 44.6729L20.802 44.0461L20.1751 44.6729L19.3393 43.6282L18.9214 44.464L17.8767 43.2103L16.623 43.8371L15.5783 42.1655L14.3246 43.6282L13.4888 43.2103L12.444 42.7924L11.8172 42.1655L11.1903 42.3745L10.5635 41.7476L9.51875 41.9566L8.474 41.7476L7.22031 41.9566L5.96662 41.7476L4.71292 41.9566L3.66818 41.7476L3.04133 44.255L2.62344 43.6282L2.20554 44.255L1.57869 43.2103L1.1608 44.255L0.742899 44.0461ZM0.324951 78.5226L0.5339 76.2242L0.951797 76.4331L1.36969 75.3884L1.99654 76.4331L2.41444 75.8063L2.83234 76.4331L3.45918 73.9257L4.50393 74.1347L5.75762 73.9257L7.01131 74.1347L8.265 73.9257L9.30975 74.1347L10.3545 73.9257L10.9813 74.5526L11.6082 74.3436L12.235 74.9705L13.2798 75.3884L14.1156 75.8063L15.3693 74.3436L16.414 76.0152L17.6677 75.3884L18.7124 76.6421L19.1303 75.8063L19.9661 76.851L20.593 76.2242L21.4288 76.851L22.2646 76.6421L23.1004 77.6868L24.1451 77.4779L24.3541 78.3137L25.1898 77.6868L25.6077 78.3137H26.8614H29.1599H31.2494H32.921H33.9657H35.0104H36.4731L37.3089 75.8063H38.1447L38.3536 74.5526L39.1894 74.7615L40.2342 74.3436L41.2789 74.7615L42.3236 74.3436L42.7415 75.8063L43.5773 74.7615L43.9952 75.8063L44.831 74.7615L45.04 75.8063H46.2937L46.9205 74.7615L47.3384 75.8063H48.5921L49.219 74.7615L49.8458 75.8063L50.6816 75.3884L51.5174 76.0152L52.1442 75.8063L52.7711 76.0152L53.3979 75.3884L54.2337 75.8063L54.8606 74.3436L55.2785 74.7615L55.9053 74.3436L56.7411 74.7615L57.368 74.3436L57.9948 74.7615L58.6216 74.3436L59.4574 74.9705L60.0843 74.3436L60.5022 74.7615L60.9201 74.3436L61.5469 74.9705L61.9648 74.5526L62.3827 74.9705L63.2185 74.5526L63.6364 75.3884H64.2633L64.6812 76.2242L65.517 74.7615L66.3528 76.0152L67.3975 74.7615L68.2333 76.0152L69.0691 75.8063L69.9049 76.4331L70.3228 76.2242L70.7407 76.4331L71.1586 75.3884L71.5765 76.4331L71.9944 76.2242L72.6212 76.4331L73.0391 75.3884L73.8749 76.4331L74.2928 76.2242L74.7107 76.851L75.3376 76.4331L75.9644 77.06H78.6807L78.8897 76.4331L79.7255 77.06L80.1434 76.4331L80.5613 77.06L81.1881 75.8063L82.0239 77.06L82.8597 75.8063L83.6955 77.06L84.5313 75.8063L85.3671 76.851L86.8297 75.8063L88.0834 76.851L88.7103 74.9705L89.755 76.851L90.7998 74.7615L91.6355 75.3884L92.4713 74.3436L93.3071 74.9705L93.934 74.3436L94.7698 74.9705L95.1877 74.5526L95.8145 75.3884L96.6503 74.9705L97.2772 76.2242L98.7398 75.3884L99.1577 76.0152L99.7845 75.3884L100.62 76.2242L100.829 75.1794L101.665 76.2242L102.501 74.9705L103.337 75.8063L104.381 74.7615L104.799 75.3884L105.635 74.7615L106.262 75.3884L106.68 74.5526L107.307 75.3884L107.725 74.5526L108.56 75.1794L109.187 74.9705L109.814 76.2242L110.65 75.8063L111.277 77.06L111.904 76.4331L113.157 77.8958L114.62 77.4779L115.038 78.3137L115.874 77.8958L116.918 78.3137L117.754 77.8958L118.172 78.3137L119.008 77.8958L119.844 78.3137H120.679H121.515H135.724V78.7316H0.324951V78.5226ZM0.324969 78.9405L0.533918 81.239L0.951816 81.03L1.36971 82.0748L1.99656 81.03L2.41446 81.6569L2.83235 81.03L3.4592 83.5374L4.50394 83.3285L5.75764 83.5374L7.01133 83.3285L8.26502 83.5374L9.30976 83.3285L10.3545 83.5374L10.9814 82.9106L11.6082 83.1195L12.235 82.4927L13.2798 82.0748L14.1156 81.6569L15.3693 83.1195L16.414 81.4479L17.6677 82.0748L18.7125 80.8211L19.1304 81.6569L19.9661 80.6121L20.593 81.239L21.4288 80.6121L22.2646 80.8211L23.1004 79.7763L24.1451 79.9853L24.3541 79.1495L25.1899 79.7763L25.6078 79.1495H26.8615H29.1599H31.2494H32.921H33.9657H35.0105H36.4731L37.3089 81.6569H38.1447L38.3536 82.9106L39.1894 82.7016L40.2342 83.1195L41.2789 82.7016L42.3237 83.1195L42.7416 81.6569L43.5774 82.7016L43.9953 81.6569L44.8311 82.7016L45.04 81.6569H46.2937L46.9205 82.7016L47.3384 81.6569H48.5921L49.219 82.7016L49.8458 81.6569L50.6816 82.0748L51.5174 81.4479L52.1443 81.6569L52.7711 81.4479L53.3979 82.0748L54.2337 81.6569L54.8606 83.1195L55.2785 82.7016L55.9053 83.1195L56.7411 82.7016L57.368 83.1195L57.9948 82.7016L58.6217 83.1195L59.4575 82.4927L60.0843 83.1195L60.5022 82.7016L60.9201 83.1195L61.5469 82.4927L61.9648 82.9106L62.3827 82.4927L63.2185 82.9106L63.6364 82.0748H64.2633L64.6812 81.239L65.517 82.7016L66.3528 81.4479L67.3975 82.7016L68.2333 81.4479L69.0691 81.6569L69.9049 81.03L70.3228 81.239L70.7407 81.03L71.1586 82.0748L71.5765 81.03L71.9944 81.239L72.6212 81.03L73.0391 82.0748L73.8749 81.03L74.2928 81.239L74.7107 80.6121L75.3376 81.03L75.9644 80.4032H78.6807L78.8897 81.03L79.7255 80.4032L80.1434 81.03L80.5613 80.4032L81.1881 81.6569L82.0239 80.4032L82.8597 81.6569L83.6955 80.4032L84.5313 81.6569L85.3671 80.6121L86.8297 81.6569L88.0834 80.6121L88.7103 82.4927L89.755 80.6121L90.7998 82.7016L91.6356 82.0748L92.4714 83.1195L93.3072 82.4927L93.934 83.1195L94.7698 82.4927L95.1877 82.9106L95.8145 82.0748L96.6503 82.4927L97.2772 81.239L98.7398 82.0748L99.1577 81.4479L99.7846 82.0748L100.62 81.239L100.829 82.2837L101.665 81.239L102.501 82.4927L103.337 81.6569L104.381 82.7016L104.799 82.0748L105.635 82.7016L106.262 82.0748L106.68 82.9106L107.307 82.0748L107.725 82.9106L108.56 82.2837L109.187 82.4927L109.814 81.239L110.65 81.6569L111.277 80.4032L111.904 81.03L113.157 79.5674L114.62 79.9853L115.038 79.1495L115.874 79.5674L116.918 79.1495L117.754 79.5674L118.172 79.1495L119.008 79.5674L119.844 79.1495H120.679H121.515H135.724V78.7316H0.324969V78.9405ZM0.53395 88.5522L0.742899 86.2538L1.1608 86.4627L1.57869 85.418L2.20554 86.4627L2.62344 85.8359L3.04133 86.4627L3.66818 83.9553L4.71292 84.1643L5.96662 83.9553L7.22031 84.1643L8.474 83.9553L9.51875 84.1643L10.5635 83.9553L11.1903 84.5822L11.8172 84.3732L12.444 85.0001L13.4888 85.418L14.3246 85.8359L15.5783 84.3732L16.623 86.0448L17.8767 85.418L18.9214 86.6717L19.3393 85.8359L20.1751 86.8806L20.802 86.2538L21.6378 86.8806L22.4736 86.6717L23.3094 87.7164L24.3541 87.5075L24.5631 88.3433L25.3988 87.7164L25.8167 88.3433H27.0704H29.3689H31.4584H33.13H34.1747H35.2194H36.6821L37.5179 85.8359H38.3537L38.5626 84.5822L39.3984 84.7911L40.4432 84.3732L41.4879 84.7911L42.5326 84.3732L42.9505 85.8359L43.7863 84.7911L44.2042 85.8359L45.04 84.7911L45.249 85.8359H46.5027L47.1295 84.7911L47.5474 85.8359H48.8011L49.428 84.7911L50.0548 85.8359L50.8906 85.418L51.7264 86.0448L52.3532 85.8359L52.9801 86.0448L53.6069 85.418L54.4427 85.8359L55.0696 84.3732L55.4875 84.7911L56.1143 84.3732L56.9501 84.7911L57.577 84.3732L58.2038 84.7911L58.8306 84.3732L59.6664 85.0001L60.2933 84.3732L60.7112 84.7911L61.1291 84.3732L61.7559 85.0001L62.1738 84.5822L62.5917 85.0001L63.4275 84.5822L63.8454 85.418H64.4723L64.8902 86.2538L65.726 84.7911L66.5618 86.0448L67.6065 84.7911L68.4423 86.0448L69.2781 85.8359L70.1139 86.4627L70.5318 86.2538L70.9497 86.4627L71.3676 85.418L71.7855 86.4627L72.2034 86.2538L72.8302 86.4627L73.2481 85.418L74.0839 86.4627L74.5018 86.2538L74.9197 86.8806L75.5466 86.4627L76.1734 87.0896H78.8897L79.0987 86.4627L79.9345 87.0896L80.3524 86.4627L80.7703 87.0896L81.3971 85.8359L82.2329 87.0896L83.0687 85.8359L83.9045 87.0896L84.7403 85.8359L85.5761 86.8806L87.0387 85.8359L88.2924 86.8806L88.9193 85.0001L89.964 86.8806L91.0088 84.7911L91.8445 85.418L92.6803 84.3732L93.5161 85.0001L94.143 84.3732L94.9788 85.0001L95.3967 84.5822L96.0235 85.418L96.8593 85.0001L97.4862 86.2538L98.9488 85.418L99.3667 86.0448L99.9935 85.418L100.829 86.2538L101.038 85.209L101.874 86.2538L102.71 85.0001L103.546 85.8359L104.59 84.7911L105.008 85.418L105.844 84.7911L106.471 85.418L106.889 84.5822L107.516 85.418L107.934 84.5822L108.769 85.209L109.396 85.0001L110.023 86.2538L110.859 85.8359L111.486 87.0896L112.113 86.4627L113.366 87.9254L114.829 87.5075L115.247 88.3433L116.083 87.9254L117.127 88.3433L117.963 87.9254L118.381 88.3433L119.217 87.9254L120.053 88.3433H120.888H121.724H135.933V88.7612L135.933 89.1791H121.724H120.888H120.053L119.217 89.597L118.381 89.1791L117.963 89.597L117.127 89.1791L116.083 89.597L115.247 89.1791H36.6821H35.2195H34.1747H33.13H31.4584H29.3689H27.0705H25.8168L25.3989 89.8059L24.5631 89.1791L24.3541 90.0149L23.3094 89.8059L1.00003 90L0.533965 88.9701V88.7612H0.53395V88.5522Z" fill="#FF00FF"/>
</svg>
