<svg width="12" height="81" viewBox="0 0 12 81" fill="none" xmlns="http://www.w3.org/2000/svg">
<path id="DrumRackScroller 2" fill-rule="evenodd" clip-rule="evenodd" d="M2.82129 0.980469H0.539573V3.26219H2.82129V0.980469ZM2.82127 23.7976H0.539551V26.0794H2.82127V23.7976ZM0.539551 46.6148H2.82127V48.8965H0.539551V46.6148ZM2.82127 69.4321H0.539551V71.7138H2.82127V69.4321ZM0.539551 3.83262H2.82127V6.11434H0.539551V3.83262ZM2.82127 26.6498H0.539551V28.9315H2.82127V26.6498ZM0.539551 49.467H2.82127V51.7487H0.539551V49.467ZM2.82127 72.2843H0.539551V74.566H2.82127V72.2843ZM0.539551 6.68476H2.82127V8.96648H0.539551V6.68476ZM2.82127 29.5019H0.539551V31.7837H2.82127V29.5019ZM0.539551 75.1364H2.82127V77.4181H0.539551V75.1364ZM2.82127 9.53691H0.539551V11.8186H2.82127V9.53691ZM0.539551 32.3541H2.82127V34.6358H0.539551V32.3541ZM2.82127 77.9886H0.539551V80.2703H2.82127V77.9886ZM3.39173 0.980469H5.67345V3.26219H3.39173V0.980469ZM5.67345 23.7976H3.39173V26.0794H5.67345V23.7976ZM3.39173 46.6148H5.67345V48.8965H3.39173V46.6148ZM5.67345 69.4321H3.39173V71.7138H5.67345V69.4321ZM3.39173 3.83262H5.67345V6.11434H3.39173V3.83262ZM5.67345 26.6498H3.39173V28.9315H5.67345V26.6498ZM3.39173 72.2843H5.67345V74.566H3.39173V72.2843ZM5.67345 6.68476H3.39173V8.96648H5.67345V6.68476ZM3.39173 29.5019H5.67345V31.7837H3.39173V29.5019ZM5.67345 52.3192H3.39173V54.6009H5.67345V52.3192ZM3.39173 75.1364H5.67345V77.4181H3.39173V75.1364ZM5.67345 9.53691H3.39173V11.8186H5.67345V9.53691ZM3.39173 32.3541H5.67345V34.6358H3.39173V32.3541ZM5.67345 55.1713H3.39173V57.453H5.67345V55.1713ZM3.39173 77.9886H5.67345V80.2703H3.39173V77.9886ZM8.52556 0.980469H6.24384V3.26219H8.52556V0.980469ZM6.24384 23.7976H8.52556V26.0794H6.24384V23.7976ZM8.52556 46.6148H6.24384V48.8965H8.52556V46.6148ZM6.24384 69.4321H8.52556V71.7138H6.24384V69.4321ZM8.52556 3.83262H6.24384V6.11434H8.52556V3.83262ZM6.24384 26.6498H8.52556V28.9315H6.24384V26.6498ZM8.52556 49.467H6.24384V51.7487H8.52556V49.467ZM6.24384 72.2843H8.52556V74.566H6.24384V72.2843ZM8.52556 6.68476H6.24384V8.96648H8.52556V6.68476ZM6.24384 29.5019H8.52556V31.7837H6.24384V29.5019ZM8.52556 52.3192H6.24384V54.6009H8.52556V52.3192ZM6.24384 75.1364H8.52556V77.4181H6.24384V75.1364ZM8.52556 9.53691H6.24384V11.8186H8.52556V9.53691ZM6.24384 32.3541H8.52556V34.6358H6.24384V32.3541ZM8.52556 77.9886H6.24384V80.2703H8.52556V77.9886ZM9.09607 0.980469H11.3778V3.26219H9.09607V0.980469ZM11.3778 23.7976H9.09607V26.0794H11.3778V23.7976ZM9.09607 46.6148H11.3778V48.8965H9.09607V46.6148ZM11.3778 69.4321H9.09607V71.7138H11.3778V69.4321ZM9.09607 3.83262H11.3778V6.11434H9.09607V3.83262ZM11.3778 26.6498H9.09607V28.9315H11.3778V26.6498ZM9.09607 49.467H11.3778V51.7487H9.09607V49.467ZM11.3778 72.2843H9.09607V74.566H11.3778V72.2843ZM9.09607 6.68476H11.3778V8.96648H9.09607V6.68476ZM11.3778 29.5019H9.09607V31.7837H11.3778V29.5019ZM9.09607 75.1364H11.3778V77.4181H9.09607V75.1364ZM11.3778 9.53691H9.09607V11.8186H11.3778V9.53691ZM9.09607 32.3541H11.3778V34.6358H9.09607V32.3541ZM11.3778 77.9886H9.09607V80.2703H11.3778V77.9886Z" fill="#AEA59D"/>
</svg>
