<svg width="12" height="92" viewBox="0 0 12 92" fill="none" xmlns="http://www.w3.org/2000/svg">
<path id="DrumRackScroller 1" fill-rule="evenodd" clip-rule="evenodd" d="M2.82129 0.424011H0.539573V2.70573H2.82129V0.424011ZM2.82127 23.2412H0.539551V25.5229H2.82127V23.2412ZM0.539551 46.0584H2.82127V48.3402H0.539551V46.0584ZM2.82127 68.8756H0.539551V71.1573H2.82127V68.8756ZM0.539551 20.3891H2.82127V22.6708H0.539551V20.3891ZM2.82127 43.2062H0.539551V45.488H2.82127V43.2062ZM0.539551 66.0235H2.82127V68.3052H0.539551V66.0235ZM2.82127 3.27618H0.539551V5.5579H2.82127V3.27618ZM0.539551 26.0934H2.82127V28.3751H0.539551V26.0934ZM2.82127 48.9106H0.539551V51.1923H2.82127V48.9106ZM0.539551 71.7278H2.82127V74.0095H0.539551V71.7278ZM2.82127 6.12832H0.539551V8.41004H2.82127V6.12832ZM0.539551 28.9455H2.82127V31.2272H0.539551V28.9455ZM2.82127 51.7627H0.539551V54.0445H2.82127V51.7627ZM0.539551 74.5799H2.82127V76.8616H0.539551V74.5799ZM2.82127 88.8407H0.539551V91.1224H2.82127V88.8407ZM3.39173 0.424029H5.67345V2.70575H3.39173V0.424029ZM5.67345 23.2412H3.39173V25.5229H5.67345V23.2412ZM3.39173 46.0584H5.67345V48.3402H3.39173V46.0584ZM5.67345 68.8756H3.39173V71.1573H5.67345V68.8756ZM3.39173 20.3891H5.67345V22.6708H3.39173V20.3891ZM5.67345 43.2062H3.39173V45.488H5.67345V43.2062ZM3.39173 66.0235H5.67345V68.3052H3.39173V66.0235ZM5.67345 3.27618H3.39173V5.5579H5.67345V3.27618ZM3.39173 26.0934H5.67345V28.3751H3.39173V26.0934ZM5.67345 48.9106H3.39173V51.1923H5.67345V48.9106ZM3.39173 71.7278H5.67345V74.0095H3.39173V71.7278ZM5.67345 6.12832H3.39173V8.41004H5.67345V6.12832ZM3.39173 28.9455H5.67345V31.2272H3.39173V28.9455ZM5.67345 51.7627H3.39173V54.0445H5.67345V51.7627ZM3.39173 74.5799H5.67345V76.8616H3.39173V74.5799ZM5.67345 88.8407H3.39173V91.1224H5.67345V88.8407ZM6.24384 0.424029H8.52556V2.70575H6.24384V0.424029ZM8.52556 23.2412H6.24384V25.5229H8.52556V23.2412ZM6.24384 46.0584H8.52556V48.3402H6.24384V46.0584ZM8.52556 68.8756H6.24384V71.1573H8.52556V68.8756ZM6.24384 20.3891H8.52556V22.6708H6.24384V20.3891ZM8.52556 43.2062H6.24384V45.488H8.52556V43.2062ZM6.24384 66.0235H8.52556V68.3052H6.24384V66.0235ZM8.52556 3.27618H6.24384V5.5579H8.52556V3.27618ZM6.24384 26.0934H8.52556V28.3751H6.24384V26.0934ZM8.52556 48.9106H6.24384V51.1923H8.52556V48.9106ZM6.24384 71.7278H8.52556V74.0095H6.24384V71.7278ZM8.52556 6.12832H6.24384V8.41004H8.52556V6.12832ZM6.24384 28.9455H8.52556V31.2272H6.24384V28.9455ZM8.52556 51.7627H6.24384V54.0445H8.52556V51.7627ZM6.24384 74.5799H8.52556V76.8616H6.24384V74.5799ZM8.52556 88.8407H6.24384V91.1224H8.52556V88.8407ZM9.09607 0.424029H11.3778V2.70575H9.09607V0.424029ZM11.3778 23.2412H9.09607V25.5229H11.3778V23.2412ZM9.09607 46.0584H11.3778V48.3402H9.09607V46.0584ZM11.3778 68.8756H9.09607V71.1573H11.3778V68.8756ZM9.09607 20.3891H11.3778V22.6708H9.09607V20.3891ZM11.3778 43.2062H9.09607V45.488H11.3778V43.2062ZM9.09607 66.0235H11.3778V68.3052H9.09607V66.0235ZM11.3778 3.27618H9.09607V5.5579H11.3778V3.27618ZM9.09607 26.0934H11.3778V28.3751H9.09607V26.0934ZM11.3778 48.9106H9.09607V51.1923H11.3778V48.9106ZM9.09607 71.7278H11.3778V74.0095H9.09607V71.7278ZM11.3778 6.12832H9.09607V8.41004H11.3778V6.12832ZM9.09607 28.9455H11.3778V31.2272H9.09607V28.9455ZM11.3778 51.7627H9.09607V54.0445H11.3778V51.7627ZM9.09607 74.5799H11.3778V76.8616H9.09607V74.5799ZM11.3778 88.8407H9.09607V91.1224H11.3778V88.8407Z" fill="#C4BCB7"/>
</svg>
