<svg width="782" height="127" viewBox="0 0 782 127" fill="none" xmlns="http://www.w3.org/2000/svg">
<path id="GridLineBase" d="M39.0498 0.809296C39.0498 51.4583 39.0498 75.3206 39.0498 125.97M0.324951 125.97C0.324951 75.3206 0.324951 51.4583 0.324951 0.809296M77.7746 125.97C77.7746 75.3206 77.7746 51.4583 77.7746 0.809296M155.224 0.809296C155.224 51.4583 155.224 75.3206 155.224 125.97M116.499 125.97C116.499 75.3206 116.499 51.4583 116.499 0.809296M193.949 125.97C193.949 75.3206 193.949 51.4583 193.949 0.809296M272.585 0.809296C272.585 51.4583 272.585 75.3206 272.585 125.97M233.93 125.97C233.93 75.3206 233.93 51.4583 233.93 0.809296M312.494 125.97C312.494 75.3206 312.494 51.4583 312.494 0.809296M390.014 0.809296C390.014 51.4583 390.014 75.3206 390.014 125.97M351.15 125.97C351.15 75.3206 351.15 51.4583 351.15 0.809296M741.466 126.179C741.466 75.5295 741.466 51.4583 741.466 0.809296M781.375 126.179C781.375 75.5295 781.375 51.4583 781.375 0.809296" stroke="black" stroke-opacity="0.15" stroke-width="0.543267"/>
</svg>
