<svg width="157" height="127" viewBox="0 0 157 127" fill="none" xmlns="http://www.w3.org/2000/svg">
<path id="LoopColor" fill-rule="evenodd" clip-rule="evenodd" d="M4.98784 2.34355L5.36981 2.56834L4.99614 2.80667L2.00152 4.71663H155.491L152.445 2.806L152.453 2.34081L155.352 0.663021H2.13229L4.98784 2.34355ZM1.20917 0.119754H156.364H156.636V0.391388V4.98826L156.636 4.98831V126.179H156.093V5.25989H1.59667L1.68348 126.178L1.14021 126.179L1.05345 5.32131L1.03436 5.33348V5.25989H0.907959V4.98826V0.391388V0.119754H1.03436L1.03436 0.0168762L1.20917 0.119754ZM1.57763 0.966959L1.57763 4.34263L4.33033 2.58696L1.57763 0.966959ZM155.998 4.3937V0.916544L153.115 2.58525L155.998 4.3937Z" fill="#595555"/>
</svg>
