<svg width="390" height="16" viewBox="0 0 390 16" fill="none" xmlns="http://www.w3.org/2000/svg">
<path id="Poti" fill-rule="evenodd" clip-rule="evenodd" d="M192.413 7.68773C192.413 4.19979 195.241 1.37225 198.729 1.37225C201.95 1.37225 204.608 3.78351 204.996 6.89941C205.022 7.11274 205.199 7.28028 205.414 7.28028H205.826C206.06 7.28028 206.247 7.08391 206.221 6.85177C205.805 3.08214 202.609 0.149902 198.729 0.149902C194.566 0.149902 191.191 3.5247 191.191 7.68773C191.191 11.5682 194.123 14.7638 197.893 15.1797C198.125 15.2053 198.321 15.0185 198.321 14.785V14.3726C198.321 14.1576 198.154 13.981 197.941 13.9545C194.825 13.5665 192.413 10.9087 192.413 7.68773ZM1.43426 7.68775C1.43426 4.19981 4.2618 1.37228 7.74974 1.37228C10.9707 1.37228 13.6285 3.78354 14.0165 6.89943C14.0431 7.11276 14.2196 7.2803 14.4346 7.2803H14.847C15.0805 7.2803 15.2673 7.08393 15.2417 6.8518C14.8258 3.08216 11.6302 0.149926 7.74974 0.149926C3.58671 0.149926 0.211914 3.52473 0.211914 7.68775C0.211914 11.5682 3.14415 14.7638 6.91378 15.1797C7.14592 15.2054 7.34229 15.0186 7.34229 14.785V14.3726C7.34229 14.1577 7.17474 13.9811 6.96142 13.9545C3.84552 13.5665 1.43426 10.9087 1.43426 7.68775ZM277.712 1.79016C274.224 1.79016 271.396 4.61769 271.396 8.10563C271.396 11.3266 273.807 13.9844 276.923 14.3724C277.137 14.3989 277.304 14.5755 277.304 14.7905V15.2029C277.304 15.4364 277.108 15.6232 276.876 15.5976C273.106 15.1817 270.174 11.9861 270.174 8.10563C270.174 3.9426 273.549 0.567805 277.712 0.567805C281.592 0.567805 284.788 3.50004 285.204 7.26968C285.229 7.50181 285.042 7.69818 284.809 7.69818H284.396C284.181 7.69818 284.005 7.53064 283.978 7.31731C283.59 4.20142 280.933 1.79016 277.712 1.79016ZM344.11 8.10563C344.11 4.61769 346.938 1.79016 350.426 1.79016C353.647 1.79016 356.304 4.20142 356.692 7.31731C356.719 7.53064 356.896 7.69818 357.111 7.69818H357.523C357.757 7.69818 357.943 7.50181 357.918 7.26968C357.502 3.50004 354.306 0.567805 350.426 0.567805C346.263 0.567805 342.888 3.9426 342.888 8.10563C342.888 11.9861 345.82 15.1817 349.59 15.5976C349.822 15.6232 350.018 15.4364 350.018 15.2029V14.7905C350.018 14.5755 349.851 14.3989 349.637 14.3724C346.521 13.9844 344.11 11.3266 344.11 8.10563ZM376.074 5.25348C375.702 6.05893 375.436 7.20859 375.436 8.15435C375.436 11.3753 377.848 14.0331 380.964 14.4211C381.177 14.4477 381.575 14.5755 381.575 14.7905V15.2029C381.575 15.4364 381.381 15.4195 381.149 15.3939C377.379 14.978 374.648 11.5787 374.648 7.69818C374.648 6.6651 374.957 5.86442 375.273 5.04809C375.401 4.71718 375.53 4.3837 375.639 4.03113C376.968 1.88287 379.271 0.567805 381.982 0.567805C385.863 0.567805 389.058 3.50004 389.474 7.26967C389.5 7.50181 389.313 7.69818 389.079 7.69818H388.667C388.452 7.69818 388.275 7.53064 388.249 7.31731C387.861 4.20142 385.203 1.79016 381.982 1.79016C379.712 1.79016 377.721 2.98804 376.608 4.78623C376.2 4.78623 376.166 4.92395 376.125 5.0923C376.113 5.14416 376.099 5.19894 376.074 5.25348Z" fill="#95887E"/>
</svg>
