<svg width="424" height="13" viewBox="0 0 424 13" fill="none" xmlns="http://www.w3.org/2000/svg">
<path id="PotiNeedle" fill-rule="evenodd" clip-rule="evenodd" d="M422.11 5.42824C422.5 5.65327 422.998 5.51972 423.223 5.12996C423.448 4.7402 423.315 4.24182 422.925 4.01679L416.926 0.553465C416.537 0.328436 416.038 0.461978 415.813 0.851739C415.588 1.2415 415.722 1.73988 416.111 1.96491L422.11 5.42824ZM48.7113 4.21008C48.7113 3.76002 48.3465 3.39518 47.8964 3.39518C47.4464 3.39518 47.0815 3.76002 47.0815 4.21008V11.1367C47.0815 11.5868 47.4464 11.9516 47.8964 11.9516C48.3465 11.9516 48.7113 11.5868 48.7113 11.1367V4.21008ZM0.684624 9.4253C0.384586 9.4253 0.141357 9.66853 0.141357 9.96856C0.141357 10.2686 0.384586 10.5118 0.684624 10.5118H5.30239C5.60243 10.5118 5.84566 10.2686 5.84566 9.96856C5.84566 9.66853 5.60243 9.4253 5.30239 9.4253H0.684624ZM238.876 3.39518C239.326 3.39518 239.69 3.76002 239.69 4.21008V11.1367C239.69 11.5868 239.326 11.9516 238.876 11.9516C238.425 11.9516 238.061 11.5868 238.061 11.1367V4.21008C238.061 3.76002 238.425 3.39518 238.876 3.39518ZM318.673 4.62798C318.673 4.17793 318.308 3.81308 317.858 3.81308C317.408 3.81308 317.043 4.17793 317.043 4.62798V11.5546C317.043 12.0047 317.408 12.3695 317.858 12.3695C318.308 12.3695 318.673 12.0047 318.673 11.5546V4.62798ZM390.572 3.81308C391.022 3.81308 391.387 4.17793 391.387 4.62798V11.5546C391.387 12.0047 391.022 12.3695 390.572 12.3695C390.122 12.3695 389.757 12.0047 389.757 11.5546V4.62798C389.757 4.17793 390.122 3.81308 390.572 3.81308Z" fill="#302722"/>
</svg>
