<svg width="162" height="17" viewBox="0 0 162 17" fill="none" xmlns="http://www.w3.org/2000/svg">
<path id="RetroDisplayHandle1" fill-rule="evenodd" clip-rule="evenodd" d="M154.631 4.03171C154.631 2.41612 155.941 1.10642 157.556 1.10642C159.172 1.10642 160.482 2.41612 160.482 4.03171C160.482 5.6473 159.172 6.95699 157.556 6.95699C155.941 6.95699 154.631 5.6473 154.631 4.03171ZM157.556 0.27063C155.479 0.27063 153.795 1.95452 153.795 4.03171C153.795 6.10889 155.479 7.79278 157.556 7.79278C159.634 7.79278 161.318 6.10889 161.318 4.03171C161.318 1.95452 159.634 0.27063 157.556 0.27063ZM4.18832 3.196C2.57273 3.196 1.26304 4.50569 1.26304 6.12128C1.26304 7.73687 2.57273 9.04656 4.18832 9.04656C5.80391 9.04656 7.11361 7.73687 7.11361 6.12128C7.11361 4.50569 5.80391 3.196 4.18832 3.196ZM0.427246 6.12128C0.427246 4.04409 2.11114 2.3602 4.18832 2.3602C6.26551 2.3602 7.9494 4.04409 7.9494 6.12128C7.9494 8.19846 6.26551 9.88236 4.18832 9.88236C2.11114 9.88236 0.427246 8.19846 0.427246 6.12128ZM127.468 9.88232C125.852 9.88232 124.543 11.192 124.543 12.8076C124.543 14.4232 125.852 15.7329 127.468 15.7329C129.084 15.7329 130.393 14.4232 130.393 12.8076C130.393 11.192 129.084 9.88232 127.468 9.88232ZM123.707 12.8076C123.707 10.7304 125.391 9.04653 127.468 9.04653C129.545 9.04653 131.229 10.7304 131.229 12.8076C131.229 14.8848 129.545 16.5687 127.468 16.5687C125.391 16.5687 123.707 14.8848 123.707 12.8076Z" fill="#FF00FF"/>
</svg>
