<svg width="1010" height="371" viewBox="0 0 1010 371" fill="none" xmlns="http://www.w3.org/2000/svg">
<path id="RetroDisplayBackground" fill-rule="evenodd" clip-rule="evenodd" d="M95.088 0.330841C94.6034 0.330841 94.2104 0.723751 94.2104 1.20843V93.2294C94.2104 93.7141 94.6034 94.107 95.088 94.107H101.022C101.507 94.107 101.9 93.7141 101.9 93.2294V1.20843C101.9 0.723749 101.507 0.330841 101.022 0.330841H95.088ZM94.7955 1.20843C94.7955 1.04687 94.9265 0.915897 95.088 0.915897H101.022C101.184 0.915897 101.315 1.04687 101.315 1.20843V93.2294C101.315 93.391 101.184 93.522 101.022 93.522H95.088C94.9265 93.522 94.7955 93.391 94.7955 93.2294V1.20843ZM205.413 0.330841C204.928 0.330841 204.535 0.723751 204.535 1.20843V93.2294C204.535 93.7141 204.928 94.107 205.413 94.107H211.347C211.832 94.107 212.225 93.7141 212.225 93.2294V1.20843C212.225 0.723749 211.832 0.330841 211.347 0.330841H205.413ZM205.12 1.20843C205.12 1.04687 205.251 0.915897 205.413 0.915897H211.347C211.509 0.915897 211.64 1.04687 211.64 1.20843V93.2294C211.64 93.391 211.509 93.522 211.347 93.522H205.413C205.251 93.522 205.12 93.391 205.12 93.2294V1.20843ZM148.537 1.20843C148.537 0.723751 148.93 0.330841 149.415 0.330841H155.767C156.251 0.330841 156.644 0.723749 156.644 1.20843V93.2294C156.644 93.7141 156.251 94.107 155.767 94.107H149.415C148.93 94.107 148.537 93.7141 148.537 93.2294V1.20843ZM149.415 0.915897C149.253 0.915897 149.122 1.04687 149.122 1.20843V93.2294C149.122 93.391 149.253 93.522 149.415 93.522H155.767C155.928 93.522 156.059 93.391 156.059 93.2294V1.20843C156.059 1.04687 155.928 0.915897 155.767 0.915897H149.415ZM259.74 0.330841C259.255 0.330841 258.862 0.723751 258.862 1.20843V93.2294C258.862 93.7141 259.255 94.107 259.74 94.107H265.674C266.158 94.107 266.551 93.7141 266.551 93.2294V1.20843C266.551 0.723749 266.158 0.330841 265.674 0.330841H259.74ZM259.447 1.20843C259.447 1.04687 259.578 0.915897 259.74 0.915897H265.674C265.835 0.915897 265.966 1.04687 265.966 1.20843V93.2294C265.966 93.391 265.835 93.522 265.674 93.522H259.74C259.578 93.522 259.447 93.391 259.447 93.2294V1.20843ZM920.685 278.107C920.685 276.953 921.621 276.018 922.775 276.018H1009.7V342.046H922.775C921.621 342.046 920.685 341.11 920.685 339.956V278.107ZM585.95 274.346C584.796 274.346 583.861 275.282 583.861 276.436V337.867C583.861 339.021 584.796 339.956 585.95 339.956H640.277C641.431 339.956 642.367 339.021 642.367 337.867V276.436C642.367 275.282 641.431 274.346 640.277 274.346H585.95ZM2.14759 275.182C0.993601 275.182 0.0581055 276.118 0.0581055 277.272V346.225C0.0581055 347.379 0.99361 348.314 2.1476 348.314H169.307V275.182H2.14759ZM386.195 275.182C385.041 275.182 384.106 276.118 384.106 277.272V368.373C384.106 369.527 385.041 370.463 386.195 370.463H517.415C518.569 370.463 519.505 369.527 519.505 368.373V277.272C519.505 276.118 518.569 275.182 517.415 275.182H386.195ZM328.943 297.748C328.943 296.594 329.879 295.659 331.033 295.659H381.181V337.449H331.033C329.879 337.449 328.943 336.513 328.943 335.359V297.748ZM643.62 276.436C643.62 275.282 644.556 274.346 645.71 274.346H698.783C699.937 274.346 700.872 275.282 700.872 276.436V337.867C700.872 339.021 699.937 339.956 698.783 339.956H645.71C644.556 339.956 643.62 339.021 643.62 337.867V276.436ZM704.215 274.346C703.061 274.346 702.126 275.282 702.126 276.436V337.867C702.126 339.021 703.061 339.956 704.215 339.956H809.108C810.262 339.956 811.197 339.021 811.197 337.867V276.436C811.197 275.282 810.262 274.346 809.108 274.346H704.215ZM813.287 276.436C813.287 275.282 814.222 274.346 815.376 274.346H840.868C842.022 274.346 842.957 275.282 842.957 276.436V337.867C842.957 339.021 842.022 339.956 840.868 339.956H815.376C814.222 339.956 813.287 339.021 813.287 337.867V276.436Z" fill="black"/>
</svg>
