<svg width="123" height="76" viewBox="0 0 123 76" fill="none" xmlns="http://www.w3.org/2000/svg">
<g id="RetroDisplayGreen">
<path d="M0.0463867 0.0823975H4.95192V0.659519H0.0463867V0.0823975Z" fill="#00FF00"/>
<path d="M6.10616 0.0823975H11.0117V0.659519H6.10616V0.0823975Z" fill="#00FF00"/>
<path d="M12.4545 0.0823975H17.36V0.659519H12.4545V0.0823975Z" fill="#00FF00"/>
<path d="M18.5143 2.96801H23.4198V3.54513H18.5143V2.96801Z" fill="#00FF00"/>
<path d="M24.5741 6.43074H29.4796V7.00786H24.5741V6.43074Z" fill="#00FF00"/>
<path d="M30.9224 8.1621H35.8279V8.73922H30.9224V8.1621Z" fill="#00FF00"/>
<path d="M37.2707 11.0477H42.1763V11.6248H37.2707V11.0477Z" fill="#00FF00"/>
<path d="M43.3305 15.9532H48.2361V16.5304H43.3305V15.9532Z" fill="#00FF00"/>
<path d="M49.3903 19.7045H54.2958V20.2817H49.3903V19.7045Z" fill="#00FF00"/>
<path d="M55.7386 19.7045H60.6442V20.2817H55.7386V19.7045Z" fill="#00FF00"/>
<path d="M62.087 15.9532H66.9925V16.5304H62.087V15.9532Z" fill="#00FF00"/>
<path d="M68.1468 11.3363H73.0523V11.9134H68.1468V11.3363Z" fill="#00FF00"/>
<path d="M74.2065 8.73922H79.1121V9.31635H74.2065V8.73922Z" fill="#00FF00"/>
<path d="M80.5549 7.29642H85.4604V7.87354H80.5549V7.29642Z" fill="#00FF00"/>
<path d="M86.9032 7.29642H91.8087V7.87354H86.9032V7.29642Z" fill="#00FF00"/>
<path d="M93.2515 7.29642H98.1571V7.87354H93.2515V7.29642Z" fill="#00FF00"/>
<path d="M99.0228 5.85361H103.928V6.43074H99.0228V5.85361Z" fill="#00FF00"/>
<path d="M105.371 4.41081H110.277V4.98793H105.371V4.41081Z" fill="#00FF00"/>
<path d="M111.719 3.54513H116.625V4.12225H111.719V3.54513Z" fill="#00FF00"/>
<path d="M117.779 0.0823975H122.685V0.659519H117.779V0.0823975Z" fill="#00FF00"/>
<path d="M105.057 75.1775C104.761 75.1775 104.499 75.0948 104.272 74.9293C104.045 74.76 103.868 74.5157 103.741 74.1964C103.618 73.877 103.557 73.4981 103.557 73.0594C103.557 72.6208 103.618 72.2419 103.741 71.9225C103.868 71.6032 104.045 71.3608 104.272 71.1953C104.499 71.026 104.761 70.9414 105.057 70.9414C105.353 70.9414 105.615 71.026 105.842 71.1953C106.069 71.3608 106.244 71.6032 106.367 71.9225C106.494 72.2419 106.558 72.6208 106.558 73.0594C106.558 73.4981 106.494 73.877 106.367 74.1964C106.244 74.5157 106.069 74.76 105.842 74.9293C105.615 75.0948 105.353 75.1775 105.057 75.1775ZM105.057 74.6003C105.226 74.6003 105.377 74.5407 105.507 74.4214C105.638 74.2983 105.74 74.1213 105.813 73.8905C105.886 73.6558 105.923 73.3788 105.923 73.0594C105.923 72.7363 105.886 72.4592 105.813 72.2284C105.74 71.9937 105.638 71.8167 105.507 71.6974C105.377 71.5782 105.226 71.5185 105.057 71.5185C104.888 71.5185 104.738 71.5782 104.607 71.6974C104.476 71.8167 104.374 71.9937 104.301 72.2284C104.228 72.4592 104.191 72.7363 104.191 73.0594C104.191 73.3788 104.228 73.6558 104.301 73.8905C104.374 74.1213 104.476 74.2983 104.607 74.4214C104.738 74.5407 104.888 74.6003 105.057 74.6003Z" fill="#00FF00"/>
<path d="M107.698 75.1486C107.575 75.1486 107.467 75.1025 107.375 75.0101C107.283 74.9178 107.236 74.81 107.236 74.6869C107.236 74.5638 107.283 74.4561 107.375 74.3637C107.471 74.2714 107.579 74.2252 107.698 74.2252C107.821 74.2252 107.929 74.2714 108.021 74.3637C108.114 74.4561 108.16 74.5638 108.16 74.6869C108.16 74.81 108.114 74.9178 108.021 75.0101C107.929 75.1025 107.821 75.1486 107.698 75.1486Z" fill="#00FF00"/>
<path d="M110.344 75.1775C110.047 75.1775 109.786 75.0948 109.559 74.9293C109.332 74.76 109.155 74.5157 109.028 74.1964C108.905 73.877 108.843 73.4981 108.843 73.0594C108.843 72.6208 108.905 72.2419 109.028 71.9225C109.155 71.6032 109.332 71.3608 109.559 71.1953C109.786 71.026 110.047 70.9414 110.344 70.9414C110.64 70.9414 110.902 71.026 111.129 71.1953C111.356 71.3608 111.531 71.6032 111.654 71.9225C111.781 72.2419 111.844 72.6208 111.844 73.0594C111.844 73.4981 111.781 73.877 111.654 74.1964C111.531 74.5157 111.356 74.76 111.129 74.9293C110.902 75.0948 110.64 75.1775 110.344 75.1775ZM110.344 74.6003C110.513 74.6003 110.663 74.5407 110.794 74.4214C110.925 74.2983 111.027 74.1213 111.1 73.8905C111.173 73.6558 111.209 73.3788 111.209 73.0594C111.209 72.7363 111.173 72.4592 111.1 72.2284C111.027 71.9937 110.925 71.8167 110.794 71.6974C110.663 71.5782 110.513 71.5185 110.344 71.5185C110.174 71.5185 110.024 71.5782 109.894 71.6974C109.763 71.8167 109.661 71.9937 109.588 72.2284C109.515 72.4592 109.478 72.7363 109.478 73.0594C109.478 73.3788 109.515 73.6558 109.588 73.8905C109.661 74.1213 109.763 74.2983 109.894 74.4214C110.024 74.5407 110.174 74.6003 110.344 74.6003Z" fill="#00FF00"/>
<path d="M116.641 71.0107V75.1082H116.017V74.785C115.783 75.0505 115.477 75.1833 115.1 75.1833C114.823 75.1833 114.576 75.1178 114.361 74.987C114.149 74.8524 113.984 74.6658 113.865 74.4272C113.749 74.1887 113.691 73.9174 113.691 73.6135C113.691 73.3134 113.749 73.0441 113.865 72.8055C113.984 72.567 114.149 72.3823 114.361 72.2515C114.576 72.1168 114.823 72.0495 115.1 72.0495C115.477 72.0495 115.783 72.1822 116.017 72.4477V71.0107H116.641ZM115.169 74.6234C115.338 74.6234 115.488 74.5792 115.619 74.4907C115.754 74.4022 115.858 74.281 115.931 74.1271C116.004 73.9732 116.04 73.802 116.04 73.6135C116.04 73.3095 115.96 73.0671 115.798 72.8863C115.64 72.7016 115.431 72.6093 115.169 72.6093C114.919 72.6093 114.713 72.7036 114.551 72.8921C114.394 73.0768 114.315 73.3172 114.315 73.6135C114.315 73.9136 114.394 74.1579 114.551 74.3464C114.713 74.5311 114.919 74.6234 115.169 74.6234Z" fill="#00FF00"/>
<path d="M119.686 72.9094C119.909 72.9902 120.084 73.1133 120.211 73.2787C120.338 73.4442 120.401 73.6481 120.401 73.8905C120.401 74.1367 120.342 74.3522 120.222 74.5369C120.107 74.7177 119.945 74.8581 119.738 74.9582C119.534 75.0582 119.301 75.1082 119.039 75.1082H117.614V71.0107H118.918C119.176 71.0107 119.401 71.0549 119.593 71.1434C119.786 71.2319 119.932 71.3569 120.032 71.5185C120.136 71.6801 120.188 71.8648 120.188 72.0726C120.188 72.4612 120.02 72.7401 119.686 72.9094ZM118.266 71.5993V72.6901H118.895C119.095 72.6901 119.251 72.6381 119.363 72.5343C119.478 72.4304 119.536 72.2938 119.536 72.1245C119.536 71.9552 119.48 71.8263 119.368 71.7378C119.257 71.6455 119.099 71.5993 118.895 71.5993H118.266ZM119.039 74.5196C119.251 74.5196 119.42 74.4657 119.547 74.358C119.678 74.2464 119.743 74.0925 119.743 73.8963C119.743 73.7039 119.678 73.55 119.547 73.4346C119.42 73.3191 119.251 73.2614 119.039 73.2614H118.266V74.5196H119.039Z" fill="#00FF00"/>
</g>
</svg>
