<svg width="169" height="49" viewBox="0 0 169 49" fill="none" xmlns="http://www.w3.org/2000/svg">
<path id="RetroDisplayForeground" fill-rule="evenodd" clip-rule="evenodd" d="M168.307 24.3973H0.312012V15.1618L1.806 11.7664L2.34926 8.23513L4.79396 23.4466L6.01631 18.1497L7.37448 23.4466L8.05356 16.1125L8.46101 18.693L9.00428 11.3589L9.54755 14.3469L9.81918 7.9635L10.3624 11.3589L10.9057 5.5188L11.5848 10.9515L12.3997 5.92624L13.0788 11.7664L13.7579 7.1486L14.8444 20.3228L16.2026 11.3589L16.7458 14.0752L17.2891 4.16063L17.6965 14.7543L17.9682 12.5813L19.8696 20.3228L20.4129 18.8288L20.9561 20.3228L21.4994 19.2363L22.5859 21.9526L23.4008 16.1125L24.2157 19.9154L24.4874 18.8288L24.759 19.9154L25.3023 17.199L26.253 20.3228L26.9321 14.0752L28.0186 22.3601L28.8335 19.9154L29.3768 21.5452L29.92 20.3228L30.5991 21.5452L31.1424 19.9154L31.6857 21.2735L32.2289 19.9154L33.0438 21.9526L34.2662 16.3841L34.9453 18.693L36.4392 11.3589L36.9825 12.9887L37.9332 5.92624L38.4765 9.72911L38.8839 7.1486L39.4272 9.72911L39.9705 3.75318L40.5137 7.55605L40.9212 5.92624L41.4645 10.2724L41.8719 8.23513L42.551 13.8036L42.9584 12.9887L43.3659 14.3469L44.1808 10.2724L44.5882 11.7664L45.2673 5.5188L46.218 14.7543L46.4897 13.532L47.4404 18.693L48.1195 17.199L49.3418 20.8661L49.8851 18.4214L50.2925 19.9154L51.5149 0.629395L52.8731 13.532L53.4163 9.72911L54.367 16.1125L55.5894 9.72911L57.0834 17.7423L57.8983 15.705L59.6639 19.5079L60.343 16.7916L61.1579 20.8661L61.5653 19.2363L62.2444 21.5452L62.9235 16.3841L64.01 21.5452L64.5533 20.3228L64.9607 21.9526L65.504 19.2363L66.4547 22.3601L66.8622 20.3228L67.2696 22.3601L67.8129 18.8288L68.6278 22.3601L69.4427 19.2363L70.665 23.4466L71.7516 20.8661L72.5665 23.4466L73.2456 21.9526L74.0605 23.4466L74.4679 22.3601L75.0112 23.0391L75.5544 21.5452L76.3693 23.0391L77.0484 21.5452L77.9991 23.4466L79.0857 22.3601L79.9006 23.4466L80.5797 22.3601L81.5304 23.4466L82.0736 23.0391L82.8885 23.7182L83.4318 23.4466L84.2467 23.9899L84.79 23.4466L85.3333 23.9899L86.1481 22.6317L87.0989 23.7182L88.0496 23.9899L89.2719 23.0391L90.3585 23.9899L91.0375 21.9526L91.8524 23.7182L92.5315 21.9526L93.4822 23.9899L94.8404 23.0391L96.1986 23.9899L102.175 23.7182L102.718 23.0391L103.533 23.7182H104.891L105.57 23.0391L106.656 23.7182L114.534 23.9899L115.349 23.4466L116.299 23.9899L168.307 24.1257V24.3973ZM168.307 24.3974H0.447751V33.6329L1.94173 37.0284L2.485 40.5596L4.9297 25.3481L6.15205 30.645L7.51022 25.3481L8.1893 32.6822L8.59675 30.1017L9.14002 37.4358L9.68328 34.4478L9.95492 40.8312L10.4982 37.4358L11.0415 43.2759L11.7205 37.8433L12.5354 42.8685L13.2145 37.0284L13.8936 41.6461L14.9801 28.4719L16.3383 37.4358L16.8816 34.7195L17.4248 44.6341L17.8323 34.0404L18.1039 36.2134L20.0054 28.4719L20.5486 29.9659L21.0919 28.4719L21.6352 29.5584L22.7217 26.8421L23.5366 32.6822L24.3515 28.8793L24.6231 29.9659L24.8948 28.8793L25.438 31.5957L26.3887 28.4719L27.0678 34.7195L28.1544 26.4346L28.9693 28.8793L29.5125 27.2495L30.0558 28.4719L30.7349 27.2495L31.2781 28.8793L31.8214 27.5212L32.3647 28.8793L33.1796 26.8421L34.4019 32.4106L35.081 30.1017L36.575 37.4358L37.1183 35.806L38.069 42.8685L38.6122 39.0656L39.0197 41.6461L39.563 39.0656L40.1062 45.0415L40.6495 41.2387L41.0569 42.8685L41.6002 38.5223L42.0077 40.5596L42.6867 34.9911L43.0942 35.806L43.5016 34.4478L44.3165 38.5223L44.724 37.0284L45.4031 43.2759L46.3538 34.0404L46.6254 35.2627L47.5761 30.1017L48.2552 31.5957L49.4776 27.9286L50.0208 30.3733L50.4283 28.8793L51.6506 48.1653L53.0088 35.2627L53.5521 39.0656L54.5028 32.6822L55.1819 44.6341L55.7251 37.0284L56.2684 39.7447L57.2191 31.0524L58.034 33.0897L59.7996 29.2868L60.4787 32.0031L61.2936 27.9286L61.7011 29.5584L62.3802 27.2495L63.0592 32.4106L64.1458 27.2495L64.689 28.4719L65.0965 26.8421L65.6398 29.5584L66.5905 26.4346L66.9979 28.4719L67.4054 26.4346L67.9486 29.9659L68.7635 26.4346L69.5784 29.5584L70.8008 25.3481L71.8873 27.9286L72.7022 25.3481L73.3813 26.8421L74.1962 25.3481L74.6037 26.4346L75.1469 25.7556L75.6902 27.2495L76.5051 25.7556L77.1842 27.2495L78.1349 25.3481L79.2214 26.4346L80.0363 25.3481L80.7154 26.4346L81.6661 25.3481L82.2094 25.7556L83.0243 25.0765L83.5676 25.3481L84.3825 24.8048L84.9257 25.3481L85.469 24.8048L86.2839 26.163L87.2346 25.0765L88.1853 24.8048L89.4077 25.7556L90.4942 24.8048L91.1733 26.8421L91.9882 25.0765L92.6673 26.8421L93.618 24.8048L94.9762 25.7556L96.3343 24.8048L102.31 25.0765L102.854 25.7556L103.668 25.0765H105.027L105.706 25.7556L106.792 25.0765L114.67 24.8048L115.484 25.3481L116.435 24.8048L168.307 24.669V24.3974Z" fill="white"/>
</svg>
