<svg width="1164" height="609" viewBox="0 0 1164 609" fill="none" xmlns="http://www.w3.org/2000/svg">
<path id="SurfaceArea" fill-rule="evenodd" clip-rule="evenodd" d="M611.402 6.18289H283.353V7.43658H611.402V6.18289ZM611.402 33.7641H217.116V35.0178H611.402V33.7641ZM932.765 35.0178V33.7641H1037.24V35.0178H932.765ZM611.402 54.2411H217.116V55.4948H611.402V54.2411ZM932.765 55.4948V54.2411H1093.66V55.4948H932.765ZM611.402 73.8823H217.116V75.136H611.402V73.8823ZM932.765 75.136V73.8823H1093.66V75.136H932.765ZM611.402 93.9414H217.116V95.1951H611.402V93.9414ZM932.765 95.1951V93.9414H1163.24V95.1951H932.765ZM611.402 115.463H217.116V116.717H611.402V115.463ZM932.765 116.717V115.463H1093.66V116.717H932.765ZM611.402 131.97H217.116V133.224H611.402V131.97ZM932.765 133.224V131.97H1163.24V133.224H932.765ZM932.765 7.43658V6.18289H1162.68V7.43658H932.765ZM21.6519 11.9708V0.562225H22.4668V11.9708H94.9648H193.428V12.7857H95.3722V23.3794H196.353V23.9227H95.3722V45.1101H196.353V45.6533H95.3722V92.9175H196.353V93.4608H95.3722V177.124H196.629V177.667H95.3722V188.94H94.5573V12.7857H22.0593H0.0183105V11.9708H21.6519ZM10.4917 10.341V2.19201H11.0349V10.341H10.4917ZM25.4623 516.436C24.9897 516.436 24.6066 516.819 24.6066 517.291V537.827C24.6066 538.299 24.9897 538.683 25.4623 538.683H54.4074C54.8799 538.683 55.263 538.299 55.263 537.827V517.291C55.263 516.819 54.8799 516.436 54.4074 516.436H25.4623ZM25.1771 517.291C25.1771 517.134 25.3048 517.006 25.4623 517.006H54.4074C54.5649 517.006 54.6926 517.134 54.6926 517.291V537.827C54.6926 537.984 54.5649 538.112 54.4074 538.112H25.4623C25.3048 538.112 25.1771 537.984 25.1771 537.827V517.291ZM25.4623 563.211C24.9897 563.211 24.6066 563.594 24.6066 564.067V584.602C24.6066 585.075 24.9897 585.458 25.4623 585.458H54.4074C54.8799 585.458 55.263 585.075 55.263 584.602V564.067C55.263 563.594 54.8799 563.211 54.4074 563.211H25.4623ZM25.1771 564.067C25.1771 563.909 25.3048 563.781 25.4623 563.781H54.4074C54.5649 563.781 54.6926 563.909 54.6926 564.067V584.602C54.6926 584.76 54.5649 584.887 54.4074 584.887H25.4623C25.3048 584.887 25.1771 584.76 25.1771 584.602V564.067ZM24.6066 540.679C24.6066 540.206 24.9897 539.823 25.4623 539.823H54.4074C54.8799 539.823 55.263 540.206 55.263 540.679V561.215C55.263 561.687 54.8799 562.07 54.4074 562.07H25.4623C24.9897 562.07 24.6066 561.687 24.6066 561.215V540.679ZM25.4623 540.394C25.3048 540.394 25.1771 540.522 25.1771 540.679V561.215C25.1771 561.372 25.3048 561.5 25.4623 561.5H54.4074C54.5649 561.5 54.6926 561.372 54.6926 561.215V540.679C54.6926 540.522 54.5649 540.394 54.4074 540.394H25.4623ZM25.4623 586.599C24.9897 586.599 24.6066 586.982 24.6066 587.454V607.99C24.6066 608.462 24.9897 608.845 25.4623 608.845H54.4074C54.8799 608.845 55.263 608.462 55.263 607.99V587.454C55.263 586.982 54.8799 586.599 54.4074 586.599H25.4623ZM25.1771 587.454C25.1771 587.297 25.3048 587.169 25.4623 587.169H54.4074C54.5649 587.169 54.6926 587.297 54.6926 587.454V607.99C54.6926 608.147 54.5649 608.275 54.4074 608.275H25.4623C25.3048 608.275 25.1771 608.147 25.1771 607.99V587.454ZM56.4282 517.291C56.4282 516.819 56.8113 516.436 57.2839 516.436H86.229C86.7015 516.436 87.0846 516.819 87.0846 517.291V537.827C87.0846 538.299 86.7015 538.683 86.229 538.683H57.2839C56.8113 538.683 56.4282 538.299 56.4282 537.827V517.291ZM57.2839 517.006C57.1263 517.006 56.9986 517.134 56.9986 517.291V537.827C56.9986 537.984 57.1263 538.112 57.2839 538.112H86.229C86.3865 538.112 86.5142 537.984 86.5142 537.827V517.291C86.5142 517.134 86.3865 517.006 86.229 517.006H57.2839ZM57.2839 563.211C56.8113 563.211 56.4282 563.594 56.4282 564.067V584.602C56.4282 585.075 56.8113 585.458 57.2839 585.458H86.229C86.7015 585.458 87.0846 585.075 87.0846 584.602V564.067C87.0846 563.594 86.7015 563.211 86.229 563.211H57.2839ZM56.9986 564.067C56.9986 563.909 57.1263 563.781 57.2839 563.781H86.229C86.3865 563.781 86.5142 563.909 86.5142 564.067V584.602C86.5142 584.76 86.3865 584.887 86.229 584.887H57.2839C57.1263 584.887 56.9986 584.76 56.9986 584.602V564.067ZM56.4282 540.679C56.4282 540.206 56.8113 539.823 57.2839 539.823H86.229C86.7015 539.823 87.0846 540.206 87.0846 540.679V561.215C87.0846 561.687 86.7015 562.07 86.229 562.07H57.2839C56.8113 562.07 56.4282 561.687 56.4282 561.215V540.679ZM57.2839 540.394C57.1263 540.394 56.9986 540.522 56.9986 540.679V561.215C56.9986 561.372 57.1263 561.5 57.2839 561.5H86.229C86.3865 561.5 86.5142 561.372 86.5142 561.215V540.679C86.5142 540.522 86.3865 540.394 86.229 540.394H57.2839ZM57.2839 586.599C56.8113 586.599 56.4282 586.982 56.4282 587.454V607.99C56.4282 608.462 56.8113 608.845 57.2839 608.845H86.229C86.7015 608.845 87.0846 608.462 87.0846 607.99V587.454C87.0846 586.982 86.7015 586.599 86.229 586.599H57.2839ZM56.9986 587.454C56.9986 587.297 57.1263 587.169 57.2839 587.169H86.229C86.3865 587.169 86.5142 587.297 86.5142 587.454V607.99C86.5142 608.147 86.3865 608.275 86.229 608.275H57.2839C57.1263 608.275 56.9986 608.147 56.9986 607.99V587.454ZM88.25 517.291C88.25 516.819 88.6331 516.436 89.1056 516.436H118.051C118.523 516.436 118.906 516.819 118.906 517.291V537.827C118.906 538.299 118.523 538.683 118.051 538.683H89.1056C88.6331 538.683 88.25 538.299 88.25 537.827V517.291ZM89.1056 517.006C88.9481 517.006 88.8204 517.134 88.8204 517.291V537.827C88.8204 537.984 88.9481 538.112 89.1056 538.112H118.051C118.208 538.112 118.336 537.984 118.336 537.827V517.291C118.336 517.134 118.208 517.006 118.051 517.006H89.1056ZM89.1056 563.211C88.6331 563.211 88.25 563.594 88.25 564.067V584.602C88.25 585.075 88.6331 585.458 89.1056 585.458H118.051C118.523 585.458 118.906 585.075 118.906 584.602V564.067C118.906 563.594 118.523 563.211 118.051 563.211H89.1056ZM88.8204 564.067C88.8204 563.909 88.9481 563.781 89.1056 563.781H118.051C118.208 563.781 118.336 563.909 118.336 564.067V584.602C118.336 584.76 118.208 584.887 118.051 584.887H89.1056C88.9481 584.887 88.8204 584.76 88.8204 584.602V564.067ZM88.25 540.679C88.25 540.206 88.6331 539.823 89.1056 539.823H118.051C118.523 539.823 118.906 540.206 118.906 540.679V561.215C118.906 561.687 118.523 562.07 118.051 562.07H89.1056C88.6331 562.07 88.25 561.687 88.25 561.215V540.679ZM89.1056 540.394C88.9481 540.394 88.8204 540.522 88.8204 540.679V561.215C88.8204 561.372 88.9481 561.5 89.1056 561.5H118.051C118.208 561.5 118.336 561.372 118.336 561.215V540.679C118.336 540.522 118.208 540.394 118.051 540.394H89.1056ZM89.1056 586.599C88.6331 586.599 88.25 586.982 88.25 587.454V607.99C88.25 608.462 88.6331 608.845 89.1056 608.845H118.051C118.523 608.845 118.906 608.462 118.906 607.99V587.454C118.906 586.982 118.523 586.599 118.051 586.599H89.1056ZM88.8204 587.454C88.8204 587.297 88.9481 587.169 89.1056 587.169H118.051C118.208 587.169 118.336 587.297 118.336 587.454V607.99C118.336 608.147 118.208 608.275 118.051 608.275H89.1056C88.9481 608.275 88.8204 608.147 88.8204 607.99V587.454ZM120.072 517.291C120.072 516.819 120.455 516.436 120.927 516.436H149.872C150.345 516.436 150.728 516.819 150.728 517.291V537.827C150.728 538.299 150.345 538.683 149.872 538.683H120.927C120.455 538.683 120.072 538.299 120.072 537.827V517.291ZM120.927 517.006C120.77 517.006 120.642 517.134 120.642 517.291V537.827C120.642 537.984 120.77 538.112 120.927 538.112H149.872C150.03 538.112 150.158 537.984 150.158 537.827V517.291C150.158 517.134 150.03 517.006 149.872 517.006H120.927ZM120.927 563.211C120.455 563.211 120.072 563.594 120.072 564.067V584.602C120.072 585.075 120.455 585.458 120.927 585.458H149.872C150.345 585.458 150.728 585.075 150.728 584.602V564.067C150.728 563.594 150.345 563.211 149.872 563.211H120.927ZM120.642 564.067C120.642 563.909 120.77 563.781 120.927 563.781H149.872C150.03 563.781 150.158 563.909 150.158 564.067V584.602C150.158 584.76 150.03 584.887 149.872 584.887H120.927C120.77 584.887 120.642 584.76 120.642 584.602V564.067ZM120.072 540.679C120.072 540.206 120.455 539.823 120.927 539.823H149.872C150.345 539.823 150.728 540.206 150.728 540.679V561.215C150.728 561.687 150.345 562.07 149.872 562.07H120.927C120.455 562.07 120.072 561.687 120.072 561.215V540.679ZM120.927 540.394C120.77 540.394 120.642 540.522 120.642 540.679V561.215C120.642 561.372 120.77 561.5 120.927 561.5H149.872C150.03 561.5 150.158 561.372 150.158 561.215V540.679C150.158 540.522 150.03 540.394 149.872 540.394H120.927ZM120.927 586.599C120.455 586.599 120.072 586.982 120.072 587.454V607.99C120.072 608.462 120.455 608.845 120.927 608.845H149.872C150.345 608.845 150.728 608.462 150.728 607.99V587.454C150.728 586.982 150.345 586.599 149.872 586.599H120.927ZM120.642 587.454C120.642 587.297 120.77 587.169 120.927 587.169H149.872C150.03 587.169 150.158 587.297 150.158 587.454V607.99C150.158 608.147 150.03 608.275 149.872 608.275H120.927C120.77 608.275 120.642 608.147 120.642 607.99V587.454Z" fill="#B8ADA2"/>
</svg>
