<svg width="1083" height="11" viewBox="0 0 1083 11" fill="none" xmlns="http://www.w3.org/2000/svg">
<path id="TransportOffBackground" fill-rule="evenodd" clip-rule="evenodd" d="M34.2693 0.691162H48.9375V10.2819H34.2693V0.691162ZM74.5962 0.691162H50.9014V10.2819H74.5962V0.691162ZM975.281 0.691162H979.794V5.20445H975.281V0.691162ZM975.281 5.76867H979.794V10.282H975.281V5.76867ZM195.996 0.691162H220.819V10.2819H195.996V0.691162ZM261.439 0.691162H221.947V10.2819H261.439V0.691162ZM122.864 0.691162H145.43V10.3028H122.864V0.691162ZM121.693 0.691162H97.9986V10.2819H121.693V0.691162ZM1060.96 0.691162H1076.76V10.2819H1060.96V0.691162ZM1082.82 0.691162H1078.3V5.20445H1082.82V0.691162ZM1078.3 5.76865H1082.82V10.2819H1078.3V5.76865ZM1059.41 0.691162H1027.82V10.2819H1059.41V0.691162ZM999.195 0.691162H1026.78V10.3028H999.195V0.691162ZM172.311 0.691162H146.924V10.2648H172.311V0.691162ZM666.13 0.691162H712.674V10.2819H666.13V0.691162ZM784.866 0.691162H738.605V10.2819H784.866V0.691162ZM577.536 0.691162H623.797V10.2819H577.536V0.691162ZM85.3153 0.691162H75.7245V10.2648H85.3153V0.691162ZM86.4437 0.691162H96.0344V10.2648H86.4437V0.691162ZM455.928 0.691162H408.706V10.3028H455.928V0.691162ZM534.064 0.691162H543.655V10.2819H534.064V0.691162ZM554.521 0.691162H544.93V10.2819H554.521V0.691162ZM555.795 0.691162H565.386V10.2819H555.795V0.691162ZM947.637 0.691162H937.764V10.2819H947.637V0.691162ZM948.765 0.691162H958.356V10.2819H948.765V0.691162ZM973.87 0.691162H959.484V10.2819H973.87V0.691162ZM981.643 0.691162H997.941V10.3028H981.643V0.691162ZM737.476 0.691162H725.911V10.2819H737.476V0.691162ZM22.2967 0.691164H0.294434V10.2819H22.2967V0.691164Z" fill="#8C8785"/>
</svg>
