<svg width="86" height="17" viewBox="0 0 86 17" fill="none" xmlns="http://www.w3.org/2000/svg">
<path id="TreeColumnHeadForeground" fill-rule="evenodd" clip-rule="evenodd" d="M22.7912 4.56544C23.0494 5.02575 23.3768 5.38315 23.7735 5.63763L24.0823 5.21661C23.7455 4.96588 23.4854 4.65152 23.302 4.27354C23.1186 3.89556 23.0269 3.46519 23.0269 2.98242C23.0269 2.49591 23.1167 2.06554 23.2964 1.69131C23.4798 1.31333 23.7417 0.998969 24.0823 0.74823L23.7735 0.3216C23.5191 0.482522 23.2889 0.693966 23.0831 0.955931C22.8772 1.21415 22.7126 1.51729 22.5891 1.86533C22.4656 2.20962 22.4038 2.58199 22.4038 2.98242C22.4038 3.57372 22.5329 4.10139 22.7912 4.56544ZM29.839 0.624732H29.2046L28.4187 3.79077L27.5037 0.624732H26.9255L26.0218 3.77955L25.2246 0.624732H24.5622L25.6232 4.61035H26.3305L27.2006 1.57904L28.0819 4.61035H28.7836L29.839 0.624732ZM32.7251 1.96637C32.5193 1.74557 32.233 1.63517 31.8663 1.63517C31.4958 1.63517 31.2207 1.76241 31.0411 2.01689V0.624732H30.4348V4.61035H31.0411V2.96558C31.0411 2.71859 31.1047 2.5296 31.2319 2.39861C31.3592 2.26389 31.5294 2.19653 31.7428 2.19653C31.9561 2.19653 32.1226 2.26202 32.2424 2.393C32.3659 2.52024 32.4276 2.70923 32.4276 2.95997V4.61035H33.0339V2.88699C33.0339 2.4903 32.931 2.18343 32.7251 1.96637ZM35.1848 4.68333C35.4954 4.68333 35.7555 4.61596 35.9651 4.48124C36.1784 4.34651 36.3468 4.16688 36.4703 3.94234L35.9707 3.70096C35.8846 3.84317 35.7798 3.95357 35.6563 4.03216C35.5328 4.107 35.3831 4.14443 35.2072 4.14443C34.9677 4.14443 34.7675 4.07145 34.6066 3.9255C34.4457 3.77955 34.3502 3.57372 34.3203 3.30801H36.4422C36.4572 3.19574 36.4647 3.08534 36.4647 2.97681C36.4647 2.7111 36.4123 2.4772 36.3075 2.27512C36.2027 2.06929 36.0493 1.91023 35.8472 1.79796C35.6451 1.68569 35.4056 1.62956 35.1286 1.62956C34.8592 1.62956 34.6159 1.69505 34.3989 1.82603C34.1856 1.95701 34.0172 2.13852 33.8937 2.37055C33.7739 2.60257 33.714 2.86454 33.714 3.15644C33.714 3.45209 33.7758 3.71593 33.8993 3.94795C34.0228 4.17998 34.1949 4.36148 34.4157 4.49247C34.6403 4.61971 34.8966 4.68333 35.1848 4.68333ZM34.5954 2.33686C34.7301 2.20588 34.9078 2.14039 35.1286 2.14039C35.3532 2.14039 35.5291 2.20027 35.6563 2.32002C35.7873 2.43978 35.8603 2.61941 35.8752 2.85892H34.3315C34.3727 2.64187 34.4606 2.46785 34.5954 2.33686ZM39.4788 1.96076C39.273 1.7437 38.9885 1.63517 38.6255 1.63517C38.2401 1.63517 37.9575 1.77364 37.7779 2.05057V1.70815H37.1941V4.61035H37.8003V2.97681C37.8003 2.72607 37.864 2.53334 37.9912 2.39861C38.1184 2.26389 38.2887 2.19653 38.502 2.19653C38.7154 2.19653 38.8819 2.26202 39.0016 2.393C39.1251 2.52024 39.1869 2.70923 39.1869 2.95997V4.61035H39.7932V2.87577C39.7932 2.48282 39.6884 2.17781 39.4788 1.96076ZM42.6372 4.43072C42.9066 4.60287 43.2191 4.68894 43.5746 4.68894C43.9863 4.68894 44.3325 4.57667 44.6131 4.35213C44.8975 4.12384 45.1015 3.78703 45.225 3.34169L44.6075 3.15644C44.5289 3.45209 44.4054 3.68599 44.237 3.85814C44.0686 4.02654 43.8516 4.11075 43.5858 4.11075C43.3576 4.11075 43.1555 4.04713 42.9796 3.91989C42.8037 3.79264 42.6671 3.61488 42.5698 3.3866C42.4762 3.15831 42.4295 2.90009 42.4295 2.61193C42.4295 2.32751 42.4744 2.07303 42.5642 1.84849C42.6577 1.62394 42.7887 1.44805 42.9571 1.32081C43.1293 1.18983 43.3276 1.12434 43.5522 1.12434C43.7767 1.12434 43.9676 1.18234 44.1248 1.29836C44.2857 1.41437 44.4017 1.59026 44.4728 1.82603L45.1015 1.65201C45.0005 1.289 44.8133 1.01394 44.5402 0.82682C44.267 0.639702 43.9395 0.546142 43.5578 0.546142C43.2135 0.546142 42.9066 0.634088 42.6372 0.809979C42.3715 0.982128 42.1637 1.22538 42.0141 1.53974C41.8644 1.8541 41.7895 2.2115 41.7895 2.61193C41.7895 3.01985 41.8625 3.38098 42.0084 3.69534C42.1581 4.0097 42.3677 4.25483 42.6372 4.43072ZM46.4954 0.624732H45.8892V4.61035H46.4954V0.624732ZM48.0413 1.70815H47.4351V4.61035H48.0413V1.70815ZM47.4463 1.01768C47.5286 1.09627 47.6241 1.13557 47.7326 1.13557C47.8411 1.13557 47.9347 1.09627 48.0133 1.01768C48.0956 0.939091 48.1368 0.845532 48.1368 0.737003C48.1368 0.632217 48.0956 0.540529 48.0133 0.461939C47.9347 0.383349 47.8411 0.344055 47.7326 0.344055C47.6241 0.344055 47.5286 0.383349 47.4463 0.461939C47.3677 0.540529 47.3284 0.632217 47.3284 0.737003C47.3284 0.845532 47.3677 0.939091 47.4463 1.01768ZM49.4694 4.49247C49.6939 4.61971 49.9484 4.68333 50.2328 4.68333C50.5734 4.68333 50.854 4.601 51.0748 4.43633C51.2956 4.26793 51.4603 4.03216 51.5688 3.72902L51.0243 3.54378C50.8559 3.94047 50.5921 4.13881 50.2328 4.13881C49.9783 4.13881 49.7706 4.04713 49.6097 3.86375C49.4488 3.67663 49.3683 3.44086 49.3683 3.15644C49.3683 2.97307 49.4039 2.80653 49.475 2.65684C49.5498 2.50714 49.6509 2.39113 49.7781 2.3088C49.9054 2.22272 50.0476 2.17968 50.2048 2.17968C50.5565 2.17968 50.796 2.34809 50.9233 2.6849L51.4902 2.51088C51.4042 2.21524 51.2451 1.99631 51.0131 1.8541C50.7848 1.70815 50.5172 1.63517 50.2104 1.63517C49.9447 1.63517 49.7014 1.70066 49.4806 1.83165C49.2598 1.95889 49.0839 2.13852 48.9529 2.37055C48.8257 2.60257 48.7621 2.86454 48.7621 3.15644C48.7621 3.45209 48.8238 3.71593 48.9473 3.94795C49.0746 4.17998 49.2486 4.36148 49.4694 4.49247ZM53.1365 3.21819L54.1469 4.61035H54.8655L53.5631 2.81402L54.7139 1.70815H53.9785L52.7716 2.89822V0.624732H52.1654V4.61035H52.7716V3.56623L53.1365 3.21819ZM56.5426 4.68333C56.8532 4.68333 57.1133 4.61596 57.3229 4.48124C57.5362 4.34651 57.7046 4.16688 57.8281 3.94234L57.3285 3.70096C57.2424 3.84317 57.1376 3.95357 57.0141 4.03216C56.8906 4.107 56.7409 4.14443 56.565 4.14443C56.3255 4.14443 56.1253 4.07145 55.9644 3.9255C55.8035 3.77955 55.708 3.57372 55.6781 3.30801H57.8C57.815 3.19574 57.8225 3.08534 57.8225 2.97681C57.8225 2.7111 57.7701 2.4772 57.6653 2.27512C57.5605 2.06929 57.4071 1.91023 57.205 1.79796C57.0029 1.68569 56.7634 1.62956 56.4864 1.62956C56.217 1.62956 55.9737 1.69505 55.7567 1.82603C55.5434 1.95701 55.375 2.13852 55.2515 2.37055C55.1317 2.60257 55.0718 2.86454 55.0718 3.15644C55.0718 3.45209 55.1336 3.71593 55.2571 3.94795C55.3806 4.17998 55.5527 4.36148 55.7735 4.49247C55.9981 4.61971 56.2544 4.68333 56.5426 4.68333ZM55.9532 2.33686C56.0879 2.20588 56.2656 2.14039 56.4864 2.14039C56.711 2.14039 56.8869 2.20027 57.0141 2.32002C57.1451 2.43978 57.2181 2.61941 57.233 2.85892H55.6893C55.7305 2.64187 55.8184 2.46785 55.9532 2.33686ZM61.2576 4.61035V0.624732H60.6513V2.02251C60.4231 1.76428 60.1255 1.63517 59.7588 1.63517C59.4893 1.63517 59.2498 1.70066 59.0403 1.83165C58.8344 1.95889 58.6735 2.13852 58.5575 2.37055C58.4452 2.60257 58.3891 2.86454 58.3891 3.15644C58.3891 3.45209 58.4452 3.71593 58.5575 3.94795C58.6735 4.17998 58.8344 4.36148 59.0403 4.49247C59.2498 4.61971 59.4893 4.68333 59.7588 4.68333C60.1255 4.68333 60.4231 4.55422 60.6513 4.29599V4.61035H61.2576ZM60.264 4.0097C60.1368 4.09578 59.9908 4.13881 59.8262 4.13881C59.5829 4.13881 59.3827 4.049 59.2255 3.86936C59.0721 3.68599 58.9953 3.44835 58.9953 3.15644C58.9953 2.86828 59.0721 2.63438 59.2255 2.45475C59.3827 2.27137 59.5829 2.17968 59.8262 2.17968C60.0806 2.17968 60.2846 2.2695 60.438 2.44914C60.5952 2.62503 60.6738 2.8608 60.6738 3.15644C60.6738 3.33982 60.6382 3.50635 60.5671 3.65605C60.496 3.80574 60.395 3.92363 60.264 4.0097ZM63.2316 1.3994C62.9734 0.935348 62.6459 0.576081 62.2492 0.3216L61.9405 0.742617C62.2773 0.993355 62.5355 1.30771 62.7152 1.68569C62.8985 2.06367 62.9902 2.49404 62.9902 2.97681C62.9902 3.45957 62.9004 3.88995 62.7208 4.26793C62.5411 4.6459 62.281 4.96026 61.9405 5.211L62.2492 5.63763C62.5037 5.47671 62.7339 5.26527 62.9397 5.0033C63.1455 4.74508 63.3102 4.44382 63.4337 4.09952C63.5572 3.75148 63.6189 3.37724 63.6189 2.97681C63.6189 2.38926 63.4898 1.86346 63.2316 1.3994ZM3.45487 0.624732H2.8486V3.48764L0.956838 0.624732H0.311279V4.61035H0.917543V1.58465L2.91597 4.61035H3.45487V0.624732ZM6.45382 1.92146C6.22553 1.72686 5.92053 1.62956 5.53881 1.62956C5.25813 1.62956 5.00552 1.69505 4.78098 1.82603C4.56018 1.95327 4.40113 2.13852 4.30383 2.38177L4.84834 2.57263C4.90822 2.44914 4.9943 2.34809 5.10657 2.2695C5.22258 2.18717 5.36479 2.146 5.5332 2.146C5.75774 2.146 5.92614 2.20401 6.03842 2.32002C6.15069 2.43604 6.20682 2.6007 6.20682 2.81402V2.89822H5.46583C5.10282 2.89822 4.81653 2.97681 4.60696 3.13399C4.39739 3.28743 4.2926 3.50261 4.2926 3.77955C4.2926 3.9517 4.33564 4.107 4.42171 4.24547C4.50779 4.3802 4.63129 4.48872 4.79221 4.57106C4.95687 4.64965 5.1496 4.68894 5.3704 4.68894C5.57998 4.68894 5.75774 4.64778 5.90369 4.56544C6.04964 4.48311 6.16004 4.37271 6.23489 4.23424V4.61035H6.79624V2.77472C6.79624 2.40048 6.6821 2.11606 6.45382 1.92146ZM5.99912 4.02654C5.8644 4.13133 5.69412 4.18372 5.48829 4.18372C5.29368 4.18372 5.14399 4.1463 5.0392 4.07145C4.93442 3.99286 4.88202 3.89182 4.88202 3.76832C4.88202 3.64108 4.93442 3.54004 5.0392 3.46519C5.14773 3.3866 5.30865 3.3473 5.52197 3.3473H6.20682V3.52694C6.20682 3.75148 6.13759 3.91801 5.99912 4.02654ZM11.5401 1.94392C11.3493 1.74557 11.0892 1.6464 10.7598 1.6464C10.569 1.6464 10.3987 1.68569 10.249 1.76428C10.1031 1.83913 9.98144 1.94766 9.88413 2.08987C9.79432 1.94392 9.67456 1.83352 9.52487 1.75867C9.37891 1.68382 9.21051 1.6464 9.01965 1.6464C8.66412 1.6464 8.4059 1.78487 8.24498 2.0618V1.70815H7.66117V4.61035H8.26743V2.87577C8.26743 2.65871 8.31983 2.49591 8.42461 2.38739C8.53314 2.27512 8.67535 2.21898 8.85124 2.21898C9.03088 2.21898 9.17496 2.27324 9.28349 2.38177C9.39201 2.48656 9.44628 2.64561 9.44628 2.85892V4.61035H10.0525V2.88138C10.0525 2.66806 10.1049 2.50527 10.2097 2.393C10.3182 2.27699 10.4605 2.21898 10.6363 2.21898C10.816 2.21898 10.9582 2.27137 11.063 2.37616C11.1678 2.48095 11.2202 2.64187 11.2202 2.85892V4.61035H11.8264V2.79718C11.8264 2.42668 11.731 2.14226 11.5401 1.94392ZM13.979 4.68333C14.2896 4.68333 14.5497 4.61596 14.7593 4.48124C14.9726 4.34651 15.141 4.16688 15.2645 3.94234L14.7649 3.70096C14.6788 3.84317 14.574 3.95357 14.4505 4.03216C14.327 4.107 14.1773 4.14443 14.0015 4.14443C13.7619 4.14443 13.5617 4.07145 13.4008 3.9255C13.2399 3.77955 13.1445 3.57372 13.1145 3.30801H15.2364C15.2514 3.19574 15.2589 3.08534 15.2589 2.97681C15.2589 2.7111 15.2065 2.4772 15.1017 2.27512C14.9969 2.06929 14.8435 1.91023 14.6414 1.79796C14.4393 1.68569 14.1998 1.62956 13.9229 1.62956C13.6534 1.62956 13.4102 1.69505 13.1931 1.82603C12.9798 1.95701 12.8114 2.13852 12.6879 2.37055C12.5681 2.60257 12.5082 2.86454 12.5082 3.15644C12.5082 3.45209 12.57 3.71593 12.6935 3.94795C12.817 4.17998 12.9891 4.36148 13.2099 4.49247C13.4345 4.61971 13.6908 4.68333 13.979 4.68333ZM13.3896 2.33686C13.5243 2.20588 13.7021 2.14039 13.9229 2.14039C14.1474 2.14039 14.3233 2.20027 14.4505 2.32002C14.5815 2.43978 14.6545 2.61941 14.6695 2.85892H13.1257C13.1669 2.64187 13.2549 2.46785 13.3896 2.33686ZM3.45487 11.4901H2.8486V14.353L0.956838 11.4901H0.311279V15.4757H0.917543V12.45L2.91597 15.4757H3.45487V11.4901ZM6.45382 12.7868C6.22553 12.5922 5.92053 12.4949 5.53881 12.4949C5.25813 12.4949 5.00552 12.5604 4.78098 12.6914C4.56018 12.8186 4.40113 13.0038 4.30383 13.2471L4.84834 13.438C4.90822 13.3145 4.9943 13.2134 5.10657 13.1348C5.22258 13.0525 5.36479 13.0113 5.5332 13.0113C5.75774 13.0113 5.92614 13.0693 6.03842 13.1853C6.15069 13.3014 6.20682 13.466 6.20682 13.6793V13.7635H5.46583C5.10282 13.7635 4.81653 13.8421 4.60696 13.9993C4.39739 14.1528 4.2926 14.3679 4.2926 14.6449C4.2926 14.817 4.33564 14.9723 4.42171 15.1108C4.50779 15.2455 4.63129 15.3541 4.79221 15.4364C4.95687 15.515 5.1496 15.5543 5.3704 15.5543C5.57998 15.5543 5.75774 15.5131 5.90369 15.4308C6.04964 15.3484 6.16004 15.238 6.23489 15.0996V15.4757H6.79624V13.64C6.79624 13.2658 6.6821 12.9814 6.45382 12.7868ZM5.99912 14.8919C5.8644 14.9967 5.69412 15.049 5.48829 15.049C5.29368 15.049 5.14399 15.0116 5.0392 14.9368C4.93442 14.8582 4.88202 14.7571 4.88202 14.6336C4.88202 14.5064 4.93442 14.4054 5.0392 14.3305C5.14773 14.2519 5.30865 14.2126 5.52197 14.2126H6.20682V14.3923C6.20682 14.6168 6.13759 14.7833 5.99912 14.8919ZM11.5401 12.8092C11.3493 12.6109 11.0892 12.5117 10.7598 12.5117C10.569 12.5117 10.3987 12.551 10.249 12.6296C10.1031 12.7045 9.98144 12.813 9.88413 12.9552C9.79432 12.8092 9.67456 12.6988 9.52487 12.624C9.37891 12.5491 9.21051 12.5117 9.01965 12.5117C8.66412 12.5117 8.4059 12.6502 8.24498 12.9271V12.5735H7.66117V15.4757H8.26743V13.7411C8.26743 13.524 8.31983 13.3612 8.42461 13.2527C8.53314 13.1404 8.67535 13.0843 8.85124 13.0843C9.03088 13.0843 9.17496 13.1386 9.28349 13.2471C9.39201 13.3519 9.44628 13.5109 9.44628 13.7243V15.4757H10.0525V13.7467C10.0525 13.5334 10.1049 13.3706 10.2097 13.2583C10.3182 13.1423 10.4605 13.0843 10.6363 13.0843C10.816 13.0843 10.9582 13.1367 11.063 13.2415C11.1678 13.3463 11.2202 13.5072 11.2202 13.7243V15.4757H11.8264V13.6625C11.8264 13.292 11.731 13.0076 11.5401 12.8092ZM13.979 15.5487C14.2896 15.5487 14.5497 15.4813 14.7593 15.3466C14.9726 15.2118 15.141 15.0322 15.2645 14.8077L14.7649 14.5663C14.6788 14.7085 14.574 14.8189 14.4505 14.8975C14.327 14.9723 14.1773 15.0098 14.0015 15.0098C13.7619 15.0098 13.5617 14.9368 13.4008 14.7908C13.2399 14.6449 13.1445 14.439 13.1145 14.1733H15.2364C15.2514 14.0611 15.2589 13.9507 15.2589 13.8421C15.2589 13.5764 15.2065 13.3425 15.1017 13.1404C14.9969 12.9346 14.8435 12.7756 14.6414 12.6633C14.4393 12.551 14.1998 12.4949 13.9229 12.4949C13.6534 12.4949 13.4102 12.5604 13.1931 12.6914C12.9798 12.8223 12.8114 13.0038 12.6879 13.2359C12.5681 13.4679 12.5082 13.7299 12.5082 14.0218C12.5082 14.3174 12.57 14.5813 12.6935 14.8133C12.817 15.0453 12.9891 15.2268 13.2099 15.3578C13.4345 15.485 13.6908 15.5487 13.979 15.5487ZM13.3896 13.2022C13.5243 13.0712 13.7021 13.0057 13.9229 13.0057C14.1474 13.0057 14.3233 13.0656 14.4505 13.1853C14.5815 13.3051 14.6545 13.4847 14.6695 13.7243H13.1257C13.1669 13.5072 13.2549 13.3332 13.3896 13.2022ZM23.7735 16.503C23.3768 16.2485 23.0494 15.8911 22.7912 15.4308C22.5329 14.9667 22.4038 14.439 22.4038 13.8477C22.4038 13.4473 22.4656 13.075 22.5891 12.7307C22.7126 12.3826 22.8772 12.0795 23.0831 11.8213C23.2889 11.5593 23.5191 11.3478 23.7735 11.1869L24.0823 11.6136C23.7417 11.8643 23.4798 12.1787 23.2964 12.5566C23.1167 12.9309 23.0269 13.3612 23.0269 13.8477C23.0269 14.3305 23.1186 14.7609 23.302 15.1389C23.4854 15.5168 23.7455 15.8312 24.0823 16.0819L23.7735 16.503ZM29.2046 11.4901H29.839L28.7836 15.4757H28.0819L27.2006 12.4444L26.3305 15.4757H25.6232L24.5622 11.4901H25.2246L26.0218 14.6449L26.9255 11.4901H27.5037L28.4187 14.6561L29.2046 11.4901ZM31.8663 12.5005C32.233 12.5005 32.5193 12.6109 32.7251 12.8317C32.931 13.0488 33.0339 13.3556 33.0339 13.7523V15.4757H32.4276V13.8253C32.4276 13.5746 32.3659 13.3856 32.2424 13.2583C32.1226 13.1273 31.9561 13.0619 31.7428 13.0619C31.5294 13.0619 31.3592 13.1292 31.2319 13.2639C31.1047 13.3949 31.0411 13.5839 31.0411 13.8309V15.4757H30.4348V11.4901H31.0411V12.8822C31.2207 12.6277 31.4958 12.5005 31.8663 12.5005ZM33.933 12.5735H34.5392V15.4757H33.933V12.5735ZM34.2305 12.0009C34.1219 12.0009 34.0265 11.9616 33.9442 11.883C33.8656 11.8044 33.8263 11.7109 33.8263 11.6023C33.8263 11.4975 33.8656 11.4059 33.9442 11.3273C34.0265 11.2487 34.1219 11.2094 34.2305 11.2094C34.339 11.2094 34.4326 11.2487 34.5112 11.3273C34.5935 11.4059 34.6347 11.4975 34.6347 11.6023C34.6347 11.7109 34.5935 11.8044 34.5112 11.883C34.4326 11.9616 34.339 12.0009 34.2305 12.0009ZM35.4789 11.4901H36.0851V15.4757H35.4789V11.4901ZM39.0569 15.3466C38.8473 15.4813 38.5872 15.5487 38.2766 15.5487C37.9885 15.5487 37.7321 15.485 37.5076 15.3578C37.2868 15.2268 37.1146 15.0453 36.9911 14.8133C36.8676 14.5813 36.8059 14.3174 36.8059 14.0218C36.8059 13.7299 36.8657 13.4679 36.9855 13.2359C37.109 13.0038 37.2774 12.8223 37.4907 12.6914C37.7078 12.5604 37.951 12.4949 38.2205 12.4949C38.4974 12.4949 38.7369 12.551 38.939 12.6633C39.1411 12.7756 39.2945 12.9346 39.3993 13.1404C39.5041 13.3425 39.5565 13.5764 39.5565 13.8421C39.5565 13.9507 39.549 14.0611 39.534 14.1733H37.4121C37.4421 14.439 37.5375 14.6449 37.6984 14.7908C37.8593 14.9368 38.0596 15.0098 38.2991 15.0098C38.475 15.0098 38.6247 14.9723 38.7482 14.8975C38.8717 14.8189 38.9764 14.7085 39.0625 14.5663L39.5621 14.8077C39.4386 15.0322 39.2702 15.2118 39.0569 15.3466ZM38.2205 13.0057C37.9997 13.0057 37.8219 13.0712 37.6872 13.2022C37.5525 13.3332 37.4645 13.5072 37.4234 13.7243H38.9671C38.9521 13.4847 38.8791 13.3051 38.7482 13.1853C38.6209 13.0656 38.445 13.0057 38.2205 13.0057ZM43.1402 15.5487C42.8521 15.5487 42.5957 15.4944 42.3712 15.3859C42.1466 15.2736 41.9689 15.1071 41.8379 14.8863C41.7069 14.6617 41.6414 14.3885 41.6414 14.0667V11.4901H42.2814V14.0386C42.2814 14.3455 42.3618 14.5775 42.5227 14.7347C42.6837 14.8881 42.8895 14.9648 43.1402 14.9648C43.391 14.9648 43.5949 14.8881 43.7521 14.7347C43.913 14.5775 43.9935 14.3455 43.9935 14.0386V11.4901H44.6278V14.0667C44.6278 14.3885 44.5623 14.6617 44.4313 14.8863C44.3041 15.1071 44.1282 15.2736 43.9037 15.3859C43.6791 15.4944 43.4246 15.5487 43.1402 15.5487ZM46.6144 15.5543C46.2888 15.5543 46.0044 15.4794 45.7611 15.3297C45.5216 15.18 45.3757 14.9574 45.3233 14.6617L45.8678 14.5158C45.9052 14.6729 45.9876 14.8002 46.1148 14.8975C46.2458 14.9948 46.4142 15.0434 46.62 15.0434C46.7697 15.0434 46.8932 15.0098 46.9905 14.9424C47.0878 14.875 47.1365 14.7815 47.1365 14.6617C47.1365 14.5457 47.0859 14.4596 46.9849 14.4035C46.8839 14.3436 46.7211 14.2875 46.4965 14.2351C46.3019 14.1902 46.1335 14.1378 45.9913 14.0779C45.8491 14.018 45.7275 13.932 45.6264 13.8197C45.5291 13.7037 45.4805 13.554 45.4805 13.3706C45.4805 13.2022 45.5235 13.0525 45.6096 12.9215C45.6994 12.7868 45.8248 12.682 45.9857 12.6072C46.1466 12.5286 46.33 12.4893 46.5358 12.4893C46.8277 12.4893 47.071 12.5548 47.2656 12.6857C47.4602 12.8167 47.5818 12.9851 47.6305 13.191L47.0916 13.3706C47.0466 13.2546 46.9737 13.1629 46.8726 13.0955C46.7753 13.0282 46.6574 12.9945 46.519 12.9945C46.3768 12.9945 46.2664 13.0263 46.1878 13.0899C46.1129 13.1535 46.0755 13.234 46.0755 13.3313C46.0755 13.4361 46.1204 13.5147 46.2102 13.5671C46.3 13.6157 46.4497 13.6662 46.6593 13.7186C46.8913 13.7748 47.0803 13.8347 47.2263 13.8983C47.3722 13.9581 47.492 14.0461 47.5855 14.1621C47.6791 14.2781 47.7259 14.4316 47.7259 14.6224C47.7259 14.9106 47.6211 15.1389 47.4115 15.3073C47.202 15.4719 46.9362 15.5543 46.6144 15.5543ZM48.4383 12.5735H49.0445V15.4757H48.4383V12.5735ZM48.7358 12.0009C48.6273 12.0009 48.5318 11.9616 48.4495 11.883C48.3709 11.8044 48.3316 11.7109 48.3316 11.6023C48.3316 11.4975 48.3709 11.4059 48.4495 11.3273C48.5318 11.2487 48.6273 11.2094 48.7358 11.2094C48.8443 11.2094 48.9379 11.2487 49.0165 11.3273C49.0988 11.4059 49.14 11.4975 49.14 11.6023C49.14 11.7109 49.0988 11.8044 49.0165 11.883C48.9379 11.9616 48.8443 12.0009 48.7358 12.0009ZM51.3876 12.5005C51.7506 12.5005 52.035 12.609 52.2408 12.8261C52.4504 13.0431 52.5552 13.3481 52.5552 13.7411V15.4757H51.9489V13.8253C51.9489 13.5746 51.8872 13.3856 51.7637 13.2583C51.6439 13.1273 51.4774 13.0619 51.2641 13.0619C51.0508 13.0619 50.8805 13.1292 50.7533 13.2639C50.626 13.3987 50.5624 13.5914 50.5624 13.8421V15.4757H49.9561V12.5735H50.5399V12.9159C50.7196 12.639 51.0021 12.5005 51.3876 12.5005ZM56.0758 12.5735V15.122C56.0758 15.3952 56.0141 15.6366 55.8906 15.8462C55.7708 16.0595 55.5987 16.2242 55.3741 16.3402C55.1533 16.4562 54.8951 16.5142 54.5995 16.5142C54.2364 16.5142 53.9277 16.4393 53.6732 16.2896C53.4187 16.1399 53.2335 15.9379 53.1175 15.6834L53.6564 15.4364C53.7312 15.5936 53.8491 15.7227 54.01 15.8237C54.1747 15.9248 54.3693 15.9753 54.5938 15.9753C54.8783 15.9753 55.0953 15.8986 55.245 15.7451C55.3947 15.5917 55.4696 15.3877 55.4696 15.1333V14.9143C55.2488 15.1688 54.9606 15.296 54.6051 15.296C54.3394 15.296 54.1017 15.2362 53.8921 15.1164C53.6863 14.9967 53.5254 14.8301 53.4094 14.6168C53.2971 14.4035 53.241 14.1621 53.241 13.8927C53.241 13.6232 53.2971 13.3837 53.4094 13.1741C53.5254 12.9608 53.6863 12.7943 53.8921 12.6745C54.098 12.5548 54.3319 12.4949 54.5938 12.4949C54.7735 12.4949 54.9381 12.5248 55.0878 12.5847C55.2375 12.6446 55.3648 12.7344 55.4696 12.8542V12.5735H56.0758ZM54.6724 14.7571C54.9157 14.7571 55.1122 14.6786 55.2619 14.5214C55.4153 14.3642 55.492 14.1546 55.492 13.8927C55.492 13.6457 55.4153 13.4417 55.2619 13.2808C55.1084 13.1161 54.9119 13.0338 54.6724 13.0338C54.5153 13.0338 54.373 13.0712 54.2458 13.1461C54.1223 13.2209 54.025 13.3238 53.9539 13.4548C53.8828 13.5858 53.8472 13.7317 53.8472 13.8927C53.8472 14.1434 53.924 14.3511 54.0774 14.5158C54.2346 14.6767 54.4329 14.7571 54.6724 14.7571ZM59.5082 15.5487C59.1115 15.5487 58.7747 15.4588 58.4978 15.2792C58.2208 15.0958 58.0356 14.8226 57.942 14.4596L58.5427 14.2407C58.6025 14.469 58.7148 14.6486 58.8795 14.7796C59.0441 14.9106 59.2575 14.9761 59.5194 14.9761C59.7327 14.9761 59.9068 14.9237 60.0415 14.8189C60.1762 14.7141 60.2436 14.5663 60.2436 14.3754C60.2436 14.2519 60.208 14.1509 60.1369 14.0723C60.0658 13.99 59.9704 13.9226 59.8506 13.8702C59.7309 13.8178 59.5662 13.7598 59.3566 13.6962C59.1246 13.6288 58.9281 13.5577 58.7672 13.4829C58.6063 13.4043 58.4697 13.2901 58.3574 13.1404C58.2451 12.987 58.189 12.7887 58.189 12.5454C58.189 12.3283 58.2433 12.1337 58.3518 11.9616C58.4603 11.7894 58.61 11.6566 58.8009 11.563C58.9955 11.4657 59.2126 11.4171 59.4521 11.4171C59.8113 11.4171 60.107 11.505 60.339 11.6809C60.5748 11.8568 60.7226 12.0814 60.7825 12.3545L60.1987 12.5454C60.0752 12.1749 59.8207 11.9897 59.4352 11.9897C59.2481 11.9897 59.0984 12.0402 58.9861 12.1412C58.8776 12.2385 58.8233 12.3639 58.8233 12.5173C58.8233 12.6895 58.8888 12.8186 59.0198 12.9047C59.1508 12.987 59.3435 13.0637 59.598 13.1348C59.8637 13.2097 60.0864 13.292 60.266 13.3818C60.4457 13.4679 60.5916 13.5895 60.7039 13.7467C60.8199 13.9039 60.8779 14.106 60.8779 14.353C60.8779 14.5887 60.8199 14.7983 60.7039 14.9817C60.5916 15.1613 60.4307 15.3017 60.2211 15.4027C60.0153 15.5 59.7776 15.5487 59.5082 15.5487ZM64.1433 12.5735V15.4757H63.5707V15.1557C63.3948 15.4177 63.1179 15.5487 62.7399 15.5487C62.3732 15.5487 62.0831 15.4401 61.8698 15.2231C61.6603 15.006 61.5555 14.7029 61.5555 14.3137V12.5735H62.1617V14.2463C62.1617 14.4896 62.2235 14.6748 62.347 14.8021C62.4705 14.9255 62.6408 14.9873 62.8578 14.9873C63.0674 14.9873 63.2321 14.9237 63.3518 14.7964C63.4753 14.6655 63.5371 14.4765 63.5371 14.2295V12.5735H64.1433ZM66.5359 12.5005C66.8091 12.5005 67.0486 12.566 67.2544 12.697C67.464 12.8242 67.6249 13.0038 67.7372 13.2359C67.8532 13.4642 67.9112 13.7261 67.9112 14.0218C67.9112 14.3174 67.8532 14.5813 67.7372 14.8133C67.6249 15.0453 67.464 15.2268 67.2544 15.3578C67.0486 15.485 66.8091 15.5487 66.5359 15.5487C66.3525 15.5487 66.1841 15.5168 66.0307 15.4532C65.881 15.3859 65.7519 15.2904 65.6433 15.1669V15.4757H65.0371V11.4901H65.6433V12.8878C65.8716 12.6296 66.1691 12.5005 66.5359 12.5005ZM66.4741 15.0041C66.635 15.0041 66.7773 14.963 66.9008 14.8806C67.028 14.7983 67.1272 14.6823 67.1983 14.5326C67.2694 14.3829 67.3049 14.2126 67.3049 14.0218C67.3049 13.8309 67.2694 13.6625 67.1983 13.5165C67.1272 13.3669 67.028 13.2508 66.9008 13.1685C66.7773 13.0862 66.635 13.045 66.4741 13.045C66.2197 13.045 66.0138 13.1348 65.8566 13.3145C65.6995 13.4904 65.6209 13.7261 65.6209 14.0218C65.6209 14.2051 65.6564 14.3717 65.7275 14.5214C65.8024 14.6711 65.9034 14.789 66.0307 14.875C66.1616 14.9611 66.3095 15.0041 66.4741 15.0041ZM71.7264 12.5117C72.0558 12.5117 72.3159 12.6109 72.5067 12.8092C72.6976 13.0076 72.793 13.292 72.793 13.6625V15.4757H72.1867V13.7243C72.1867 13.5072 72.1344 13.3463 72.0296 13.2415C71.9248 13.1367 71.7826 13.0843 71.6029 13.0843C71.427 13.0843 71.2848 13.1423 71.1763 13.2583C71.0715 13.3706 71.0191 13.5334 71.0191 13.7467V15.4757H70.4129V13.7243C70.4129 13.5109 70.3586 13.3519 70.2501 13.2471C70.1415 13.1386 69.9975 13.0843 69.8178 13.0843C69.6419 13.0843 69.4997 13.1404 69.3912 13.2527C69.2864 13.3612 69.234 13.524 69.234 13.7411V15.4757H68.6278V12.5735H69.2116V12.9271C69.3725 12.6502 69.6307 12.5117 69.9862 12.5117C70.1771 12.5117 70.3455 12.5491 70.4915 12.624C70.6411 12.6988 70.7609 12.8092 70.8507 12.9552C70.948 12.813 71.0696 12.7045 71.2156 12.6296C71.3653 12.551 71.5356 12.5117 71.7264 12.5117ZM75.7259 15.3466C75.5163 15.4813 75.2562 15.5487 74.9456 15.5487C74.6574 15.5487 74.4011 15.485 74.1765 15.3578C73.9557 15.2268 73.7836 15.0453 73.6601 14.8133C73.5366 14.5813 73.4748 14.3174 73.4748 14.0218C73.4748 13.7299 73.5347 13.4679 73.6545 13.2359C73.778 13.0038 73.9464 12.8223 74.1597 12.6914C74.3767 12.5604 74.62 12.4949 74.8895 12.4949C75.1664 12.4949 75.4059 12.551 75.608 12.6633C75.8101 12.7756 75.9635 12.9346 76.0683 13.1404C76.1731 13.3425 76.2255 13.5764 76.2255 13.8421C76.2255 13.9507 76.218 14.0611 76.203 14.1733H74.0811C74.111 14.439 74.2065 14.6449 74.3674 14.7908C74.5283 14.9368 74.7285 15.0098 74.968 15.0098C75.1439 15.0098 75.2936 14.9723 75.4171 14.8975C75.5406 14.8189 75.6454 14.7085 75.7315 14.5663L76.2311 14.8077C76.1076 15.0322 75.9392 15.2118 75.7259 15.3466ZM74.8895 13.0057C74.6686 13.0057 74.4909 13.0712 74.3562 13.2022C74.2214 13.3332 74.1335 13.5072 74.0923 13.7243H75.636C75.6211 13.4847 75.5481 13.3051 75.4171 13.1853C75.2899 13.0656 75.114 13.0057 74.8895 13.0057ZM78.3863 12.5005C78.7494 12.5005 79.0338 12.609 79.2396 12.8261C79.4492 13.0431 79.554 13.3481 79.554 13.7411V15.4757H78.9477V13.8253C78.9477 13.5746 78.8859 13.3856 78.7624 13.2583C78.6427 13.1273 78.4762 13.0619 78.2628 13.0619C78.0495 13.0619 77.8792 13.1292 77.752 13.2639C77.6248 13.3987 77.5611 13.5914 77.5611 13.8421V15.4757H76.9549V12.5735H77.5387V12.9159C77.7183 12.639 78.0009 12.5005 78.3863 12.5005ZM82.9739 12.5735V15.4757H82.4013V15.1557C82.2254 15.4177 81.9485 15.5487 81.5705 15.5487C81.2038 15.5487 80.9137 15.4401 80.7004 15.2231C80.4909 15.006 80.3861 14.7029 80.3861 14.3137V12.5735H80.9923V14.2463C80.9923 14.4896 81.0541 14.6748 81.1776 14.8021C81.3011 14.9255 81.4714 14.9873 81.6884 14.9873C81.898 14.9873 82.0627 14.9237 82.1824 14.7964C82.3059 14.6655 82.3677 14.4765 82.3677 14.2295V12.5735H82.9739ZM83.9743 11.1869C84.371 11.4414 84.6985 11.8007 84.9567 12.2647C85.2149 12.7288 85.344 13.2546 85.344 13.8421C85.344 14.2426 85.2823 14.6168 85.1588 14.9648C85.0353 15.3091 84.8706 15.6104 84.6648 15.8686C84.459 16.1306 84.2288 16.342 83.9743 16.503L83.6656 16.0763C84.0061 15.8256 84.2662 15.5112 84.4459 15.1333C84.6255 14.7553 84.7153 14.3249 84.7153 13.8421C84.7153 13.3594 84.6236 12.929 84.4402 12.551C84.2606 12.173 84.0024 11.8587 83.6656 11.6079L83.9743 11.1869Z" fill="#746E69"/>
</svg>
