<svg width="19" height="5" viewBox="0 0 19 5" fill="none" xmlns="http://www.w3.org/2000/svg">
<path id="TreeRowCategoryForeground" d="M2.09023 0.5271C2.35936 0.5271 2.60118 0.581705 2.8157 0.690915C3.03022 0.800126 3.19794 0.954191 3.31885 1.15311C3.43976 1.35203 3.50022 1.58215 3.50022 1.84348C3.50022 2.1009 3.43976 2.32907 3.31885 2.52799C3.20184 2.72301 3.03607 2.87513 2.82155 2.98434C2.61093 3.09355 2.36716 3.14815 2.09023 3.14815H1.2302V4.681H0.563232V0.5271H2.09023ZM2.06098 2.54554C2.2911 2.54554 2.47637 2.48119 2.61678 2.35248C2.76109 2.22376 2.83325 2.0541 2.83325 1.84348C2.83325 1.63286 2.76109 1.46319 2.61678 1.33448C2.47637 1.20186 2.2911 1.13556 2.06098 1.13556H1.2302V2.54554H2.06098ZM4.23615 0.5271H4.86801V4.681H4.23615V0.5271ZM6.9999 1.57435C7.39774 1.57435 7.71562 1.67576 7.95355 1.87858C8.19147 2.0814 8.31043 2.37783 8.31043 2.76787V4.681H7.72537V4.28901C7.64737 4.43333 7.53231 4.54839 7.38019 4.6342C7.22808 4.72 7.04281 4.76291 6.82439 4.76291C6.59427 4.76291 6.3934 4.72195 6.22178 4.64005C6.05406 4.55424 5.92535 4.44113 5.83564 4.30071C5.74593 4.1564 5.70108 3.99453 5.70108 3.81512C5.70108 3.52649 5.81029 3.30222 6.02871 3.1423C6.24713 2.97849 6.54551 2.89658 6.92385 2.89658H7.69612V2.80882C7.69612 2.5865 7.63762 2.41488 7.5206 2.29397C7.40359 2.17306 7.22808 2.1126 6.99405 2.1126C6.81854 2.1126 6.67032 2.15551 6.54941 2.24132C6.4324 2.32322 6.34269 2.42853 6.28029 2.55725L5.71278 2.35833C5.81419 2.1048 5.97996 1.91173 6.21008 1.77912C6.4441 1.64261 6.70738 1.57435 6.9999 1.57435ZM6.94725 4.23636C7.16177 4.23636 7.33924 4.18175 7.47965 4.07254C7.62396 3.95943 7.69612 3.78586 7.69612 3.55184V3.36462H6.98235C6.76003 3.36462 6.59232 3.40558 6.4792 3.48749C6.36999 3.56549 6.31539 3.6708 6.31539 3.80342C6.31539 3.93213 6.36999 4.03744 6.4792 4.11935C6.58842 4.19735 6.74443 4.23636 6.94725 4.23636ZM10.5458 4.75706C10.2494 4.75706 9.98415 4.69075 9.75013 4.55814C9.52001 4.42163 9.33864 4.23246 9.20603 3.99063C9.07731 3.74881 9.01296 3.47383 9.01296 3.1657C9.01296 2.86147 9.07926 2.58845 9.21188 2.34663C9.34839 2.1048 9.53171 1.91758 9.76183 1.78497C9.99195 1.64846 10.2455 1.5802 10.5224 1.5802C10.8422 1.5802 11.1211 1.65626 11.359 1.80837C11.6009 1.95659 11.7666 2.18476 11.8563 2.49289L11.2654 2.67426C11.1328 2.32322 10.8832 2.14771 10.5166 2.14771C10.3527 2.14771 10.2045 2.19256 10.0719 2.28227C9.9393 2.36808 9.83399 2.48899 9.75598 2.645C9.68187 2.80102 9.64482 2.97459 9.64482 3.1657C9.64482 3.46213 9.72868 3.70786 9.89639 3.90288C10.0641 4.09399 10.2806 4.18955 10.5458 4.18955C10.9202 4.18955 11.1952 3.98283 11.3707 3.56939L11.9382 3.76246C11.8251 4.07839 11.6535 4.32412 11.4234 4.49963C11.1933 4.67125 10.9007 4.75706 10.5458 4.75706ZM15.2337 3.98478C15.1049 4.21881 14.9294 4.40602 14.7071 4.54644C14.4887 4.68685 14.2176 4.75706 13.8939 4.75706C13.5936 4.75706 13.3264 4.69075 13.0924 4.55814C12.8622 4.42163 12.6828 4.23246 12.5541 3.99063C12.4254 3.74881 12.361 3.47383 12.361 3.1657C12.361 2.86147 12.4234 2.58845 12.5483 2.34663C12.677 2.1048 12.8525 1.91563 13.0748 1.77912C13.301 1.64261 13.5545 1.57435 13.8354 1.57435C14.124 1.57435 14.3736 1.63286 14.5842 1.74987C14.7949 1.86688 14.9548 2.03264 15.064 2.24717C15.1732 2.45779 15.2278 2.70156 15.2278 2.97849C15.2278 3.0916 15.22 3.20666 15.2044 3.32367H12.9929C13.0241 3.6006 13.1236 3.81512 13.2913 3.96723C13.459 4.11935 13.6677 4.1954 13.9173 4.1954C14.1006 4.1954 14.2566 4.1564 14.3853 4.07839C14.514 3.99648 14.6233 3.88142 14.713 3.73321L15.2337 3.98478ZM13.8354 2.10675C13.6053 2.10675 13.42 2.17501 13.2796 2.31152C13.1392 2.44804 13.0475 2.6294 13.0046 2.85562H14.6135C14.5979 2.606 14.5218 2.41878 14.3853 2.29397C14.2527 2.16916 14.0694 2.10675 13.8354 2.10675ZM17.0645 4.76291C16.7252 4.76291 16.4288 4.6849 16.1752 4.52889C15.9256 4.37287 15.7735 4.1408 15.7189 3.83267L16.2864 3.68055C16.3254 3.84437 16.4112 3.97698 16.5438 4.07839C16.6803 4.1798 16.8559 4.23051 17.0704 4.23051C17.2264 4.23051 17.3551 4.1954 17.4565 4.1252C17.5579 4.05499 17.6086 3.95748 17.6086 3.83267C17.6086 3.71176 17.556 3.62205 17.4507 3.56354C17.3453 3.50114 17.1757 3.44263 16.9417 3.38803C16.7388 3.34122 16.5633 3.28662 16.4151 3.22421C16.2669 3.1618 16.1401 3.0721 16.0348 2.95508C15.9334 2.83417 15.8827 2.67816 15.8827 2.48704C15.8827 2.31152 15.9276 2.15551 16.0173 2.01899C16.1109 1.87858 16.2415 1.76937 16.4093 1.69136C16.577 1.60945 16.7681 1.5685 16.9826 1.5685C17.2868 1.5685 17.5404 1.63676 17.7432 1.77327C17.946 1.90978 18.0728 2.0853 18.1235 2.29982L17.5618 2.48704C17.515 2.36613 17.439 2.27057 17.3336 2.20036C17.2322 2.13015 17.1094 2.09505 16.9651 2.09505C16.8168 2.09505 16.7018 2.1282 16.6199 2.19451C16.5419 2.26082 16.5029 2.34468 16.5029 2.44608C16.5029 2.5553 16.5497 2.6372 16.6433 2.69181C16.7369 2.74251 16.8929 2.79517 17.1113 2.84977C17.3531 2.90828 17.5501 2.97069 17.7022 3.03699C17.8543 3.0994 17.9792 3.19106 18.0767 3.31197C18.1742 3.43288 18.2229 3.5928 18.2229 3.79171C18.2229 4.09204 18.1137 4.32997 17.8953 4.50548C17.6769 4.6771 17.4 4.76291 17.0645 4.76291Z" fill="#121212"/>
</svg>
