<svg width="8" height="37" viewBox="0 0 8 37" fill="none" xmlns="http://www.w3.org/2000/svg">
<path id="ViewCheckControlEnabledOff" fill-rule="evenodd" clip-rule="evenodd" d="M3.97977 7.85132C6.02753 7.85132 7.68756 6.19128 7.68756 4.14353C7.68756 2.09577 6.02753 0.43573 3.97977 0.43573C1.93201 0.43573 0.271973 2.09577 0.271973 4.14353C0.271973 6.19128 1.93201 7.85132 3.97977 7.85132ZM5.28766 6.34548L3.49359 4.2074L4.14906 3.6574L5.38122 5.12583C5.57646 4.84781 5.69106 4.50905 5.69106 4.14353C5.69106 3.19841 4.92489 2.43224 3.97977 2.43224C3.03465 2.43224 2.26848 3.19841 2.26848 4.14353C2.26848 4.8127 2.65256 5.39216 3.21231 5.67349L2.83071 6.43955C1.98994 6.01796 1.41283 5.14814 1.41283 4.14353C1.41283 2.72585 2.56209 1.57659 3.97977 1.57659C5.39745 1.57659 6.5467 2.72585 6.5467 4.14353C6.5467 4.98905 5.67921 6.07921 5.50717 6.20678C5.33513 6.33435 5.28766 6.34548 5.28766 6.34548ZM3.97979 17.5486C6.02755 17.5486 7.68759 15.8886 7.68759 13.8408C7.68759 11.7931 6.02755 10.133 3.97979 10.133C1.93203 10.133 0.271995 11.7931 0.271995 13.8408C0.271995 15.8886 1.93203 17.5486 3.97979 17.5486ZM3.12415 12.4147V11.8443H4.83544V12.4147H5.9763V15.2669H1.98329V12.4147H3.12415ZM4.26501 13.5556V12.9852H3.69458V13.5556H3.12415V14.126H3.69458V14.6965H4.26501V14.126H4.83544V13.5556H4.26501ZM7.68759 33.2355C7.68759 35.2832 6.02755 36.9432 3.97979 36.9432C1.93203 36.9432 0.271995 35.2832 0.271995 33.2355C0.271995 31.1877 1.93203 29.5277 3.97979 29.5277C6.02755 29.5277 7.68759 31.1877 7.68759 33.2355ZM2.55372 31.8094H1.98329V32.3798H2.55372V31.8094ZM2.55372 32.9502H1.98329V33.5207H2.55372V32.9502ZM3.12415 33.5207H5.9763V32.9502H3.12415V33.5207ZM2.55372 34.0911H1.98329V34.6615H2.55372V34.0911ZM3.12415 34.0911V34.6615H5.9763V34.0911H3.12415ZM3.12415 32.3798V31.8094H5.9763V32.3798H3.12415Z" fill="#B8ADA4"/>
</svg>
