<svg width="136" height="21" viewBox="0 0 136 21" fill="none" xmlns="http://www.w3.org/2000/svg">
<path id="WaveformColor" fill-rule="evenodd" clip-rule="evenodd" d="M0.742911 2.95746L0.533963 5.2559V5.46485H135.933V5.04695H121.724H120.888H120.053L119.217 4.62905L118.381 5.04695L117.963 4.62905L117.127 5.04695L116.083 4.62905L115.247 5.04695L114.829 4.21115L113.366 4.62905L112.113 3.16641L111.486 3.79326L110.859 2.53957L110.023 2.95746L109.396 1.70377L108.769 1.91272L107.934 1.28587L107.516 2.12167L106.889 1.28587L106.471 2.12167L105.844 1.49482L105.008 2.12167L104.59 1.49482L103.546 2.53957L102.71 1.70377L101.874 2.95746L101.038 1.91272L100.829 2.95746L99.9936 2.12167L99.3667 2.74851L98.9488 2.12167L97.4862 2.95746L96.8593 1.70377L96.0235 2.12167L95.3967 1.28587L94.9788 1.70377L94.143 1.07692L93.5162 1.70377L92.6804 1.07692L91.8446 2.12167L91.0088 1.49482L89.964 3.58431L88.9193 1.70377L88.2924 3.58431L87.0387 2.53957L85.5761 3.58431L84.7403 2.53957L83.9045 3.79326L83.0687 2.53957L82.2329 3.79326L81.3971 2.53957L80.7703 3.79326L80.3524 3.16641L79.9345 3.79326L79.0987 3.16641L78.8897 3.79326H76.1734L75.5466 3.16641L74.9197 3.58431L74.5018 2.95746L74.0839 3.16641L73.2481 2.12167L72.8302 3.16641L72.2034 2.95746L71.7855 3.16641L71.3676 2.12167L70.9497 3.16641L70.5318 2.95746L70.1139 3.16641L69.2781 2.53957L68.4423 2.74851L67.6065 1.49482L66.5618 2.74851L65.726 1.49482L64.8902 2.95746L64.4723 2.12167H63.8454L63.4275 1.28587L62.5917 1.70377L62.1738 1.28587L61.7559 1.70377L61.1291 1.07692L60.7112 1.49482L60.2933 1.07692L59.6665 1.70377L58.8307 1.07692L58.2038 1.49482L57.577 1.07692L56.9501 1.49482L56.1143 1.07692L55.4875 1.49482L55.0696 1.07692L54.4427 2.53957L53.6069 2.12167L52.9801 2.74851L52.3533 2.53957L51.7264 2.74851L50.8906 2.12167L50.0548 2.53957L49.428 1.49482L48.8011 2.53957H47.5474L47.1295 1.49482L46.5027 2.53957H45.249L45.04 1.49482L44.2043 2.53957L43.7864 1.49482L42.9506 2.53957L42.5327 1.07692L41.4879 1.49482L40.4432 1.07692L39.3984 1.49482L38.5626 1.28587L38.3537 2.53957H37.5179L36.6821 5.04695H35.2195H34.1747H33.13H31.4584H29.3689H27.0705H25.8168L25.3989 4.4201L24.5631 5.04695L24.3541 4.21115L23.3094 4.4201L22.4736 3.37536L21.6378 3.58431L20.802 2.95746L20.1751 3.58431L19.3393 2.53957L18.9215 3.37536L17.8767 2.12167L16.623 2.74851L15.5783 1.07692L14.3246 2.53957L13.4888 2.12167L12.444 1.70377L11.8172 1.07692L11.1903 1.28587L10.5635 0.659027L9.51876 0.867976L8.47401 0.659027L7.22032 0.867976L5.96663 0.659027L4.71294 0.867976L3.66819 0.659027L3.04135 3.16641L2.62345 2.53957L2.20555 3.16641L1.57871 2.12167L1.16081 3.16641L0.742911 2.95746ZM0.742898 7.97224L0.533949 5.67381V5.46486H135.933V5.88275H121.724H120.888H120.053L119.217 6.30065L118.381 5.88275L117.963 6.30065L117.127 5.88275L116.083 6.30065L115.247 5.88275L114.829 6.71855L113.366 6.30065L112.113 7.76329L111.486 7.13645L110.859 8.39014L110.023 7.97224L109.396 9.22593L108.769 9.01698L107.934 9.64383L107.516 8.80804L106.889 9.64383L106.471 8.80804L105.844 9.43488L105.008 8.80804L104.59 9.43488L103.546 8.39014L102.71 9.22593L101.874 7.97224L101.038 9.01698L100.829 7.97224L99.9935 8.80804L99.3667 8.18119L98.9488 8.80804L97.4862 7.97224L96.8593 9.22593L96.0235 8.80804L95.3967 9.64383L94.9788 9.22593L94.143 9.85278L93.5161 9.22593L92.6803 9.85278L91.8445 8.80804L91.0088 9.43488L89.964 7.3454L88.9193 9.22593L88.2924 7.3454L87.0387 8.39014L85.5761 7.3454L84.7403 8.39014L83.9045 7.13645L83.0687 8.39014L82.2329 7.13645L81.3971 8.39014L80.7703 7.13645L80.3524 7.76329L79.9345 7.13645L79.0987 7.76329L78.8897 7.13645H76.1734L75.5465 7.76329L74.9197 7.3454L74.5018 7.97224L74.0839 7.76329L73.2481 8.80804L72.8302 7.76329L72.2034 7.97224L71.7855 7.76329L71.3676 8.80804L70.9497 7.76329L70.5318 7.97224L70.1139 7.76329L69.2781 8.39014L68.4423 8.18119L67.6065 9.43488L66.5618 8.18119L65.726 9.43488L64.8902 7.97224L64.4723 8.80804H63.8454L63.4275 9.64383L62.5917 9.22593L62.1738 9.64383L61.7559 9.22593L61.1291 9.85278L60.7112 9.43488L60.2933 9.85278L59.6664 9.22593L58.8306 9.85278L58.2038 9.43488L57.577 9.85278L56.9501 9.43488L56.1143 9.85278L55.4875 9.43488L55.0696 9.85278L54.4427 8.39014L53.6069 8.80804L52.9801 8.18119L52.3532 8.39014L51.7264 8.18119L50.8906 8.80804L50.0548 8.39014L49.428 9.43488L48.8011 8.39014H47.5474L47.1295 9.43488L46.5027 8.39014H45.249L45.04 9.43488L44.2042 8.39014L43.7863 9.43488L42.9505 8.39014L42.5326 9.85278L41.4879 9.43488L40.4432 9.85278L39.3984 9.43488L38.5626 9.64383L38.3537 8.39014H37.5179L36.6821 5.88275H35.2194H34.1747H33.13H31.4584H29.3689H27.0704H25.8167L25.3988 6.5096L24.5631 5.88275L24.3541 6.71855L23.3094 6.5096L22.4736 7.55434L21.6378 7.3454L20.802 7.97224L20.1751 7.3454L19.3393 8.39014L18.9214 7.55434L17.8767 8.80804L16.623 8.18119L15.5783 9.85278L14.3246 8.39014L13.4888 8.80804L12.444 9.22593L11.8172 9.85278L11.1903 9.64383L10.5635 10.2707L9.51874 10.0617L8.474 10.2707L7.22031 10.0617L5.96662 10.2707L4.71292 10.0617L3.66818 10.2707L3.04133 7.76329L2.62344 8.39014L2.20554 7.76329L1.57869 8.80804L1.1608 7.76329L0.742898 7.97224ZM0.742898 12.987L0.533949 15.2855V15.4944H0.533936V15.7033L0.742884 18.0018L1.16078 17.7928L1.57868 18.8376L2.20553 17.7928L2.62342 18.4197L3.04132 17.7928L3.66817 20.3002L4.71291 20.0913L5.9666 20.3002L7.22029 20.0913L8.47399 20.3002L9.51873 20.0913L10.5635 20.3002L11.1903 19.6734L11.8172 19.8823L12.444 19.2555L13.4888 18.8376L14.3246 18.4197L15.5782 19.8823L16.623 18.2107L17.8767 18.8376L18.9214 17.5839L19.3393 18.4197L20.1751 17.3749L20.802 18.0018L21.6378 17.3749L22.4736 17.5839L23.3093 16.5391L24.3541 16.7481L24.563 15.9123L25.3988 16.5391L25.8167 15.9123H27.0704H29.3689H31.4583H33.1299H34.1747H35.2194H36.6821L37.5179 18.4197H38.3537L38.5626 19.6734L39.3984 19.4644L40.4431 19.8823L41.4879 19.4644L42.5326 19.8823L42.9505 18.4197L43.7863 19.4644L44.2042 18.4197L45.04 19.4644L45.249 18.4197H46.5027L47.1295 19.4644L47.5474 18.4197H48.8011L49.4279 19.4644L50.0548 18.4197L50.8906 18.8376L51.7264 18.2107L52.3532 18.4197L52.9801 18.2107L53.6069 18.8376L54.4427 18.4197L55.0696 19.8823L55.4875 19.4644L56.1143 19.8823L56.9501 19.4644L57.5769 19.8823L58.2038 19.4644L58.8306 19.8823L59.6664 19.2555L60.2933 19.8823L60.7112 19.4644L61.1291 19.8823L61.7559 19.2555L62.1738 19.6734L62.5917 19.2555L63.4275 19.6734L63.8454 18.8376H64.4722L64.8901 18.0018L65.7259 19.4644L66.5617 18.2107L67.6065 19.4644L68.4423 18.2107L69.2781 18.4197L70.1139 17.7928L70.5318 18.0018L70.9497 17.7928L71.3676 18.8376L71.7855 17.7928L72.2034 18.0018L72.8302 17.7928L73.2481 18.8376L74.0839 17.7928L74.5018 18.0018L74.9197 17.3749L75.5465 17.7928L76.1734 17.166H78.8897L79.0987 17.7928L79.9345 17.166L80.3523 17.7928L80.7702 17.166L81.3971 18.4197L82.2329 17.166L83.0687 18.4197L83.9045 17.166L84.7403 18.4197L85.5761 17.3749L87.0387 18.4197L88.2924 17.3749L88.9193 19.2555L89.964 17.3749L91.0087 19.4644L91.8445 18.8376L92.6803 19.8823L93.5161 19.2555L94.143 19.8823L94.9788 19.2555L95.3967 19.6734L96.0235 18.8376L96.8593 19.2555L97.4861 18.0018L98.9488 18.8376L99.3667 18.2107L99.9935 18.8376L100.829 18.0018L101.038 19.0465L101.874 18.0018L102.71 19.2555L103.546 18.4197L104.59 19.4644L105.008 18.8376L105.844 19.4644L106.471 18.8376L106.889 19.6734L107.516 18.8376L107.934 19.6734L108.769 19.0465L109.396 19.2555L110.023 18.0018L110.859 18.4197L111.486 17.166L112.113 17.7928L113.366 16.3302L114.829 16.7481L115.247 15.9123L116.083 16.3302L117.127 15.9123L117.963 16.3302L118.381 15.9123L119.217 16.3302L120.053 15.9123H120.888H121.724H135.933L135.933 15.4944V15.0765H121.724H120.888H120.053L119.217 14.6586L118.381 15.0765L117.963 14.6586L117.127 15.0765L116.083 14.6586L115.247 15.0765L114.829 14.2407L113.366 14.6586L112.113 13.196L111.486 13.8228L110.859 12.5691L110.023 12.987L109.396 11.7333L108.769 11.9423L107.934 11.3154L107.516 12.1512L106.889 11.3154L106.471 12.1512L105.844 11.5244L105.008 12.1512L104.59 11.5244L103.546 12.5691L102.71 11.7333L101.874 12.987L101.038 11.9423L100.829 12.987L99.9935 12.1512L99.3667 12.7781L98.9488 12.1512L97.4862 12.987L96.8593 11.7333L96.0235 12.1512L95.3967 11.3154L94.9788 11.7333L94.143 11.1065L93.5161 11.7333L92.6803 11.1065L91.8445 12.1512L91.0088 11.5244L89.964 13.6139L88.9193 11.7333L88.2924 13.6139L87.0387 12.5691L85.5761 13.6139L84.7403 12.5691L83.9045 13.8228L83.0687 12.5691L82.2329 13.8228L81.3971 12.5691L80.7703 13.8228L80.3524 13.196L79.9345 13.8228L79.0987 13.196L78.8897 13.8228H76.1734L75.5465 13.196L74.9197 13.6139L74.5018 12.987L74.0839 13.196L73.2481 12.1512L72.8302 13.196L72.2034 12.987L71.7855 13.196L71.3676 12.1512L70.9497 13.196L70.5318 12.987L70.1139 13.196L69.2781 12.5691L68.4423 12.7781L67.6065 11.5244L66.5618 12.7781L65.726 11.5244L64.8902 12.987L64.4723 12.1512H63.8454L63.4275 11.3154L62.5917 11.7333L62.1738 11.3154L61.7559 11.7333L61.1291 11.1065L60.7112 11.5244L60.2933 11.1065L59.6664 11.7333L58.8306 11.1065L58.2038 11.5244L57.577 11.1065L56.9501 11.5244L56.1143 11.1065L55.4875 11.5244L55.0696 11.1065L54.4427 12.5691L53.6069 12.1512L52.9801 12.7781L52.3532 12.5691L51.7264 12.7781L50.8906 12.1512L50.0548 12.5691L49.428 11.5244L48.8011 12.5691H47.5474L47.1295 11.5244L46.5027 12.5691H45.249L45.04 11.5244L44.2042 12.5691L43.7863 11.5244L42.9505 12.5691L42.5326 11.1065L41.4879 11.5244L40.4432 11.1065L39.3984 11.5244L38.5626 11.3154L38.3537 12.5691H37.5179L36.6821 15.0765H35.2194H34.1747H33.13H31.4584H29.3689H27.0704H25.8167L25.3988 14.4497L24.5631 15.0765L24.3541 14.2407L23.3094 14.4497L22.4736 13.4049L21.6378 13.6139L20.802 12.987L20.1751 13.6139L19.3393 12.5691L18.9214 13.4049L17.8767 12.1512L16.623 12.7781L15.5783 11.1065L14.3246 12.5691L13.4888 12.1512L12.444 11.7333L11.8172 11.1065L11.1903 11.3154L10.5635 10.6886L9.51874 10.8975L8.474 10.6886L7.22031 10.8975L5.96662 10.6886L4.71292 10.8975L3.66818 10.6886L3.04133 13.196L2.62344 12.5691L2.20554 13.196L1.57869 12.1512L1.1608 13.196L0.742898 12.987Z" fill="black"/>
</svg>
