<svg width="68" height="9" viewBox="0 0 68 9" fill="none" xmlns="http://www.w3.org/2000/svg">
<path id="BrowserBarOverlayHintTextColor" d="M2.369 6.79669C1.78938 6.79669 1.29725 6.66546 0.892607 6.40299C0.487965 6.13505 0.217293 5.73588 0.08059 5.20547L0.958224 4.88558C1.04571 5.21914 1.20976 5.48161 1.45036 5.67299C1.69095 5.86438 2.00264 5.96007 2.38541 5.96007C2.69709 5.96007 2.95136 5.88351 3.14821 5.73041C3.34506 5.5773 3.44349 5.36131 3.44349 5.08243C3.44349 4.90199 3.39154 4.75435 3.28765 4.63952C3.18375 4.51922 3.04431 4.42079 2.86933 4.34424C2.69435 4.26768 2.45376 4.18293 2.14754 4.08997C1.80852 3.99154 1.52144 3.88765 1.28631 3.77829C1.05118 3.66346 0.851596 3.49668 0.687552 3.27795C0.523508 3.05376 0.441486 2.76395 0.441486 2.40852C0.441486 2.09137 0.520774 1.80703 0.67935 1.55549C0.837925 1.30396 1.05665 1.10984 1.33552 0.973138C1.61987 0.830966 1.93702 0.759881 2.28698 0.759881C2.81192 0.759881 3.2439 0.888382 3.58292 1.14538C3.92742 1.40239 4.14341 1.73047 4.2309 2.12965L3.37787 2.40852C3.19742 1.86718 2.82559 1.5965 2.26237 1.5965C1.98897 1.5965 1.77024 1.67032 1.6062 1.81796C1.44762 1.96013 1.36833 2.14332 1.36833 2.36751C1.36833 2.61904 1.46403 2.80769 1.65541 2.93346C1.84679 3.05376 2.1284 3.16586 2.50024 3.26975C2.88847 3.37911 3.21383 3.49941 3.4763 3.63065C3.73877 3.75641 3.95202 3.93413 4.11607 4.16379C4.28558 4.39345 4.37033 4.68873 4.37033 5.04963C4.37033 5.39412 4.28558 5.70033 4.11607 5.96827C3.95202 6.23074 3.71689 6.4358 3.41068 6.58344C3.10993 6.72561 2.76271 6.79669 2.369 6.79669ZM9.14157 5.714C8.96113 6.04209 8.71506 6.30456 8.40338 6.50141C8.09716 6.69827 7.71713 6.79669 7.26327 6.79669C6.84223 6.79669 6.46766 6.70373 6.13957 6.51782C5.81695 6.32643 5.56542 6.06123 5.38497 5.72221C5.20452 5.38318 5.1143 4.99768 5.1143 4.5657C5.1143 4.13918 5.20179 3.75641 5.37677 3.41739C5.55722 3.07837 5.80328 2.81316 6.11497 2.62178C6.43212 2.43039 6.78755 2.3347 7.18125 2.3347C7.58589 2.3347 7.93585 2.41672 8.23113 2.58077C8.52641 2.74481 8.7506 2.97721 8.90371 3.27795C9.05682 3.57323 9.13337 3.91499 9.13337 4.30323C9.13337 4.4618 9.12243 4.62311 9.10056 4.78716H6.00014C6.04388 5.17539 6.18332 5.47614 6.41845 5.6894C6.65358 5.90265 6.94612 6.00928 7.29608 6.00928C7.55308 6.00928 7.77181 5.9546 7.95226 5.84524C8.1327 5.73041 8.28581 5.5691 8.41158 5.36131L9.14157 5.714ZM7.18125 3.0811C6.85863 3.0811 6.59889 3.17679 6.40204 3.36818C6.20519 3.55956 6.07669 3.81383 6.01654 4.13098H8.27214C8.25027 3.78102 8.14364 3.51855 7.95226 3.34357C7.76634 3.16859 7.50934 3.0811 7.18125 3.0811ZM11.856 2.3347C12.4137 2.3347 12.8594 2.47687 13.1929 2.76121C13.5265 3.04556 13.6933 3.46114 13.6933 4.00795V6.69006H12.8731V6.14052C12.7637 6.34284 12.6024 6.50415 12.3891 6.62445C12.1759 6.74474 11.9161 6.80489 11.6099 6.80489C11.2873 6.80489 11.0057 6.74748 10.7651 6.63265C10.53 6.51235 10.3495 6.35377 10.2237 6.15692C10.098 5.9546 10.0351 5.72767 10.0351 5.47614C10.0351 5.0715 10.1882 4.75708 10.4944 4.53289C10.8006 4.30323 11.2189 4.1884 11.7494 4.1884H12.832V4.06536C12.832 3.75368 12.75 3.51308 12.586 3.34357C12.4219 3.17406 12.1759 3.0893 11.8478 3.0893C11.6017 3.0893 11.3939 3.14945 11.2244 3.26975C11.0604 3.38458 10.9346 3.53222 10.8471 3.71267L10.0515 3.43379C10.1937 3.07837 10.4261 2.80769 10.7487 2.62178C11.0768 2.43039 11.4459 2.3347 11.856 2.3347ZM11.7822 6.0667C12.0829 6.0667 12.3317 5.99014 12.5286 5.83704C12.7309 5.67846 12.832 5.43513 12.832 5.10704V4.84457H11.8314C11.5197 4.84457 11.2846 4.90199 11.126 5.01682C10.9729 5.12618 10.8963 5.27382 10.8963 5.45974C10.8963 5.64018 10.9729 5.78782 11.126 5.90265C11.2791 6.01202 11.4978 6.0667 11.7822 6.0667ZM16.8764 2.39212C17.1115 2.39212 17.322 2.4386 17.5079 2.53155C17.6993 2.62451 17.8606 2.75575 17.9919 2.92526L17.4423 3.56503C17.2455 3.33537 16.9994 3.22054 16.7041 3.22054C16.4416 3.22054 16.2311 3.3135 16.0726 3.49941C15.9194 3.68533 15.8429 3.97514 15.8429 4.36884V6.69006H14.9571V2.44953H15.8101V2.95807C16.0452 2.58077 16.4006 2.39212 16.8764 2.39212ZM20.4156 6.79669C20 6.79669 19.6282 6.70373 19.3001 6.51782C18.9775 6.32643 18.7232 6.06123 18.5373 5.72221C18.3569 5.38318 18.2666 4.99768 18.2666 4.5657C18.2666 4.13918 18.3596 3.75641 18.5455 3.41739C18.7369 3.07837 18.9939 2.8159 19.3165 2.62998C19.6391 2.4386 19.9946 2.3429 20.3828 2.3429C20.8312 2.3429 21.2222 2.44953 21.5557 2.66279C21.8947 2.87058 22.1271 3.19046 22.2529 3.62244L21.4245 3.87671C21.2386 3.38458 20.8886 3.13852 20.3746 3.13852C20.1449 3.13852 19.9371 3.2014 19.7512 3.32717C19.5653 3.44746 19.4177 3.61698 19.3083 3.8357C19.2044 4.05443 19.1525 4.29776 19.1525 4.5657C19.1525 4.98127 19.27 5.32577 19.5052 5.59917C19.7403 5.86711 20.0438 6.00108 20.4156 6.00108C20.9405 6.00108 21.3261 5.71127 21.5721 5.13165L22.3677 5.40232C22.2092 5.84524 21.9686 6.18973 21.6459 6.4358C21.3233 6.67639 20.9132 6.79669 20.4156 6.79669ZM25.3309 2.3429C25.8668 2.3429 26.2851 2.50421 26.5858 2.82683C26.8866 3.14398 27.037 3.59237 27.037 4.17199V6.69006H26.1511V4.27862C26.1511 3.91226 26.0609 3.63612 25.8804 3.4502C25.7055 3.25881 25.4621 3.16312 25.1505 3.16312C24.8388 3.16312 24.59 3.26155 24.4041 3.4584C24.2181 3.64979 24.1252 3.92593 24.1252 4.28682V6.69006H23.2393V0.866509H24.1252V2.90065C24.3876 2.52882 24.7896 2.3429 25.3309 2.3429ZM32.2095 8.19106C31.6299 7.81923 31.1514 7.29703 30.7741 6.62445C30.3968 5.9464 30.2082 5.17539 30.2082 4.31143C30.2082 3.72634 30.2984 3.18226 30.4789 2.67919C30.6593 2.17066 30.8999 1.72774 31.2007 1.35044C31.5014 0.96767 31.8377 0.658721 32.2095 0.423591L32.6606 1.04696C32.163 1.41332 31.7803 1.87264 31.5123 2.42493C31.2499 2.97174 31.1186 3.60057 31.1186 4.31143C31.1186 5.01682 31.2526 5.64565 31.5205 6.19793C31.7885 6.75021 32.1685 7.20954 32.6606 7.5759L32.2095 8.19106ZM36.0225 6.80489C35.503 6.80489 35.0465 6.67913 34.6528 6.42759C34.259 6.17059 33.9528 5.81243 33.7341 5.35311C33.5208 4.89378 33.4142 4.36611 33.4142 3.77008C33.4142 3.18499 33.5236 2.66279 33.7423 2.20347C33.961 1.74414 34.2645 1.38872 34.6528 1.13718C35.0465 0.88018 35.4948 0.751679 35.9979 0.751679C36.5557 0.751679 37.0341 0.888382 37.4333 1.16179C37.8325 1.43519 38.1059 1.8371 38.2535 2.36751L37.3349 2.62178C37.231 2.27729 37.0615 2.02028 36.8263 1.85077C36.5967 1.68126 36.3178 1.5965 35.9897 1.5965C35.6616 1.5965 35.3718 1.6922 35.1203 1.88358C34.8742 2.0695 34.6828 2.3265 34.5461 2.65459C34.4149 2.98267 34.3493 3.35451 34.3493 3.77008C34.3493 4.19113 34.4176 4.56843 34.5543 4.90199C34.6965 5.23554 34.8961 5.49528 35.1531 5.68119C35.4101 5.86711 35.7054 5.96007 36.0389 5.96007C36.4272 5.96007 36.7443 5.83704 36.9904 5.59097C37.2364 5.33944 37.4169 4.99768 37.5317 4.5657L38.434 4.83637C38.2535 5.48708 37.9555 5.97921 37.5399 6.31276C37.1298 6.64085 36.624 6.80489 36.0225 6.80489ZM43.891 2.35931C44.3722 2.35931 44.7522 2.50421 45.0311 2.79402C45.31 3.08383 45.4494 3.49941 45.4494 4.04076V6.69006H44.5636V4.13098C44.5636 3.81383 44.487 3.5787 44.3339 3.42559C44.1808 3.27248 43.973 3.19593 43.7105 3.19593C43.4535 3.19593 43.2457 3.28069 43.0872 3.4502C42.9341 3.61424 42.8575 3.85211 42.8575 4.16379V6.69006H41.9717V4.13098C41.9717 3.8193 41.8924 3.5869 41.7338 3.43379C41.5752 3.27522 41.3647 3.19593 41.1022 3.19593C40.8452 3.19593 40.6374 3.27795 40.4789 3.442C40.3258 3.60057 40.2492 3.83844 40.2492 4.15559V6.69006H39.3634V2.44953H40.2164V2.96627C40.4515 2.56163 40.8288 2.35931 41.3483 2.35931C41.6272 2.35931 41.8732 2.41399 42.0865 2.52335C42.3052 2.63271 42.4802 2.79402 42.6114 3.00728C42.7536 2.79949 42.9313 2.64092 43.1446 2.53155C43.3633 2.41672 43.6121 2.35931 43.891 2.35931ZM50.678 0.866509V6.69006H49.7921V6.23074C49.4586 6.60804 49.0239 6.79669 48.488 6.79669C48.0943 6.79669 47.7443 6.70373 47.4381 6.51782C47.1374 6.32643 46.9022 6.06123 46.7327 5.72221C46.5687 5.38318 46.4867 4.99768 46.4867 4.5657C46.4867 4.13918 46.5687 3.75641 46.7327 3.41739C46.9022 3.07837 47.1374 2.8159 47.4381 2.62998C47.7443 2.4386 48.0943 2.3429 48.488 2.3429C49.0239 2.3429 49.4586 2.53155 49.7921 2.90885V0.866509H50.678ZM48.5864 6.00108C48.827 6.00108 49.0403 5.9382 49.2262 5.81243C49.4176 5.68666 49.5652 5.51442 49.6691 5.29569C49.773 5.07697 49.8249 4.83363 49.8249 4.5657C49.8249 4.13371 49.7101 3.78922 49.4805 3.53222C49.2563 3.26975 48.9582 3.13852 48.5864 3.13852C48.231 3.13852 47.9384 3.27248 47.7088 3.54042C47.4846 3.80289 47.3725 4.14465 47.3725 4.5657C47.3725 4.99221 47.4846 5.33944 47.7088 5.60737C47.9384 5.86984 48.231 6.00108 48.5864 6.00108ZM57.5606 3.58964V4.34424H56.035V5.88625H55.2393V4.34424H53.7055V3.58964H55.2393V2.03122H56.035V3.58964H57.5606ZM60.68 0.866509H64.2561V1.71954H61.615V3.35997H63.6656V4.213H61.615V6.69006H60.68V0.866509ZM65.5195 0.423591C66.0991 0.795424 66.5776 1.32036 66.9549 1.99841C67.3322 2.67646 67.5208 3.44473 67.5208 4.30323C67.5208 4.88832 67.4306 5.43513 67.2502 5.94366C67.0697 6.44673 66.8291 6.88692 66.5284 7.26422C66.2276 7.64699 65.8913 7.95593 65.5195 8.19106L65.0684 7.5677C65.566 7.20133 65.946 6.74201 66.2085 6.18973C66.471 5.63745 66.6022 5.00861 66.6022 4.30323C66.6022 3.59784 66.4682 2.969 66.2003 2.41672C65.9378 1.86444 65.5605 1.40512 65.0684 1.03876L65.5195 0.423591Z" fill="#978577"/>
</svg>
