<svg width="128" height="84" viewBox="0 0 128 84" fill="none" xmlns="http://www.w3.org/2000/svg">
<path id="BrowserTagBackground" fill-rule="evenodd" clip-rule="evenodd" d="M0.386551 0.493042H56.9817V11.1559H0.386551V0.493042ZM59.4423 0.493057H119.318V11.1559H59.4423V0.493057ZM123.419 59.5488H96.3521V70.2116H123.419V59.5488ZM50.4198 72.6723H115.217V83.3351H50.4198V72.6723ZM47.9592 72.6723V83.3351H0.386475V72.6723H47.9592ZM56.9816 70.2116H0.386475V59.5488H56.9816V70.2116ZM24.993 57.0881H0.386475V46.4253H24.993V57.0881ZM27.4537 57.0881V46.4253H61.9029V57.0881H27.4537ZM25.8133 33.3018V43.9646H52.8805V33.3018H25.8133ZM127.52 43.9646H55.3411V33.3018H127.52V43.9646ZM23.3526 43.9646V33.3018H0.386475V43.9646H23.3526ZM59.4422 70.2116V59.5488H93.8914V70.2116H59.4422Z" fill="#F6E6CD"/>
</svg>
