<svg width="1104" height="522" viewBox="0 0 1104 522" fill="none" xmlns="http://www.w3.org/2000/svg">
<path id="ChosenDefault" fill-rule="evenodd" clip-rule="evenodd" d="M589.507 0.752075H575.563V14.6958H589.507V0.752075ZM1067.69 79.4931H1103.78V88.5155H1067.69V79.4931ZM10.0221 517.08C10.0221 519.798 7.81872 522.001 5.10076 522.001C2.38279 522.001 0.179443 519.798 0.179443 517.08C0.179443 514.362 2.38279 512.158 5.10076 512.158C7.81872 512.158 10.0221 514.362 10.0221 517.08ZM1103.78 123.785H1067.69V132.807H1103.78V123.785ZM1067.69 212.369H1103.78V221.391H1067.69V212.369ZM1103.78 256.66H1067.69V265.683H1103.78V256.66ZM1067.69 168.077H1103.78V177.099H1067.69V168.077ZM591.147 0.752075H605.091V14.6958H591.147V0.752075ZM426.283 0.752075H409.059V14.6958H426.283V0.752075ZM756.831 0.752134H774.056V14.6959H756.831V0.752134ZM222.869 125.425H202.363V136.088H222.869V125.425Z" fill="#99B5DC"/>
</svg>
