<svg width="1140" height="444" viewBox="0 0 1140 444" fill="none" xmlns="http://www.w3.org/2000/svg">
<path id="ControlBackground" fill-rule="evenodd" clip-rule="evenodd" d="M1124.21 0.493042H1139.79V9.51545H1124.21V0.493042ZM1119.29 0.493164H1103.71V9.51557H1119.29V0.493164ZM224.841 107.532C224.841 104.814 227.044 102.61 229.762 102.61H255.189C257.907 102.61 260.11 104.814 260.11 107.532C260.11 110.25 257.907 112.453 255.189 112.453H229.762C227.044 112.453 224.841 110.25 224.841 107.532ZM208.436 273.216C205.718 273.216 203.515 275.419 203.515 278.137C203.515 280.855 205.718 283.058 208.436 283.058H257.65C260.368 283.058 262.571 280.855 262.571 278.137C262.571 275.419 260.368 273.216 257.65 273.216H208.436ZM203.515 292.081C203.515 289.363 205.718 287.16 208.436 287.16H257.65C260.368 287.16 262.571 289.363 262.571 292.081C262.571 294.799 260.368 297.002 257.65 297.002H208.436C205.718 297.002 203.515 294.799 203.515 292.081ZM208.436 306.845C205.718 306.845 203.515 309.048 203.515 311.766C203.515 314.484 205.718 316.687 208.436 316.687H257.65C260.368 316.687 262.571 314.484 262.571 311.766C262.571 309.048 260.368 306.845 257.65 306.845H208.436ZM122.313 318.328H0.10083V328.171H122.313V318.328ZM145.28 410.192C142.562 410.192 140.358 412.396 140.358 415.114C140.358 417.832 142.562 420.035 145.28 420.035H194.493C197.211 420.035 199.414 417.832 199.414 415.114C199.414 412.396 197.211 410.192 194.493 410.192H145.28ZM203.515 415.114C203.515 412.396 205.718 410.192 208.436 410.192H257.65C260.368 410.192 262.571 412.396 262.571 415.114C262.571 417.832 260.368 420.035 257.65 420.035H208.436C205.718 420.035 203.515 417.832 203.515 415.114ZM208.436 392.148C205.718 392.148 203.515 394.351 203.515 397.069C203.515 399.787 205.718 401.99 208.436 401.99H257.65C260.368 401.99 262.571 399.787 262.571 397.069C262.571 394.351 260.368 392.148 257.65 392.148H208.436ZM203.515 379.024C203.515 376.306 205.718 374.103 208.436 374.103H257.65C260.368 374.103 262.571 376.306 262.571 379.024C262.571 381.742 260.368 383.945 257.65 383.945H208.436C205.718 383.945 203.515 381.742 203.515 379.024ZM208.436 347.856C205.718 347.856 203.515 350.059 203.515 352.777C203.515 355.495 205.718 357.698 208.436 357.698H257.65C260.368 357.698 262.571 355.495 262.571 352.777C262.571 350.059 260.368 347.856 257.65 347.856H208.436ZM203.515 338.833C203.515 336.115 205.718 333.912 208.436 333.912H257.65C260.368 333.912 262.571 336.115 262.571 338.833C262.571 341.551 260.368 343.755 257.65 343.755H208.436C205.718 343.755 203.515 341.551 203.515 338.833ZM109.19 332.272C106.472 332.272 104.269 334.475 104.269 337.193C104.269 339.911 106.472 342.114 109.19 342.114H117.392C120.11 342.114 122.313 339.911 122.313 337.193C122.313 334.475 120.11 332.272 117.392 332.272H109.19ZM41.5218 337.193C41.5218 334.475 43.7252 332.272 46.4432 332.272H54.2352C56.9532 332.272 59.1566 334.475 59.1566 337.193C59.1566 339.911 56.9532 342.114 54.2352 342.114H46.4432C43.7252 342.114 41.5218 339.911 41.5218 337.193ZM109.19 272.396C106.472 272.396 104.269 274.599 104.269 277.317C104.269 280.035 106.472 282.238 109.19 282.238H117.392C120.11 282.238 122.313 280.035 122.313 277.317C122.313 274.599 120.11 272.396 117.392 272.396H109.19ZM41.5218 277.317C41.5218 274.599 43.7252 272.396 46.4432 272.396H54.2352C56.9532 272.396 59.1566 274.599 59.1566 277.317C59.1566 280.035 56.9532 282.238 54.2352 282.238H46.4432C43.7252 282.238 41.5218 280.035 41.5218 277.317ZM5.02214 300.283C2.30418 300.283 0.10083 302.486 0.10083 305.204C0.10083 307.922 2.30417 310.126 5.02214 310.126H117.392C120.11 310.126 122.313 307.922 122.313 305.204C122.313 302.486 120.11 300.283 117.392 300.283H5.02214ZM836.314 438.08C836.314 441.024 833.927 443.411 830.983 443.411C828.038 443.411 825.651 441.024 825.651 438.08C825.651 435.135 828.038 432.748 830.983 432.748C833.927 432.748 836.314 435.135 836.314 438.08ZM844.106 443.411C847.05 443.411 849.437 441.024 849.437 438.08C849.437 435.135 847.05 432.748 844.106 432.748C841.161 432.748 838.774 435.135 838.774 438.08C838.774 441.024 841.161 443.411 844.106 443.411ZM205.566 438.49C205.566 441.208 203.362 443.411 200.644 443.411C197.926 443.411 195.723 441.208 195.723 438.49C195.723 435.772 197.926 433.569 200.644 433.569C203.362 433.569 205.566 435.772 205.566 438.49ZM168.246 443.411C170.964 443.411 173.167 441.208 173.167 438.49C173.167 435.772 170.964 433.569 168.246 433.569C165.528 433.569 163.324 435.772 163.324 438.49C163.324 441.208 165.528 443.411 168.246 443.411ZM189.571 438.49C189.571 441.208 187.368 443.411 184.65 443.411C181.932 443.411 179.729 441.208 179.729 438.49C179.729 435.772 181.932 433.569 184.65 433.569C187.368 433.569 189.571 435.772 189.571 438.49ZM1119.29 44.7849H1103.71V53.8073H1119.29V44.7849ZM1124.21 44.7849H1139.79V53.8073H1124.21V44.7849ZM1119.29 133.369H1103.71V142.391H1119.29V133.369ZM1124.21 133.369H1139.79V142.391H1124.21V133.369ZM1119.29 89.0768H1103.71V98.0992H1119.29V89.0768ZM1103.71 177.66H1119.29V186.683H1103.71V177.66ZM1139.79 177.66H1124.21V186.683H1139.79V177.66Z" fill="#F6EAD8"/>
</svg>
