<svg width="961" height="15" viewBox="0 0 961 15" fill="none" xmlns="http://www.w3.org/2000/svg">
<path id="ControlContrastTransport" fill-rule="evenodd" clip-rule="evenodd" d="M34.2905 1.16218H0.661574V14.2857H34.2905V1.16218ZM0.661574 0.752075H0.251465V1.16218V14.2857V14.6958H0.661574H34.2905H34.7007V14.2857V1.16218V0.752075H34.2905H0.661574ZM814.319 1.16221H808.577V6.90374H814.319V1.16221ZM808.577 0.752104H808.167V1.16221V6.90374V7.31385H808.577H814.319H814.729V6.90374V1.16221V0.752104H814.319H808.577ZM954.576 1.16221H960.318V6.90374H954.576V1.16221ZM954.166 0.752104H954.576H960.318H960.728V1.16221V6.90374V7.31385H960.318H954.576H954.166V6.90374V1.16221V0.752104ZM814.319 8.54418H808.577V14.2857H814.319V8.54418ZM808.577 8.13407H808.167V8.54418V14.2857V14.6958H808.577H814.319H814.729V14.2857V8.54418V8.13407H814.319H808.577ZM954.576 8.54418H960.318V14.2857H954.576V8.54418ZM954.166 8.13407H954.576H960.318H960.728V8.54418V14.2857V14.6958H960.318H954.576H954.166V14.2857V8.54418V8.13407Z" fill="#978577"/>
</svg>
