<svg width="78" height="198" viewBox="0 0 78 198" fill="none" xmlns="http://www.w3.org/2000/svg">
<path id="ControlTextBack" fill-rule="evenodd" clip-rule="evenodd" d="M41.7054 0.436768H77.795V9.45917H41.7054V0.436768ZM0.694421 0.436801H36.784V9.45921H0.694421V0.436801ZM77.795 14.3805H54.8289V23.4029H77.795V14.3805ZM27.7616 14.3805H50.7277V23.4029H27.7616V14.3805ZM23.6605 14.3805H0.694336V23.4029H23.6605V14.3805ZM0.694336 133.312H36.784V142.335H0.694336V133.312ZM36.784 188.267H0.694336V197.289H36.784V188.267ZM41.7054 133.312H77.795V142.335H41.7054V133.312ZM77.795 188.267H41.7054V197.289H77.795V188.267ZM54.8289 147.256H77.795V156.278H54.8289V147.256ZM50.7277 147.256H27.7616V156.278H50.7277V147.256ZM0.694336 147.256H23.6605V156.278H0.694336V147.256ZM36.784 177.604H0.694336V183.346H36.784V177.604ZM41.7054 177.604H77.795V183.346H41.7054V177.604ZM36.784 44.7286H0.694336V53.751H36.784V44.7286ZM41.7054 44.7286H77.795V53.751H41.7054V44.7286ZM77.795 58.6723H54.8289V67.6947H77.795V58.6723ZM27.7616 58.6723H50.7277V67.6947H27.7616V58.6723ZM23.6605 58.6723H0.694336V67.6947H23.6605V58.6723Z" fill="#E7DACD"/>
</svg>
