<svg width="659" height="255" viewBox="0 0 659 255" fill="none" xmlns="http://www.w3.org/2000/svg">
<path id="GridLabel" fill-rule="evenodd" clip-rule="evenodd" d="M464.584 2.64001C464.312 2.48535 464.008 2.40802 463.672 2.40802C463.389 2.40802 463.125 2.46667 462.88 2.58401C462.64 2.70135 462.451 2.88002 462.312 3.12001C462.344 2.41068 462.483 1.88268 462.728 1.53601C462.973 1.18402 463.285 1.00801 463.664 1.00801C463.915 1.00801 464.117 1.07468 464.272 1.20801C464.432 1.33601 464.549 1.50401 464.624 1.71202L465.432 1.41602C465.336 1.08002 465.144 0.794678 464.856 0.560013C464.568 0.325348 464.173 0.208008 463.672 0.208008C463.128 0.208008 462.691 0.368011 462.36 0.688019C462.029 1.00801 461.795 1.41602 461.656 1.91202C461.517 2.40802 461.448 2.94135 461.448 3.51201C461.448 4.08269 461.547 4.56268 461.744 4.95201C461.941 5.34135 462.197 5.63202 462.512 5.82402C462.832 6.01068 463.179 6.10402 463.552 6.10402C463.893 6.10402 464.211 6.02669 464.504 5.87201C464.803 5.71202 465.04 5.49068 465.216 5.20801C465.392 4.92535 465.48 4.60535 465.48 4.24802C465.48 3.89069 465.4 3.57335 465.24 3.29602C465.08 3.01335 464.861 2.79468 464.584 2.64001ZM464.28 5.01602C464.083 5.20801 463.837 5.30402 463.544 5.30402C463.245 5.30402 462.995 5.21068 462.792 5.02402C462.595 4.83202 462.496 4.57867 462.496 4.26402C462.496 3.93867 462.597 3.68001 462.8 3.48802C463.003 3.29068 463.256 3.19202 463.56 3.19202C463.848 3.19202 464.091 3.29068 464.288 3.48802C464.485 3.68001 464.584 3.93867 464.584 4.26402C464.584 4.57335 464.483 4.82402 464.28 5.01602ZM98.296 6.00002V5.22401H95.792L96.576 4.48802C96.96 4.13068 97.264 3.82668 97.488 3.57602C97.712 3.32535 97.888 3.06401 98.016 2.79201C98.1493 2.51468 98.216 2.22134 98.216 1.91202C98.216 1.59735 98.1413 1.31201 97.992 1.05602C97.848 0.794678 97.6373 0.589355 97.36 0.440018C97.088 0.29068 96.7653 0.216019 96.392 0.216019C96.024 0.216019 95.6933 0.29068 95.4 0.440018C95.1067 0.589355 94.8693 0.802689 94.688 1.08002C94.512 1.35735 94.4053 1.67735 94.368 2.04001L95.2 2.21602C95.344 1.42134 95.7333 1.02402 96.368 1.02402C96.6613 1.02402 96.896 1.10667 97.072 1.27202C97.248 1.43735 97.336 1.65602 97.336 1.92801C97.336 2.21602 97.2347 2.50401 97.032 2.79201C96.8347 3.08002 96.5333 3.41869 96.128 3.80801L94.536 5.32802V6.00002H98.296ZM6.312 5.25601H5.04V0.320023H4.288L2.6 1.54402L3.064 2.14401L4.152 1.37602V5.25601H2.688V6.00002H6.312V5.25601ZM189.432 2.88802C189.72 3.03201 189.944 3.22668 190.104 3.47202C190.269 3.71735 190.352 3.99734 190.352 4.31201C190.352 4.65868 190.269 4.96802 190.104 5.24002C189.939 5.51201 189.707 5.72534 189.408 5.88002C189.115 6.02934 188.779 6.10402 188.4 6.10402C187.797 6.10402 187.32 5.96268 186.968 5.68001C186.616 5.39735 186.403 5.01602 186.328 4.53601L187.192 4.31201C187.251 4.62668 187.384 4.87201 187.592 5.04802C187.8 5.21869 188.067 5.30402 188.392 5.30402C188.707 5.30402 188.963 5.21335 189.16 5.03201C189.363 4.85068 189.464 4.60268 189.464 4.28801C189.464 4.00536 189.357 3.77335 189.144 3.59201C188.936 3.41068 188.667 3.32002 188.336 3.32002H187.92V2.56801H188.336C188.624 2.56801 188.848 2.49335 189.008 2.34401C189.168 2.18935 189.248 1.99202 189.248 1.75201C189.248 1.52802 189.171 1.34935 189.016 1.21602C188.861 1.08269 188.659 1.01602 188.408 1.01602C188.157 1.01602 187.955 1.08534 187.8 1.22401C187.651 1.36269 187.544 1.54135 187.48 1.76001L186.632 1.57602C186.675 1.32002 186.779 1.09068 186.944 0.888016C187.109 0.680008 187.32 0.517349 187.576 0.400009C187.832 0.282684 188.112 0.224014 188.416 0.224014C188.747 0.224014 189.043 0.28801 189.304 0.416016C189.565 0.544022 189.768 0.722687 189.912 0.952011C190.056 1.17601 190.128 1.42935 190.128 1.71202C190.128 1.96802 190.067 2.19469 189.944 2.39201C189.821 2.58936 189.651 2.75468 189.432 2.88802ZM281.56 3.94402H280.736V0.320023H279.656L277.296 4.02402V4.68001H279.864V6.00002H280.736V4.68001H281.56V3.94402ZM279.864 3.94402H278.232L279.864 1.36002V3.94402ZM371.512 2.32802C371.88 2.32802 372.208 2.41068 372.496 2.57602C372.789 2.74135 373.016 2.96802 373.176 3.25601C373.336 3.54402 373.416 3.86401 373.416 4.21602C373.416 4.56268 373.323 4.88268 373.136 5.17601C372.955 5.46402 372.709 5.69069 372.4 5.85602C372.096 6.02135 371.768 6.10402 371.416 6.10402C370.947 6.10402 370.533 5.99467 370.176 5.77602C369.819 5.55734 369.565 5.21068 369.416 4.73601L370.248 4.39201C370.312 4.66934 370.445 4.89069 370.648 5.05602C370.856 5.22134 371.115 5.30402 371.424 5.30402C371.616 5.30402 371.797 5.26135 371.968 5.17601C372.139 5.08534 372.275 4.95735 372.376 4.79202C372.483 4.62668 372.536 4.43468 372.536 4.21602C372.536 3.96002 372.477 3.75201 372.36 3.59201C372.243 3.42668 372.099 3.30934 371.928 3.24002C371.763 3.16534 371.595 3.12802 371.424 3.12802C371.045 3.12802 370.733 3.26668 370.488 3.54402L369.672 3.42401L370.064 0.320023H373.2V1.09601H370.8L370.6 2.62401C370.867 2.42668 371.171 2.32802 371.512 2.32802ZM552.456 0.320023H556.368V0.968018L553.92 6.00002H552.928L555.376 1.09601H552.456V0.320023ZM648.2 3.44002C648.045 3.18402 647.832 2.97868 647.56 2.82402C647.736 2.69601 647.869 2.53868 647.96 2.35202C648.056 2.16534 648.104 1.95468 648.104 1.72002C648.104 1.43202 648.029 1.17336 647.88 0.944016C647.731 0.714676 647.525 0.538681 647.264 0.416016C647.008 0.28801 646.72 0.224014 646.4 0.224014C646.08 0.224014 645.789 0.28801 645.528 0.416016C645.272 0.538681 645.069 0.714676 644.92 0.944016C644.771 1.17336 644.696 1.43202 644.696 1.72002C644.696 1.95468 644.741 2.16534 644.832 2.35202C644.928 2.53868 645.064 2.69601 645.24 2.82402C644.968 2.97868 644.755 3.18402 644.6 3.44002C644.445 3.69601 644.368 3.97868 644.368 4.28801C644.368 4.62935 644.453 4.93867 644.624 5.21602C644.795 5.49335 645.032 5.71202 645.336 5.87201C645.645 6.03201 646 6.11201 646.4 6.11201C646.8 6.11201 647.152 6.03201 647.456 5.87201C647.765 5.71202 648.005 5.49335 648.176 5.21602C648.347 4.93867 648.432 4.62935 648.432 4.28801C648.432 3.97868 648.355 3.69601 648.2 3.44002ZM645.792 1.21602C645.947 1.07202 646.149 1.00002 646.4 1.00002C646.651 1.00002 646.853 1.07202 647.008 1.21602C647.163 1.36002 647.24 1.53601 647.24 1.74402C647.24 1.95201 647.163 2.13068 647.008 2.28001C646.853 2.42935 646.651 2.50401 646.4 2.50401C646.149 2.50401 645.947 2.42935 645.792 2.28001C645.637 2.13068 645.56 1.94934 645.56 1.73601C645.56 1.53336 645.637 1.36002 645.792 1.21602ZM647.216 5.02402C647.003 5.22134 646.731 5.32002 646.4 5.32002C646.069 5.32002 645.795 5.22134 645.576 5.02402C645.363 4.82135 645.256 4.57068 645.256 4.27202C645.256 3.97334 645.363 3.72534 645.576 3.52802C645.795 3.32535 646.069 3.22401 646.4 3.22401C646.731 3.22401 647.003 3.32535 647.216 3.52802C647.435 3.72534 647.544 3.97334 647.544 4.27202C647.544 4.57068 647.435 4.82135 647.216 5.02402ZM2.40007 253.888C1.9894 253.888 1.62674 253.773 1.31207 253.544C0.997402 253.309 0.752068 252.971 0.576068 252.528C0.405402 252.085 0.320068 251.56 0.320068 250.952C0.320068 250.344 0.405402 249.819 0.576068 249.376C0.752068 248.933 0.997402 248.597 1.31207 248.368C1.62674 248.133 1.9894 248.016 2.40007 248.016C2.81073 248.016 3.1734 248.133 3.48807 248.368C3.80274 248.597 4.0454 248.933 4.21607 249.376C4.39207 249.819 4.48007 250.344 4.48007 250.952C4.48007 251.56 4.39207 252.085 4.21607 252.528C4.0454 252.971 3.80274 253.309 3.48807 253.544C3.1734 253.773 2.81073 253.888 2.40007 253.888ZM2.40007 253.088C2.63474 253.088 2.84274 253.005 3.02407 252.84C3.2054 252.669 3.34674 252.424 3.44807 252.104C3.5494 251.779 3.60007 251.395 3.60007 250.952C3.60007 250.504 3.5494 250.12 3.44807 249.8C3.34674 249.475 3.2054 249.229 3.02407 249.064C2.84274 248.899 2.63474 248.816 2.40007 248.816C2.1654 248.816 1.9574 248.899 1.77607 249.064C1.59474 249.229 1.4534 249.475 1.35207 249.8C1.25074 250.12 1.20007 250.504 1.20007 250.952C1.20007 251.395 1.25074 251.779 1.35207 252.104C1.4534 252.424 1.59474 252.669 1.77607 252.84C1.9574 253.005 2.1654 253.088 2.40007 253.088ZM6.06094 253.848C5.89028 253.848 5.74094 253.784 5.61294 253.656C5.48494 253.528 5.42094 253.379 5.42094 253.208C5.42094 253.037 5.48494 252.888 5.61294 252.76C5.74628 252.632 5.89561 252.568 6.06094 252.568C6.23161 252.568 6.38094 252.632 6.50894 252.76C6.63694 252.888 6.70094 253.037 6.70094 253.208C6.70094 253.379 6.63694 253.528 6.50894 253.656C6.38094 253.784 6.23161 253.848 6.06094 253.848ZM6.06094 250.968C5.89028 250.968 5.74094 250.904 5.61294 250.776C5.48494 250.648 5.42094 250.499 5.42094 250.328C5.42094 250.157 5.48494 250.008 5.61294 249.88C5.74628 249.752 5.89561 249.688 6.06094 249.688C6.23161 249.688 6.38094 249.752 6.50894 249.88C6.63694 250.008 6.70094 250.157 6.70094 250.328C6.70094 250.499 6.63694 250.648 6.50894 250.776C6.38094 250.904 6.23161 250.968 6.06094 250.968ZM9.72819 253.888C9.31753 253.888 8.95486 253.773 8.64019 253.544C8.32553 253.309 8.08019 252.971 7.90419 252.528C7.73353 252.085 7.64819 251.56 7.64819 250.952C7.64819 250.344 7.73353 249.819 7.90419 249.376C8.08019 248.933 8.32553 248.597 8.64019 248.368C8.95486 248.133 9.31753 248.016 9.72819 248.016C10.1389 248.016 10.5015 248.133 10.8162 248.368C11.1309 248.597 11.3735 248.933 11.5442 249.376C11.7202 249.819 11.8082 250.344 11.8082 250.952C11.8082 251.56 11.7202 252.085 11.5442 252.528C11.3735 252.971 11.1309 253.309 10.8162 253.544C10.5015 253.773 10.1389 253.888 9.72819 253.888ZM9.72819 253.088C9.96286 253.088 10.1709 253.005 10.3522 252.84C10.5335 252.669 10.6749 252.424 10.7762 252.104C10.8775 251.779 10.9282 251.395 10.9282 250.952C10.9282 250.504 10.8775 250.12 10.7762 249.8C10.6749 249.475 10.5335 249.229 10.3522 249.064C10.1709 248.899 9.96286 248.816 9.72819 248.816C9.49353 248.816 9.28553 248.899 9.10419 249.064C8.92286 249.229 8.78153 249.475 8.68019 249.8C8.57886 250.12 8.52819 250.504 8.52819 250.952C8.52819 251.395 8.57886 251.779 8.68019 252.104C8.78153 252.424 8.92286 252.669 9.10419 252.84C9.28553 253.005 9.49353 253.088 9.72819 253.088ZM14.5251 253.888C14.1144 253.888 13.7517 253.773 13.4371 253.544C13.1224 253.309 12.8771 252.971 12.7011 252.528C12.5304 252.085 12.4451 251.56 12.4451 250.952C12.4451 250.344 12.5304 249.819 12.7011 249.376C12.8771 248.933 13.1224 248.597 13.4371 248.368C13.7517 248.133 14.1144 248.016 14.5251 248.016C14.9357 248.016 15.2984 248.133 15.6131 248.368C15.9277 248.597 16.1704 248.933 16.3411 249.376C16.5171 249.819 16.6051 250.344 16.6051 250.952C16.6051 251.56 16.5171 252.085 16.3411 252.528C16.1704 252.971 15.9277 253.309 15.6131 253.544C15.2984 253.773 14.9357 253.888 14.5251 253.888ZM14.5251 253.088C14.7597 253.088 14.9677 253.005 15.1491 252.84C15.3304 252.669 15.4717 252.424 15.5731 252.104C15.6744 251.779 15.7251 251.395 15.7251 250.952C15.7251 250.504 15.6744 250.12 15.5731 249.8C15.4717 249.475 15.3304 249.229 15.1491 249.064C14.9677 248.899 14.7597 248.816 14.5251 248.816C14.2904 248.816 14.0824 248.899 13.9011 249.064C13.7197 249.229 13.5784 249.475 13.4771 249.8C13.3757 250.12 13.3251 250.504 13.3251 250.952C13.3251 251.395 13.3757 251.779 13.4771 252.104C13.5784 252.424 13.7197 252.669 13.9011 252.84C14.0824 253.005 14.2904 253.088 14.5251 253.088ZM93.3121 253.544C93.6267 253.773 93.9894 253.888 94.4001 253.888C94.8107 253.888 95.1734 253.773 95.4881 253.544C95.8027 253.309 96.0454 252.971 96.2161 252.528C96.3921 252.085 96.4801 251.56 96.4801 250.952C96.4801 250.344 96.3921 249.819 96.2161 249.376C96.0454 248.933 95.8027 248.597 95.4881 248.368C95.1734 248.133 94.8107 248.016 94.4001 248.016C93.9894 248.016 93.6267 248.133 93.3121 248.368C92.9974 248.597 92.7521 248.933 92.5761 249.376C92.4054 249.819 92.3201 250.344 92.3201 250.952C92.3201 251.56 92.4054 252.085 92.5761 252.528C92.7521 252.971 92.9974 253.309 93.3121 253.544ZM95.0241 252.84C94.8427 253.005 94.6347 253.088 94.4001 253.088C94.1654 253.088 93.9574 253.005 93.7761 252.84C93.5947 252.669 93.4534 252.424 93.3521 252.104C93.2507 251.779 93.2001 251.395 93.2001 250.952C93.2001 250.504 93.2507 250.12 93.3521 249.8C93.4534 249.475 93.5947 249.229 93.7761 249.064C93.9574 248.899 94.1654 248.816 94.4001 248.816C94.6347 248.816 94.8427 248.899 95.0241 249.064C95.2054 249.229 95.3467 249.475 95.4481 249.8C95.5494 250.12 95.6001 250.504 95.6001 250.952C95.6001 251.395 95.5494 251.779 95.4481 252.104C95.3467 252.424 95.2054 252.669 95.0241 252.84ZM97.6129 253.656C97.7409 253.784 97.8903 253.848 98.0609 253.848C98.2316 253.848 98.3809 253.784 98.5089 253.656C98.6369 253.528 98.7009 253.379 98.7009 253.208C98.7009 253.037 98.6369 252.888 98.5089 252.76C98.3809 252.632 98.2316 252.568 98.0609 252.568C97.8956 252.568 97.7463 252.632 97.6129 252.76C97.4849 252.888 97.4209 253.037 97.4209 253.208C97.4209 253.379 97.4849 253.528 97.6129 253.656ZM97.6129 250.776C97.7409 250.904 97.8903 250.968 98.0609 250.968C98.2316 250.968 98.3809 250.904 98.5089 250.776C98.6369 250.648 98.7009 250.499 98.7009 250.328C98.7009 250.157 98.6369 250.008 98.5089 249.88C98.3809 249.752 98.2316 249.688 98.0609 249.688C97.8956 249.688 97.7463 249.752 97.6129 249.88C97.4849 250.008 97.4209 250.157 97.4209 250.328C97.4209 250.499 97.4849 250.648 97.6129 250.776ZM100.64 253.544C100.955 253.773 101.318 253.888 101.728 253.888C102.139 253.888 102.502 253.773 102.816 253.544C103.131 253.309 103.374 252.971 103.544 252.528C103.72 252.085 103.808 251.56 103.808 250.952C103.808 250.344 103.72 249.819 103.544 249.376C103.374 248.933 103.131 248.597 102.816 248.368C102.502 248.133 102.139 248.016 101.728 248.016C101.318 248.016 100.955 248.133 100.64 248.368C100.326 248.597 100.08 248.933 99.9042 249.376C99.7335 249.819 99.6482 250.344 99.6482 250.952C99.6482 251.56 99.7335 252.085 99.9042 252.528C100.08 252.971 100.326 253.309 100.64 253.544ZM102.352 252.84C102.171 253.005 101.963 253.088 101.728 253.088C101.494 253.088 101.286 253.005 101.104 252.84C100.923 252.669 100.782 252.424 100.68 252.104C100.579 251.779 100.528 251.395 100.528 250.952C100.528 250.504 100.579 250.12 100.68 249.8C100.782 249.475 100.923 249.229 101.104 249.064C101.286 248.899 101.494 248.816 101.728 248.816C101.963 248.816 102.171 248.899 102.352 249.064C102.534 249.229 102.675 249.475 102.776 249.8C102.878 250.12 102.928 250.504 102.928 250.952C102.928 251.395 102.878 251.779 102.776 252.104C102.675 252.424 102.534 252.669 102.352 252.84ZM108.421 253.792V253.016H105.917L106.701 252.28C107.085 251.923 107.389 251.619 107.613 251.368C107.837 251.117 108.013 250.856 108.141 250.584C108.274 250.307 108.341 250.013 108.341 249.704C108.341 249.389 108.266 249.104 108.117 248.848C107.973 248.587 107.762 248.381 107.485 248.232C107.213 248.083 106.89 248.008 106.517 248.008C106.149 248.008 105.818 248.083 105.525 248.232C105.232 248.381 104.994 248.595 104.813 248.872C104.637 249.149 104.53 249.469 104.493 249.832L105.325 250.008C105.469 249.213 105.858 248.816 106.493 248.816C106.786 248.816 107.021 248.899 107.197 249.064C107.373 249.229 107.461 249.448 107.461 249.72C107.461 250.008 107.36 250.296 107.157 250.584C106.96 250.872 106.658 251.211 106.253 251.6L104.661 253.12V253.792H108.421ZM186.4 253.888C185.989 253.888 185.627 253.773 185.312 253.544C184.997 253.309 184.752 252.971 184.576 252.528C184.405 252.085 184.32 251.56 184.32 250.952C184.32 250.344 184.405 249.819 184.576 249.376C184.752 248.933 184.997 248.597 185.312 248.368C185.627 248.133 185.989 248.016 186.4 248.016C186.811 248.016 187.173 248.133 187.488 248.368C187.803 248.597 188.045 248.933 188.216 249.376C188.392 249.819 188.48 250.344 188.48 250.952C188.48 251.56 188.392 252.085 188.216 252.528C188.045 252.971 187.803 253.309 187.488 253.544C187.173 253.773 186.811 253.888 186.4 253.888ZM186.4 253.088C186.635 253.088 186.843 253.005 187.024 252.84C187.205 252.669 187.347 252.424 187.448 252.104C187.549 251.779 187.6 251.395 187.6 250.952C187.6 250.504 187.549 250.12 187.448 249.8C187.347 249.475 187.205 249.229 187.024 249.064C186.843 248.899 186.635 248.816 186.4 248.816C186.165 248.816 185.957 248.899 185.776 249.064C185.595 249.229 185.453 249.475 185.352 249.8C185.251 250.12 185.2 250.504 185.2 250.952C185.2 251.395 185.251 251.779 185.352 252.104C185.453 252.424 185.595 252.669 185.776 252.84C185.957 253.005 186.165 253.088 186.4 253.088ZM190.061 253.848C189.89 253.848 189.741 253.784 189.613 253.656C189.485 253.528 189.421 253.379 189.421 253.208C189.421 253.037 189.485 252.888 189.613 252.76C189.746 252.632 189.896 252.568 190.061 252.568C190.232 252.568 190.381 252.632 190.509 252.76C190.637 252.888 190.701 253.037 190.701 253.208C190.701 253.379 190.637 253.528 190.509 253.656C190.381 253.784 190.232 253.848 190.061 253.848ZM190.061 250.968C189.89 250.968 189.741 250.904 189.613 250.776C189.485 250.648 189.421 250.499 189.421 250.328C189.421 250.157 189.485 250.008 189.613 249.88C189.746 249.752 189.896 249.688 190.061 249.688C190.232 249.688 190.381 249.752 190.509 249.88C190.637 250.008 190.701 250.157 190.701 250.328C190.701 250.499 190.637 250.648 190.509 250.776C190.381 250.904 190.232 250.968 190.061 250.968ZM193.728 253.888C193.318 253.888 192.955 253.773 192.64 253.544C192.326 253.309 192.08 252.971 191.904 252.528C191.734 252.085 191.648 251.56 191.648 250.952C191.648 250.344 191.734 249.819 191.904 249.376C192.08 248.933 192.326 248.597 192.64 248.368C192.955 248.133 193.318 248.016 193.728 248.016C194.139 248.016 194.502 248.133 194.816 248.368C195.131 248.597 195.374 248.933 195.544 249.376C195.72 249.819 195.808 250.344 195.808 250.952C195.808 251.56 195.72 252.085 195.544 252.528C195.374 252.971 195.131 253.309 194.816 253.544C194.502 253.773 194.139 253.888 193.728 253.888ZM193.728 253.088C193.963 253.088 194.171 253.005 194.352 252.84C194.534 252.669 194.675 252.424 194.776 252.104C194.878 251.779 194.928 251.395 194.928 250.952C194.928 250.504 194.878 250.12 194.776 249.8C194.675 249.475 194.534 249.229 194.352 249.064C194.171 248.899 193.963 248.816 193.728 248.816C193.494 248.816 193.286 248.899 193.104 249.064C192.923 249.229 192.782 249.475 192.68 249.8C192.579 250.12 192.528 250.504 192.528 250.952C192.528 251.395 192.579 251.779 192.68 252.104C192.782 252.424 192.923 252.669 193.104 252.84C193.286 253.005 193.494 253.088 193.728 253.088ZM199.861 251.736H200.685V252.472H199.861V253.792H198.989V252.472H196.421V251.816L198.781 248.112H199.861V251.736ZM197.357 251.736H198.989V249.152L197.357 251.736ZM276.312 253.544C276.627 253.773 276.989 253.888 277.4 253.888C277.811 253.888 278.173 253.773 278.488 253.544C278.803 253.309 279.045 252.971 279.216 252.528C279.392 252.085 279.48 251.56 279.48 250.952C279.48 250.344 279.392 249.819 279.216 249.376C279.045 248.933 278.803 248.597 278.488 248.368C278.173 248.133 277.811 248.016 277.4 248.016C276.989 248.016 276.627 248.133 276.312 248.368C275.997 248.597 275.752 248.933 275.576 249.376C275.405 249.819 275.32 250.344 275.32 250.952C275.32 251.56 275.405 252.085 275.576 252.528C275.752 252.971 275.997 253.309 276.312 253.544ZM278.024 252.84C277.843 253.005 277.635 253.088 277.4 253.088C277.165 253.088 276.957 253.005 276.776 252.84C276.595 252.669 276.453 252.424 276.352 252.104C276.251 251.779 276.2 251.395 276.2 250.952C276.2 250.504 276.251 250.12 276.352 249.8C276.453 249.475 276.595 249.229 276.776 249.064C276.957 248.899 277.165 248.816 277.4 248.816C277.635 248.816 277.843 248.899 278.024 249.064C278.205 249.229 278.347 249.475 278.448 249.8C278.549 250.12 278.6 250.504 278.6 250.952C278.6 251.395 278.549 251.779 278.448 252.104C278.347 252.424 278.205 252.669 278.024 252.84ZM280.613 253.656C280.741 253.784 280.89 253.848 281.061 253.848C281.232 253.848 281.381 253.784 281.509 253.656C281.637 253.528 281.701 253.379 281.701 253.208C281.701 253.037 281.637 252.888 281.509 252.76C281.381 252.632 281.232 252.568 281.061 252.568C280.896 252.568 280.746 252.632 280.613 252.76C280.485 252.888 280.421 253.037 280.421 253.208C280.421 253.379 280.485 253.528 280.613 253.656ZM280.613 250.776C280.741 250.904 280.89 250.968 281.061 250.968C281.232 250.968 281.381 250.904 281.509 250.776C281.637 250.648 281.701 250.499 281.701 250.328C281.701 250.157 281.637 250.008 281.509 249.88C281.381 249.752 281.232 249.688 281.061 249.688C280.896 249.688 280.746 249.752 280.613 249.88C280.485 250.008 280.421 250.157 280.421 250.328C280.421 250.499 280.485 250.648 280.613 250.776ZM283.64 253.544C283.955 253.773 284.318 253.888 284.728 253.888C285.139 253.888 285.502 253.773 285.816 253.544C286.131 253.309 286.374 252.971 286.544 252.528C286.72 252.085 286.808 251.56 286.808 250.952C286.808 250.344 286.72 249.819 286.544 249.376C286.374 248.933 286.131 248.597 285.816 248.368C285.502 248.133 285.139 248.016 284.728 248.016C284.318 248.016 283.955 248.133 283.64 248.368C283.326 248.597 283.08 248.933 282.904 249.376C282.734 249.819 282.648 250.344 282.648 250.952C282.648 251.56 282.734 252.085 282.904 252.528C283.08 252.971 283.326 253.309 283.64 253.544ZM285.352 252.84C285.171 253.005 284.963 253.088 284.728 253.088C284.494 253.088 284.286 253.005 284.104 252.84C283.923 252.669 283.782 252.424 283.68 252.104C283.579 251.779 283.528 251.395 283.528 250.952C283.528 250.504 283.579 250.12 283.68 249.8C283.782 249.475 283.923 249.229 284.104 249.064C284.286 248.899 284.494 248.816 284.728 248.816C284.963 248.816 285.171 248.899 285.352 249.064C285.534 249.229 285.675 249.475 285.776 249.8C285.878 250.12 285.928 250.504 285.928 250.952C285.928 251.395 285.878 251.779 285.776 252.104C285.675 252.424 285.534 252.669 285.352 252.84ZM290.709 250.432C290.437 250.277 290.133 250.2 289.797 250.2C289.514 250.2 289.25 250.259 289.005 250.376C288.765 250.493 288.576 250.672 288.437 250.912C288.469 250.203 288.608 249.675 288.853 249.328C289.098 248.976 289.41 248.8 289.789 248.8C290.04 248.8 290.242 248.867 290.397 249C290.557 249.128 290.674 249.296 290.749 249.504L291.557 249.208C291.461 248.872 291.269 248.587 290.981 248.352C290.693 248.117 290.298 248 289.797 248C289.253 248 288.816 248.16 288.485 248.48C288.154 248.8 287.92 249.208 287.781 249.704C287.642 250.2 287.573 250.733 287.573 251.304C287.573 251.875 287.672 252.355 287.869 252.744C288.066 253.133 288.322 253.424 288.637 253.616C288.957 253.803 289.304 253.896 289.677 253.896C290.018 253.896 290.336 253.819 290.629 253.664C290.928 253.504 291.165 253.283 291.341 253C291.517 252.717 291.605 252.397 291.605 252.04C291.605 251.683 291.525 251.365 291.365 251.088C291.205 250.805 290.986 250.587 290.709 250.432ZM290.405 252.808C290.208 253 289.962 253.096 289.669 253.096C289.37 253.096 289.12 253.003 288.917 252.816C288.72 252.624 288.621 252.371 288.621 252.056C288.621 251.731 288.722 251.472 288.925 251.28C289.128 251.083 289.381 250.984 289.685 250.984C289.973 250.984 290.216 251.083 290.413 251.28C290.61 251.472 290.709 251.731 290.709 252.056C290.709 252.365 290.608 252.616 290.405 252.808ZM369.4 253.888C368.989 253.888 368.627 253.773 368.312 253.544C367.997 253.309 367.752 252.971 367.576 252.528C367.405 252.085 367.32 251.56 367.32 250.952C367.32 250.344 367.405 249.819 367.576 249.376C367.752 248.933 367.997 248.597 368.312 248.368C368.627 248.133 368.989 248.016 369.4 248.016C369.811 248.016 370.173 248.133 370.488 248.368C370.803 248.597 371.045 248.933 371.216 249.376C371.392 249.819 371.48 250.344 371.48 250.952C371.48 251.56 371.392 252.085 371.216 252.528C371.045 252.971 370.803 253.309 370.488 253.544C370.173 253.773 369.811 253.888 369.4 253.888ZM369.4 253.088C369.635 253.088 369.843 253.005 370.024 252.84C370.205 252.669 370.347 252.424 370.448 252.104C370.549 251.779 370.6 251.395 370.6 250.952C370.6 250.504 370.549 250.12 370.448 249.8C370.347 249.475 370.205 249.229 370.024 249.064C369.843 248.899 369.635 248.816 369.4 248.816C369.165 248.816 368.957 248.899 368.776 249.064C368.595 249.229 368.453 249.475 368.352 249.8C368.251 250.12 368.2 250.504 368.2 250.952C368.2 251.395 368.251 251.779 368.352 252.104C368.453 252.424 368.595 252.669 368.776 252.84C368.957 253.005 369.165 253.088 369.4 253.088ZM373.061 253.848C372.89 253.848 372.741 253.784 372.613 253.656C372.485 253.528 372.421 253.379 372.421 253.208C372.421 253.037 372.485 252.888 372.613 252.76C372.746 252.632 372.896 252.568 373.061 252.568C373.232 252.568 373.381 252.632 373.509 252.76C373.637 252.888 373.701 253.037 373.701 253.208C373.701 253.379 373.637 253.528 373.509 253.656C373.381 253.784 373.232 253.848 373.061 253.848ZM373.061 250.968C372.89 250.968 372.741 250.904 372.613 250.776C372.485 250.648 372.421 250.499 372.421 250.328C372.421 250.157 372.485 250.008 372.613 249.88C372.746 249.752 372.896 249.688 373.061 249.688C373.232 249.688 373.381 249.752 373.509 249.88C373.637 250.008 373.701 250.157 373.701 250.328C373.701 250.499 373.637 250.648 373.509 250.776C373.381 250.904 373.232 250.968 373.061 250.968ZM376.728 253.888C376.318 253.888 375.955 253.773 375.64 253.544C375.326 253.309 375.08 252.971 374.904 252.528C374.734 252.085 374.648 251.56 374.648 250.952C374.648 250.344 374.734 249.819 374.904 249.376C375.08 248.933 375.326 248.597 375.64 248.368C375.955 248.133 376.318 248.016 376.728 248.016C377.139 248.016 377.502 248.133 377.816 248.368C378.131 248.597 378.374 248.933 378.544 249.376C378.72 249.819 378.808 250.344 378.808 250.952C378.808 251.56 378.72 252.085 378.544 252.528C378.374 252.971 378.131 253.309 377.816 253.544C377.502 253.773 377.139 253.888 376.728 253.888ZM376.728 253.088C376.963 253.088 377.171 253.005 377.352 252.84C377.534 252.669 377.675 252.424 377.776 252.104C377.878 251.779 377.928 251.395 377.928 250.952C377.928 250.504 377.878 250.12 377.776 249.8C377.675 249.475 377.534 249.229 377.352 249.064C377.171 248.899 376.963 248.816 376.728 248.816C376.494 248.816 376.286 248.899 376.104 249.064C375.923 249.229 375.782 249.475 375.68 249.8C375.579 250.12 375.528 250.504 375.528 250.952C375.528 251.395 375.579 251.779 375.68 252.104C375.782 252.424 375.923 252.669 376.104 252.84C376.286 253.005 376.494 253.088 376.728 253.088ZM382.685 250.616C382.957 250.771 383.17 250.976 383.325 251.232C383.48 251.488 383.557 251.771 383.557 252.08C383.557 252.421 383.472 252.731 383.301 253.008C383.13 253.285 382.89 253.504 382.581 253.664C382.277 253.824 381.925 253.904 381.525 253.904C381.125 253.904 380.77 253.824 380.461 253.664C380.157 253.504 379.92 253.285 379.749 253.008C379.578 252.731 379.493 252.421 379.493 252.08C379.493 251.771 379.57 251.488 379.725 251.232C379.88 250.976 380.093 250.771 380.365 250.616C380.189 250.488 380.053 250.331 379.957 250.144C379.866 249.957 379.821 249.747 379.821 249.512C379.821 249.224 379.896 248.965 380.045 248.736C380.194 248.507 380.397 248.331 380.653 248.208C380.914 248.08 381.205 248.016 381.525 248.016C381.845 248.016 382.133 248.08 382.389 248.208C382.65 248.331 382.856 248.507 383.005 248.736C383.154 248.965 383.229 249.224 383.229 249.512C383.229 249.747 383.181 249.957 383.085 250.144C382.994 250.331 382.861 250.488 382.685 250.616ZM381.525 248.792C381.274 248.792 381.072 248.864 380.917 249.008C380.762 249.152 380.685 249.325 380.685 249.528C380.685 249.741 380.762 249.923 380.917 250.072C381.072 250.221 381.274 250.296 381.525 250.296C381.776 250.296 381.978 250.221 382.133 250.072C382.288 249.923 382.365 249.744 382.365 249.536C382.365 249.328 382.288 249.152 382.133 249.008C381.978 248.864 381.776 248.792 381.525 248.792ZM381.525 253.112C381.856 253.112 382.128 253.013 382.341 252.816C382.56 252.613 382.669 252.363 382.669 252.064C382.669 251.765 382.56 251.517 382.341 251.32C382.128 251.117 381.856 251.016 381.525 251.016C381.194 251.016 380.92 251.117 380.701 251.32C380.488 251.517 380.381 251.765 380.381 252.064C380.381 252.363 380.488 252.613 380.701 252.816C380.92 253.013 381.194 253.112 381.525 253.112ZM460.312 253.544C460.627 253.773 460.989 253.888 461.4 253.888C461.811 253.888 462.173 253.773 462.488 253.544C462.803 253.309 463.045 252.971 463.216 252.528C463.392 252.085 463.48 251.56 463.48 250.952C463.48 250.344 463.392 249.819 463.216 249.376C463.045 248.933 462.803 248.597 462.488 248.368C462.173 248.133 461.811 248.016 461.4 248.016C460.989 248.016 460.627 248.133 460.312 248.368C459.997 248.597 459.752 248.933 459.576 249.376C459.405 249.819 459.32 250.344 459.32 250.952C459.32 251.56 459.405 252.085 459.576 252.528C459.752 252.971 459.997 253.309 460.312 253.544ZM462.024 252.84C461.843 253.005 461.635 253.088 461.4 253.088C461.165 253.088 460.957 253.005 460.776 252.84C460.595 252.669 460.453 252.424 460.352 252.104C460.251 251.779 460.2 251.395 460.2 250.952C460.2 250.504 460.251 250.12 460.352 249.8C460.453 249.475 460.595 249.229 460.776 249.064C460.957 248.899 461.165 248.816 461.4 248.816C461.635 248.816 461.843 248.899 462.024 249.064C462.205 249.229 462.347 249.475 462.448 249.8C462.549 250.12 462.6 250.504 462.6 250.952C462.6 251.395 462.549 251.779 462.448 252.104C462.347 252.424 462.205 252.669 462.024 252.84ZM464.613 253.656C464.741 253.784 464.89 253.848 465.061 253.848C465.232 253.848 465.381 253.784 465.509 253.656C465.637 253.528 465.701 253.379 465.701 253.208C465.701 253.037 465.637 252.888 465.509 252.76C465.381 252.632 465.232 252.568 465.061 252.568C464.896 252.568 464.746 252.632 464.613 252.76C464.485 252.888 464.421 253.037 464.421 253.208C464.421 253.379 464.485 253.528 464.613 253.656ZM464.613 250.776C464.741 250.904 464.89 250.968 465.061 250.968C465.232 250.968 465.381 250.904 465.509 250.776C465.637 250.648 465.701 250.499 465.701 250.328C465.701 250.157 465.637 250.008 465.509 249.88C465.381 249.752 465.232 249.688 465.061 249.688C464.896 249.688 464.746 249.752 464.613 249.88C464.485 250.008 464.421 250.157 464.421 250.328C464.421 250.499 464.485 250.648 464.613 250.776ZM470.64 253.048H469.368V248.112H468.616L466.928 249.336L467.392 249.936L468.48 249.168V253.048H467.016V253.792H470.64V253.048ZM472.437 253.544C472.752 253.773 473.114 253.888 473.525 253.888C473.936 253.888 474.298 253.773 474.613 253.544C474.928 253.309 475.17 252.971 475.341 252.528C475.517 252.085 475.605 251.56 475.605 250.952C475.605 250.344 475.517 249.819 475.341 249.376C475.17 248.933 474.928 248.597 474.613 248.368C474.298 248.133 473.936 248.016 473.525 248.016C473.114 248.016 472.752 248.133 472.437 248.368C472.122 248.597 471.877 248.933 471.701 249.376C471.53 249.819 471.445 250.344 471.445 250.952C471.445 251.56 471.53 252.085 471.701 252.528C471.877 252.971 472.122 253.309 472.437 253.544ZM474.149 252.84C473.968 253.005 473.76 253.088 473.525 253.088C473.29 253.088 473.082 253.005 472.901 252.84C472.72 252.669 472.578 252.424 472.477 252.104C472.376 251.779 472.325 251.395 472.325 250.952C472.325 250.504 472.376 250.12 472.477 249.8C472.578 249.475 472.72 249.229 472.901 249.064C473.082 248.899 473.29 248.816 473.525 248.816C473.76 248.816 473.968 248.899 474.149 249.064C474.33 249.229 474.472 249.475 474.573 249.8C474.674 250.12 474.725 250.504 474.725 250.952C474.725 251.395 474.674 251.779 474.573 252.104C474.472 252.424 474.33 252.669 474.149 252.84ZM552.4 254.096C551.989 254.096 551.627 253.981 551.312 253.752C550.997 253.517 550.752 253.179 550.576 252.736C550.405 252.293 550.32 251.768 550.32 251.16C550.32 250.552 550.405 250.027 550.576 249.584C550.752 249.141 550.997 248.805 551.312 248.576C551.627 248.341 551.989 248.224 552.4 248.224C552.811 248.224 553.173 248.341 553.488 248.576C553.803 248.805 554.045 249.141 554.216 249.584C554.392 250.027 554.48 250.552 554.48 251.16C554.48 251.768 554.392 252.293 554.216 252.736C554.045 253.179 553.803 253.517 553.488 253.752C553.173 253.981 552.811 254.096 552.4 254.096ZM552.4 253.296C552.635 253.296 552.843 253.213 553.024 253.048C553.205 252.877 553.347 252.632 553.448 252.312C553.549 251.987 553.6 251.603 553.6 251.16C553.6 250.712 553.549 250.328 553.448 250.008C553.347 249.683 553.205 249.437 553.024 249.272C552.843 249.107 552.635 249.024 552.4 249.024C552.165 249.024 551.957 249.107 551.776 249.272C551.595 249.437 551.453 249.683 551.352 250.008C551.251 250.328 551.2 250.712 551.2 251.16C551.2 251.603 551.251 251.987 551.352 252.312C551.453 252.632 551.595 252.877 551.776 253.048C551.957 253.213 552.165 253.296 552.4 253.296ZM556.061 254.056C555.89 254.056 555.741 253.992 555.613 253.864C555.485 253.736 555.421 253.587 555.421 253.416C555.421 253.245 555.485 253.096 555.613 252.968C555.746 252.84 555.896 252.776 556.061 252.776C556.232 252.776 556.381 252.84 556.509 252.968C556.637 253.096 556.701 253.245 556.701 253.416C556.701 253.587 556.637 253.736 556.509 253.864C556.381 253.992 556.232 254.056 556.061 254.056ZM556.061 251.176C555.89 251.176 555.741 251.112 555.613 250.984C555.485 250.856 555.421 250.707 555.421 250.536C555.421 250.365 555.485 250.216 555.613 250.088C555.746 249.96 555.896 249.896 556.061 249.896C556.232 249.896 556.381 249.96 556.509 250.088C556.637 250.216 556.701 250.365 556.701 250.536C556.701 250.707 556.637 250.856 556.509 250.984C556.381 251.112 556.232 251.176 556.061 251.176ZM560.368 253.256H561.64V254H558.016V253.256H559.48V249.376L558.392 250.144L557.928 249.544L559.616 248.32H560.368V253.256ZM566.421 253.224V254H562.661V253.328L564.253 251.808C564.658 251.419 564.96 251.08 565.157 250.792C565.36 250.504 565.461 250.216 565.461 249.928C565.461 249.656 565.373 249.437 565.197 249.272C565.021 249.107 564.786 249.024 564.493 249.024C563.858 249.024 563.469 249.421 563.325 250.216L562.493 250.04C562.53 249.677 562.637 249.357 562.813 249.08C562.994 248.803 563.232 248.589 563.525 248.44C563.818 248.291 564.149 248.216 564.517 248.216C564.89 248.216 565.213 248.291 565.485 248.44C565.762 248.589 565.973 248.795 566.117 249.056C566.266 249.312 566.341 249.597 566.341 249.912C566.341 250.221 566.274 250.515 566.141 250.792C566.013 251.064 565.837 251.325 565.613 251.576C565.389 251.827 565.085 252.131 564.701 252.488L563.917 253.224H566.421ZM643.312 253.752C643.627 253.981 643.989 254.096 644.4 254.096C644.811 254.096 645.173 253.981 645.488 253.752C645.803 253.517 646.045 253.179 646.216 252.736C646.392 252.293 646.48 251.768 646.48 251.16C646.48 250.552 646.392 250.027 646.216 249.584C646.045 249.141 645.803 248.805 645.488 248.576C645.173 248.341 644.811 248.224 644.4 248.224C643.989 248.224 643.627 248.341 643.312 248.576C642.997 248.805 642.752 249.141 642.576 249.584C642.405 250.027 642.32 250.552 642.32 251.16C642.32 251.768 642.405 252.293 642.576 252.736C642.752 253.179 642.997 253.517 643.312 253.752ZM645.024 253.048C644.843 253.213 644.635 253.296 644.4 253.296C644.165 253.296 643.957 253.213 643.776 253.048C643.595 252.877 643.453 252.632 643.352 252.312C643.251 251.987 643.2 251.603 643.2 251.16C643.2 250.712 643.251 250.328 643.352 250.008C643.453 249.683 643.595 249.437 643.776 249.272C643.957 249.107 644.165 249.024 644.4 249.024C644.635 249.024 644.843 249.107 645.024 249.272C645.205 249.437 645.347 249.683 645.448 250.008C645.549 250.328 645.6 250.712 645.6 251.16C645.6 251.603 645.549 251.987 645.448 252.312C645.347 252.632 645.205 252.877 645.024 253.048ZM647.613 253.864C647.741 253.992 647.89 254.056 648.061 254.056C648.232 254.056 648.381 253.992 648.509 253.864C648.637 253.736 648.701 253.587 648.701 253.416C648.701 253.245 648.637 253.096 648.509 252.968C648.381 252.84 648.232 252.776 648.061 252.776C647.896 252.776 647.746 252.84 647.613 252.968C647.485 253.096 647.421 253.245 647.421 253.416C647.421 253.587 647.485 253.736 647.613 253.864ZM647.613 250.984C647.741 251.112 647.89 251.176 648.061 251.176C648.232 251.176 648.381 251.112 648.509 250.984C648.637 250.856 648.701 250.707 648.701 250.536C648.701 250.365 648.637 250.216 648.509 250.088C648.381 249.96 648.232 249.896 648.061 249.896C647.896 249.896 647.746 249.96 647.613 250.088C647.485 250.216 647.421 250.365 647.421 250.536C647.421 250.707 647.485 250.856 647.613 250.984ZM653.64 253.256H652.368V248.32H651.616L649.928 249.544L650.392 250.144L651.48 249.376V253.256H650.016V254H653.64V253.256ZM658.685 251.944H657.861V248.32H656.781L654.421 252.024V252.68H656.989V254H657.861V252.68H658.685V251.944ZM656.989 251.944H655.357L656.989 249.36V251.944Z" fill="black" fill-opacity="0.5"/>
</svg>
