<svg width="367" height="237" viewBox="0 0 367 237" fill="none" xmlns="http://www.w3.org/2000/svg">
<path id="LoopColor" fill-rule="evenodd" clip-rule="evenodd" d="M0.407705 0.937012H-0.00240457V1.34712V5.85869H-0.00244141L-0.00240457 5.90016V8.72909V9.1392H0.000472015L0.202613 236.75L1.02283 236.75L0.820691 9.1392H365.405V236.75H366.225V9.1392V8.72909V5.85832V1.34712V0.937012H365.815H0.407705ZM0.819296 7.56862L4.95651 4.92032L0.817828 2.4758L0.817828 5.91528L0.819296 7.56862ZM1.16846 8.31898H364.728L359.855 5.2507L359.282 4.88955L359.868 4.54905L364.673 1.75723H1.21407L5.94771 4.55316L6.52177 4.89224L5.96024 5.25168L1.16846 8.31898ZM365.2 7.64672V2.39968L360.866 4.91776L365.2 7.64672Z" fill="#595555"/>
</svg>
