<svg width="874" height="290" viewBox="0 0 874 290" fill="none" xmlns="http://www.w3.org/2000/svg">
<path id="MainViewFocusIndicator" fill-rule="evenodd" clip-rule="evenodd" d="M867.508 0.128296H5.86848C2.69753 0.128296 0.126953 2.69885 0.126953 5.86982V283.514C0.126953 286.685 2.69747 289.255 5.86846 289.255H867.508C870.679 289.255 873.25 286.685 873.25 283.514V5.86983C873.25 2.6989 870.679 0.128296 867.508 0.128296ZM2.99772 14.0206V283.514C2.99772 285.099 4.28298 286.385 5.86846 286.385H867.508C869.094 286.385 870.379 285.099 870.379 283.514V5.86983C870.379 4.28435 869.094 2.99906 867.508 2.99906H75.1855C75.8138 3.62955 76.2023 4.49928 76.2023 5.45973V11.2013C76.2023 13.1265 74.6416 14.6872 72.7163 14.6872H5.04827C4.28182 14.6872 3.57315 14.4398 2.99772 14.0206ZM3.61289 5.45973C3.61289 4.66699 4.25553 4.02435 5.04827 4.02435H72.7163C73.5091 4.02435 74.1517 4.66699 74.1517 5.45973V11.2013C74.1517 11.994 73.5091 12.6366 72.7163 12.6366H5.04827C4.25553 12.6366 3.61289 11.994 3.61289 11.2013V5.45973Z" fill="#A2958A"/>
</svg>
