<svg width="380" height="16" viewBox="0 0 380 16" fill="none" xmlns="http://www.w3.org/2000/svg">
<path id="Poti" fill-rule="evenodd" clip-rule="evenodd" d="M1.33726 7.59569C1.33726 4.08498 4.18325 1.239 7.69396 1.239C10.936 1.239 13.6111 3.66599 14.0016 6.80222C14.0284 7.01695 14.2061 7.18558 14.4225 7.18558H14.8376C15.0726 7.18558 15.2606 6.98793 15.2349 6.75428C14.8162 2.96004 11.5998 0.00866699 7.69396 0.00866699C3.50376 0.00866699 0.106934 3.40549 0.106934 7.59569C0.106934 11.5015 3.05831 14.718 6.85255 15.1366C7.0862 15.1624 7.28385 14.9744 7.28385 14.7393V14.3242C7.28385 14.1078 7.11521 13.9301 6.90049 13.9033C3.76426 13.5128 1.33726 10.8377 1.33726 7.59569ZM217.67 7.59573C217.67 4.08502 220.516 1.23903 224.027 1.23903C227.269 1.23903 229.944 3.66603 230.334 6.80226C230.361 7.01698 230.539 7.18562 230.755 7.18562H231.17C231.405 7.18562 231.593 6.98797 231.567 6.75432C231.149 2.96008 227.932 0.00870544 224.027 0.00870544C219.836 0.00870544 216.44 3.40553 216.44 7.59573C216.44 11.5015 219.391 14.718 223.185 15.1366C223.419 15.1624 223.616 14.9744 223.616 14.7393V14.3242C223.616 14.1079 223.448 13.9301 223.233 13.9034C220.097 13.5129 217.67 10.8377 217.67 7.59573ZM273.24 1.23903C269.729 1.23903 266.883 4.08502 266.883 7.59573C266.883 10.8377 269.31 13.5129 272.446 13.9034C272.661 13.9301 272.83 14.1079 272.83 14.3242V14.7393C272.83 14.9744 272.632 15.1624 272.399 15.1366C268.604 14.718 265.653 11.5015 265.653 7.59573C265.653 3.40553 269.05 0.00870544 273.24 0.00870544C277.146 0.00870544 280.362 2.96008 280.781 6.75432C280.807 6.98797 280.619 7.18562 280.384 7.18562H279.968C279.752 7.18562 279.574 7.01698 279.548 6.80226C279.157 3.66603 276.482 1.23903 273.24 1.23903ZM318.557 7.59573C318.557 4.08502 321.403 1.23903 324.914 1.23903C328.156 1.23903 330.831 3.66603 331.221 6.80226C331.248 7.01698 331.426 7.18562 331.642 7.18562H332.057C332.292 7.18562 332.48 6.98797 332.455 6.75432C332.036 2.96008 328.82 0.00870544 324.914 0.00870544C320.724 0.00870544 317.327 3.40553 317.327 7.59573C317.327 11.5015 320.278 14.718 324.072 15.1366C324.306 15.1624 324.504 14.9744 324.504 14.7393V14.3242C324.504 14.1079 324.335 13.9301 324.12 13.9034C320.984 13.5129 318.557 10.8377 318.557 7.59573ZM365.72 4.72496C365.345 5.53567 365.078 6.69283 365.078 7.64477C365.078 10.8868 367.505 13.5619 370.641 13.9524C370.856 13.9792 371.256 14.1079 371.256 14.3242V14.7393C371.256 14.9744 371.061 14.9573 370.828 14.9316C367.033 14.5129 364.284 11.0914 364.284 7.18562C364.284 6.14581 364.596 5.33991 364.913 4.51826C365.042 4.18519 365.172 3.84952 365.282 3.49464C366.619 1.33236 368.937 0.00870544 371.666 0.00870544C375.572 0.00870544 378.789 2.96008 379.207 6.75432C379.233 6.98797 379.045 7.18562 378.81 7.18562H378.395C378.178 7.18562 378.001 7.01698 377.974 6.80226C377.583 3.66603 374.908 1.23903 371.666 1.23903C369.381 1.23903 367.378 2.44473 366.257 4.25466C365.846 4.25466 365.813 4.39329 365.771 4.56273C365.759 4.61494 365.745 4.67006 365.72 4.72496Z" fill="#95887E"/>
</svg>
