<svg width="413" height="13" viewBox="0 0 413 13" fill="none" xmlns="http://www.w3.org/2000/svg">
<path id="PotiNeedle" fill-rule="evenodd" clip-rule="evenodd" d="M411.647 5.4012C412.039 5.6277 412.541 5.49328 412.768 5.10098C412.994 4.70867 412.86 4.20704 412.467 3.98054L406.43 0.494608C406.037 0.268111 405.536 0.402524 405.309 0.794829C405.083 1.18713 405.217 1.68877 405.609 1.91527L411.647 5.4012ZM0.941313 3.77547C0.488318 3.77547 0.121094 4.1427 0.121094 4.59569C0.121094 5.04869 0.488318 5.41591 0.941313 5.41591H7.91317C8.36617 5.41591 8.73339 5.04869 8.73339 4.59569C8.73339 4.1427 8.36617 3.77547 7.91317 3.77547H0.941313ZM48.514 4.59569C48.514 4.1427 48.1468 3.77547 47.6938 3.77547C47.2408 3.77547 46.8736 4.1427 46.8736 4.59569V11.5676C46.8736 12.0205 47.2408 12.3878 47.6938 12.3878C48.1468 12.3878 48.514 12.0205 48.514 11.5676V4.59569ZM264.027 3.77547C264.48 3.77547 264.847 4.1427 264.847 4.59569V11.5676C264.847 12.0205 264.48 12.3878 264.027 12.3878C263.574 12.3878 263.206 12.0205 263.206 11.5676V4.59569C263.206 4.1427 263.574 3.77547 264.027 3.77547ZM314.06 4.59569C314.06 4.1427 313.693 3.77547 313.24 3.77547C312.787 3.77547 312.42 4.1427 312.42 4.59569V11.5676C312.42 12.0205 312.787 12.3878 313.24 12.3878C313.693 12.3878 314.06 12.0205 314.06 11.5676V4.59569ZM364.913 3.77547C365.366 3.77547 365.733 4.1427 365.733 4.59569V11.5676C365.733 12.0205 365.366 12.3878 364.913 12.3878C364.46 12.3878 364.093 12.0205 364.093 11.5676V4.59569C364.093 4.1427 364.46 3.77547 364.913 3.77547Z" fill="#302722"/>
</svg>
