<svg id="rangeDefault" width="419" height="16" viewBox="0 0 419 16" fill="none" xmlns="http://www.w3.org/2000/svg">
<path id="RangeDefault" fill-rule="evenodd" clip-rule="evenodd" d="M1.74473 7.59574C1.74473 11.0182 4.51915 13.7926 7.94156 13.7926V15.0229C3.83966 15.0229 0.514404 11.6976 0.514404 7.59574C0.514404 3.49383 3.83966 0.168579 7.94156 0.168579C11.7645 0.168579 14.9129 3.05696 15.3234 6.7705H14.0839C13.6804 3.73822 11.0842 1.39891 7.94156 1.39891C4.51915 1.39891 1.74473 4.17332 1.74473 7.59574ZM412.309 7.59573C412.309 6.31363 412.641 5.17191 413.217 4.22436L412.166 3.58514C411.468 4.73265 411.079 6.09689 411.079 7.59573C411.079 12.0358 414.478 15.1828 418.871 15.1828V13.9524C415.11 13.9524 412.309 11.3096 412.309 7.59573Z" fill="#F49F84"/>
</svg>
