<svg width="531" height="73" viewBox="0 0 531 73" fill="none" xmlns="http://www.w3.org/2000/svg">
<path id="RetroDisplayForeground" fill-rule="evenodd" clip-rule="evenodd" d="M0.958455 36.4728H0.753418V22.5291L3.00902 17.4027L3.82924 12.0713L7.52022 35.0374L9.36572 27.0403L11.4163 35.0374L12.4415 23.9644L13.0567 27.8605L13.8769 16.7875L14.6971 21.2987L15.1072 11.6611L15.9275 16.7875L16.7477 7.97017L17.773 16.1724L19.0033 8.58533L20.0286 17.4027L21.0538 10.4308L22.6943 30.3211L24.7448 16.7875L25.565 20.8886L26.3853 5.91962L27.0004 21.9139L27.4105 18.633L30.2813 30.3211L31.1015 28.0655L31.9217 30.3211L32.742 28.6807L34.3824 32.7818L35.6127 23.9644L36.843 29.706L37.2532 28.0655L37.6633 29.706L38.4835 25.6049L39.9189 30.3211L40.9441 20.8886L42.5846 33.3969L43.8149 29.706L44.6351 32.1666L45.4553 30.3211L46.4806 32.1666L47.3008 29.706L48.1211 31.7565L48.9413 29.706L50.1716 32.7818L52.0171 24.3745L53.0424 27.8605L55.298 16.7875L56.1182 19.2482L57.5536 8.58533L58.3738 14.3269L58.989 10.4308L59.8092 14.3269L60.6294 5.30445L61.4496 11.046L62.0648 8.58533L62.885 15.1471L63.5002 12.0713L64.5254 20.4785L65.1406 19.2482L65.7558 21.2987L66.9861 15.1471L67.6013 17.4027L68.6265 7.97017L70.0619 21.9139L70.472 20.0684L71.9074 27.8605L72.9327 25.6049L74.7782 31.1413L75.5984 27.4504L76.2136 29.706L78.059 0.588196L80.1096 20.0684L80.9298 14.3269L82.3652 23.9644L84.2107 14.3269L86.4663 26.4251L87.6966 23.3493L90.3623 29.0908L91.3876 24.9897L92.6179 31.1413L93.2331 28.6807L94.2584 32.1666L95.2836 24.3745L96.9241 32.1666L97.7443 30.3211L98.3595 32.7818L99.1797 28.6807L100.615 33.3969L101.23 30.3211L101.845 33.3969L102.666 28.0655L103.896 33.3969L105.126 28.6807L106.972 35.0374L108.612 31.1413L109.843 35.0374L110.868 32.7818L112.098 35.0374L112.713 33.3969L113.534 34.4222L114.354 32.1666L115.584 34.4222L116.609 32.1666L118.045 35.0374L119.685 33.3969L120.915 35.0374L121.941 33.3969L123.376 35.0374L124.196 34.4222L125.427 35.4475L126.247 35.0374L127.477 35.8576L128.297 35.0374L129.118 35.8576L130.348 33.8071L131.783 35.4475L133.219 35.8576L135.064 34.4222L136.705 35.8576L137.73 32.7818L138.96 35.4475L139.986 32.7818L141.421 35.8576L143.471 34.4222L145.522 35.8576L154.544 35.4475L155.365 34.4222L156.595 35.4475H158.646L159.671 34.4222L161.311 35.4475L173.204 35.8576L174.435 35.0374L175.87 35.8576L530 36.0627V36.4728L530.205 36.4727V36.8828L176.075 37.0879L174.64 37.9081L173.409 37.0879L161.516 37.498L159.876 38.5233L158.851 37.498H156.8L155.57 38.5233L154.749 37.498L145.727 37.0879L143.677 38.5233L141.626 37.0879L140.191 40.1637L139.165 37.498L137.935 40.1637L136.91 37.0879L135.269 38.5233L133.424 37.0879L131.988 37.498L130.553 39.1384L129.323 37.0879L128.502 37.9081L127.682 37.0879L126.452 37.9081L125.632 37.498L124.401 38.5233L123.581 37.9081L122.146 39.5485L121.121 37.9081L119.89 39.5485L118.25 37.9081L116.814 40.7789L115.789 38.5233L114.559 40.7789L113.739 38.5233L112.918 39.5485L112.303 37.9081L111.073 40.1637L110.048 37.9081L108.817 41.8041L107.177 37.9081L105.331 44.2648L104.101 39.5485L102.871 44.8799L102.05 39.5485L101.435 42.6243L100.82 39.5485L99.3847 44.2648L98.5645 40.1637L97.9493 42.6243L97.1291 40.7789L95.4887 48.5709L94.4634 40.7789L93.4381 44.2648L92.823 41.8041L91.5926 47.9558L90.5674 43.8547L87.9017 49.5962L86.6713 46.5204L85.2359 59.6439L84.4157 55.5428L83.5955 67.0259L82.5702 48.981L81.1348 58.6186L80.3146 52.8771L78.2641 72.3573L76.4186 43.2395L75.8034 45.4951L74.9832 41.8041L73.1377 47.3406L72.1124 45.085L70.6771 52.8771L70.267 51.0316L68.8316 64.9753L67.8063 55.5428L67.1911 57.7984L65.9608 51.6468L65.3456 53.6973L64.7305 52.467L63.7052 60.8742L63.09 57.7984L62.2698 64.3601L61.6547 61.8995L60.8344 67.641L60.0142 58.6186L59.194 62.5146L58.5788 58.6186L57.7586 64.3601L56.3232 53.6973L55.503 56.158L53.2474 45.085L52.2221 48.5709L50.3766 40.1637L49.1463 43.2395L48.3261 41.189L47.5059 43.2395L46.6857 40.7789L45.6604 42.6243L44.8402 40.7789L44.0199 43.2395L42.7896 39.5485L41.1492 52.0569L40.1239 42.6243L38.6885 47.3406L37.8683 43.2395L37.4582 44.8799L37.0481 43.2395L35.8178 48.981L34.5874 40.1637L32.947 44.2648L32.1268 42.6243L31.3066 44.8799L30.4863 42.6243L27.6156 54.3125L27.2055 51.0316L26.5903 67.0259L25.7701 52.0569L24.9499 56.158L22.8993 42.6243L21.2589 62.5146L20.2336 55.5428L19.2083 64.3601L17.978 56.7731L16.9527 64.9753L16.1325 56.158L15.3123 61.2843L14.9022 51.6468L14.082 56.158L13.2617 45.085L12.6466 48.981L11.6213 37.9081L9.57075 45.9052L7.72526 37.9081L4.03428 60.8742L3.21406 55.5428L0.958455 50.4164V36.4728Z" fill="white"/>
</svg>
