<svg width="76" height="22" viewBox="0 0 76 22" fill="none" xmlns="http://www.w3.org/2000/svg">
<path id="RetroDisplayForeground2" fill-rule="evenodd" clip-rule="evenodd" d="M0.0480957 0.253418H35.3175L35.3175 21.5791H0.048128L0.0480957 0.253418ZM0.868347 11.7365H34.4973V20.7589H0.868347V11.7365ZM28.7559 3.53429V7.63538H29.5761V5.99494H31.5299L31.8101 6.13505C31.949 6.20452 32.0368 6.34653 32.0368 6.50187V7.63538H32.857V6.50187C32.857 6.11226 32.673 5.7506 32.369 5.5207C32.5496 5.30276 32.6519 5.02604 32.6519 4.73576V4.35451C32.6519 3.90151 32.2847 3.53429 31.8317 3.53429H28.7559ZM23.8345 3.53429H27.9356V4.35451H24.6547V5.17473H27.1154V5.99494H24.6547V6.81516H27.9356V7.63538H23.8345V3.53429ZM14.8116 3.53429C14.3581 3.53429 13.9917 3.902 13.9917 4.35451V6.81516C13.9917 7.26816 14.359 7.63538 14.812 7.63538H17.2726C17.7256 7.63538 18.0928 7.26816 18.0928 6.81516V5.17473H16.0423V5.99494H17.2726V6.81516H14.812V4.35451H17.2724C17.2848 4.35451 17.2912 4.35578 17.2925 4.35607L17.2924 4.35606L17.2917 4.35582L17.2887 4.35451H18.0928C18.0928 4.22053 18.056 4.02869 17.9335 3.85856C17.796 3.66752 17.5703 3.53429 17.2726 3.53429H14.8116ZM18.9131 4.35451C18.9131 3.902 19.2795 3.53429 19.733 3.53429H22.194C22.4917 3.53429 22.7174 3.66752 22.8549 3.85856C22.9774 4.02869 23.0142 4.22053 23.0142 4.35451H22.2101C22.2126 4.35571 22.2141 4.35613 22.2141 4.35614C22.2129 4.35585 22.2064 4.35451 22.194 4.35451H19.7334V6.81516H22.194V5.99494H20.9637V5.17473H23.0142V6.81516C23.0142 7.26816 22.647 7.63538 22.194 7.63538H19.7334C19.2804 7.63538 18.9131 7.26816 18.9131 6.81516V4.35451ZM12.3514 3.53424V7.63533H13.1716V3.53424H12.3514ZM7.43022 3.53429H10.506C10.959 3.53429 11.3263 3.90151 11.3263 4.35451V4.73576C11.3263 5.02604 11.2239 5.30276 11.0434 5.5207C11.3473 5.7506 11.5313 6.11226 11.5313 6.50187V7.63538H10.7111V6.50187C10.7111 6.34653 10.6233 6.20452 10.4844 6.13505L10.2042 5.99494H8.25044V7.63538H7.43022V3.53429ZM2.50879 4.35451H4.14923V7.63538H4.96945V4.35451H6.60988V3.53429H2.50879V4.35451ZM10.1768 5.17473H8.25044V4.35451H10.506V4.73576C10.506 4.87288 10.4375 5.00093 10.3234 5.07699L10.1768 5.17473ZM29.5761 5.17473H31.5025L31.6491 5.07699C31.7632 5.00093 31.8317 4.87288 31.8317 4.73576V4.35451H29.5761V5.17473ZM13.1718 15.3415C13.1718 14.8489 13.487 14.4116 13.9544 14.2558C14.0711 14.2169 14.1933 14.1971 14.3163 14.1971H16.1285C16.2515 14.1971 16.3737 14.2169 16.4904 14.2558C16.9577 14.4116 17.2729 14.8489 17.2729 15.3415V18.2982H16.4527V16.6578H13.992V18.2982H13.1718V15.3415ZM14.2137 15.0339C14.2468 15.0229 14.2814 15.0173 14.3163 15.0173H16.1285C16.1633 15.0173 16.198 15.0229 16.231 15.0339C16.3634 15.0781 16.4527 15.202 16.4527 15.3415V15.8376H13.992V15.3415C13.992 15.202 14.0813 15.0781 14.2137 15.0339ZM18.0929 15.0173H19.7333V18.2982H20.5535V15.0173H22.194V14.1971H18.0929V15.0173ZM23.0144 18.2982V14.1971H27.1155V15.0173H23.8347V15.8375H26.2953V16.6577H23.8347V17.478H27.1155V18.2982H23.0144ZM9.07034 14.1971C8.61686 14.1971 8.25049 14.5648 8.25049 15.0173V17.478C8.25049 17.931 8.61771 18.2982 9.07071 18.2982H11.5314C11.9844 18.2982 12.3516 17.931 12.3516 17.478V15.8375H10.301V16.6577H11.5314V17.478H9.07071V15.0173H11.5312C11.5312 15.0188 11.5314 15.0195 11.5314 15.0195L11.5312 15.0173C11.5436 15.0173 11.5499 15.0186 11.5512 15.0189C11.5509 15.0188 11.5497 15.0184 11.5474 15.0173H12.3516C12.3516 14.8833 12.3148 14.6915 12.1923 14.5214C12.0547 14.3303 11.8291 14.1971 11.5314 14.1971H9.07034ZM44.3401 5.99493H75.5084V15.0173H44.3401V5.99493ZM55.8231 9.59226L58.2837 12.5567L59.104 12.5567V8.45556H58.2837V11.42L55.8231 8.45556L55.0029 8.45556V12.5567H55.8231V9.59226ZM67.9216 8.45557H64.8458V12.5567H65.666V10.9162H67.9216C68.3746 10.9162 68.7418 10.549 68.7418 10.096V9.27579C68.7418 8.8228 68.3746 8.45557 67.9216 8.45557ZM60.7067 8.51435C60.2393 8.67013 59.9241 9.10746 59.9241 9.60006V12.5567H60.7443V10.9163H63.205V12.5567H64.0252V9.60006C64.0252 9.10746 63.71 8.67013 63.2427 8.51435C63.126 8.47545 63.0038 8.45562 62.8808 8.45562H61.0686C60.9456 8.45562 60.8234 8.47545 60.7067 8.51435ZM51.1071 8.45557C50.6541 8.45557 50.2869 8.8228 50.2869 9.27579V10.096C50.2869 10.549 50.6541 10.9162 51.1071 10.9162H53.1576V11.7364H50.2869C50.2869 12.1894 50.6541 12.5567 51.1071 12.5567H53.1576C53.6106 12.5567 53.9779 12.1894 53.9779 11.7364V10.9162C53.9779 10.4632 53.6106 10.096 53.1576 10.096H51.1071V9.27579H53.9779C53.9779 8.8228 53.6106 8.45557 53.1576 8.45557H51.1071ZM65.666 10.096H67.9216V9.27579H65.666V10.096ZM60.966 9.29248C60.9991 9.28146 61.0337 9.27584 61.0686 9.27584H62.8808C62.9156 9.27584 62.9503 9.28146 62.9833 9.29248C63.1157 9.33661 63.205 9.46051 63.205 9.60006V10.0961H60.7443V9.60006C60.7443 9.46051 60.8336 9.33661 60.966 9.29248Z" fill="#D9D9D9"/>
</svg>
