<svg width="26" height="6" viewBox="0 0 26 6" fill="none" xmlns="http://www.w3.org/2000/svg">
<path id="RetroDisplayForegroundDisabled" d="M3.53456 2.12251V1.35355H4.30352V2.12251H3.53456ZM2.76561 5.19833H3.53456V5.96729H2.76561H1.99665H1.2277V5.19833H1.99665H2.76561ZM3.53456 5.19833V4.42937H4.30352V5.19833H3.53456ZM1.2277 5.19833H0.45874V4.42937V3.66042V2.89146V2.12251V1.35355H1.2277V2.12251V2.89146V3.66042V4.42937V5.19833ZM3.53456 1.35355H2.76561H1.99665H1.2277V0.584599H1.99665H2.76561H3.53456V1.35355ZM5.07247 5.96729V5.19833V4.42937V3.66042V2.89146V2.12251V1.35355V0.584599H5.84143V1.35355V2.12251V2.89146V3.66042V4.42937V5.19833V5.96729H5.07247ZM9.6862 5.96729V5.19833H8.91725V4.42937H9.6862V3.66042V2.89146H8.91725H8.14829H7.37934V3.66042V4.42937V5.19833H8.14829H8.91725V5.96729H8.14829H7.37934V5.19833H6.61038V4.42937V3.66042V2.89146H7.37934V2.12251H8.14829H8.91725H9.6862H10.4552V2.89146V3.66042V4.42937V5.19833V5.96729H9.6862ZM13.531 5.19833H14.2999V5.96729H13.531H12.762H11.9931H11.2241V5.19833H11.9931H12.762H13.531ZM14.2999 5.19833V4.42937H15.0689V5.19833H14.2999ZM14.2999 4.42937H13.531H12.762H11.9931V3.66042H12.762H13.531H14.2999V4.42937ZM11.9931 3.66042H11.2241V2.89146H11.9931V3.66042ZM14.2999 2.12251H15.0689V2.89146H14.2999H13.531H12.762H11.9931V2.12251H12.762H13.531H14.2999ZM18.1447 5.19833H18.9137V5.96729H18.1447H17.3758H16.6068H15.8378V5.19833H16.6068H17.3758H18.1447ZM18.9137 5.19833V4.42937H19.6826V5.19833H18.9137ZM18.9137 4.42937H18.1447H17.3758H16.6068V3.66042H17.3758H18.1447H18.9137V4.42937ZM16.6068 3.66042H15.8378V2.89146H16.6068V3.66042ZM18.9137 2.12251H19.6826V2.89146H18.9137H18.1447H17.3758H16.6068V2.12251H17.3758H18.1447H18.9137ZM20.4516 5.96729V5.19833V4.42937V3.66042V2.89146V2.12251H21.2205V2.89146V3.66042V4.42937V5.19833V5.96729H20.4516ZM20.4516 1.35355V0.584599H21.2205V1.35355H20.4516ZM25.0653 3.66042V2.89146H25.8343V3.66042H25.0653ZM25.0653 5.19833H25.8343V5.96729H25.0653H24.2964H23.5274H22.7584V5.19833H23.5274H24.2964H25.0653ZM22.7584 5.19833H21.9895V4.42937V3.66042V2.89146H22.7584V3.66042V4.42937V5.19833ZM25.0653 2.89146H24.2964H23.5274H22.7584V2.12251H23.5274H24.2964H25.0653V2.89146Z" fill="#D9F4FF"/>
</svg>
