<svg width="83" height="63" viewBox="0 0 83 63" fill="none" xmlns="http://www.w3.org/2000/svg">
<path id="SelectionForeground" fill-rule="evenodd" clip-rule="evenodd" d="M71.5407 0.882005C71.24 0.728897 70.901 0.652344 70.5237 0.652344H68.3829V6.4759H69.318V4.32692H70.5237C70.9119 4.32692 71.2537 4.25037 71.549 4.09726C71.8497 3.94416 72.0821 3.7309 72.2461 3.45749C72.4156 3.17862 72.5004 2.85873 72.5004 2.49784C72.5004 2.13147 72.4156 1.80885 72.2461 1.52998C72.0766 1.2511 71.8415 1.03511 71.5407 0.882005ZM71.2619 3.21143C71.065 3.39188 70.8053 3.4821 70.4827 3.4821H69.318V1.50537H70.4827C70.8053 1.50537 71.065 1.59833 71.2619 1.78425C71.4642 1.96469 71.5654 2.20256 71.5654 2.49784C71.5654 2.79312 71.4642 3.03098 71.2619 3.21143ZM76.4048 2.54705C76.0713 2.26271 75.6256 2.12054 75.0679 2.12054C74.6578 2.12054 74.2887 2.21623 73.9606 2.40761C73.638 2.59353 73.4056 2.8642 73.2634 3.21963L74.059 3.4985C74.1465 3.31806 74.2723 3.17042 74.4363 3.05559C74.6058 2.93529 74.8136 2.87514 75.0597 2.87514C75.3878 2.87514 75.6338 2.95989 75.7979 3.1294C75.9619 3.29892 76.0439 3.53951 76.0439 3.8512V3.97423H74.9613C74.4308 3.97423 74.0125 4.08906 73.7063 4.31872C73.4001 4.54292 73.247 4.85733 73.247 5.26197C73.247 5.51351 73.3099 5.74043 73.4356 5.94276C73.5614 6.13961 73.7419 6.29818 73.977 6.41848C74.2176 6.53331 74.4992 6.59073 74.8218 6.59073C75.128 6.59073 75.3878 6.53058 75.601 6.41028C75.8143 6.28998 75.9756 6.12867 76.085 5.92635V6.4759H76.9052V3.79378C76.9052 3.24697 76.7384 2.83139 76.4048 2.54705ZM75.7405 5.62287C75.5436 5.77598 75.2948 5.85253 74.9941 5.85253C74.7097 5.85253 74.491 5.79785 74.3379 5.68849C74.1848 5.57366 74.1082 5.42602 74.1082 5.24557C74.1082 5.05965 74.1848 4.91201 74.3379 4.80265C74.4965 4.68782 74.7316 4.63041 75.0433 4.63041H76.0439V4.89288C76.0439 5.22096 75.9428 5.46429 75.7405 5.62287ZM82.1224 6.4759V0.652344H81.2366V2.69469C80.903 2.31739 80.4683 2.12874 79.9324 2.12874C79.5387 2.12874 79.1888 2.22443 78.8825 2.41581C78.5818 2.60173 78.3467 2.8642 78.1772 3.20322C78.0131 3.54225 77.9311 3.92502 77.9311 4.35153C77.9311 4.78351 78.0131 5.16902 78.1772 5.50804C78.3467 5.84706 78.5818 6.11227 78.8825 6.30365C79.1888 6.48957 79.5387 6.58253 79.9324 6.58253C80.4683 6.58253 80.903 6.39388 81.2366 6.01658V6.4759H82.1224ZM80.6706 5.59826C80.4847 5.72403 80.2714 5.78691 80.0308 5.78691C79.6754 5.78691 79.3829 5.65568 79.1532 5.39321C78.929 5.12527 78.8169 4.77804 78.8169 4.35153C78.8169 3.93049 78.929 3.58873 79.1532 3.32626C79.3829 3.05832 79.6754 2.92435 80.0308 2.92435C80.4027 2.92435 80.7007 3.05559 80.9249 3.31806C81.1545 3.57506 81.2694 3.91955 81.2694 4.35153C81.2694 4.61947 81.2174 4.8628 81.1135 5.08153C81.0096 5.30025 80.862 5.4725 80.6706 5.59826ZM1.41918 59.9624H2.26401L3.82242 62.2508H4.90511L3.24827 59.8558C3.62557 59.7355 3.92358 59.5304 4.14231 59.2406C4.36103 58.9508 4.47039 58.6063 4.47039 58.2071C4.47039 57.8517 4.38564 57.54 4.21613 57.2721C4.05208 56.9987 3.81969 56.7909 3.51894 56.6487C3.22366 56.5011 2.88737 56.4272 2.51007 56.4272H0.484131V62.2508H1.41918V59.9624ZM2.46906 59.1176H1.41918V57.2803H2.46906C2.79168 57.2803 3.04868 57.3623 3.24007 57.5263C3.43692 57.6904 3.53534 57.9173 3.53534 58.2071C3.53534 58.486 3.43692 58.7074 3.24007 58.8715C3.04868 59.0355 2.79168 59.1176 2.46906 59.1176ZM8.57053 62.0621C8.88221 61.8653 9.12828 61.6028 9.30873 61.2747L8.57873 60.922C8.45296 61.1298 8.29986 61.2911 8.11941 61.406C7.93896 61.5153 7.72023 61.57 7.46323 61.57C7.11327 61.57 6.82073 61.4634 6.5856 61.2501C6.35047 61.0369 6.21103 60.7361 6.16729 60.3479H9.26771C9.28959 60.1838 9.30052 60.0225 9.30052 59.864C9.30052 59.4757 9.22397 59.134 9.07086 58.8387C8.91775 58.5379 8.69356 58.3055 8.39828 58.1415C8.103 57.9774 7.75304 57.8954 7.3484 57.8954C6.9547 57.8954 6.59927 57.9911 6.28212 58.1825C5.97043 58.3739 5.72437 58.6391 5.54392 58.9781C5.36894 59.3171 5.28145 59.6999 5.28145 60.1264C5.28145 60.5584 5.37167 60.9439 5.55212 61.2829C5.73257 61.622 5.9841 61.8872 6.30672 62.0785C6.63481 62.2645 7.00938 62.3574 7.43042 62.3574C7.88428 62.3574 8.26431 62.259 8.57053 62.0621ZM6.56919 58.9289C6.76605 58.7375 7.02578 58.6418 7.3484 58.6418C7.67649 58.6418 7.93349 58.7293 8.11941 58.9043C8.31079 59.0793 8.41742 59.3417 8.43929 59.6917H6.18369C6.24384 59.3746 6.37234 59.1203 6.56919 58.9289ZM10.6288 62.0375C10.9842 62.2563 11.3998 62.3656 11.8755 62.3656C12.3458 62.3656 12.734 62.2453 13.0402 62.0047C13.3464 61.7587 13.4995 61.4251 13.4995 61.0041C13.4995 60.7252 13.4312 60.501 13.2945 60.3315C13.1578 60.162 12.9828 60.0335 12.7695 59.946C12.5563 59.853 12.2801 59.7655 11.9411 59.6835C11.6349 59.6069 11.4162 59.5331 11.2849 59.462C11.1537 59.3855 11.0881 59.2707 11.0881 59.1176C11.0881 58.9754 11.1428 58.8578 11.2521 58.7649C11.367 58.6719 11.5283 58.6254 11.7361 58.6254C11.9384 58.6254 12.1106 58.6746 12.2528 58.7731C12.4004 58.8715 12.5071 59.0055 12.5727 59.175L13.3601 58.9125C13.289 58.6118 13.1113 58.3657 12.827 58.1743C12.5426 57.9829 12.1872 57.8872 11.7607 57.8872C11.4599 57.8872 11.192 57.9446 10.9569 58.0595C10.7217 58.1688 10.5385 58.3219 10.4073 58.5188C10.2815 58.7102 10.2187 58.9289 10.2187 59.175C10.2187 59.4429 10.2897 59.6616 10.4319 59.8311C10.5796 59.9952 10.7573 60.121 10.9651 60.2084C11.1728 60.2959 11.4189 60.3725 11.7033 60.4381C12.0313 60.5147 12.2692 60.5967 12.4168 60.6842C12.5645 60.7662 12.6383 60.892 12.6383 61.0615C12.6383 61.2365 12.5672 61.3732 12.425 61.4716C12.2829 61.57 12.1024 61.6192 11.8837 61.6192C11.583 61.6192 11.3369 61.5481 11.1455 61.406C10.9596 61.2638 10.8393 61.0779 10.7846 60.8482L9.98899 61.0615C10.0655 61.4935 10.2788 61.8188 10.6288 62.0375ZM18.2478 62.2508V58.0103H17.362V60.4299C17.362 60.7908 17.2718 61.0669 17.0913 61.2583C16.9163 61.4442 16.6757 61.5372 16.3695 61.5372C16.0524 61.5372 15.8036 61.447 15.6231 61.2665C15.4427 61.0806 15.3525 60.8099 15.3525 60.4545V58.0103H14.4666V60.5529C14.4666 61.1216 14.6197 61.5645 14.9259 61.8817C15.2376 62.1988 15.6614 62.3574 16.1973 62.3574C16.7496 62.3574 17.1542 62.166 17.4112 61.7833V62.2508H18.2478ZM20.4806 56.4272H19.5947V62.2508H20.4806V56.4272ZM23.6334 62.3574C24.0654 62.3574 24.4263 62.2481 24.7161 62.0293L24.4044 61.365C24.2841 61.436 24.172 61.488 24.0681 61.5208C23.9642 61.5536 23.8467 61.57 23.7154 61.57C23.4639 61.57 23.2889 61.5017 23.1905 61.365C23.0921 61.2282 23.0428 61.0423 23.0428 60.8072V58.7156H24.4126V58.0103H23.0428V56.7061H22.157V58.0103H21.345V58.7156H22.157V60.963C22.157 61.4278 22.291 61.7778 22.5589 62.0129C22.8323 62.2426 23.1905 62.3574 23.6334 62.3574ZM25.8076 62.0375C26.163 62.2563 26.5786 62.3656 27.0543 62.3656C27.5246 62.3656 27.9128 62.2453 28.2191 62.0047C28.5253 61.7587 28.6784 61.4251 28.6784 61.0041C28.6784 60.7252 28.61 60.501 28.4733 60.3315C28.3366 60.162 28.1616 60.0335 27.9484 59.946C27.7351 59.853 27.459 59.7655 27.12 59.6835C26.8138 59.6069 26.595 59.5331 26.4638 59.462C26.3326 59.3855 26.2669 59.2707 26.2669 59.1176C26.2669 58.9754 26.3216 58.8578 26.431 58.7649C26.5458 58.6719 26.7071 58.6254 26.9149 58.6254C27.1172 58.6254 27.2895 58.6746 27.4317 58.7731C27.5793 58.8715 27.6859 59.0055 27.7515 59.175L28.5389 58.9125C28.4679 58.6118 28.2901 58.3657 28.0058 58.1743C27.7215 57.9829 27.366 57.8872 26.9395 57.8872C26.6388 57.8872 26.3708 57.9446 26.1357 58.0595C25.9006 58.1688 25.7174 58.3219 25.5862 58.5188C25.4604 58.7102 25.3975 58.9289 25.3975 59.175C25.3975 59.4429 25.4686 59.6616 25.6108 59.8311C25.7584 59.9952 25.9361 60.121 26.1439 60.2084C26.3517 60.2959 26.5978 60.3725 26.8821 60.4381C27.2102 60.5147 27.4481 60.5967 27.5957 60.6842C27.7433 60.7662 27.8172 60.892 27.8172 61.0615C27.8172 61.2365 27.7461 61.3732 27.6039 61.4716C27.4617 61.57 27.2813 61.6192 27.0626 61.6192C26.7618 61.6192 26.5157 61.5481 26.3244 61.406C26.1384 61.2638 26.0181 61.0779 25.9635 60.8482L25.1678 61.0615C25.2444 61.4935 25.4577 61.8188 25.8076 62.0375Z" fill="white"/>
</svg>
