<svg width="1167" height="639" viewBox="0 0 1167 639" fill="none" xmlns="http://www.w3.org/2000/svg">
<path id="SurfaceBackground" fill-rule="evenodd" clip-rule="evenodd" d="M297.408 0.178833C295.822 0.178833 294.537 1.4641 294.537 3.04958V282.334C294.537 283.92 295.822 285.205 297.408 285.205H1163.97C1165.55 285.205 1166.84 283.92 1166.84 282.334V3.0496C1166.84 1.46412 1165.55 0.178833 1163.97 0.178833H297.408ZM288.795 19.4539H0.488525V282.334C0.488525 283.92 1.77381 285.205 3.35929 285.205H285.925C287.51 285.205 288.795 283.92 288.795 282.334V19.4539ZM0.488525 295.458C0.488525 293.872 1.77381 292.587 3.35929 292.587H1163.97C1165.55 292.587 1166.84 293.872 1166.84 295.458V473.855C1166.84 475.441 1165.55 476.726 1163.97 476.726H3.35928C1.7738 476.726 0.488525 475.441 0.488525 473.855V295.458ZM3.35929 484.108C1.77381 484.108 0.488525 485.393 0.488525 486.979V635.438C0.488525 637.024 1.7738 638.309 3.35928 638.309H1163.97C1165.55 638.309 1166.84 637.024 1166.84 635.438V486.979C1166.84 485.393 1165.55 484.108 1163.97 484.108H3.35929Z" fill="#DDD0C2"/>
</svg>
