<svg width="1167" height="447" viewBox="0 0 1167 447" fill="none" xmlns="http://www.w3.org/2000/svg">
<path id="SurfaceHighlight" fill-rule="evenodd" clip-rule="evenodd" d="M989.672 0.0324707H663.225V42.6838H989.672V0.0324707ZM0.488525 256.761H69.3869V269.885H0.488525V256.761ZM0.488525 435.159C0.488525 434.026 1.40659 433.108 2.53907 433.108H822.758C823.89 433.108 824.808 434.026 824.808 435.159V446.642H0.488525V435.159ZM186.678 256.761H140.746V269.885H186.678V256.761ZM281.824 256.761H405.677V270.705H281.824V256.761ZM1166.84 0.0325H1069.23V42.6839H1166.84V0.0325ZM1107.78 2.49315H1071.69V11.5156H1107.78V2.49315ZM1107.78 16.4369H1071.69V25.4593H1107.78V16.4369ZM1112.71 16.4369H1148.8V25.4593H1112.71V16.4369ZM1128.29 2.49315H1112.71V11.5156H1128.29V2.49315ZM1133.21 2.49315H1148.8V11.5156H1133.21V2.49315ZM1148.8 30.3806H1125.83V39.403H1148.8V30.3806ZM1098.76 30.3806H1121.73V39.403H1098.76V30.3806ZM1094.66 30.3806H1071.69V39.403H1094.66V30.3806ZM698.495 241.997H648.461V255.941H698.495V241.997Z" fill="#EEE1D2"/>
</svg>
