<svg width="1167" height="638" viewBox="0 0 1167 638" fill="none" xmlns="http://www.w3.org/2000/svg">
<path id="SurfaceArea" fill-rule="evenodd" clip-rule="evenodd" d="M32.6821 17.2236V-0.000976562H33.9124V17.2236H137.465H288.385V18.4539H138.08V34.4482H288.385V35.2684H138.08V67.2569H288.385V68.0772H138.08V139.436H288.385V140.256H138.08V266.57H288.795V267.39H138.08V284.41H136.85V18.4539H33.2973H0.488525V17.2236H32.6821ZM16.0726 14.7629V2.45965H16.8929V14.7629H16.0726ZM0.488556 306.761H69.3869V319.884H0.488556V320.705H69.7971H70.2072H139.926V475.726H140.746V320.705H187.088H233.841H280.183V475.726H281.824V461.782H1166.84V460.962H281.824V431.024H406.087H406.497V430.614V412.159V392.474V372.789V353.513H1166.84V352.693H406.087H281.824V306.761H1166.84V305.941H281.824V291.587H280.183V305.941H233.841H187.088H140.336H69.7971H0.488556V306.761ZM280.183 306.761V319.884H234.251V306.761H280.183ZM281.824 373.199V392.064H405.677V373.199H281.824ZM281.824 392.884V411.749H405.677V392.884H281.824ZM281.824 412.569V430.204H405.677V412.569H281.824ZM281.824 353.513V372.378H405.677V353.513H281.824ZM70.2072 319.884V306.761H139.926V319.884H70.2072ZM140.746 319.884V306.761H186.678V319.884H140.746ZM187.498 319.884V306.761H233.431V319.884H187.498ZM1166.84 338.749H406.087V339.57H1166.84V338.749ZM148.948 355.154H271.981V354.334H148.948V355.154ZM9.10085 366.432H132.134V365.612H9.10085V366.432ZM148.948 373.199H271.981V372.378H148.948V373.199ZM9.10085 412.569H132.134V411.749H9.10085V412.569ZM148.948 422.412H271.981V421.592H148.948V422.412ZM148.948 440.457H271.981V439.636H148.948V440.457ZM148.948 458.296H271.981V457.476H148.948V458.296ZM366.511 9.84164H1166.84V11.4821H366.511V9.84164ZM1166.84 50.0324H296.588V48.3919H1166.84V50.0324ZM296.588 92.6837H1166.84V94.3242H296.588V92.6837ZM1166.84 138.616H296.588V136.976H1166.84V138.616ZM296.588 181.267H1166.84V182.908H296.588V181.267ZM1166.84 227.2H296.588V225.559H1166.84V227.2ZM1166.84 267.39H296.588V265.75H1166.84V267.39ZM811.685 566.975V496.642H810.044V566.975V637.309H811.685V566.975ZM1166.84 251.806H296.588V249.346H1166.84V251.806ZM36.5782 501.563C36.5782 500.883 37.129 500.332 37.8085 500.332H78.8194C79.4989 500.332 80.0498 500.883 80.0498 501.563V531.091C80.0498 531.77 79.4989 532.321 78.8194 532.321H37.8085C37.129 532.321 36.5782 531.77 36.5782 531.091V501.563ZM37.8085 501.153C37.582 501.153 37.3984 501.336 37.3984 501.563V531.091C37.3984 531.317 37.582 531.501 37.8085 531.501H78.8194C79.0459 531.501 79.2295 531.317 79.2295 531.091V501.563C79.2295 501.336 79.0459 501.153 78.8194 501.153H37.8085ZM36.5782 568.821C36.5782 568.141 37.129 567.59 37.8085 567.59H78.8194C79.4989 567.59 80.0498 568.141 80.0498 568.821V598.349C80.0498 599.028 79.4989 599.579 78.8194 599.579H37.8085C37.129 599.579 36.5782 599.028 36.5782 598.349V568.821ZM37.8085 568.411C37.582 568.411 37.3984 568.594 37.3984 568.821V598.349C37.3984 598.575 37.582 598.759 37.8085 598.759H78.8194C79.0459 598.759 79.2295 598.575 79.2295 598.349V568.821C79.2295 568.594 79.0459 568.411 78.8194 568.411H37.8085ZM37.8085 533.961C37.129 533.961 36.5782 534.512 36.5782 535.192V564.72C36.5782 565.399 37.129 565.95 37.8085 565.95H78.8194C79.4989 565.95 80.0498 565.399 80.0498 564.72V535.192C80.0498 534.512 79.4989 533.961 78.8194 533.961H37.8085ZM37.3984 535.192C37.3984 534.965 37.582 534.782 37.8085 534.782H78.8194C79.0459 534.782 79.2295 534.965 79.2295 535.192V564.72C79.2295 564.946 79.0459 565.13 78.8194 565.13H37.8085C37.582 565.13 37.3984 564.946 37.3984 564.72V535.192ZM36.5782 602.45C36.5782 601.77 37.129 601.219 37.8085 601.219H78.8194C79.4989 601.219 80.0498 601.77 80.0498 602.45V631.978C80.0498 632.657 79.4989 633.208 78.8194 633.208H37.8085C37.129 633.208 36.5782 632.657 36.5782 631.978V602.45ZM37.8085 602.04C37.582 602.04 37.3984 602.223 37.3984 602.45V631.978C37.3984 632.204 37.582 632.388 37.8085 632.388H78.8194C79.0459 632.388 79.2295 632.204 79.2295 631.978V602.45C79.2295 602.223 79.0459 602.04 78.8194 602.04H37.8085ZM82.9205 500.332C82.241 500.332 81.6901 500.883 81.6901 501.563V531.091C81.6901 531.77 82.241 532.321 82.9205 532.321H123.931C124.611 532.321 125.162 531.77 125.162 531.091V501.563C125.162 500.883 124.611 500.332 123.931 500.332H82.9205ZM82.5104 501.563C82.5104 501.336 82.694 501.153 82.9205 501.153H123.931C124.158 501.153 124.342 501.336 124.342 501.563V531.091C124.342 531.317 124.158 531.501 123.931 531.501H82.9205C82.694 531.501 82.5104 531.317 82.5104 531.091V501.563ZM81.6901 568.821C81.6901 568.141 82.241 567.59 82.9205 567.59H123.931C124.611 567.59 125.162 568.141 125.162 568.821V598.349C125.162 599.028 124.611 599.579 123.931 599.579H82.9205C82.241 599.579 81.6901 599.028 81.6901 598.349V568.821ZM82.9205 568.411C82.694 568.411 82.5104 568.594 82.5104 568.821V598.349C82.5104 598.575 82.694 598.759 82.9205 598.759H123.931C124.158 598.759 124.342 598.575 124.342 598.349V568.821C124.342 568.594 124.158 568.411 123.931 568.411H82.9205ZM82.9205 533.961C82.241 533.961 81.6901 534.512 81.6901 535.192V564.72C81.6901 565.399 82.241 565.95 82.9205 565.95H123.931C124.611 565.95 125.162 565.399 125.162 564.72V535.192C125.162 534.512 124.611 533.961 123.931 533.961H82.9205ZM82.5104 535.192C82.5104 534.965 82.694 534.782 82.9205 534.782H123.931C124.158 534.782 124.342 534.965 124.342 535.192V564.72C124.342 564.946 124.158 565.13 123.931 565.13H82.9205C82.694 565.13 82.5104 564.946 82.5104 564.72V535.192ZM81.6901 602.45C81.6901 601.77 82.241 601.219 82.9205 601.219H123.931C124.611 601.219 125.162 601.77 125.162 602.45V631.978C125.162 632.657 124.611 633.208 123.931 633.208H82.9205C82.241 633.208 81.6901 632.657 81.6901 631.978V602.45ZM82.9205 602.04C82.694 602.04 82.5104 602.223 82.5104 602.45V631.978C82.5104 632.204 82.694 632.388 82.9205 632.388H123.931C124.158 632.388 124.342 632.204 124.342 631.978V602.45C124.342 602.223 124.158 602.04 123.931 602.04H82.9205ZM128.033 500.332C127.353 500.332 126.802 500.883 126.802 501.563V531.091C126.802 531.77 127.353 532.321 128.033 532.321H169.043C169.723 532.321 170.274 531.77 170.274 531.091V501.563C170.274 500.883 169.723 500.332 169.043 500.332H128.033ZM127.622 501.563C127.622 501.336 127.806 501.153 128.033 501.153H169.043C169.27 501.153 169.454 501.336 169.454 501.563V531.091C169.454 531.317 169.27 531.501 169.043 531.501H128.033C127.806 531.501 127.622 531.317 127.622 531.091V501.563ZM126.802 568.821C126.802 568.141 127.353 567.59 128.033 567.59H169.043C169.723 567.59 170.274 568.141 170.274 568.821V598.349C170.274 599.028 169.723 599.579 169.043 599.579H128.033C127.353 599.579 126.802 599.028 126.802 598.349V568.821ZM128.033 568.411C127.806 568.411 127.622 568.594 127.622 568.821V598.349C127.622 598.575 127.806 598.759 128.033 598.759H169.043C169.27 598.759 169.454 598.575 169.454 598.349V568.821C169.454 568.594 169.27 568.411 169.043 568.411H128.033ZM128.033 533.961C127.353 533.961 126.802 534.512 126.802 535.192V564.72C126.802 565.399 127.353 565.95 128.033 565.95H169.043C169.723 565.95 170.274 565.399 170.274 564.72V535.192C170.274 534.512 169.723 533.961 169.043 533.961H128.033ZM127.622 535.192C127.622 534.965 127.806 534.782 128.033 534.782H169.043C169.27 534.782 169.454 534.965 169.454 535.192V564.72C169.454 564.946 169.27 565.13 169.043 565.13H128.033C127.806 565.13 127.622 564.946 127.622 564.72V535.192ZM126.802 602.45C126.802 601.77 127.353 601.219 128.033 601.219H169.043C169.723 601.219 170.274 601.77 170.274 602.45V631.978C170.274 632.657 169.723 633.208 169.043 633.208H128.033C127.353 633.208 126.802 632.657 126.802 631.978V602.45ZM128.033 602.04C127.806 602.04 127.622 602.223 127.622 602.45V631.978C127.622 632.204 127.806 632.388 128.033 632.388H169.043C169.27 632.388 169.454 632.204 169.454 631.978V602.45C169.454 602.223 169.27 602.04 169.043 602.04H128.033ZM173.145 500.332C172.465 500.332 171.914 500.883 171.914 501.563V531.091C171.914 531.77 172.465 532.321 173.145 532.321H214.156C214.835 532.321 215.386 531.77 215.386 531.091V501.563C215.386 500.883 214.835 500.332 214.156 500.332H173.145ZM172.734 501.563C172.734 501.336 172.918 501.153 173.145 501.153H214.156C214.382 501.153 214.566 501.336 214.566 501.563V531.091C214.566 531.317 214.382 531.501 214.156 531.501H173.145C172.918 531.501 172.734 531.317 172.734 531.091V501.563ZM171.914 568.821C171.914 568.141 172.465 567.59 173.145 567.59H214.156C214.835 567.59 215.386 568.141 215.386 568.821V598.349C215.386 599.028 214.835 599.579 214.156 599.579H173.145C172.465 599.579 171.914 599.028 171.914 598.349V568.821ZM173.145 568.411C172.918 568.411 172.734 568.594 172.734 568.821V598.349C172.734 598.575 172.918 598.759 173.145 598.759H214.156C214.382 598.759 214.566 598.575 214.566 598.349V568.821C214.566 568.594 214.382 568.411 214.156 568.411H173.145ZM173.145 533.961C172.465 533.961 171.914 534.512 171.914 535.192V564.72C171.914 565.399 172.465 565.95 173.145 565.95H214.156C214.835 565.95 215.386 565.399 215.386 564.72V535.192C215.386 534.512 214.835 533.961 214.156 533.961H173.145ZM172.734 535.192C172.734 534.965 172.918 534.782 173.145 534.782H214.156C214.382 534.782 214.566 534.965 214.566 535.192V564.72C214.566 564.946 214.382 565.13 214.156 565.13H173.145C172.918 565.13 172.734 564.946 172.734 564.72V535.192ZM171.914 602.45C171.914 601.77 172.465 601.219 173.145 601.219H214.156C214.835 601.219 215.386 601.77 215.386 602.45V631.978C215.386 632.657 214.835 633.208 214.156 633.208H173.145C172.465 633.208 171.914 632.657 171.914 631.978V602.45ZM173.145 602.04C172.918 602.04 172.734 602.223 172.734 602.45V631.978C172.734 632.204 172.918 632.388 173.145 632.388H214.156C214.382 632.388 214.566 632.204 214.566 631.978V602.45C214.566 602.223 214.382 602.04 214.156 602.04H173.145Z" fill="#B8ADA2"/>
</svg>
