<svg width="45" height="149" viewBox="0 0 45 149" fill="none" xmlns="http://www.w3.org/2000/svg">
<path id="TreeRowCategoryForeground" fill-rule="evenodd" clip-rule="evenodd" d="M1.22999 6.47241C1.62369 6.72395 2.08028 6.84972 2.59975 6.84972C3.20125 6.84972 3.70705 6.68567 4.11716 6.35758C4.53273 6.02403 4.83075 5.5319 5.01119 4.88119L4.10895 4.61052C3.99412 5.0425 3.81368 5.38426 3.56761 5.63579C3.32154 5.88186 3.00439 6.00489 2.61616 6.00489C2.2826 6.00489 1.98732 5.91193 1.73032 5.72602C1.47332 5.5401 1.27373 5.28036 1.13156 4.94681C0.994856 4.61325 0.926505 4.23595 0.926505 3.81491C0.926505 3.39933 0.992122 3.0275 1.12336 2.69941C1.26006 2.37132 1.45144 2.11432 1.69751 1.9284C1.94904 1.73702 2.23885 1.64132 2.56694 1.64132C2.89503 1.64132 3.1739 1.72608 3.40357 1.89559C3.6387 2.0651 3.80821 2.32211 3.9121 2.6666L4.83075 2.41233C4.68311 1.88192 4.4097 1.48002 4.01053 1.20661C3.61135 0.933203 3.13289 0.7965 2.57514 0.7965C2.07208 0.7965 1.62369 0.925001 1.22999 1.182C0.841749 1.43354 0.538268 1.78896 0.319543 2.24829C0.100818 2.70761 -0.00854492 3.22982 -0.00854492 3.81491C-0.00854492 4.41093 0.0980835 4.9386 0.31134 5.39793C0.530065 5.85725 0.836281 6.21541 1.22999 6.47241ZM6.77531 6.55444C7.10339 6.74582 7.47249 6.84151 7.8826 6.84151C8.29271 6.84151 8.66181 6.74582 8.9899 6.55444C9.31798 6.36305 9.57225 6.09785 9.7527 5.75882C9.93862 5.4198 10.0316 5.03703 10.0316 4.61052C10.0316 4.18947 9.93862 3.80944 9.7527 3.47041C9.57225 3.13139 9.31798 2.86619 8.9899 2.6748C8.66181 2.48342 8.29271 2.38772 7.8826 2.38772C7.47249 2.38772 7.10339 2.48342 6.77531 2.6748C6.45269 2.86619 6.19842 3.13139 6.0125 3.47041C5.83205 3.80944 5.74183 4.18947 5.74183 4.61052C5.74183 5.03703 5.83205 5.4198 6.0125 5.75882C6.19842 6.09785 6.45269 6.36305 6.77531 6.55444ZM8.53878 5.85725C8.34739 5.98302 8.12867 6.0459 7.8826 6.0459C7.63654 6.0459 7.41781 5.98302 7.22643 5.85725C7.03504 5.73148 6.8874 5.55924 6.78351 5.34051C6.67961 5.12179 6.62767 4.87846 6.62767 4.61052C6.62767 4.34805 6.67961 4.10745 6.78351 3.88873C6.8874 3.67 7.03504 3.49775 7.22643 3.37199C7.41781 3.24622 7.63654 3.18334 7.8826 3.18334C8.12867 3.18334 8.34739 3.24622 8.53878 3.37199C8.73563 3.49775 8.886 3.67 8.9899 3.88873C9.09379 4.10745 9.14574 4.34805 9.14574 4.61052C9.14574 4.87846 9.09379 5.12179 8.9899 5.34051C8.886 5.55924 8.73563 5.73148 8.53878 5.85725ZM11.9778 0.91133H11.092V6.73488H11.9778V0.91133ZM14.2366 0.91133H13.3508V6.73488H14.2366V0.91133ZM18.5788 6.54623C18.8904 6.34938 19.1365 6.08691 19.317 5.75882L18.587 5.40613C18.4612 5.61392 18.3081 5.77523 18.1276 5.89006C17.9472 5.99942 17.7285 6.0541 17.4715 6.0541C17.1215 6.0541 16.829 5.94747 16.5938 5.73422C16.3587 5.52096 16.2193 5.22021 16.1755 4.83198H19.276C19.2978 4.66793 19.3088 4.50662 19.3088 4.34805C19.3088 3.95981 19.2322 3.61805 19.0791 3.32277C18.926 3.02203 18.7018 2.78963 18.4065 2.62559C18.1112 2.46154 17.7613 2.37952 17.3566 2.37952C16.9629 2.37952 16.6075 2.47521 16.2904 2.6666C15.9787 2.85798 15.7326 3.12319 15.5522 3.46221C15.3772 3.80123 15.2897 4.184 15.2897 4.61052C15.2897 5.0425 15.3799 5.428 15.5604 5.76703C15.7408 6.10605 15.9923 6.37125 16.315 6.56264C16.643 6.74855 17.0176 6.84151 17.4387 6.84151C17.8925 6.84151 18.2726 6.74309 18.5788 6.54623ZM16.5774 3.413C16.7743 3.22161 17.034 3.12592 17.3566 3.12592C17.6847 3.12592 17.9417 3.21341 18.1276 3.38839C18.319 3.56337 18.4257 3.82584 18.4475 4.1758H16.1919C16.2521 3.85865 16.3806 3.60438 16.5774 3.413ZM21.1291 6.56264C21.4572 6.74855 21.8291 6.84151 22.2446 6.84151C22.7422 6.84151 23.1523 6.72121 23.475 6.48062C23.7976 6.23455 24.0382 5.89006 24.1968 5.44714L23.4011 5.17647C23.1551 5.75609 22.7696 6.0459 22.2446 6.0459C21.8728 6.0459 21.5693 5.91193 21.3342 5.64399C21.0991 5.37059 20.9815 5.02609 20.9815 4.61052C20.9815 4.34258 21.0334 4.09925 21.1373 3.88052C21.2467 3.6618 21.3943 3.49229 21.5803 3.37199C21.7662 3.24622 21.974 3.18334 22.2036 3.18334C22.7176 3.18334 23.0676 3.4294 23.2535 3.92153L24.0819 3.66727C23.9562 3.23528 23.7238 2.9154 23.3847 2.70761C23.0512 2.49435 22.6602 2.38772 22.2118 2.38772C21.8236 2.38772 21.4682 2.48342 21.1455 2.6748C20.8229 2.86072 20.5659 3.12319 20.3745 3.46221C20.1886 3.80123 20.0957 4.184 20.0957 4.61052C20.0957 5.0425 20.1859 5.428 20.3663 5.76703C20.5522 6.10605 20.8065 6.37125 21.1291 6.56264ZM26.8973 6.84151C27.3292 6.84151 27.6901 6.73215 27.9799 6.51343L27.6683 5.84905C27.548 5.92013 27.4359 5.97208 27.332 6.00489C27.2281 6.0377 27.1105 6.0541 26.9793 6.0541C26.7277 6.0541 26.5528 5.98575 26.4543 5.84905C26.3559 5.71234 26.3067 5.52643 26.3067 5.2913V3.19974H27.6765V2.49435H26.3067V1.1902H25.4209V2.49435H24.6088V3.19974H25.4209V5.44714C25.4209 5.91193 25.5548 6.26189 25.8228 6.49702C26.0962 6.72668 26.4543 6.84151 26.8973 6.84151ZM29.6878 2.49435H28.802V6.73488H29.6878V2.49435ZM28.8184 1.48548C28.9387 1.60031 29.0781 1.65773 29.2367 1.65773C29.3953 1.65773 29.532 1.60031 29.6468 1.48548C29.7671 1.37065 29.8272 1.23395 29.8272 1.07537C29.8272 0.922266 29.7671 0.788297 29.6468 0.673467C29.532 0.558636 29.3953 0.501221 29.2367 0.501221C29.0781 0.501221 28.9387 0.558636 28.8184 0.673467C28.7035 0.788297 28.6461 0.922266 28.6461 1.07537C28.6461 1.23395 28.7035 1.37065 28.8184 1.48548ZM31.7744 6.55444C32.1024 6.74582 32.4715 6.84151 32.8817 6.84151C33.2918 6.84151 33.6609 6.74582 33.9889 6.55444C34.317 6.36305 34.5713 6.09785 34.7518 5.75882C34.9377 5.4198 35.0306 5.03703 35.0306 4.61052C35.0306 4.18947 34.9377 3.80944 34.7518 3.47041C34.5713 3.13139 34.317 2.86619 33.9889 2.6748C33.6609 2.48342 33.2918 2.38772 32.8817 2.38772C32.4715 2.38772 32.1024 2.48342 31.7744 2.6748C31.4517 2.86619 31.1975 3.13139 31.0116 3.47041C30.8311 3.80944 30.7409 4.18947 30.7409 4.61052C30.7409 5.03703 30.8311 5.4198 31.0116 5.75882C31.1975 6.09785 31.4517 6.36305 31.7744 6.55444ZM33.5378 5.85725C33.3464 5.98302 33.1277 6.0459 32.8817 6.0459C32.6356 6.0459 32.4169 5.98302 32.2255 5.85725C32.0341 5.73148 31.8865 5.55924 31.7826 5.34051C31.6787 5.12179 31.6267 4.87846 31.6267 4.61052C31.6267 4.34805 31.6787 4.10745 31.7826 3.88873C31.8865 3.67 32.0341 3.49775 32.2255 3.37199C32.4169 3.24622 32.6356 3.18334 32.8817 3.18334C33.1277 3.18334 33.3464 3.24622 33.5378 3.37199C33.7347 3.49775 33.8851 3.67 33.9889 3.88873C34.0928 4.10745 34.1448 4.34805 34.1448 4.61052C34.1448 4.87846 34.0928 5.12179 33.9889 5.34051C33.8851 5.55924 33.7347 5.73148 33.5378 5.85725ZM39.3883 2.86345C39.0875 2.5463 38.672 2.38772 38.1416 2.38772C37.5783 2.38772 37.1655 2.59004 36.903 2.99469V2.49435H36.05V6.73488H36.9358V4.34805C36.9358 3.98168 37.0288 3.70007 37.2147 3.50322C37.4006 3.30637 37.6494 3.20794 37.9611 3.20794C38.2728 3.20794 38.5161 3.30364 38.6911 3.49502C38.8716 3.68094 38.9618 3.95708 38.9618 4.32344V6.73488H39.8476V4.20041C39.8476 3.62625 39.6945 3.1806 39.3883 2.86345ZM41.3828 6.52163C41.7382 6.74035 42.1538 6.84972 42.6295 6.84972C43.0998 6.84972 43.488 6.72942 43.7942 6.48882C44.1004 6.24275 44.2535 5.9092 44.2535 5.48815C44.2535 5.20928 44.1852 4.98508 44.0485 4.81557C43.9118 4.64606 43.7368 4.51756 43.5235 4.43007C43.3103 4.33711 43.0341 4.24962 42.6951 4.1676C42.3889 4.09105 42.1702 4.01723 42.0389 3.94614C41.9077 3.86959 41.8421 3.75476 41.8421 3.60165C41.8421 3.45948 41.8968 3.34191 42.0061 3.24895C42.121 3.156 42.2823 3.10952 42.4901 3.10952C42.6924 3.10952 42.8646 3.15873 43.0068 3.25716C43.1544 3.35558 43.2611 3.48955 43.3267 3.65906L44.1141 3.39659C44.043 3.09585 43.8653 2.84978 43.581 2.6584C43.2966 2.46701 42.9412 2.37132 42.5147 2.37132C42.2139 2.37132 41.946 2.42874 41.7109 2.54357C41.4757 2.65293 41.2925 2.80604 41.1613 3.00289C41.0355 3.19427 40.9727 3.413 40.9727 3.65906C40.9727 3.927 41.0437 4.14573 41.1859 4.31524C41.3336 4.47928 41.5113 4.60505 41.7191 4.69254C41.9268 4.78003 42.1729 4.85658 42.4573 4.9222C42.7853 4.99875 43.0232 5.08078 43.1708 5.16827C43.3185 5.25029 43.3923 5.37606 43.3923 5.54557C43.3923 5.72055 43.3212 5.85725 43.1791 5.95568C43.0369 6.0541 42.8564 6.10332 42.6377 6.10332C42.337 6.10332 42.0909 6.03223 41.8995 5.89006C41.7136 5.74789 41.5933 5.56197 41.5386 5.33231L40.743 5.54557C40.8196 5.97755 41.0328 6.3029 41.3828 6.52163ZM1.26279 141.169H0.327745V146.992H3.55941V146.139H1.26279V141.169ZM5.35357 142.752H4.46774V146.992H5.35357V142.752ZM4.48414 141.743C4.60444 141.858 4.74388 141.915 4.90245 141.915C5.06103 141.915 5.19773 141.858 5.31256 141.743C5.43286 141.628 5.49301 141.491 5.49301 141.333C5.49301 141.18 5.43286 141.046 5.31256 140.931C5.19773 140.816 5.06103 140.759 4.90245 140.759C4.74388 140.759 4.60444 140.816 4.48414 140.931C4.36931 141.046 4.31189 141.18 4.31189 141.333C4.31189 141.491 4.36931 141.628 4.48414 141.743ZM9.9254 142.932C9.62465 142.741 9.27469 142.645 8.87551 142.645C8.33964 142.645 7.90492 142.834 7.57137 143.211V141.169H6.68553V146.992H7.57137V146.541C7.72994 146.722 7.91859 146.861 8.13732 146.96C8.36151 147.052 8.60758 147.099 8.87551 147.099C9.27469 147.099 9.62465 147.006 9.9254 146.82C10.2316 146.629 10.4667 146.363 10.6308 146.024C10.8003 145.685 10.8851 145.3 10.8851 144.868C10.8851 144.436 10.8003 144.053 10.6308 143.72C10.4667 143.381 10.2316 143.118 9.9254 142.932ZM9.40866 146.123C9.22821 146.243 9.02042 146.303 8.78529 146.303C8.54469 146.303 8.3287 146.24 8.13732 146.115C7.9514 145.989 7.80376 145.817 7.6944 145.598C7.59051 145.379 7.53856 145.136 7.53856 144.868C7.53856 144.436 7.65339 144.091 7.88305 143.834C8.11271 143.572 8.41346 143.441 8.78529 143.441C9.02042 143.441 9.22821 143.501 9.40866 143.621C9.59457 143.742 9.73948 143.911 9.84337 144.13C9.94727 144.343 9.99922 144.589 9.99922 144.868C9.99922 145.147 9.94727 145.396 9.84337 145.614C9.73948 145.833 9.59457 146.003 9.40866 146.123ZM14.4829 142.834C14.297 142.741 14.0865 142.694 13.8514 142.694C13.3756 142.694 13.0202 142.883 12.7851 143.26V142.752H11.932V146.992H12.8179V144.671C12.8179 144.277 12.8944 143.988 13.0475 143.802C13.2061 143.616 13.4166 143.523 13.6791 143.523C13.9744 143.523 14.2205 143.638 14.4173 143.867L14.9669 143.228C14.8356 143.058 14.6743 142.927 14.4829 142.834ZM18.6345 143.063C18.3009 142.779 17.8552 142.637 17.2975 142.637C16.8874 142.637 16.5183 142.733 16.1902 142.924C15.8676 143.11 15.6352 143.381 15.493 143.736L16.2886 144.015C16.3761 143.834 16.5019 143.687 16.6659 143.572C16.8354 143.452 17.0432 143.392 17.2893 143.392C17.6174 143.392 17.8634 143.476 18.0275 143.646C18.1915 143.815 18.2736 144.056 18.2736 144.368V144.491H17.1909C16.6605 144.491 16.2421 144.605 15.9359 144.835C15.6297 145.059 15.4766 145.374 15.4766 145.778C15.4766 146.03 15.5395 146.257 15.6653 146.459C15.791 146.656 15.9715 146.815 16.2066 146.935C16.4472 147.05 16.7288 147.107 17.0514 147.107C17.3576 147.107 17.6174 147.047 17.8306 146.927C18.0439 146.806 18.2052 146.645 18.3146 146.443V146.992H19.1348V144.31C19.1348 143.763 18.968 143.348 18.6345 143.063ZM17.9701 146.139C17.7732 146.292 17.5244 146.369 17.2237 146.369C16.9393 146.369 16.7206 146.314 16.5675 146.205C16.4144 146.09 16.3378 145.942 16.3378 145.762C16.3378 145.576 16.4144 145.428 16.5675 145.319C16.7261 145.204 16.9612 145.147 17.2729 145.147H18.2736V145.409C18.2736 145.737 18.1724 145.981 17.9701 146.139ZM22.9494 142.834C22.7635 142.741 22.553 142.694 22.3179 142.694C21.8421 142.694 21.4867 142.883 21.2516 143.26V142.752H20.3986V146.992H21.2844V144.671C21.2844 144.277 21.361 143.988 21.5141 143.802C21.6726 143.616 21.8832 143.523 22.1456 143.523C22.4409 143.523 22.687 143.638 22.8838 143.867L23.4334 143.228C23.3021 143.058 23.1408 142.927 22.9494 142.834ZM26.1575 147.091L27.757 142.752H26.8547L25.7802 145.68L24.5745 142.752H23.6313L25.3619 146.828L25.3291 146.918C25.2307 147.186 25.1076 147.383 24.96 147.509C24.8178 147.635 24.6319 147.698 24.4023 147.698C24.2601 147.698 24.1234 147.676 23.9921 147.632C23.8609 147.594 23.7516 147.545 23.6641 147.484L23.3278 148.231C23.4535 148.307 23.6121 148.37 23.8035 148.419C24.0004 148.474 24.2109 148.502 24.4351 148.502C24.867 148.502 25.217 148.389 25.4849 148.165C25.7584 147.941 25.9825 147.583 26.1575 147.091Z" fill="#121212"/>
</svg>
