<svg width="12" height="53" viewBox="0 0 12 53" fill="none" xmlns="http://www.w3.org/2000/svg">
<path id="ViewCheckControlEnabledOff" fill-rule="evenodd" clip-rule="evenodd" d="M6.10095 10.9954C9.04542 10.9954 11.4324 8.60841 11.4324 5.66394C11.4324 2.71948 9.04542 0.33252 6.10095 0.33252C3.15649 0.33252 0.769531 2.71948 0.769531 5.66394C0.769531 8.60841 3.15649 10.9954 6.10095 10.9954ZM7.98157 8.83012L5.40189 5.75579L6.34438 4.96495L8.1161 7.0764C8.39682 6.67663 8.56161 6.18953 8.56161 5.66394C8.56161 4.30496 7.45994 3.20329 6.10095 3.20329C4.74197 3.20329 3.6403 4.30496 3.6403 5.66394C3.6403 6.62614 4.19257 7.45935 4.99742 7.86387L4.44873 8.96538C3.23979 8.35918 2.40997 7.10847 2.40997 5.66394C2.40997 3.62547 4.06248 1.97296 6.10095 1.97296C8.13943 1.97296 9.79194 3.62547 9.79194 5.66394C9.79194 6.87971 8.54457 8.44726 8.2972 8.63069C8.04983 8.81412 7.98157 8.83012 7.98157 8.83012ZM6.10098 24.9391C9.04544 24.9391 11.4324 22.5522 11.4324 19.6077C11.4324 16.6632 9.04544 14.2763 6.10098 14.2763C3.15652 14.2763 0.769559 16.6632 0.769559 19.6077C0.769559 22.5522 3.15652 24.9391 6.10098 24.9391ZM4.87065 17.5571V16.7369H7.33131V17.5571H8.97175V21.6582H3.23022V17.5571H4.87065ZM6.51109 19.1976V18.3774H5.69087V19.1976H4.87065V20.0178H5.69087V20.838H6.51109V20.0178H7.33131V19.1976H6.51109ZM11.4324 47.4951C11.4324 50.4396 9.04544 52.8266 6.10098 52.8266C3.15652 52.8266 0.769559 50.4396 0.769559 47.4951C0.769559 44.5507 3.15652 42.1637 6.10098 42.1637C9.04544 42.1637 11.4324 44.5507 11.4324 47.4951ZM4.05043 45.4446H3.23022V46.2648H4.05043V45.4446ZM4.05043 47.085H3.23022V47.9052H4.05043V47.085ZM4.87065 47.9052H8.97175V47.085H4.87065V47.9052ZM4.05043 48.7255H3.23022V49.5457H4.05043V48.7255ZM4.87065 48.7255V49.5457H8.97175V48.7255H4.87065ZM4.87065 46.2648V45.4446H8.97175V46.2648H4.87065Z" fill="#B8ADA4"/>
</svg>
