<svg width="12" height="11" viewBox="0 0 12 11" fill="none" xmlns="http://www.w3.org/2000/svg">
<path id="ViewCheckControlEnabledOn" fill-rule="evenodd" clip-rule="evenodd" d="M6.10095 10.8828C9.04542 10.8828 11.4324 8.49586 11.4324 5.55139C11.4324 2.60693 9.04542 0.219971 6.10095 0.219971C3.15649 0.219971 0.769531 2.60693 0.769531 5.55139C0.769531 8.49586 3.15649 10.8828 6.10095 10.8828ZM2.41001 4.32106C2.41001 3.86806 2.77726 3.50084 3.23022 3.50084H8.97176C9.42472 3.50084 9.79197 3.86806 9.79197 4.32106V6.78172C9.79197 7.23472 9.42472 7.60194 8.97176 7.60194H3.23022C2.77726 7.60194 2.41001 7.23472 2.41001 6.78172V4.32106ZM3.23022 4.32106H8.97176V5.14128H3.23022V4.32106Z" fill="#8FAED8"/>
</svg>
