<svg width="358" height="26" viewBox="0 0 358 26" fill="none" xmlns="http://www.w3.org/2000/svg">
<path id="WaveformColor" fill-rule="evenodd" clip-rule="evenodd" d="M204.822 0.436768H211.384V2.89742H204.822V0.436768ZM184.317 0.436797H189.648V2.89745H184.317V0.436797ZM0.587685 0.436815H5.91911V2.89747H0.587685V0.436815ZM96.9633 0.436797H91.6319V2.89745H96.9633V0.436797ZM275.361 0.436797H280.692V2.89745H275.361V0.436797ZM27.6548 0.436797H21.0931V2.89745H27.6548V0.436797ZM121.16 0.436797H114.598V2.89745H121.16V0.436797ZM298.327 0.436797H304.889V2.89745H298.327V0.436797ZM44.0592 0.436797H37.4975V2.89745H44.0592V0.436797ZM221.227 0.436797H227.788V2.89745H221.227V0.436797ZM139.205 0.436797H132.643V2.89745H139.205V0.436797ZM316.372 0.436797H322.934V2.89745H316.372V0.436797ZM5.50896 22.5827H0.587646V25.0433H5.50896V22.5827ZM184.317 22.5827H189.238V25.0433H184.317V22.5827ZM96.5532 22.5827H91.6319V25.0433H96.5532V22.5827ZM275.361 22.5827H280.282V25.0433H275.361V22.5827ZM42.8289 22.5827H36.6773V25.0433H42.8289V22.5827ZM220.406 22.5827H226.558V25.0433H220.406V22.5827ZM133.873 22.5827H127.722V25.0433H133.873V22.5827ZM311.451 22.5827H317.602V25.0433H311.451V22.5827ZM115.008 22.5827H108.857V25.0433H115.008V22.5827ZM292.586 22.5827H298.737V25.0433H292.586V22.5827ZM53.9019 17.6614H46.5199V20.122H53.9019V17.6614ZM230.249 17.6614H237.631V20.122H230.249V17.6614ZM144.946 17.6614H137.564V20.122H144.946V17.6614ZM321.293 17.6614H328.675V20.122H321.293V17.6614ZM350.822 17.6614H343.44V20.1221H350.822V17.6614ZM68.6658 0.436797H76.0478V2.89745H68.6658V0.436797ZM259.777 0.436768H252.395V2.89742H259.777V0.436768ZM159.71 0.436797H167.092V2.89745H159.71V0.436797ZM357.794 0.436768H343.44V2.89742H357.794V0.436768Z" fill="#141414"/>
</svg>
