<?xml version="1.0" encoding="UTF-8"?><svg id="a" xmlns="http://www.w3.org/2000/svg" width="64" height="64" viewBox="0 0 64 64"><rect y="0" width="64" height="64" style="fill:#000; stroke-width:0px;"/><path d="M12.93,43.1h-2.93v-22h2.93v22ZM18.8,21.1h-2.93v22h2.93v-22ZM24.67,21.1h-2.93v22h2.93v-22ZM30.53,21.1h-2.93v22h2.93v-22Z" style="fill:#fff; stroke-width:0px;"/><path d="M33.47,39.96h1.97c.53,0,.96.43.96.96v2.18h-2.93v-3.14h0Z" style="fill:#4285f4; stroke-width:0px;"/><path d="M33.47,33.68v3.14h4.89c.54,0,.98.47.98,1.05v5.24h2.93v-5.68c0-2.07-1.57-3.75-3.5-3.75h-5.3Z" style="fill:#34a853; stroke-width:0px;"/><path d="M33.47,27.39v3.14h5.98c3.18,0,5.76,2.76,5.76,6.17v6.4h2.93v-6.45c0-5.12-3.87-9.27-8.65-9.27h-6.02Z" style="fill:#fbbc05; stroke-width:0px;"/><path d="M33.47,21.1v3.14h6.56c6.1,0,11.04,5.29,11.04,11.82v7.03h2.93v-7.12c0-8.22-6.22-14.88-13.89-14.88h-6.65Z" style="fill:#ea4335; stroke-width:0px;"/></svg>