<svg width="104" height="130" viewBox="0 0 104 130" fill="none" xmlns="http://www.w3.org/2000/svg">
<path id="BrowserTagBackground" fill-rule="evenodd" clip-rule="evenodd" d="M48.7003 0.554764H19.4475V7.65902H48.7003V0.554764ZM17.358 0.554801H0.64209V7.65906H17.358V0.554801ZM50.7897 0.554764H90.49V7.65902H50.7897V0.554764ZM42.4319 9.33062H0.642103V16.8528H42.4319V9.33062ZM0.642103 67.0005H48.2824V74.5226H0.642103V67.0005ZM69.1773 67.0005H49.954V74.5226H69.1773V67.0005ZM70.8489 67.0005H102.191V74.5226H70.8489V67.0005ZM37.4171 76.1942H0.642117V83.7164H37.4171V76.1942ZM39.0887 76.1942H69.5952V83.7164H39.0887V76.1942ZM82.5501 76.1942H71.2668V83.7164H82.5501V76.1942ZM0.642117 85.388H34.4918V92.9101H0.642117V85.388ZM54.5508 85.388H36.1634V92.9101H54.5508V85.388ZM56.2225 85.388H91.3259V92.9101H56.2225V85.388ZM53.7151 94.5817H0.642117V102.104H53.7151V94.5817ZM55.3867 94.5817H82.1321V102.104H55.3867V94.5817ZM59.1478 103.775H0.642117V111.298H59.1478V103.775ZM60.8194 103.775H95.9228V111.298H60.8194V103.775ZM33.2381 112.969H0.642117V120.491H33.2381V112.969ZM34.9097 112.969H90.0722V120.491H34.9097V112.969ZM54.5509 122.163H0.642117V129.267H54.5509V122.163ZM56.2225 122.163H76.2816V129.267H56.2225V122.163ZM103.445 122.163H77.9531V129.267H103.445V122.163Z" fill="#F6E6CD"/>
</svg>
