<svg width="55" height="98" viewBox="0 0 55 98" fill="none" xmlns="http://www.w3.org/2000/svg">
<path id="ControlTextBack" fill-rule="evenodd" clip-rule="evenodd" d="M0.442439 0.64325H25.7803V6.97774H0.442439V0.64325ZM29.2354 0.64325H54.5733V6.97774H29.2354V0.64325ZM54.5733 62.314H29.2354V68.6485H54.5733V62.314ZM38.4493 10.4329H54.5734V16.7674H38.4493V10.4329ZM54.5734 72.1037H38.4493V78.4382H54.5734V72.1037ZM19.4454 10.4329H35.5695V16.7674H19.4454V10.4329ZM35.5695 72.1037H19.4454V78.4382H35.5695V72.1037ZM0.442439 10.4329H16.5666V16.7674H0.442439V10.4329ZM16.5666 72.1037H0.442439V78.4382H16.5666V72.1037ZM0.16333 90.7311H25.5012V97.0656H0.16333V90.7311ZM54.2945 90.7311H28.9566V97.0656H54.2945V90.7311Z" fill="#E7DACD"/>
</svg>
