<svg width="10" height="5" viewBox="0 0 10 5" fill="none" xmlns="http://www.w3.org/2000/svg">
<path id="ControlOffDisabledForeground" d="M2.00947 4.39532C1.66115 4.39532 1.34841 4.30731 1.07125 4.13127C0.794091 3.9515 0.576859 3.7043 0.419553 3.38969C0.262247 3.07508 0.183594 2.71927 0.183594 2.32226C0.183594 1.92524 0.262247 1.57131 0.419553 1.26044C0.576859 0.945828 0.794091 0.700505 1.07125 0.524473C1.34841 0.344694 1.66115 0.254805 2.00947 0.254805C2.36153 0.254805 2.67615 0.344694 2.9533 0.524473C3.23046 0.700505 3.44582 0.945828 3.59938 1.26044C3.75669 1.57131 3.83534 1.92524 3.83534 2.32226C3.83534 2.71927 3.75669 3.07508 3.59938 3.38969C3.44582 3.7043 3.23046 3.9515 2.9533 4.13127C2.67615 4.30731 2.36153 4.39532 2.00947 4.39532ZM2.00947 3.81666C2.24543 3.81666 2.45329 3.75112 2.63307 3.62003C2.81285 3.48894 2.95143 3.31104 3.04881 3.08631C3.14619 2.85785 3.19488 2.60316 3.19488 2.32226C3.19488 2.04135 3.14619 1.78854 3.04881 1.56382C2.95143 1.33535 2.81285 1.15744 2.63307 1.0301C2.45329 0.899011 2.24543 0.833467 2.00947 0.833467C1.77725 0.833467 1.57126 0.899011 1.39148 1.0301C1.2117 1.15744 1.07125 1.33535 0.970124 1.56382C0.872744 1.78854 0.824054 2.04135 0.824054 2.32226C0.824054 2.60316 0.872744 2.85785 0.970124 3.08631C1.07125 3.31104 1.2117 3.48894 1.39148 3.62003C1.57126 3.75112 1.77725 3.81666 2.00947 3.81666ZM5.92553 0.664924C5.76073 0.664924 5.63151 0.71736 5.53788 0.82223C5.44425 0.923356 5.39743 1.07504 5.39743 1.27729V1.41213H6.18396V1.89528H5.39743V4.31667H4.79068V1.89528H4.22887V1.41213H4.79068V1.23235C4.79068 0.895265 4.88993 0.629343 5.08843 0.434583C5.28694 0.236078 5.55848 0.136826 5.90305 0.136826C6.25887 0.136826 6.53977 0.234205 6.74577 0.428965L6.44239 0.855938C6.38621 0.799758 6.31317 0.754813 6.22328 0.721105C6.13714 0.683651 6.03789 0.664924 5.92553 0.664924ZM8.34503 0.664924C8.18023 0.664924 8.05102 0.71736 7.95738 0.82223C7.86375 0.923356 7.81693 1.07504 7.81693 1.27729V1.41213H8.60346V1.89528H7.81693V4.31667H7.21018V1.89528H6.64837V1.41213H7.21018V1.23235C7.21018 0.895265 7.30943 0.629343 7.50794 0.434583C7.70644 0.236078 7.97798 0.136826 8.32256 0.136826C8.67837 0.136826 8.95927 0.234205 9.16527 0.428965L8.86189 0.855938C8.80571 0.799758 8.73267 0.754813 8.64279 0.721105C8.55664 0.683651 8.45739 0.664924 8.34503 0.664924Z" fill="#FF00FF"/>
</svg>
