<svg width="892" height="111" viewBox="0 0 892 111" fill="none" xmlns="http://www.w3.org/2000/svg">
<path id="ControlOnDisabledForeground" fill-rule="evenodd" clip-rule="evenodd" d="M2.7378 4.83779C2.38858 4.83779 2.07504 4.74954 1.79717 4.57306C1.51929 4.39282 1.3015 4.14499 1.14379 3.82956C0.986082 3.51414 0.907227 3.15742 0.907227 2.75938C0.907227 2.36135 0.986082 2.0065 1.14379 1.69484C1.3015 1.37941 1.51929 1.13346 1.79717 0.956974C2.07504 0.776732 2.38858 0.686612 2.7378 0.686612C3.09077 0.686612 3.40619 0.776732 3.68406 0.956974C3.96194 1.13346 4.17785 1.37941 4.33181 1.69484C4.48952 2.0065 4.56837 2.36135 4.56837 2.75938C4.56837 3.15742 4.48952 3.51414 4.33181 3.82956C4.17785 4.14499 3.96194 4.39282 3.68406 4.57306C3.40619 4.74954 3.09077 4.83779 2.7378 4.83779ZM2.7378 4.25764C2.97437 4.25764 3.18277 4.19192 3.36301 4.0605C3.54325 3.92907 3.68219 3.75071 3.77982 3.52541C3.87745 3.29635 3.92626 3.04101 3.92626 2.75938C3.92626 2.47776 3.87745 2.22429 3.77982 1.99899C3.68219 1.76994 3.54325 1.59157 3.36301 1.4639C3.18277 1.33248 2.97437 1.26676 2.7378 1.26676C2.50499 1.26676 2.29846 1.33248 2.11822 1.4639C1.93798 1.59157 1.79717 1.76994 1.69578 1.99899C1.59815 2.22429 1.54934 2.47776 1.54934 2.75938C1.54934 3.04101 1.59815 3.29635 1.69578 3.52541C1.79717 3.75071 1.93798 3.92907 2.11822 4.0605C2.29846 4.19192 2.50499 4.25764 2.7378 4.25764ZM6.66394 1.09779C6.49872 1.09779 6.36917 1.15036 6.27529 1.2555C6.18142 1.35688 6.13448 1.50896 6.13448 1.71173V1.84691H6.92303V2.33131H6.13448V4.75893H5.52617V2.33131H4.96291V1.84691H5.52617V1.66667C5.52617 1.32872 5.62567 1.06211 5.82469 0.866853C6.02371 0.667837 6.29595 0.568329 6.64141 0.568329C6.99813 0.568329 7.27976 0.665959 7.48629 0.86122L7.18213 1.28929C7.12581 1.23297 7.05258 1.18791 6.96246 1.15411C6.8761 1.11656 6.77659 1.09779 6.66394 1.09779ZM9.26128 1.09779C9.09606 1.09779 8.96651 1.15036 8.87264 1.2555C8.77876 1.35688 8.73182 1.50896 8.73182 1.71173V1.84691H9.52038V2.33131H8.73182V4.75893H8.12351V2.33131H7.56026V1.84691H8.12351V1.66667C8.12351 1.32872 8.22302 1.06211 8.42204 0.866853C8.62105 0.667837 8.89329 0.568329 9.23875 0.568329C9.59548 0.568329 9.87711 0.665959 10.0836 0.86122L9.77948 1.28929C9.72315 1.23297 9.64993 1.18791 9.55981 1.15411C9.47344 1.11656 9.37393 1.09779 9.26128 1.09779ZM56.542 4.57306C56.8199 4.74954 57.1335 4.83779 57.4827 4.83779C57.8356 4.83779 58.1511 4.74954 58.4289 4.57306C58.7068 4.39282 58.9227 4.14499 59.0767 3.82956C59.2344 3.51414 59.3132 3.15742 59.3132 2.75938C59.3132 2.36135 59.2344 2.0065 59.0767 1.69484C58.9227 1.37941 58.7068 1.13346 58.4289 0.956974C58.1511 0.776732 57.8356 0.686612 57.4827 0.686612C57.1335 0.686612 56.8199 0.776732 56.542 0.956974C56.2642 1.13346 56.0464 1.37941 55.8887 1.69484C55.731 2.0065 55.6521 2.36135 55.6521 2.75938C55.6521 3.15742 55.731 3.51414 55.8887 3.82956C56.0464 4.14499 56.2642 4.39282 56.542 4.57306ZM58.1079 4.0605C57.9276 4.19192 57.7192 4.25764 57.4827 4.25764C57.2499 4.25764 57.0433 4.19192 56.8631 4.0605C56.6829 3.92907 56.542 3.75071 56.4407 3.52541C56.343 3.29635 56.2942 3.04101 56.2942 2.75938C56.2942 2.47776 56.343 2.22429 56.4407 1.99899C56.542 1.76994 56.6829 1.59157 56.8631 1.4639C57.0433 1.33248 57.2499 1.26676 57.4827 1.26676C57.7192 1.26676 57.9276 1.33248 58.1079 1.4639C58.2881 1.59157 58.4271 1.76994 58.5247 1.99899C58.6223 2.22429 58.6711 2.47776 58.6711 2.75938C58.6711 3.04101 58.6223 3.29635 58.5247 3.52541C58.4271 3.75071 58.2881 3.92907 58.1079 4.0605ZM61.0202 1.2555C61.114 1.15036 61.2436 1.09779 61.4088 1.09779C61.5215 1.09779 61.621 1.11656 61.7073 1.15411C61.7975 1.18791 61.8707 1.23297 61.927 1.28929L62.2312 0.86122C62.0246 0.665959 61.743 0.568329 61.3863 0.568329C61.0408 0.568329 60.7686 0.667837 60.5696 0.866853C60.3705 1.06211 60.271 1.32872 60.271 1.66667V1.84691H59.7078V2.33131H60.271V4.75893H60.8794V2.33131H61.6679V1.84691H60.8794V1.71173C60.8794 1.50896 60.9263 1.35688 61.0202 1.2555ZM63.6175 1.2555C63.7114 1.15036 63.8409 1.09779 64.0062 1.09779C64.1188 1.09779 64.2183 1.11656 64.3047 1.15411C64.3948 1.18791 64.468 1.23297 64.5243 1.28929L64.8285 0.86122C64.622 0.665959 64.3404 0.568329 63.9836 0.568329C63.6382 0.568329 63.3659 0.667837 63.1669 0.866853C62.9679 1.06211 62.8684 1.32872 62.8684 1.66667V1.84691H62.3051V2.33131H62.8684V4.75893H63.4767V2.33131H64.2653V1.84691H63.4767V1.71173C63.4767 1.50896 63.5236 1.35688 63.6175 1.2555ZM112.228 4.83779C111.879 4.83779 111.565 4.74954 111.287 4.57306C111.009 4.39282 110.791 4.14499 110.634 3.82956C110.476 3.51414 110.397 3.15742 110.397 2.75938C110.397 2.36135 110.476 2.0065 110.634 1.69484C110.791 1.37941 111.009 1.13346 111.287 0.956974C111.565 0.776732 111.879 0.686612 112.228 0.686612C112.581 0.686612 112.896 0.776732 113.174 0.956974C113.452 1.13346 113.668 1.37941 113.822 1.69484C113.98 2.0065 114.058 2.36135 114.058 2.75938C114.058 3.15742 113.98 3.51414 113.822 3.82956C113.668 4.14499 113.452 4.39282 113.174 4.57306C112.896 4.74954 112.581 4.83779 112.228 4.83779ZM112.228 4.25764C112.464 4.25764 112.673 4.19192 112.853 4.0605C113.033 3.92907 113.172 3.75071 113.27 3.52541C113.367 3.29635 113.416 3.04101 113.416 2.75938C113.416 2.47776 113.367 2.22429 113.27 1.99899C113.172 1.76994 113.033 1.59157 112.853 1.4639C112.673 1.33248 112.464 1.26676 112.228 1.26676C111.995 1.26676 111.788 1.33248 111.608 1.4639C111.428 1.59157 111.287 1.76994 111.186 1.99899C111.088 2.22429 111.039 2.47776 111.039 2.75938C111.039 3.04101 111.088 3.29635 111.186 3.52541C111.287 3.75071 111.428 3.92907 111.608 4.0605C111.788 4.19192 111.995 4.25764 112.228 4.25764ZM116.154 1.09779C115.989 1.09779 115.859 1.15036 115.765 1.2555C115.671 1.35688 115.624 1.50896 115.624 1.71173V1.84691H116.413V2.33131H115.624V4.75893H115.016V2.33131H114.453V1.84691H115.016V1.66667C115.016 1.32872 115.116 1.06211 115.315 0.866853C115.514 0.667837 115.786 0.568329 116.131 0.568329C116.488 0.568329 116.77 0.665959 116.976 0.86122L116.672 1.28929C116.616 1.23297 116.543 1.18791 116.452 1.15411C116.366 1.11656 116.267 1.09779 116.154 1.09779ZM118.751 1.09779C118.586 1.09779 118.457 1.15036 118.363 1.2555C118.269 1.35688 118.222 1.50896 118.222 1.71173V1.84691H119.01V2.33131H118.222V4.75893H117.614V2.33131H117.05V1.84691H117.614V1.66667C117.614 1.32872 117.713 1.06211 117.912 0.866853C118.111 0.667837 118.383 0.568329 118.729 0.568329C119.085 0.568329 119.367 0.665959 119.574 0.86122L119.269 1.28929C119.213 1.23297 119.14 1.18791 119.05 1.15411C118.963 1.11656 118.864 1.09779 118.751 1.09779ZM881.816 110.073C881.418 110.073 881.08 109.983 880.802 109.803C880.524 109.619 880.338 109.345 880.244 108.981L880.847 108.761C880.907 108.99 881.02 109.17 881.185 109.302C881.35 109.433 881.564 109.499 881.827 109.499C882.041 109.499 882.216 109.446 882.351 109.341C882.486 109.236 882.554 109.088 882.554 108.896C882.554 108.772 882.518 108.671 882.447 108.592C882.375 108.509 882.279 108.442 882.159 108.389C882.039 108.337 881.874 108.278 881.664 108.214C881.431 108.147 881.234 108.076 881.072 108C880.911 107.922 880.774 107.807 880.661 107.657C880.548 107.503 880.492 107.304 880.492 107.06C880.492 106.842 880.547 106.647 880.655 106.474C880.764 106.301 880.915 106.168 881.106 106.074C881.301 105.976 881.519 105.928 881.759 105.928C882.12 105.928 882.417 106.016 882.649 106.192C882.886 106.369 883.034 106.594 883.094 106.868L882.509 107.06C882.385 106.688 882.129 106.502 881.743 106.502C881.555 106.502 881.405 106.553 881.292 106.654C881.183 106.752 881.129 106.878 881.129 107.032C881.129 107.204 881.194 107.334 881.326 107.42C881.457 107.503 881.651 107.58 881.906 107.651C882.172 107.726 882.396 107.809 882.576 107.899C882.756 107.985 882.903 108.107 883.016 108.265C883.132 108.423 883.19 108.626 883.19 108.873C883.19 109.11 883.132 109.32 883.016 109.504C882.903 109.685 882.741 109.825 882.531 109.927C882.325 110.024 882.086 110.073 881.816 110.073ZM885.171 110.073C884.889 110.073 884.636 110.008 884.411 109.876C884.189 109.745 884.015 109.563 883.887 109.33C883.763 109.097 883.701 108.834 883.701 108.541C883.701 108.252 883.763 107.991 883.887 107.758C884.015 107.525 884.189 107.343 884.411 107.212C884.636 107.08 884.889 107.015 885.171 107.015C885.453 107.015 885.706 107.08 885.931 107.212C886.157 107.343 886.331 107.525 886.455 107.758C886.583 107.991 886.647 108.252 886.647 108.541C886.647 108.834 886.583 109.097 886.455 109.33C886.331 109.563 886.157 109.745 885.931 109.876C885.706 110.008 885.453 110.073 885.171 110.073ZM885.171 109.527C885.34 109.527 885.49 109.484 885.622 109.397C885.757 109.311 885.86 109.193 885.931 109.042C886.003 108.892 886.038 108.725 886.038 108.541C886.038 108.361 886.003 108.196 885.931 108.046C885.86 107.895 885.757 107.777 885.622 107.691C885.49 107.604 885.34 107.561 885.171 107.561C885.002 107.561 884.852 107.604 884.72 107.691C884.589 107.777 884.488 107.895 884.416 108.046C884.345 108.196 884.309 108.361 884.309 108.541C884.309 108.725 884.345 108.892 884.416 109.042C884.488 109.193 884.589 109.311 884.72 109.397C884.852 109.484 885.002 109.527 885.171 109.527ZM887.375 106.001H887.983V110H887.375V106.001ZM890.177 110.073C889.895 110.073 889.641 110.008 889.416 109.876C889.195 109.745 889.02 109.563 888.892 109.33C888.768 109.097 888.706 108.834 888.706 108.541C888.706 108.252 888.768 107.991 888.892 107.758C889.02 107.525 889.195 107.343 889.416 107.212C889.641 107.08 889.895 107.015 890.177 107.015C890.458 107.015 890.712 107.08 890.937 107.212C891.162 107.343 891.337 107.525 891.461 107.758C891.588 107.991 891.652 108.252 891.652 108.541C891.652 108.834 891.588 109.097 891.461 109.33C891.337 109.563 891.162 109.745 890.937 109.876C890.712 110.008 890.458 110.073 890.177 110.073ZM890.177 109.527C890.346 109.527 890.496 109.484 890.627 109.397C890.762 109.311 890.866 109.193 890.937 109.042C891.008 108.892 891.044 108.725 891.044 108.541C891.044 108.361 891.008 108.196 890.937 108.046C890.866 107.895 890.762 107.777 890.627 107.691C890.496 107.604 890.346 107.561 890.177 107.561C890.008 107.561 889.857 107.604 889.726 107.691C889.595 107.777 889.493 107.895 889.422 108.046C889.35 108.196 889.315 108.361 889.315 108.541C889.315 108.725 889.35 108.892 889.422 109.042C889.493 109.193 889.595 109.311 889.726 109.397C889.857 109.484 890.008 109.527 890.177 109.527ZM166.032 4.57306C166.31 4.74954 166.623 4.83779 166.972 4.83779C167.325 4.83779 167.641 4.74954 167.919 4.57306C168.197 4.39282 168.412 4.14499 168.566 3.82956C168.724 3.51414 168.803 3.15742 168.803 2.75938C168.803 2.36135 168.724 2.0065 168.566 1.69484C168.412 1.37941 168.197 1.13346 167.919 0.956974C167.641 0.776732 167.325 0.686612 166.972 0.686612C166.623 0.686612 166.31 0.776732 166.032 0.956974C165.754 1.13346 165.536 1.37941 165.378 1.69484C165.221 2.0065 165.142 2.36135 165.142 2.75938C165.142 3.15742 165.221 3.51414 165.378 3.82956C165.536 4.14499 165.754 4.39282 166.032 4.57306ZM167.598 4.0605C167.417 4.19192 167.209 4.25764 166.972 4.25764C166.74 4.25764 166.533 4.19192 166.353 4.0605C166.173 3.92907 166.032 3.75071 165.93 3.52541C165.833 3.29635 165.784 3.04101 165.784 2.75938C165.784 2.47776 165.833 2.22429 165.93 1.99899C166.032 1.76994 166.173 1.59157 166.353 1.4639C166.533 1.33248 166.74 1.26676 166.972 1.26676C167.209 1.26676 167.417 1.33248 167.598 1.4639C167.778 1.59157 167.917 1.76994 168.014 1.99899C168.112 2.22429 168.161 2.47776 168.161 2.75938C168.161 3.04101 168.112 3.29635 168.014 3.52541C167.917 3.75071 167.778 3.92907 167.598 4.0605ZM170.51 1.2555C170.604 1.15036 170.733 1.09779 170.899 1.09779C171.011 1.09779 171.111 1.11656 171.197 1.15411C171.287 1.18791 171.36 1.23297 171.417 1.28929L171.721 0.86122C171.514 0.665959 171.233 0.568329 170.876 0.568329C170.531 0.568329 170.258 0.667837 170.059 0.866853C169.86 1.06211 169.761 1.32872 169.761 1.66667V1.84691H169.198V2.33131H169.761V4.75893H170.369V2.33131H171.158V1.84691H170.369V1.71173C170.369 1.50896 170.416 1.35688 170.51 1.2555ZM173.107 1.2555C173.201 1.15036 173.331 1.09779 173.496 1.09779C173.609 1.09779 173.708 1.11656 173.794 1.15411C173.885 1.18791 173.958 1.23297 174.014 1.28929L174.318 0.86122C174.112 0.665959 173.83 0.568329 173.473 0.568329C173.128 0.568329 172.856 0.667837 172.657 0.866853C172.458 1.06211 172.358 1.32872 172.358 1.66667V1.84691H171.795V2.33131H172.358V4.75893H172.966V2.33131H173.755V1.84691H172.966V1.71173C172.966 1.50896 173.013 1.35688 173.107 1.2555Z" fill="#00FFFF"/>
</svg>
