<svg width="537" height="351" viewBox="0 0 537 351" fill="none" xmlns="http://www.w3.org/2000/svg">
<path id="ControlOffForeground" fill-rule="evenodd" clip-rule="evenodd" d="M516.629 8.5715L523.681 4.34028L516.629 0.10907V8.5715ZM536.866 0.67323H529.532V8.00733H536.866V0.67323ZM0.943604 24.0964L3.69389 22.1421L3.69389 26.0507L0.943604 24.0964ZM339.629 348.939C339.629 350.029 338.745 350.913 337.654 350.913C336.564 350.913 335.679 350.029 335.679 348.939C335.679 347.848 336.564 346.964 337.654 346.964C338.745 346.964 339.629 347.848 339.629 348.939ZM337.936 347.528V349.221C337.671 349.221 337.575 349.266 337.406 349.346L337.372 349.362C337.232 349.427 337.055 349.513 336.949 349.644C336.834 349.786 336.764 349.924 336.816 350.135C336.865 350.333 337.231 350.349 337.372 350.349C337.795 350.349 338.06 350.183 338.359 349.926L338.5 349.775V347.528H337.936Z" fill="#2B2929"/>
</svg>
