<svg width="139" height="61" viewBox="0 0 139 61" fill="none" xmlns="http://www.w3.org/2000/svg">
<path id="FilledDrumPad" fill-rule="evenodd" clip-rule="evenodd" d="M46.033 1.24938C46.033 0.776822 46.4161 0.393738 46.8886 0.393738H74.2693C74.7418 0.393738 75.1249 0.776823 75.1249 1.24938V13.5136H46.033V1.24938ZM109.781 24.637C109.781 24.1644 110.164 23.7814 110.636 23.7814H138.017C138.489 23.7814 138.872 24.1644 138.872 24.637V36.9012H109.781V24.637ZM109.856 47C109.383 47 109 47.3831 109 47.8556V61H139V47.8556C139 47.3831 138.617 47 138.144 47H109.856ZM77 47.8556C77 47.3831 77.3831 47 77.8557 47H106.144C106.617 47 107 47.3831 107 47.8556V61H77V47.8556ZM14.8557 24C14.3831 24 14 24.3831 14 24.8556V38H44V24.8556C44 24.3831 43.6169 24 43.1444 24H14.8557ZM14 47.8556C14 47.3831 14.3831 47 14.8557 47H43.1444C43.6169 47 44 47.3831 44 47.8556V61H14V47.8556ZM3.39173 34.467H5.67345V36.7487H3.39173V34.467ZM9.09607 37.3192H11.3778V39.6009H9.09607V37.3192ZM9.09607 40.1713H11.3778V42.453H9.09607V40.1713ZM8.52556 40.1713H6.24384V42.453H8.52556V40.1713ZM0.539551 40.1713H2.82127V42.453H0.539551V40.1713ZM2.82127 37.3192H0.539551V39.6009H2.82127V37.3192Z" fill="#8C8785"/>
</svg>
