<svg width="429" height="13" viewBox="0 0 429 13" fill="none" xmlns="http://www.w3.org/2000/svg">
<path id="RangeDefault" fill-rule="evenodd" clip-rule="evenodd" d="M420.858 3.92825C420.714 2.70368 420.921 1.57356 421.397 0.599709L420.261 0.114746C419.684 1.2941 419.444 2.64362 419.613 4.07521C420.114 8.31602 423.908 10.9157 428.352 10.391L428.214 9.21593C424.409 9.66516 421.277 7.47542 420.858 3.92825ZM1.31173 7.89566C1.31173 10.1625 3.14934 12.0001 5.41616 12.0001V12.815C2.69929 12.815 0.496826 10.6125 0.496826 7.89566C0.496826 5.17879 2.69929 2.97633 5.41616 2.97633C7.94828 2.97633 10.0336 4.88943 10.3055 7.34907H9.48451C9.21725 5.34066 7.49765 3.79123 5.41616 3.79123C3.14934 3.79123 1.31173 5.62884 1.31173 7.89566Z" fill="#F49F84"/>
</svg>
