<svg width="623" height="88" viewBox="0 0 623 88" fill="none" xmlns="http://www.w3.org/2000/svg">
<path id="RetroDisplayRed" d="M199.412 27.8886C207.347 27.8886 225.527 27.4558 230.288 30.6299C238.368 36.0164 242.408 41.5952 245.87 44.1923C249.333 46.7893 250.776 47.655 252.363 48.8093M317.722 37.8439C323.349 37.8439 334.834 38.2479 338.643 36.4011C343.404 34.0926 346.867 28.2853 351.772 26.4458C356.678 24.6062 369.663 25.4358 374.28 25.8687C378.897 26.3015 380.051 28.61 384.812 29.4757C389.497 30.3274 389.574 29.9085 393.758 29.9085M548.94 27.5243H622.699M5.7876 1.19672V2.0624H1.3149V6.53509H0.449219V1.19672H5.7876ZM128.282 6.53509V2.0624H123.809V1.19672H129.147V6.53509H128.282ZM123.809 64.3915H128.282V60.2074H129.147V65.2572H123.809V64.3915ZM1.3149 60.2074V64.3915H5.7876V65.2572H0.449219V60.2074H1.3149ZM5.13545 78.4041V78.9639H2.42298V78.4791L3.57145 77.3826C3.86386 77.1017 4.08124 76.8574 4.2236 76.6496C4.3698 76.4418 4.4429 76.2341 4.4429 76.0263C4.4429 75.8301 4.37942 75.6723 4.25245 75.5531C4.12548 75.4338 3.9562 75.3742 3.74458 75.3742C3.28673 75.3742 3.00587 75.6608 2.90199 76.2341L2.30178 76.1071C2.32871 75.8455 2.40566 75.6146 2.53263 75.4146C2.66344 75.2145 2.83466 75.0606 3.04627 74.9529C3.25788 74.8451 3.49642 74.7913 3.7619 74.7913C4.03122 74.7913 4.26399 74.8451 4.46022 74.9529C4.66028 75.0606 4.81226 75.2087 4.91614 75.3973C5.02387 75.5819 5.07774 75.7878 5.07774 76.0148C5.07774 76.2379 5.02964 76.4495 4.93346 76.6496C4.84112 76.8458 4.71415 77.0344 4.55255 77.2152C4.39096 77.396 4.17165 77.6153 3.89464 77.8731L3.32906 78.4041H5.13545ZM7.22815 79.0331C6.93189 79.0331 6.67026 78.9504 6.44326 78.785C6.21626 78.6157 6.03927 78.3714 5.91231 78.052C5.78919 77.7327 5.72763 77.3537 5.72763 76.9151C5.72763 76.4765 5.78919 76.0975 5.91231 75.7782C6.03927 75.4588 6.21626 75.2164 6.44326 75.051C6.67026 74.8817 6.93189 74.797 7.22815 74.797C7.5244 74.797 7.78603 74.8817 8.01303 75.051C8.24003 75.2164 8.41509 75.4588 8.53821 75.7782C8.66518 76.0975 8.72866 76.4765 8.72866 76.9151C8.72866 77.3537 8.66518 77.7327 8.53821 78.052C8.41509 78.3714 8.24003 78.6157 8.01303 78.785C7.78603 78.9504 7.5244 79.0331 7.22815 79.0331ZM7.22815 78.456C7.39743 78.456 7.54749 78.3964 7.6783 78.2771C7.80912 78.154 7.91107 77.977 7.98417 77.7461C8.05728 77.5114 8.09383 77.2344 8.09383 76.9151C8.09383 76.5919 8.05728 76.3149 7.98417 76.084C7.91107 75.8493 7.80912 75.6723 7.6783 75.5531C7.54749 75.4338 7.39743 75.3742 7.22815 75.3742C7.05886 75.3742 6.9088 75.4338 6.77799 75.5531C6.64718 75.6723 6.54522 75.8493 6.47212 76.084C6.39901 76.3149 6.36246 76.5919 6.36246 76.9151C6.36246 77.2344 6.39901 77.5114 6.47212 77.7461C6.54522 77.977 6.64718 78.154 6.77799 78.2771C6.9088 78.3964 7.05886 78.456 7.22815 78.456ZM58.8193 78.4271H57.9017V74.8663H57.3592L56.1415 75.7493L56.4762 76.1821L57.2611 75.6281V78.4271H56.205V78.9639H58.8193V78.4271ZM60.1156 78.785C60.3426 78.9504 60.6042 79.0331 60.9005 79.0331C61.1967 79.0331 61.4584 78.9504 61.6854 78.785C61.9124 78.6157 62.0874 78.3714 62.2105 78.052C62.3375 77.7327 62.401 77.3537 62.401 76.9151C62.401 76.4765 62.3375 76.0975 62.2105 75.7782C62.0874 75.4588 61.9124 75.2164 61.6854 75.051C61.4584 74.8817 61.1967 74.797 60.9005 74.797C60.6042 74.797 60.3426 74.8817 60.1156 75.051C59.8886 75.2164 59.7116 75.4588 59.5846 75.7782C59.4615 76.0975 59.4 76.4765 59.4 76.9151C59.4 77.3537 59.4615 77.7327 59.5846 78.052C59.7116 78.3714 59.8886 78.6157 60.1156 78.785ZM61.3506 78.2771C61.2198 78.3964 61.0698 78.456 60.9005 78.456C60.7312 78.456 60.5811 78.3964 60.4503 78.2771C60.3195 78.154 60.2175 77.977 60.1444 77.7461C60.0713 77.5114 60.0348 77.2344 60.0348 76.9151C60.0348 76.5919 60.0713 76.3149 60.1444 76.084C60.2175 75.8493 60.3195 75.6723 60.4503 75.5531C60.5811 75.4338 60.7312 75.3742 60.9005 75.3742C61.0698 75.3742 61.2198 75.4338 61.3506 75.5531C61.4814 75.6723 61.5834 75.8493 61.6565 76.084C61.7296 76.3149 61.7662 76.5919 61.7662 76.9151C61.7662 77.2344 61.7296 77.5114 61.6565 77.7461C61.5834 77.977 61.4814 78.154 61.3506 78.2771ZM63.5761 78.785C63.8031 78.9504 64.0647 79.0331 64.3609 79.0331C64.6572 79.0331 64.9188 78.9504 65.1458 78.785C65.3728 78.6157 65.5479 78.3714 65.671 78.052C65.798 77.7327 65.8615 77.3537 65.8615 76.9151C65.8615 76.4765 65.798 76.0975 65.671 75.7782C65.5479 75.4588 65.3728 75.2164 65.1458 75.051C64.9188 74.8817 64.6572 74.797 64.3609 74.797C64.0647 74.797 63.8031 74.8817 63.5761 75.051C63.3491 75.2164 63.1721 75.4588 63.0451 75.7782C62.922 76.0975 62.8604 76.4765 62.8604 76.9151C62.8604 77.3537 62.922 77.7327 63.0451 78.052C63.1721 78.3714 63.3491 78.6157 63.5761 78.785ZM64.8111 78.2771C64.6803 78.3964 64.5302 78.456 64.3609 78.456C64.1917 78.456 64.0416 78.3964 63.9108 78.2771C63.78 78.154 63.678 77.977 63.6049 77.7461C63.5318 77.5114 63.4953 77.2344 63.4953 76.9151C63.4953 76.5919 63.5318 76.3149 63.6049 76.084C63.678 75.8493 63.78 75.6723 63.9108 75.5531C64.0416 75.4338 64.1917 75.3742 64.3609 75.3742C64.5302 75.3742 64.6803 75.4338 64.8111 75.5531C64.9419 75.6723 65.0439 75.8493 65.117 76.084C65.1901 76.3149 65.2266 76.5919 65.2266 76.9151C65.2266 77.2344 65.1901 77.5114 65.117 77.7461C65.0439 77.977 64.9419 78.154 64.8111 78.2771ZM68.2397 76.615C68.3897 76.7035 68.5532 76.7477 68.7302 76.7477C68.9034 76.7477 69.0649 76.7035 69.215 76.615C69.365 76.5265 69.4843 76.4091 69.5728 76.2629C69.6613 76.1129 69.7055 75.9494 69.7055 75.7724C69.7055 75.5954 69.6613 75.4338 69.5728 75.2876C69.4843 75.1375 69.365 75.0183 69.215 74.9298C69.0649 74.8413 68.9034 74.797 68.7302 74.797C68.5532 74.797 68.3897 74.8413 68.2397 74.9298C68.0935 75.0183 67.9761 75.1375 67.8876 75.2876C67.7991 75.4338 67.7549 75.5954 67.7549 75.7724C67.7549 75.9494 67.7991 76.1129 67.8876 76.2629C67.9761 76.4091 68.0935 76.5265 68.2397 76.615ZM68.205 78.9639H68.7706L71.6966 74.8663H71.131L68.205 78.9639ZM69.0592 76.1187C68.9707 76.211 68.861 76.2572 68.7302 76.2572C68.5994 76.2572 68.4878 76.211 68.3955 76.1187C68.307 76.0263 68.2627 75.9109 68.2627 75.7724C68.2627 75.6339 68.307 75.5184 68.3955 75.4261C68.4878 75.3338 68.5994 75.2876 68.7302 75.2876C68.861 75.2876 68.9707 75.3338 69.0592 75.4261C69.1515 75.5184 69.1977 75.6339 69.1977 75.7724C69.1977 75.9109 69.1515 76.0263 69.0592 76.1187ZM70.6636 78.9177C70.8136 79.0062 70.9771 79.0504 71.1541 79.0504C71.3311 79.0504 71.4927 79.0062 71.6389 78.9177C71.789 78.8292 71.9082 78.7119 71.9967 78.5656C72.0852 78.4156 72.1295 78.2521 72.1295 78.0751C72.1295 77.8981 72.0852 77.7365 71.9967 77.5903C71.9082 77.4403 71.789 77.321 71.6389 77.2325C71.4927 77.144 71.3311 77.0998 71.1541 77.0998C70.9771 77.0998 70.8136 77.144 70.6636 77.2325C70.5174 77.321 70.4 77.4403 70.3115 77.5903C70.223 77.7365 70.1788 77.8981 70.1788 78.0751C70.1788 78.2521 70.223 78.4156 70.3115 78.5656C70.4 78.7119 70.5174 78.8292 70.6636 78.9177ZM71.4831 78.4214C71.3946 78.5137 71.2849 78.5599 71.1541 78.5599C71.0233 78.5599 70.9117 78.5137 70.8194 78.4214C70.7309 78.329 70.6867 78.2136 70.6867 78.0751C70.6867 77.9366 70.7309 77.8212 70.8194 77.7288C70.9117 77.6365 71.0233 77.5903 71.1541 77.5903C71.2849 77.5903 71.3946 77.6365 71.4831 77.7288C71.5754 77.8212 71.6216 77.9366 71.6216 78.0751C71.6216 78.2136 71.5754 78.329 71.4831 78.4214ZM29.0456 78.4271H29.9632V78.9639H27.3489V78.4271H28.405V75.6281L27.6201 76.1821L27.2854 75.7493L28.5031 74.8663H29.0456V78.4271ZM33.4122 78.4041V78.9639H30.6997V78.4791L31.8482 77.3826C32.1406 77.1017 32.358 76.8574 32.5003 76.6496C32.6465 76.4418 32.7196 76.2341 32.7196 76.0263C32.7196 75.8301 32.6561 75.6723 32.5292 75.5531C32.4022 75.4338 32.2329 75.3742 32.0213 75.3742C31.5634 75.3742 31.2826 75.6608 31.1787 76.2341L30.5785 76.1071C30.6054 75.8455 30.6824 75.6146 30.8093 75.4146C30.9402 75.2145 31.1114 75.0606 31.323 74.9529C31.5346 74.8451 31.7731 74.7913 32.0386 74.7913C32.3079 74.7913 32.5407 74.8451 32.7369 74.9529C32.937 75.0606 33.089 75.2087 33.1929 75.3973C33.3006 75.5819 33.3544 75.7878 33.3544 76.0148C33.3544 76.2379 33.3064 76.4495 33.2102 76.6496C33.1178 76.8458 32.9909 77.0344 32.8293 77.2152C32.6677 77.396 32.4484 77.6153 32.1714 77.8731L31.6058 78.4041H33.4122ZM34.6853 79.0043C34.5622 79.0043 34.4545 78.9581 34.3622 78.8658C34.2698 78.7734 34.2236 78.6657 34.2236 78.5426C34.2236 78.4195 34.2698 78.3117 34.3622 78.2194C34.4583 78.127 34.5661 78.0809 34.6853 78.0809C34.8085 78.0809 34.9162 78.127 35.0085 78.2194C35.1009 78.3117 35.147 78.4195 35.147 78.5426C35.147 78.6657 35.1009 78.7734 35.0085 78.8658C34.9162 78.9581 34.8085 79.0043 34.6853 79.0043ZM37.3309 79.0331C37.0347 79.0331 36.773 78.9504 36.546 78.785C36.319 78.6157 36.142 78.3714 36.0151 78.052C35.892 77.7327 35.8304 77.3537 35.8304 76.9151C35.8304 76.4765 35.892 76.0975 36.0151 75.7782C36.142 75.4588 36.319 75.2164 36.546 75.051C36.773 74.8817 37.0347 74.797 37.3309 74.797C37.6272 74.797 37.8888 74.8817 38.1158 75.051C38.3428 75.2164 38.5179 75.4588 38.641 75.7782C38.7679 76.0975 38.8314 76.4765 38.8314 76.9151C38.8314 77.3537 38.7679 77.7327 38.641 78.052C38.5179 78.3714 38.3428 78.6157 38.1158 78.785C37.8888 78.9504 37.6272 79.0331 37.3309 79.0331ZM37.3309 78.456C37.5002 78.456 37.6503 78.3964 37.7811 78.2771C37.9119 78.154 38.0138 77.977 38.0869 77.7461C38.16 77.5114 38.1966 77.2344 38.1966 76.9151C38.1966 76.5919 38.16 76.3149 38.0869 76.084C38.0138 75.8493 37.9119 75.6723 37.7811 75.5531C37.6503 75.4338 37.5002 75.3742 37.3309 75.3742C37.1616 75.3742 37.0116 75.4338 36.8808 75.5531C36.7499 75.6723 36.648 75.8493 36.5749 76.084C36.5018 76.3149 36.4652 76.5919 36.4652 76.9151C36.4652 77.2344 36.5018 77.5114 36.5749 77.7461C36.648 77.977 36.7499 78.154 36.8808 78.2771C37.0116 78.3964 37.1616 78.456 37.3309 78.456ZM42.8833 78.9639L41.8445 77.5326L41.4693 77.8904V78.9639H40.846V74.8663H41.4693V77.2036L42.7101 75.9801H43.4662L42.2831 77.1171L43.622 78.9639H42.8833ZM44.1671 74.8663H44.825V76.5515H46.6718V74.8663H47.3297V78.9639H46.6718V77.1517H44.825V78.9639H44.1671V74.8663ZM50.5473 75.9801V76.4361L48.8852 78.4675H50.5473V78.9639H48.106V78.5022L49.7682 76.4765H48.1522V75.9801H50.5473ZM29.4207 85.3295C29.617 85.4411 29.7709 85.5892 29.8824 85.7739C29.994 85.9586 30.0498 86.1625 30.0498 86.3857C30.0498 86.6319 29.9882 86.855 29.8651 87.0551C29.742 87.2552 29.5689 87.4129 29.3457 87.5283C29.1264 87.6438 28.8725 87.7015 28.5839 87.7015C28.2953 87.7015 28.0395 87.6438 27.8163 87.5283C27.597 87.4129 27.4258 87.2552 27.3027 87.0551C27.1796 86.855 27.118 86.6319 27.118 86.3857C27.118 86.1625 27.1738 85.9586 27.2854 85.7739C27.397 85.5892 27.5509 85.4411 27.7471 85.3295C27.6201 85.2372 27.522 85.1237 27.4527 84.989C27.3873 84.8544 27.3546 84.7024 27.3546 84.5331C27.3546 84.3253 27.4085 84.1387 27.5162 83.9733C27.624 83.8078 27.7702 83.6809 27.9548 83.5924C28.1434 83.5 28.3531 83.4539 28.5839 83.4539C28.8148 83.4539 29.0225 83.5 29.2072 83.5924C29.3957 83.6809 29.5439 83.8078 29.6516 83.9733C29.7593 84.1387 29.8132 84.3253 29.8132 84.5331C29.8132 84.7024 29.7785 84.8544 29.7093 84.989C29.6439 85.1237 29.5477 85.2372 29.4207 85.3295ZM28.5839 84.0137C28.4031 84.0137 28.2569 84.0656 28.1453 84.1695C28.0337 84.2734 27.9779 84.3984 27.9779 84.5446C27.9779 84.6985 28.0337 84.8293 28.1453 84.9371C28.2569 85.0448 28.4031 85.0987 28.5839 85.0987C28.7647 85.0987 28.9109 85.0448 29.0225 84.9371C29.1341 84.8293 29.1899 84.7005 29.1899 84.5504C29.1899 84.4004 29.1341 84.2734 29.0225 84.1695C28.9109 84.0656 28.7647 84.0137 28.5839 84.0137ZM28.5839 87.1301C28.8224 87.1301 29.0187 87.059 29.1726 86.9166C29.3303 86.7704 29.4092 86.5896 29.4092 86.3741C29.4092 86.1586 29.3303 85.9797 29.1726 85.8374C29.0187 85.6912 28.8224 85.6181 28.5839 85.6181C28.3454 85.6181 28.1472 85.6912 27.9895 85.8374C27.8356 85.9797 27.7586 86.1586 27.7586 86.3741C27.7586 86.5896 27.8356 86.7704 27.9895 86.9166C28.1472 87.059 28.3454 87.1301 28.5839 87.1301ZM32.0444 87.6899C31.7481 87.6899 31.4865 87.6072 31.2595 87.4418C31.0325 87.2725 30.8555 87.0282 30.7285 86.7088C30.6054 86.3895 30.5439 86.0105 30.5439 85.5719C30.5439 85.1333 30.6054 84.7543 30.7285 84.435C30.8555 84.1156 31.0325 83.8733 31.2595 83.7078C31.4865 83.5385 31.7481 83.4539 32.0444 83.4539C32.3406 83.4539 32.6023 83.5385 32.8293 83.7078C33.0563 83.8733 33.2313 84.1156 33.3544 84.435C33.4814 84.7543 33.5449 85.1333 33.5449 85.5719C33.5449 86.0105 33.4814 86.3895 33.3544 86.7088C33.2313 87.0282 33.0563 87.2725 32.8293 87.4418C32.6023 87.6072 32.3406 87.6899 32.0444 87.6899ZM32.0444 87.1128C32.2137 87.1128 32.3637 87.0532 32.4945 86.9339C32.6254 86.8108 32.7273 86.6338 32.8004 86.403C32.8735 86.1683 32.9101 85.8912 32.9101 85.5719C32.9101 85.2487 32.8735 84.9717 32.8004 84.7409C32.7273 84.5062 32.6254 84.3292 32.4945 84.2099C32.3637 84.0906 32.2137 84.031 32.0444 84.031C31.8751 84.031 31.725 84.0906 31.5942 84.2099C31.4634 84.3292 31.3615 84.5062 31.2884 84.7409C31.2153 84.9717 31.1787 85.2487 31.1787 85.5719C31.1787 85.8912 31.2153 86.1683 31.2884 86.403C31.3615 86.6338 31.4634 86.8108 31.5942 86.9339C31.725 87.0532 31.8751 87.1128 32.0444 87.1128ZM34.6853 87.6611C34.5622 87.6611 34.4545 87.6149 34.3622 87.5226C34.2698 87.4302 34.2236 87.3225 34.2236 87.1994C34.2236 87.0763 34.2698 86.9685 34.3622 86.8762C34.4583 86.7839 34.5661 86.7377 34.6853 86.7377C34.8085 86.7377 34.9162 86.7839 35.0085 86.8762C35.1009 86.9685 35.147 87.0763 35.147 87.1994C35.147 87.3225 35.1009 87.4302 35.0085 87.5226C34.9162 87.6149 34.8085 87.6611 34.6853 87.6611ZM37.3309 87.6899C37.0347 87.6899 36.773 87.6072 36.546 87.4418C36.319 87.2725 36.142 87.0282 36.0151 86.7088C35.892 86.3895 35.8304 86.0105 35.8304 85.5719C35.8304 85.1333 35.892 84.7543 36.0151 84.435C36.142 84.1156 36.319 83.8733 36.546 83.7078C36.773 83.5385 37.0347 83.4539 37.3309 83.4539C37.6272 83.4539 37.8888 83.5385 38.1158 83.7078C38.3428 83.8733 38.5179 84.1156 38.641 84.435C38.7679 84.7543 38.8314 85.1333 38.8314 85.5719C38.8314 86.0105 38.7679 86.3895 38.641 86.7088C38.5179 87.0282 38.3428 87.2725 38.1158 87.4418C37.8888 87.6072 37.6272 87.6899 37.3309 87.6899ZM37.3309 87.1128C37.5002 87.1128 37.6503 87.0532 37.7811 86.9339C37.9119 86.8108 38.0138 86.6338 38.0869 86.403C38.16 86.1683 38.1966 85.8912 38.1966 85.5719C38.1966 85.2487 38.16 84.9717 38.0869 84.7409C38.0138 84.5062 37.9119 84.3292 37.7811 84.2099C37.6503 84.0906 37.5002 84.031 37.3309 84.031C37.1616 84.031 37.0116 84.0906 36.8808 84.2099C36.7499 84.3292 36.648 84.5062 36.5749 84.7409C36.5018 84.9717 36.4652 85.2487 36.4652 85.5719C36.4652 85.8912 36.5018 86.1683 36.5749 86.403C36.648 86.6338 36.7499 86.8108 36.8808 86.9339C37.0116 87.0532 37.1616 87.1128 37.3309 87.1128ZM40.9095 83.5231H41.5674V85.2083H43.4142V83.5231H44.0721V87.6207H43.4142V85.8085H41.5674V87.6207H40.9095V83.5231ZM47.2897 84.637V85.0929L45.6276 87.1244H47.2897V87.6207H44.8485V87.159L46.5106 85.1333H44.8946V84.637H47.2897Z" stroke="#FF3131" stroke-width="0.417897"/>
</svg>
