<svg width="1168" height="615" viewBox="0 0 1168 615" fill="none" xmlns="http://www.w3.org/2000/svg">
<path id="SurfaceBackground" fill-rule="evenodd" clip-rule="evenodd" d="M220.464 0.660736C219.373 0.660736 218.489 1.5448 218.489 2.63532V342.616C218.489 343.706 219.373 344.59 220.463 344.59H613.402V350.633H3.31966C2.22914 350.633 1.34509 351.517 1.34509 352.608V500.076C1.34509 501.166 2.22918 502.05 3.3197 502.05H1164.31C1165.4 502.05 1166.28 501.166 1166.28 500.076V352.608C1166.28 351.517 1165.4 350.633 1164.31 350.633H933.93V344.59H1165.14C1166.23 344.59 1167.12 343.706 1167.12 342.616V2.6353C1167.12 1.54478 1166.23 0.660736 1165.14 0.660736H220.464ZM213.474 14.0335H1.18231V343.337C1.18231 344.491 2.11781 345.426 3.2718 345.426H211.385C212.539 345.426 213.474 344.491 213.474 343.337V14.0335ZM2.73897 505.899C1.64845 505.899 0.764404 506.783 0.764404 507.873V612.995C0.764404 614.086 1.64846 614.97 2.73898 614.97H1165.14C1166.23 614.97 1167.12 614.086 1167.12 612.995V507.873C1167.12 506.783 1166.23 505.899 1165.14 505.899H2.73897ZM934.765 19.4661H613.402V7.34711C613.402 4.34673 615.834 1.91444 618.835 1.91444H929.333C932.333 1.91444 934.765 4.34673 934.765 7.34711V19.4661Z" fill="#DDD0C2"/>
</svg>
