<svg width="59" height="17" viewBox="0 0 59 17" fill="none" xmlns="http://www.w3.org/2000/svg">
<path id="TextDisabled" fill-rule="evenodd" clip-rule="evenodd" d="M2.5734 0.566946C2.28501 0.398404 1.95916 0.314133 1.59586 0.314133H0.320557V4.30296H1.59586C1.95916 4.30296 2.28501 4.21869 2.5734 4.05015C2.86554 3.88161 3.09214 3.64752 3.25319 3.34789C3.41799 3.04452 3.50039 2.69807 3.50039 2.30855C3.50039 1.91903 3.41799 1.57445 3.25319 1.27482C3.09214 0.971447 2.86554 0.735488 2.5734 0.566946ZM2.24194 3.53891C2.05092 3.65876 1.83556 3.71868 1.59586 3.71868H0.961017V0.898412H1.59586C1.83556 0.898412 2.05092 0.958338 2.24194 1.07819C2.4367 1.19804 2.58838 1.36658 2.697 1.58382C2.80562 1.7973 2.85993 2.03888 2.85993 2.30855C2.85993 2.57822 2.80562 2.82167 2.697 3.0389C2.58838 3.25238 2.4367 3.41905 2.24194 3.53891ZM6.26505 1.61191C6.03658 1.41715 5.73133 1.31977 5.3493 1.31977C5.0684 1.31977 4.81558 1.38531 4.59086 1.5164C4.36988 1.64374 4.21071 1.82914 4.11333 2.07259L4.65828 2.2636C4.7182 2.14001 4.80435 2.03888 4.91671 1.96023C5.03282 1.87783 5.17514 1.83663 5.34368 1.83663C5.56841 1.83663 5.73695 1.89468 5.84931 2.01079C5.96167 2.1269 6.01785 2.29169 6.01785 2.50518V2.58945H5.27627C4.91296 2.58945 4.62644 2.6681 4.4167 2.82541C4.20696 2.97897 4.10209 3.19433 4.10209 3.47149C4.10209 3.64378 4.14516 3.79921 4.2313 3.93779C4.31745 4.07262 4.44105 4.18124 4.6021 4.26364C4.76689 4.34229 4.95978 4.38162 5.18076 4.38162C5.3905 4.38162 5.56841 4.34042 5.71448 4.25802C5.86055 4.17562 5.97103 4.06513 6.04594 3.92655V4.30296H6.60775V2.46585C6.60775 2.09132 6.49352 1.80667 6.26505 1.61191ZM5.80998 3.71868C5.67515 3.82355 5.50473 3.87599 5.29874 3.87599C5.10398 3.87599 4.95416 3.83854 4.84929 3.76363C4.74442 3.68498 4.69199 3.58385 4.69199 3.46025C4.69199 3.33291 4.74442 3.23178 4.84929 3.15688C4.95791 3.07822 5.11896 3.0389 5.33245 3.0389H6.01785V3.21868C6.01785 3.4434 5.94856 3.61007 5.80998 3.71868ZM9.22059 1.4546C9.09325 1.39093 8.94905 1.35909 8.788 1.35909C8.46215 1.35909 8.2187 1.48831 8.05765 1.74674V1.39842H7.47337V4.30296H8.08012V2.71305C8.08012 2.44338 8.13256 2.24488 8.23743 2.11753C8.34605 1.99019 8.49024 1.92652 8.67002 1.92652C8.87227 1.92652 9.04081 2.00517 9.17565 2.16248L9.55206 1.72427C9.46217 1.60816 9.35168 1.51827 9.22059 1.4546ZM10.991 2.90968L12.0022 4.30296H12.7214L11.418 2.50518L12.5697 1.39842H11.8337L10.6258 2.58945V0.314133H10.0191V4.30296H10.6258V3.258L10.991 2.90968ZM3.46668 12.8108H2.85993V15.676L0.966635 12.8108H0.320557V16.7997H0.927308V13.7715L2.92734 16.7997H3.46668V12.8108ZM6.47928 16.6704C6.69277 16.5356 6.86131 16.3558 6.98491 16.1311L6.4849 15.8895C6.39875 16.0319 6.29388 16.1423 6.17029 16.221C6.04669 16.2959 5.89687 16.3334 5.72084 16.3334C5.48114 16.3334 5.28076 16.2603 5.11971 16.1143C4.95865 15.9682 4.86315 15.7622 4.83318 15.4963H6.95682C6.9718 15.3839 6.97929 15.2734 6.97929 15.1648C6.97929 14.8989 6.92685 14.6648 6.82198 14.4625C6.71711 14.2565 6.56355 14.0974 6.3613 13.985C6.15905 13.8726 5.91935 13.8165 5.64219 13.8165C5.37252 13.8165 5.12907 13.882 4.91184 14.0131C4.69835 14.1442 4.52981 14.3258 4.40621 14.558C4.28636 14.7903 4.22643 15.0524 4.22643 15.3446C4.22643 15.6405 4.28823 15.9045 4.41183 16.1367C4.53543 16.3689 4.70771 16.5506 4.92869 16.6817C5.15341 16.809 5.40997 16.8727 5.69837 16.8727C6.00923 16.8727 6.26954 16.8053 6.47928 16.6704ZM5.10847 14.5243C5.2433 14.3932 5.42121 14.3277 5.64219 14.3277C5.86691 14.3277 6.04294 14.3876 6.17029 14.5075C6.30137 14.6273 6.37441 14.8071 6.38939 15.0468H4.84442C4.88562 14.8296 4.97364 14.6554 5.10847 14.5243ZM10.2767 16.7997V13.8951H9.66999V15.5524C9.66999 15.7996 9.60819 15.9888 9.4846 16.1199C9.36474 16.2472 9.19995 16.3109 8.99021 16.3109C8.77297 16.3109 8.60256 16.2491 8.47896 16.1255C8.35536 15.9981 8.29357 15.8127 8.29357 15.5693V13.8951H7.68681V15.6367C7.68681 16.0262 7.79168 16.3296 8.00143 16.5468C8.21491 16.7641 8.50518 16.8727 8.87223 16.8727C9.25051 16.8727 9.52767 16.7416 9.7037 16.4794V16.7997H10.2767ZM12.4184 16.8727C12.7143 16.8727 12.9615 16.7978 13.16 16.648L12.9465 16.1929C12.8641 16.2416 12.7873 16.2772 12.7162 16.2996C12.645 16.3221 12.5645 16.3334 12.4746 16.3334C12.3023 16.3334 12.1825 16.2865 12.115 16.1929C12.0476 16.0993 12.0139 15.9719 12.0139 15.8109V14.3783H12.9521V13.8951H12.0139V13.0018H11.4072V13.8951H10.851V14.3783H11.4072V15.9176C11.4072 16.236 11.4989 16.4757 11.6824 16.6367C11.8697 16.794 12.115 16.8727 12.4184 16.8727ZM15.4422 13.9513C15.3148 13.8876 15.1706 13.8558 15.0096 13.8558C14.6837 13.8558 14.4403 13.985 14.2792 14.2434V13.8951H13.6949V16.7997H14.3017V15.2097C14.3017 14.9401 14.3541 14.7416 14.459 14.6142C14.5676 14.4869 14.7118 14.4232 14.8916 14.4232C15.0938 14.4232 15.2624 14.5019 15.3972 14.6592L15.7736 14.221C15.6837 14.1049 15.5733 14.015 15.4422 13.9513ZM18.2857 14.1086C18.0573 13.9138 17.752 13.8165 17.37 13.8165C17.0891 13.8165 16.8363 13.882 16.6116 14.0131C16.3906 14.1404 16.2314 14.3258 16.134 14.5693L16.679 14.7603C16.7389 14.6367 16.825 14.5356 16.9374 14.4569C17.0535 14.3745 17.1958 14.3333 17.3644 14.3333C17.5891 14.3333 17.7576 14.3914 17.87 14.5075C17.9824 14.6236 18.0386 14.7884 18.0386 15.0019V15.0861H17.297C16.9337 15.0861 16.6471 15.1648 16.4374 15.3221C16.2277 15.4757 16.1228 15.691 16.1228 15.9682C16.1228 16.1405 16.1659 16.2959 16.252 16.4345C16.3381 16.5693 16.4617 16.6779 16.6228 16.7603C16.7876 16.839 16.9805 16.8783 17.2015 16.8783C17.4112 16.8783 17.5891 16.8371 17.7352 16.7547C17.8812 16.6723 17.9917 16.5618 18.0666 16.4232V16.7997H18.6284V14.9625C18.6284 14.588 18.5142 14.3034 18.2857 14.1086ZM17.8307 16.2154C17.6958 16.3202 17.5254 16.3727 17.3194 16.3727C17.1247 16.3727 16.9749 16.3352 16.87 16.2603C16.7651 16.1817 16.7127 16.0805 16.7127 15.9569C16.7127 15.8296 16.7651 15.7285 16.87 15.6536C16.9786 15.5749 17.1397 15.5356 17.3531 15.5356H18.0386V15.7154C18.0386 15.9401 17.9693 16.1068 17.8307 16.2154ZM20.1289 12.8108H19.5222V16.7997H20.1289V12.8108ZM55.0358 1.56956L56.7073 4.28589L58.3789 1.56956H55.0358ZM56.7073 16.4049L55.0358 13.6886H58.3789L56.7073 16.4049Z" fill="#FF0000"/>
</svg>
