<svg width="224" height="7" viewBox="0 0 224 7" fill="none" xmlns="http://www.w3.org/2000/svg">
<path id="TransportOffForeground" fill-rule="evenodd" clip-rule="evenodd" d="M18.3221 4.14565H19.2191V4.67032H16.6635V4.14565H17.6959V1.40947L16.9286 1.95106L16.6014 1.52794L17.7918 0.664772H18.3221V4.14565ZM22.5906 4.12308V4.67032H19.9391V4.19642L21.0617 3.12452C21.3476 2.84996 21.5601 2.61113 21.6992 2.40803C21.8422 2.20493 21.9136 2.00183 21.9136 1.79874C21.9136 1.60692 21.8516 1.45272 21.7275 1.33612C21.6033 1.21953 21.4379 1.16123 21.231 1.16123C20.7834 1.16123 20.5089 1.44143 20.4073 2.00183L19.8206 1.87772C19.8469 1.62197 19.9221 1.3963 20.0463 1.20073C20.1741 1.00515 20.3415 0.854706 20.5484 0.749396C20.7552 0.644086 20.9884 0.591431 21.2479 0.591431C21.5112 0.591431 21.7387 0.644086 21.9306 0.749396C22.1261 0.854706 22.2747 0.999508 22.3762 1.1838C22.4816 1.36433 22.5342 1.56555 22.5342 1.78745C22.5342 2.0056 22.4872 2.21246 22.3932 2.40803C22.3029 2.59985 22.1788 2.78414 22.0208 2.96091C21.8629 3.13768 21.6485 3.35206 21.3777 3.60405L20.8248 4.12308H22.5906ZM24.6363 4.73802C24.3467 4.73802 24.091 4.65716 23.8691 4.49543C23.6472 4.32994 23.4742 4.09111 23.35 3.77894C23.2297 3.46677 23.1695 3.09631 23.1695 2.66755C23.1695 2.23878 23.2297 1.86832 23.35 1.55615C23.4742 1.24398 23.6472 1.00703 23.8691 0.845303C24.091 0.679816 24.3467 0.597072 24.6363 0.597072C24.9259 0.597072 25.1817 0.679816 25.4036 0.845303C25.6255 1.00703 25.7966 1.24398 25.917 1.55615C26.0411 1.86832 26.1031 2.23878 26.1031 2.66755C26.1031 3.09631 26.0411 3.46677 25.917 3.77894C25.7966 4.09111 25.6255 4.32994 25.4036 4.49543C25.1817 4.65716 24.9259 4.73802 24.6363 4.73802ZM24.6363 4.17386C24.8018 4.17386 24.9485 4.11556 25.0764 3.99897C25.2042 3.87861 25.3039 3.7056 25.3754 3.47994C25.4468 3.25051 25.4826 2.97971 25.4826 2.66755C25.4826 2.35161 25.4468 2.08082 25.3754 1.85515C25.3039 1.62573 25.2042 1.45272 25.0764 1.33612C24.9485 1.21953 24.8018 1.16123 24.6363 1.16123C24.4708 1.16123 24.3242 1.21953 24.1963 1.33612C24.0684 1.45272 23.9687 1.62573 23.8973 1.85515C23.8258 2.08082 23.7901 2.35161 23.7901 2.66755C23.7901 2.97971 23.8258 3.25051 23.8973 3.47994C23.9687 3.7056 24.0684 3.87861 24.1963 3.99897C24.3242 4.11556 24.4708 4.17386 24.6363 4.17386ZM27.218 4.70981C27.0976 4.70981 26.9923 4.66468 26.9021 4.57441C26.8118 4.48415 26.7667 4.37884 26.7667 4.25848C26.7667 4.13813 26.8118 4.03282 26.9021 3.94255C26.9961 3.85228 27.1014 3.80715 27.218 3.80715C27.3383 3.80715 27.4436 3.85228 27.5339 3.94255C27.6242 4.03282 27.6693 4.13813 27.6693 4.25848C27.6693 4.37884 27.6242 4.48415 27.5339 4.57441C27.4436 4.66468 27.3383 4.70981 27.218 4.70981ZM29.8041 4.73802C29.5145 4.73802 29.2588 4.65716 29.0369 4.49543C28.815 4.32994 28.642 4.09111 28.5178 3.77894C28.3975 3.46677 28.3373 3.09631 28.3373 2.66755C28.3373 2.23878 28.3975 1.86832 28.5178 1.55615C28.642 1.24398 28.815 1.00703 29.0369 0.845303C29.2588 0.679816 29.5145 0.597072 29.8041 0.597072C30.0937 0.597072 30.3495 0.679816 30.5714 0.845303C30.7933 1.00703 30.9644 1.24398 31.0848 1.55615C31.2089 1.86832 31.271 2.23878 31.271 2.66755C31.271 3.09631 31.2089 3.46677 31.0848 3.77894C30.9644 4.09111 30.7933 4.32994 30.5714 4.49543C30.3495 4.65716 30.0937 4.73802 29.8041 4.73802ZM29.8041 4.17386C29.9696 4.17386 30.1163 4.11556 30.2442 3.99897C30.3721 3.87861 30.4717 3.7056 30.5432 3.47994C30.6146 3.25051 30.6504 2.97971 30.6504 2.66755C30.6504 2.35161 30.6146 2.08082 30.5432 1.85515C30.4717 1.62573 30.3721 1.45272 30.2442 1.33612C30.1163 1.21953 29.9696 1.16123 29.8041 1.16123C29.6386 1.16123 29.492 1.21953 29.3641 1.33612C29.2362 1.45272 29.1365 1.62573 29.0651 1.85515C28.9936 2.08082 28.9579 2.35161 28.9579 2.66755C28.9579 2.97971 28.9936 3.25051 29.0651 3.47994C29.1365 3.7056 29.2362 3.87861 29.3641 3.99897C29.492 4.11556 29.6386 4.17386 29.8041 4.17386ZM33.1869 4.73802C32.8973 4.73802 32.6415 4.65716 32.4196 4.49543C32.1977 4.32994 32.0247 4.09111 31.9006 3.77894C31.7803 3.46677 31.7201 3.09631 31.7201 2.66755C31.7201 2.23878 31.7803 1.86832 31.9006 1.55615C32.0247 1.24398 32.1977 1.00703 32.4196 0.845303C32.6415 0.679816 32.8973 0.597072 33.1869 0.597072C33.4765 0.597072 33.7323 0.679816 33.9542 0.845303C34.1761 1.00703 34.3472 1.24398 34.4675 1.55615C34.5917 1.86832 34.6537 2.23878 34.6537 2.66755C34.6537 3.09631 34.5917 3.46677 34.4675 3.77894C34.3472 4.09111 34.1761 4.32994 33.9542 4.49543C33.7323 4.65716 33.4765 4.73802 33.1869 4.73802ZM33.1869 4.17386C33.3524 4.17386 33.4991 4.11556 33.6269 3.99897C33.7548 3.87861 33.8545 3.7056 33.926 3.47994C33.9974 3.25051 34.0331 2.97971 34.0331 2.66755C34.0331 2.35161 33.9974 2.08082 33.926 1.85515C33.8545 1.62573 33.7548 1.45272 33.6269 1.33612C33.4991 1.21953 33.3524 1.16123 33.1869 1.16123C33.0214 1.16123 32.8747 1.21953 32.7469 1.33612C32.619 1.45272 32.5193 1.62573 32.4478 1.85515C32.3764 2.08082 32.3407 2.35161 32.3407 2.66755C32.3407 2.97971 32.3764 3.25051 32.4478 3.47994C32.5193 3.7056 32.619 3.87861 32.7469 3.99897C32.8747 4.11556 33.0214 4.17386 33.1869 4.17386ZM67.3027 3.65921H67.8838V4.17824H67.3027V5.10911H66.6878V4.17824H64.8768V3.71563L66.5411 1.10356H67.3027V3.65921ZM65.5369 3.65921H66.6878V1.83697L65.5369 3.65921ZM73.881 0.93431H74.4902L72.6849 5.39119H72.0756L73.881 0.93431ZM79.8476 3.65921H80.4287V4.17824H79.8476V5.10911H79.2327V4.17824H77.4217V3.71563L79.086 1.10356H79.8476V3.65921ZM78.0818 3.65921H79.2327V1.83697L78.0818 3.65921ZM0.19458 1.2515H1.3906V4.67032H2.03375V1.2515H3.24669V0.664772H0.19458V1.2515ZM5.51524 1.96798C5.28582 1.77241 4.97929 1.67462 4.59566 1.67462C4.31358 1.67462 4.0597 1.74044 3.83404 1.87208C3.61214 1.99995 3.45229 2.18613 3.3545 2.4306L3.90174 2.62241C3.96192 2.4983 4.04842 2.39675 4.16125 2.31777C4.27785 2.23502 4.42077 2.19365 4.59002 2.19365C4.81568 2.19365 4.98493 2.25195 5.09776 2.36854C5.21059 2.48513 5.26701 2.65062 5.26701 2.865V2.94963H4.52232C4.15749 2.94963 3.86977 3.02861 3.65915 3.18657C3.44853 3.34078 3.34322 3.55704 3.34322 3.83536C3.34322 4.00837 3.38647 4.16445 3.47298 4.30361C3.55948 4.43901 3.6836 4.54808 3.84532 4.63083C4.01081 4.70981 4.20451 4.7493 4.42641 4.7493C4.63703 4.7493 4.81568 4.70793 4.96236 4.62519C5.10904 4.54244 5.22 4.43149 5.29522 4.29233V4.67032H5.85938V2.82551C5.85938 2.4494 5.74467 2.16356 5.51524 1.96798ZM5.05827 4.08359C4.92287 4.1889 4.75174 4.24156 4.54488 4.24156C4.34931 4.24156 4.19886 4.20395 4.09355 4.12872C3.98824 4.04974 3.93559 3.94819 3.93559 3.82408C3.93559 3.6962 3.98824 3.59465 4.09355 3.51943C4.20262 3.44045 4.36435 3.40096 4.57873 3.40096H5.26701V3.58149C5.26701 3.80715 5.19743 3.97452 5.05827 4.08359ZM8.95707 1.87772C8.75021 1.74608 8.5095 1.68026 8.23494 1.68026C7.87012 1.68026 7.57111 1.80814 7.33792 2.06389V1.7536H6.72863V5.6576H7.33792V4.35439C7.56735 4.6139 7.86635 4.74366 8.23494 4.74366C8.5095 4.74366 8.75021 4.67972 8.95707 4.55184C9.16769 4.42021 9.32941 4.23779 9.44225 4.00461C9.55884 3.77142 9.61714 3.50627 9.61714 3.20914C9.61714 2.91202 9.55884 2.64874 9.44225 2.41931C9.32941 2.18613 9.16769 2.0056 8.95707 1.87772ZM8.60165 4.07231C8.47753 4.15505 8.33461 4.19642 8.17288 4.19642C7.91713 4.19642 7.71027 4.10804 7.5523 3.93127C7.39434 3.75074 7.31536 3.51003 7.31536 3.20914C7.31536 3.02485 7.35109 2.85936 7.42255 2.71268C7.49777 2.56224 7.59932 2.44376 7.72719 2.35726C7.85883 2.27075 8.00739 2.2275 8.17288 2.2275C8.33461 2.2275 8.47753 2.26887 8.60165 2.35161C8.72952 2.43436 8.82919 2.55095 8.90065 2.7014C8.97211 2.84808 9.00784 3.01733 9.00784 3.20914C9.00784 3.40096 8.97211 3.57208 8.90065 3.72253C8.82919 3.87297 8.72952 3.98956 8.60165 4.07231ZM41.5961 0.953828V6.35183H40.7307V0.953828H41.5961ZM42.6595 0.953828V6.35183H42.121V0.953828H42.6595ZM44.4125 6.35183V0.953828H43.874V6.35183H44.4125ZM46.7522 0.953828V6.35183H46.2137V0.953828H46.7522ZM51.3875 6.17867V0.780672H51.926V6.17867H51.3875ZM53.7272 0.780672V6.17867H54.2657V0.780672H53.7272ZM55.4801 6.17867V0.780672H56.0187V6.17867H55.4801ZM56.5435 6.17867V0.780672H57.409V6.17867H56.5435ZM91.5992 5.00146C92.3782 5.00146 93.0096 4.37 93.0096 3.59106C93.0096 2.81211 92.3782 2.18065 91.5992 2.18065C90.8203 2.18065 90.1888 2.81211 90.1888 3.59106C90.1888 4.37 90.8203 5.00146 91.5992 5.00146ZM91.5992 5.56562C92.6897 5.56562 93.5738 4.68158 93.5738 3.59106C93.5738 2.50054 92.6897 1.61649 91.5992 1.61649C90.5087 1.61649 89.6246 2.50054 89.6246 3.59106C89.6246 4.68158 90.5087 5.56562 91.5992 5.56562ZM96.6767 5.56562C97.7672 5.56562 98.6512 4.68158 98.6512 3.59106C98.6512 2.50054 97.7672 1.61649 96.6767 1.61649C95.5861 1.61649 94.7021 2.50054 94.7021 3.59106C94.7021 4.68158 95.5861 5.56562 96.6767 5.56562ZM105.139 4.43723L106.361 2.74475H103.918L105.139 4.43723ZM181.781 2.47313L180.559 4.16562L179.338 2.47313H181.781ZM222.255 4.29102L223.476 2.59854H221.033L222.255 4.29102ZM163.786 2.60577H164.385C164.361 2.42305 164.308 2.26064 164.228 2.11854C164.149 1.97536 164.048 1.85462 163.925 1.75632C163.803 1.65695 163.663 1.58162 163.505 1.53033C163.348 1.47905 163.179 1.4534 162.996 1.4534C162.709 1.4534 162.453 1.52018 162.227 1.65374C162 1.7873 161.821 1.98017 161.69 2.23233C161.558 2.48342 161.492 2.78581 161.492 3.13948C161.492 3.49208 161.558 3.79446 161.688 4.04662C161.818 4.29878 161.997 4.49165 162.223 4.62521C162.45 4.75877 162.707 4.82555 162.996 4.82555C163.191 4.82555 163.369 4.7967 163.53 4.739C163.69 4.68023 163.83 4.59903 163.949 4.49539C164.069 4.39067 164.166 4.26994 164.24 4.13317C164.314 3.9964 164.363 3.85002 164.385 3.69402L163.786 3.69081C163.768 3.78698 163.735 3.87246 163.687 3.94725C163.64 4.02205 163.581 4.08509 163.512 4.13637C163.444 4.18766 163.366 4.22666 163.279 4.25337C163.194 4.27902 163.102 4.29184 163.004 4.29184C162.826 4.29184 162.669 4.24857 162.531 4.16202C162.394 4.0744 162.286 3.94511 162.207 3.77416C162.129 3.60213 162.09 3.39057 162.09 3.13948C162.09 2.89265 162.129 2.68377 162.207 2.51281C162.285 2.34078 162.393 2.21042 162.531 2.12174C162.669 2.03199 162.827 1.98711 163.005 1.98711C163.106 1.98711 163.199 2.001 163.286 2.02878C163.374 2.05549 163.452 2.09556 163.52 2.14899C163.588 2.20241 163.645 2.26759 163.691 2.34452C163.737 2.42038 163.769 2.50746 163.786 2.60577Z" fill="#2B2929"/>
</svg>
