<svg width="969" height="93" viewBox="0 0 969 93" fill="none" xmlns="http://www.w3.org/2000/svg">
<path id="Union" fill-rule="evenodd" clip-rule="evenodd" d="M20.8354 0.79806C20.8722 0.585021 21.1687 0.561285 21.2389 0.765754L27.6577 19.4557C27.7655 19.7694 27.9007 20.0731 28.0618 20.363L31.5957 26.7242C31.8582 27.1965 32.0457 27.7067 32.1517 28.2366L34.6394 40.6754C34.7611 41.2839 35.5983 41.3646 35.834 40.7906L43.1386 22.9973C43.2995 22.6052 43.6813 22.3493 44.1051 22.3493H47.2275C47.9372 22.3493 48.5445 21.8398 48.6679 21.1408L51.9999 2.25916C52.0361 2.05403 52.3173 2.02237 52.3982 2.2143L60.5094 21.4548C60.7379 21.9969 61.2689 22.3493 61.8572 22.3493H66.7546C67.1385 22.3493 67.4916 22.5599 67.674 22.8978L74.0497 34.7117C74.2882 35.1536 74.9236 35.1497 75.1566 34.7048L81.3353 22.9093C81.5156 22.565 81.8721 22.3493 82.2607 22.3493H90.404C90.7709 22.3493 91.111 22.5418 91.2998 22.8565L93.2892 26.1721C93.7613 26.959 94.833 27.1218 95.5175 26.5107L100.138 22.3855C100.215 22.3162 100.285 22.2389 100.346 22.1548L101.364 20.7558C101.59 20.4443 102.042 20.4089 102.314 20.6813L102.509 20.8761C102.783 21.1504 103.155 21.3045 103.543 21.3045H110.817C111.502 21.3045 112.151 20.9995 112.587 20.4725L117.393 14.672C117.751 14.2409 118.282 13.9913 118.841 13.9913H120.956C121.702 13.9913 122.403 13.6285 122.833 13.0184L127.599 6.26753C128.535 4.94022 130.516 4.97749 131.403 6.3391L154.578 41.942C156.346 44.6574 160.345 44.5864 162.016 41.81L183.054 6.83531C186.954 0.351942 196.179 -0.115661 200.715 5.94014L217.154 27.8896C223.452 36.2988 235.377 38.0064 243.782 31.7026L263.967 16.5638C270.553 11.6239 279.265 10.5461 286.857 13.7317L315.369 25.6954C323.442 29.0832 332.427 29.6297 340.852 27.2453L371.282 18.633C379.124 16.4136 387.395 16.181 395.349 17.9562L419.867 23.4279C427.823 25.2036 436.036 25.514 444.104 24.3439L477.961 19.4332C483.733 18.5961 489.59 18.5201 495.382 19.2073L529.482 23.2531C533.791 23.7644 538.14 23.8562 542.467 23.5274L588.204 20.0514L626.427 22.5578L626.434 22.5582L626.441 22.5582L968.281 21.5135L968.28 21.0956L626.447 22.1403L626.44 22.1403L588.216 19.6334L588.202 19.6324L588.187 19.6335L542.435 23.1107C538.135 23.4375 533.814 23.3462 529.531 22.8381L495.431 18.7923C489.603 18.1008 483.709 18.1773 477.901 19.0197L444.044 23.9303C436.027 25.0931 427.864 24.7846 419.958 23.0201L395.44 17.5484C387.418 15.7581 379.077 15.9926 371.168 18.2309L340.738 26.8432C332.405 29.2018 323.517 28.6613 315.53 25.3101L287.019 13.3463C279.29 10.1033 270.421 11.2006 263.716 16.2295L243.531 31.3683C235.311 37.5335 223.648 35.8635 217.489 27.639L201.049 5.68963C196.336 -0.603658 186.749 -0.117718 182.696 6.6199L161.657 41.5946C160.146 44.1066 156.528 44.1708 154.928 41.714L131.753 6.11112C130.705 4.50194 128.364 4.4579 127.257 6.02654L122.492 12.7774C122.139 13.2766 121.567 13.5734 120.956 13.5734H118.841C118.157 13.5734 117.508 13.8784 117.072 14.4054L112.266 20.2059C111.908 20.6371 111.377 20.8866 110.817 20.8866H103.543C103.266 20.8866 103 20.7766 102.804 20.5806L102.61 20.3858C102.156 19.9318 101.403 19.9908 101.026 20.51L100.008 21.909C99.9648 21.9691 99.9148 22.0243 99.8594 22.0738L95.2392 26.1989C94.7503 26.6355 93.9848 26.5192 93.6475 25.9571L91.6582 22.6415C91.3938 22.2009 90.9177 21.9314 90.404 21.9314H82.2607C81.7166 21.9314 81.2175 22.2334 80.9651 22.7153L74.7864 34.5109C74.7087 34.6592 74.497 34.6605 74.4174 34.5132L68.0417 22.6994C67.7864 22.2263 67.2921 21.9314 66.7546 21.9314H61.8572C61.437 21.9314 61.0577 21.6797 60.8945 21.2925L52.7833 2.05196C52.5406 1.47616 51.697 1.57117 51.5884 2.18653L48.2563 21.0682C48.1682 21.5674 47.7344 21.9314 47.2275 21.9314H44.1051C43.5118 21.9314 42.9773 22.2897 42.752 22.8386L35.4474 40.6318C35.3689 40.8232 35.0898 40.7963 35.0492 40.5935L32.5615 28.1546C32.447 27.5824 32.2445 27.0314 31.9611 26.5212L28.4271 20.1601C28.2779 19.8916 28.1527 19.6105 28.0529 19.32L21.6342 0.630015C21.4235 0.0166041 20.534 0.0878178 20.4236 0.72693L16.8668 21.3192C16.8057 21.6729 16.4988 21.9314 16.1398 21.9314C15.6524 21.9314 15.2174 22.2371 15.0524 22.6956L13.669 26.5382C13.6118 26.6973 13.3992 26.726 13.3017 26.5879L11.6143 24.1974C11.3581 23.8344 10.816 23.8459 10.5753 24.2193L5.42947 32.2042C5.32648 32.364 5.08093 32.3144 5.04803 32.1272L2.67643 18.6273C2.58308 18.0959 1.90661 17.9229 1.56956 18.3442L0.47583 19.7114L0.802153 19.9724L1.89588 18.6053C2.00823 18.4648 2.23372 18.5225 2.26484 18.6996L4.63644 32.1995C4.73512 32.7612 5.47179 32.91 5.78074 32.4306L10.9266 24.4457C11.0068 24.3212 11.1875 24.3174 11.2729 24.4384L12.9603 26.8289C13.2528 27.2432 13.8905 27.1569 14.0622 26.6798L15.4456 22.8372C15.5509 22.5444 15.8286 22.3493 16.1398 22.3493C16.7021 22.3493 17.1829 21.9445 17.2786 21.3903L20.8354 0.79806ZM20.8354 49.2742C20.8722 49.0612 21.1687 49.0374 21.2389 49.2419L27.6577 67.9318C27.7655 68.2456 27.9007 68.5492 28.0618 68.8392L31.5957 75.2003C31.8582 75.6727 32.0457 76.1829 32.1517 76.7127L34.6394 89.1516C34.7611 89.7601 35.5983 89.8408 35.834 89.2667L43.1386 71.4734C43.2995 71.0814 43.6813 70.8254 44.1051 70.8254H47.2275C47.9372 70.8254 48.5445 70.3159 48.6679 69.617L51.9999 50.7353C52.0361 50.5302 52.3173 50.4985 52.3982 50.6904L60.5094 69.931C60.7379 70.473 61.2689 70.8254 61.8572 70.8254H66.7546C67.1385 70.8254 67.4916 71.0361 67.674 71.374L74.0497 83.1878C74.2882 83.6298 74.9236 83.6258 75.1566 83.181L81.3353 71.3854C81.5156 71.0411 81.8721 70.8254 82.2607 70.8254H90.404C90.7709 70.8254 91.111 71.018 91.2998 71.3326L93.2892 74.6483C93.7613 75.4352 94.833 75.598 95.5175 74.9868L100.138 70.8617C100.215 70.7924 100.285 70.715 100.346 70.6309L101.364 69.232C101.59 68.9205 102.042 68.885 102.314 69.1574L102.509 69.3523C102.783 69.6266 103.155 69.7807 103.543 69.7807H110.817C111.502 69.7807 112.151 69.4757 112.587 68.9487L117.393 63.1482C117.751 62.717 118.282 62.4675 118.841 62.4675H120.956C121.702 62.4675 122.403 62.1046 122.833 61.4945L127.599 54.7437C128.535 53.4164 130.516 53.4536 131.403 54.8152L154.578 90.4182C156.346 93.1336 160.345 93.0626 162.016 90.2862L183.054 55.3114C186.954 48.8281 196.179 48.3605 200.715 54.4163L217.154 76.3657C223.452 84.775 235.377 86.4825 243.782 80.1788L263.967 65.04C270.553 60.1001 279.265 59.0222 286.857 62.2078L315.369 74.1715C323.442 77.5594 332.427 78.1058 340.852 75.7214L371.282 67.1092C379.124 64.8898 387.395 64.6572 395.349 66.4324L419.867 71.9041C427.823 73.6797 436.036 73.9901 444.104 72.82L477.961 67.9094C483.733 67.0722 489.59 66.9963 495.382 67.6834L529.482 71.7292C533.791 72.2405 538.14 72.3324 542.467 72.0035L588.204 68.5275L626.427 71.0339L626.434 71.0344L626.441 71.0344L968.281 69.9896L968.28 69.5717L626.447 70.6164L626.44 70.6165L588.216 68.1095L588.202 68.1086L588.187 68.1097L542.435 71.5868C538.135 71.9136 533.814 71.8223 529.531 71.3142L495.431 67.2684C489.603 66.577 483.709 66.6534 477.901 67.4958L444.044 72.4064C436.027 73.5692 427.864 73.2608 419.958 71.4962L395.44 66.0245C387.418 64.2342 379.077 64.4688 371.168 66.7071L340.738 75.3193C332.405 77.678 323.517 77.1374 315.53 73.7862L287.019 61.8225C279.29 58.5795 270.421 59.6768 263.716 64.7057L243.531 79.8444C235.311 86.0097 223.648 84.3396 217.489 76.1152L201.049 54.1658C196.336 47.8725 186.749 48.3584 182.696 55.096L161.657 90.0708C160.146 92.5827 156.528 92.647 154.928 90.1902L131.753 54.5873C130.705 52.9781 128.364 52.934 127.257 54.5027L122.492 61.2535C122.139 61.7527 121.567 62.0496 120.956 62.0496H118.841C118.157 62.0496 117.508 62.3546 117.072 62.8816L112.266 68.6821C111.908 69.1132 111.377 69.3628 110.817 69.3628H103.543C103.266 69.3628 103 69.2527 102.804 69.0568L102.61 68.8619C102.156 68.408 101.403 68.467 101.026 68.9862L100.008 70.3851C99.9648 70.4452 99.9148 70.5005 99.8594 70.5499L95.2392 74.6751C94.7503 75.1116 93.9848 74.9953 93.6475 74.4333L91.6582 71.1176C91.3938 70.6771 90.9177 70.4075 90.404 70.4075H82.2607C81.7166 70.4075 81.2175 70.7095 80.9651 71.1915L74.7864 82.9871C74.7087 83.1354 74.497 83.1367 74.4174 82.9894L68.0417 71.1755C67.7864 70.7024 67.2921 70.4075 66.7546 70.4075H61.8572C61.437 70.4075 61.0577 70.1558 60.8945 69.7686L52.7833 50.5281C52.5406 49.9523 51.697 50.0473 51.5884 50.6627L48.2563 69.5443C48.1682 70.0436 47.7344 70.4075 47.2275 70.4075H44.1051C43.5118 70.4075 42.9773 70.7659 42.752 71.3147L35.4474 89.108C35.3689 89.2993 35.0898 89.2724 35.0492 89.0696L32.5615 76.6308C32.447 76.0585 32.2445 75.5075 31.9611 74.9974L28.4271 68.6362C28.2779 68.3677 28.1527 68.0866 28.0529 67.7961L21.6342 49.1062C21.4235 48.4927 20.534 48.564 20.4236 49.2031L16.8668 69.7953C16.8057 70.1491 16.4988 70.4075 16.1398 70.4075C15.6524 70.4075 15.2174 70.7132 15.0524 71.1718L13.669 75.0144C13.6118 75.1734 13.3992 75.2022 13.3017 75.0641L11.6143 72.6736C11.3581 72.3106 10.816 72.322 10.5753 72.6955L5.42947 80.6804C5.32648 80.8402 5.08093 80.7906 5.04803 80.6033L2.67643 67.1035C2.58308 66.5721 1.90661 66.399 1.56956 66.8203L0.47583 68.1875L0.802153 68.4486L1.89588 67.0814C2.00823 66.941 2.23372 66.9986 2.26484 67.1758L4.63644 80.6757C4.73512 81.2374 5.47179 81.3862 5.78074 80.9068L10.9266 72.9219C11.0068 72.7974 11.1875 72.7936 11.2729 72.9146L12.9603 75.3051C13.2528 75.7194 13.8905 75.633 14.0622 75.1559L15.4456 71.3133C15.5509 71.0206 15.8286 70.8254 16.1398 70.8254C16.7021 70.8254 17.1829 70.4206 17.2786 69.8664L20.8354 49.2742Z" fill="black"/>
</svg>
