<svg width="8" height="9" viewBox="0 0 8 9" fill="none" xmlns="http://www.w3.org/2000/svg">
<path id="ViewCheckControlEnabledOn" fill-rule="evenodd" clip-rule="evenodd" d="M3.97977 8.24591C6.02753 8.24591 7.68756 6.58588 7.68756 4.53812C7.68756 2.49036 6.02753 0.830322 3.97977 0.830322C1.93201 0.830322 0.271973 2.49036 0.271973 4.53812C0.271973 6.58588 1.93201 8.24591 3.97977 8.24591ZM1.41281 3.68243C1.41281 3.36739 1.66822 3.112 1.98324 3.112H5.97625C6.29126 3.112 6.54668 3.36739 6.54668 3.68243V5.39372C6.54668 5.70877 6.29126 5.96415 5.97625 5.96415H1.98324C1.66822 5.96415 1.41281 5.70877 1.41281 5.39372V3.68243ZM1.98324 3.68243H5.97625V4.25286H1.98324V3.68243Z" fill="#8FAED8"/>
</svg>
