<svg width="1142" height="583" viewBox="0 0 1142 583" fill="none" xmlns="http://www.w3.org/2000/svg">
<path id="ControlContrastFrame" fill-rule="evenodd" clip-rule="evenodd" d="M1062.87 0.672852H1063.69H1099.78H1100.6V1.49307V10.5155V11.3357H1099.78H1063.69H1062.87V10.5155V1.49307V0.672852ZM1062.87 14.6166H1063.69H1099.78H1100.6V15.4368V24.4592V25.2794H1099.78H1063.69H1062.87V24.4592V15.4368V14.6166ZM1103.89 14.6166H1104.71H1140.8H1141.62V15.4368V24.4592V25.2794H1140.8H1104.71H1103.89V24.4592V15.4368V14.6166ZM1103.89 0.672852H1104.71H1120.29H1121.11V1.49307V10.5155V11.3357H1120.29H1104.71H1103.89V10.5155V1.49307V0.672852ZM1124.39 0.672852H1125.21H1140.8H1141.62V1.49307V10.5155V11.3357H1140.8H1125.21H1124.39V10.5155V1.49307V0.672852ZM1117.01 28.5603H1117.83H1140.8H1141.62V29.3805V38.4029V39.2231H1140.8H1117.83H1117.01V38.4029V29.3805V28.5603ZM1089.94 28.5603H1090.76H1113.73H1114.55V29.3805V38.4029V39.2231H1113.73H1090.76H1089.94V38.4029V29.3805V28.5603ZM1062.87 28.5603H1063.69H1086.66H1087.48V29.3805V38.4029V39.2231H1086.66H1063.69H1062.87V38.4029V29.3805V28.5603ZM1064.51 1.49307H1063.69V2.31329V9.69526V10.5155H1064.51H1098.96H1099.78V9.69526V2.31329V1.49307H1098.96H1064.51ZM1064.51 15.4368H1063.69V16.257V23.639V24.4592H1064.51H1098.96H1099.78V23.639V16.257V15.4368H1098.96H1064.51ZM1139.97 15.4368H1140.8V16.257V23.639V24.4592H1139.97H1105.53H1104.71V23.639V16.257V15.4368H1105.53H1139.97ZM1105.53 1.49307H1104.71V2.31329V9.69526V10.5155H1105.53H1119.47H1120.29V9.69526V2.31329V1.49307H1119.47H1105.53ZM1139.97 1.49307H1140.8V2.31329V9.69526V10.5155H1139.97H1126.03H1125.21V9.69526V2.31329V1.49307H1126.03H1139.97ZM1118.65 29.3805H1117.83V30.2007V37.5827V38.4029H1118.65H1139.97H1140.8V37.5827V30.2007V29.3805H1139.97H1118.65ZM1112.91 29.3805H1113.73V30.2007V37.5827V38.4029H1112.91H1091.58H1090.76V37.5827V30.2007V29.3805H1091.58H1112.91ZM1064.51 29.3805H1063.69V30.2007V37.5827V38.4029H1064.51H1085.84H1086.66V37.5827V30.2007V29.3805H1085.84H1064.51ZM230.762 103.2C227.818 103.2 225.431 105.587 225.431 108.532C225.431 111.476 227.818 113.863 230.762 113.863H256.189C259.133 113.863 261.52 111.476 261.52 108.532C261.52 105.587 259.133 103.2 256.189 103.2H230.762ZM226.251 108.532C226.251 106.04 228.271 104.02 230.762 104.02H256.189C258.68 104.02 260.7 106.04 260.7 108.532C260.7 111.023 258.68 113.043 256.189 113.043H230.762C228.271 113.043 226.251 111.023 226.251 108.532ZM204.105 279.137C204.105 276.193 206.492 273.806 209.436 273.806H258.65C261.594 273.806 263.981 276.193 263.981 279.137C263.981 282.082 261.594 284.469 258.65 284.469H209.436C206.492 284.469 204.105 282.082 204.105 279.137ZM209.436 274.626C206.945 274.626 204.925 276.646 204.925 279.137C204.925 281.629 206.945 283.648 209.436 283.648H258.65C261.141 283.648 263.161 281.629 263.161 279.137C263.161 276.646 261.141 274.626 258.65 274.626H209.436ZM209.436 287.749C206.492 287.749 204.105 290.136 204.105 293.081C204.105 296.025 206.492 298.412 209.436 298.412H258.65C261.594 298.412 263.981 296.025 263.981 293.081C263.981 290.136 261.594 287.749 258.65 287.749H209.436ZM204.925 293.081C204.925 290.589 206.945 288.57 209.436 288.57H258.65C261.141 288.57 263.161 290.589 263.161 293.081C263.161 295.572 261.141 297.592 258.65 297.592H209.436C206.945 297.592 204.925 295.572 204.925 293.081ZM204.105 312.766C204.105 309.822 206.492 307.435 209.436 307.435H258.65C261.594 307.435 263.981 309.822 263.981 312.766C263.981 315.711 261.594 318.098 258.65 318.098H209.436C206.492 318.098 204.105 315.711 204.105 312.766ZM209.436 308.255C206.945 308.255 204.925 310.275 204.925 312.766C204.925 315.258 206.945 317.277 209.436 317.277H258.65C261.141 317.277 263.161 315.258 263.161 312.766C263.161 310.275 261.141 308.255 258.65 308.255H209.436ZM0.690674 318.918H1.10078H123.313H123.724V319.328V329.171V329.581H123.313H1.10078H0.690674V329.171V319.328V318.918ZM1.51089 319.738V328.76H122.903V319.738H1.51089ZM140.948 416.114C140.948 413.169 143.335 410.782 146.279 410.782H195.493C198.437 410.782 200.824 413.169 200.824 416.114C200.824 419.058 198.437 421.445 195.493 421.445H146.279C143.335 421.445 140.948 419.058 140.948 416.114ZM146.279 411.602C143.788 411.602 141.768 413.622 141.768 416.114C141.768 418.605 143.788 420.625 146.279 420.625H195.493C197.984 420.625 200.004 418.605 200.004 416.114C200.004 413.622 197.984 411.602 195.493 411.602H146.279ZM209.436 410.782C206.492 410.782 204.105 413.169 204.105 416.114C204.105 419.058 206.492 421.445 209.436 421.445H258.65C261.594 421.445 263.981 419.058 263.981 416.114C263.981 413.169 261.594 410.782 258.65 410.782H209.436ZM204.925 416.114C204.925 413.622 206.945 411.602 209.436 411.602H258.65C261.141 411.602 263.161 413.622 263.161 416.114C263.161 418.605 261.141 420.625 258.65 420.625H209.436C206.945 420.625 204.925 418.605 204.925 416.114ZM204.105 398.069C204.105 395.124 206.492 392.737 209.436 392.737H258.65C261.594 392.737 263.981 395.124 263.981 398.069C263.981 401.013 261.594 403.4 258.65 403.4H209.436C206.492 403.4 204.105 401.013 204.105 398.069ZM209.436 393.558C206.945 393.558 204.925 395.577 204.925 398.069C204.925 400.56 206.945 402.58 209.436 402.58H258.65C261.141 402.58 263.161 400.56 263.161 398.069C263.161 395.577 261.141 393.558 258.65 393.558H209.436ZM209.436 374.693C206.492 374.693 204.105 377.08 204.105 380.024C204.105 382.969 206.492 385.355 209.436 385.355H258.65C261.594 385.355 263.981 382.969 263.981 380.024C263.981 377.08 261.594 374.693 258.65 374.693H209.436ZM204.925 380.024C204.925 377.533 206.945 375.513 209.436 375.513H258.65C261.141 375.513 263.161 377.533 263.161 380.024C263.161 382.516 261.141 384.535 258.65 384.535H209.436C206.945 384.535 204.925 382.516 204.925 380.024ZM204.105 353.777C204.105 350.833 206.492 348.446 209.436 348.446H258.65C261.594 348.446 263.981 350.833 263.981 353.777C263.981 356.722 261.594 359.108 258.65 359.108H209.436C206.492 359.108 204.105 356.722 204.105 353.777ZM209.436 349.266C206.945 349.266 204.925 351.286 204.925 353.777C204.925 356.269 206.945 358.288 209.436 358.288H258.65C261.141 358.288 263.161 356.269 263.161 353.777C263.161 351.286 261.141 349.266 258.65 349.266H209.436ZM209.436 334.502C206.492 334.502 204.105 336.889 204.105 339.833C204.105 342.778 206.492 345.165 209.436 345.165H258.65C261.594 345.165 263.981 342.778 263.981 339.833C263.981 336.889 261.594 334.502 258.65 334.502H209.436ZM204.925 339.833C204.925 337.342 206.945 335.322 209.436 335.322H258.65C261.141 335.322 263.161 337.342 263.161 339.833C263.161 342.325 261.141 344.345 258.65 344.345H209.436C206.945 344.345 204.925 342.325 204.925 339.833ZM104.858 338.193C104.858 335.248 107.245 332.861 110.19 332.861H118.392C121.337 332.861 123.723 335.248 123.723 338.193C123.723 341.137 121.337 343.524 118.392 343.524H110.19C107.245 343.524 104.858 341.137 104.858 338.193ZM110.19 333.682C107.698 333.682 105.679 335.701 105.679 338.193C105.679 340.684 107.698 342.704 110.19 342.704H118.392C120.884 342.704 122.903 340.684 122.903 338.193C122.903 335.701 120.884 333.682 118.392 333.682H110.19ZM47.4431 332.861C44.4987 332.861 42.1117 335.248 42.1117 338.193C42.1117 341.137 44.4987 343.524 47.4431 343.524H55.2352C58.1797 343.524 60.5666 341.137 60.5666 338.193C60.5666 335.248 58.1797 332.861 55.2352 332.861H47.4431ZM42.9319 338.193C42.9319 335.701 44.9517 333.682 47.4431 333.682H55.2352C57.7267 333.682 59.7464 335.701 59.7464 338.193C59.7464 340.684 57.7267 342.704 55.2352 342.704H47.4431C44.9517 342.704 42.9319 340.684 42.9319 338.193ZM104.858 278.317C104.858 275.372 107.245 272.986 110.19 272.986H118.392C121.337 272.986 123.723 275.372 123.723 278.317C123.723 281.261 121.337 283.648 118.392 283.648H110.19C107.245 283.648 104.858 281.261 104.858 278.317ZM110.19 273.806C107.698 273.806 105.679 275.825 105.679 278.317C105.679 280.808 107.698 282.828 110.19 282.828H118.392C120.884 282.828 122.903 280.808 122.903 278.317C122.903 275.825 120.884 273.806 118.392 273.806H110.19ZM47.4431 272.986C44.4987 272.986 42.1117 275.372 42.1117 278.317C42.1117 281.261 44.4987 283.648 47.4431 283.648H55.2352C58.1797 283.648 60.5666 281.261 60.5666 278.317C60.5666 275.372 58.1797 272.986 55.2352 272.986H47.4431ZM42.9319 278.317C42.9319 275.825 44.9517 273.806 47.4431 273.806H55.2352C57.7267 273.806 59.7464 275.825 59.7464 278.317C59.7464 280.808 57.7267 282.828 55.2352 282.828H47.4431C44.9517 282.828 42.9319 280.808 42.9319 278.317ZM0.690674 306.204C0.690674 303.26 3.07763 300.873 6.0221 300.873H118.392C121.337 300.873 123.724 303.26 123.724 306.204C123.724 309.149 121.337 311.536 118.392 311.536H6.02209C3.07763 311.536 0.690674 309.149 0.690674 306.204ZM6.0221 301.693C3.53063 301.693 1.51089 303.713 1.51089 306.204C1.51089 308.696 3.53062 310.716 6.02209 310.716H118.392C120.884 310.716 122.903 308.696 122.903 306.204C122.903 303.713 120.884 301.693 118.392 301.693H6.0221ZM1063.69 44.9646H1062.87V45.7849V54.8073V55.6275H1063.69H1099.78H1100.6V54.8073V45.7849V44.9646H1099.78H1063.69ZM1063.69 58.9084H1062.87V59.7286V68.751V69.5712H1063.69H1099.78H1100.6V68.751V59.7286V58.9084H1099.78H1063.69ZM1104.71 58.9084H1103.89V59.7286V68.751V69.5712H1104.71H1140.8H1141.62V68.751V59.7286V58.9084H1140.8H1104.71ZM1104.71 44.9646H1103.89V45.7849V54.8073V55.6275H1104.71H1120.29H1121.11V54.8073V45.7849V44.9646H1120.29H1104.71ZM1125.21 44.9646H1124.39V45.7849V54.8073V55.6275H1125.21H1140.8H1141.62V54.8073V45.7849V44.9646H1140.8H1125.21ZM1117.83 72.8521H1117.01V73.6723V82.6947V83.5149H1117.83H1140.8H1141.62V82.6947V73.6723V72.8521H1140.8H1117.83ZM1090.76 72.8521H1089.94V73.6723V82.6947V83.5149H1090.76H1113.73H1114.55V82.6947V73.6723V72.8521H1113.73H1090.76ZM1063.69 72.8521H1062.87V73.6723V82.6947V83.5149H1063.69H1086.66H1087.48V82.6947V73.6723V72.8521H1086.66H1063.69ZM1063.69 45.7849H1064.51H1098.96H1099.78V46.6051V53.9871V54.8073H1098.96H1064.51H1063.69V53.9871V46.6051V45.7849ZM1063.69 59.7286H1064.51H1098.96H1099.78V60.5488V67.9308V68.751H1098.96H1064.51H1063.69V67.9308V60.5488V59.7286ZM1140.8 59.7286H1139.97H1105.53H1104.71V60.5488V67.9308V68.751H1105.53H1139.97H1140.8V67.9308V60.5488V59.7286ZM1104.71 45.7849H1105.53H1119.47H1120.29V46.6051V53.9871V54.8073H1119.47H1105.53H1104.71V53.9871V46.6051V45.7849ZM1140.8 45.7849H1139.97H1126.03H1125.21V46.6051V53.9871V54.8073H1126.03H1139.97H1140.8V53.9871V46.6051V45.7849ZM1117.83 73.6723H1118.65H1139.97H1140.8V74.4925V81.8745V82.6947H1139.97H1118.65H1117.83V81.8745V74.4925V73.6723ZM1113.73 73.6723H1112.91H1091.58H1090.76V74.4925V81.8745V82.6947H1091.58H1112.91H1113.73V81.8745V74.4925V73.6723ZM1063.69 73.6723H1064.51H1085.84H1086.66V74.4925V81.8745V82.6947H1085.84H1064.51H1063.69V81.8745V74.4925V73.6723ZM1062.87 133.548H1063.69H1099.78H1100.6V134.369V143.391V144.211H1099.78H1063.69H1062.87V143.391V134.369V133.548ZM1062.87 147.492H1063.69H1099.78H1100.6V148.312V157.335V158.155H1099.78H1063.69H1062.87V157.335V148.312V147.492ZM1103.89 147.492H1104.71H1140.8H1141.62V148.312V157.335V158.155H1140.8H1104.71H1103.89V157.335V148.312V147.492ZM1103.89 133.548H1104.71H1120.29H1121.11V134.369V143.391V144.211H1120.29H1104.71H1103.89V143.391V134.369V133.548ZM1124.39 133.548H1125.21H1140.8H1141.62V134.369V143.391V144.211H1140.8H1125.21H1124.39V143.391V134.369V133.548ZM1117.01 161.436H1117.83H1140.8H1141.62V162.256V171.278V172.099H1140.8H1117.83H1117.01V171.278V162.256V161.436ZM1089.94 161.436H1090.76H1113.73H1114.55V162.256V171.278V172.099H1113.73H1090.76H1089.94V171.278V162.256V161.436ZM1062.87 161.436H1063.69H1086.66H1087.48V162.256V171.278V172.099H1086.66H1063.69H1062.87V171.278V162.256V161.436ZM1064.51 134.369H1063.69V135.189V142.571V143.391H1064.51H1098.96H1099.78V142.571V135.189V134.369H1098.96H1064.51ZM1064.51 148.312H1063.69V149.132V156.514V157.335H1064.51H1098.96H1099.78V156.514V149.132V148.312H1098.96H1064.51ZM1139.97 148.312H1140.8V149.132V156.514V157.335H1139.97H1105.53H1104.71V156.514V149.132V148.312H1105.53H1139.97ZM1105.53 134.369H1104.71V135.189V142.571V143.391H1105.53H1119.47H1120.29V142.571V135.189V134.369H1119.47H1105.53ZM1139.97 134.369H1140.8V135.189V142.571V143.391H1139.97H1126.03H1125.21V142.571V135.189V134.369H1126.03H1139.97ZM1118.65 162.256H1117.83V163.076V170.458V171.278H1118.65H1139.97H1140.8V170.458V163.076V162.256H1139.97H1118.65ZM1112.91 162.256H1113.73V163.076V170.458V171.278H1112.91H1091.58H1090.76V170.458V163.076V162.256H1091.58H1112.91ZM1064.51 162.256H1063.69V163.076V170.458V171.278H1064.51H1085.84H1086.66V170.458V163.076V162.256H1085.84H1064.51ZM1062.87 177.84H1063.69H1099.78H1100.6V178.66V187.683V188.503H1099.78H1063.69H1062.87V187.683V178.66V177.84ZM1062.87 191.784H1063.69H1099.78H1100.6V192.604V198.346H1099.78V193.424V192.604H1098.96H1064.51H1063.69V193.424V198.346H1062.87V192.604V191.784ZM1141.62 192.604V198.346H1140.79V193.424V192.604H1139.97H1105.53H1104.71V193.424V198.346H1103.89V192.604V191.784H1104.71H1140.79H1141.62V192.604ZM1103.89 177.84H1104.71H1120.29H1121.11V178.66V187.683V188.503H1120.29H1104.71H1103.89V187.683V178.66V177.84ZM1124.39 177.84H1125.21H1140.79H1141.62V178.66V187.683V188.503H1140.79H1125.21H1124.39V187.683V178.66V177.84ZM1064.51 178.66H1063.69V179.481V186.863V187.683H1064.51H1098.96H1099.78V186.863V179.481V178.66H1098.96H1064.51ZM1105.53 178.66H1104.71V179.481V186.863V187.683H1105.53H1119.47H1120.29V186.863V179.481V178.66H1119.47H1105.53ZM1139.97 178.66H1140.79V179.481V186.863V187.683H1139.97H1126.03H1125.21V186.863V179.481V178.66H1126.03H1139.97ZM1063.69 89.2565H1062.87V90.0767V99.0991V99.9193H1063.69H1099.78H1100.6V99.0991V90.0767V89.2565H1099.78H1063.69ZM1104.71 89.2565H1103.89V90.0767V99.0991V99.9193H1104.71H1120.29H1121.11V99.0991V90.0767V89.2565H1120.29H1104.71ZM1125.21 89.2565H1124.39V90.0767V99.0991V99.9193H1125.21H1140.79H1141.62V99.0991V90.0767V89.2565H1140.79H1125.21ZM1063.69 90.0767H1064.51H1098.96H1099.78V90.8969V98.2789V99.0991H1098.96H1064.51H1063.69V98.2789V90.8969V90.0767ZM1104.71 90.0767H1105.53H1119.47H1120.29V90.8969V98.2789V99.0991H1119.47H1105.53H1104.71V98.2789V90.8969V90.0767ZM1140.79 90.0767H1139.97H1126.03H1125.21V90.8969V98.2789V99.0991H1126.03H1139.97H1140.79V98.2789V90.8969V90.0767ZM1063.69 203.267H1099.78V212.289H1063.69V203.267ZM1062.87 213.11V202.447H1100.6V213.11H1062.87ZM1140.79 203.267H1104.71V212.289H1140.79V203.267ZM1103.89 202.447V213.11H1141.62V202.447H1103.89ZM217.639 555.961H217.228V556.371V566.214V566.624H217.639H227.481H227.891V566.214V556.371V555.961H227.481H217.639ZM218.049 565.804V556.781H227.071V565.804H218.049ZM217.639 571.545H217.228V571.955V581.798V582.208H217.639H232.402H232.813V581.798V571.955V571.545H232.402H217.639ZM218.049 581.388V572.365H231.992V581.388H218.049ZM235.273 571.545H235.683H250.447H250.857V571.955V581.798V582.208H250.447H235.683H235.273V581.798V571.955V571.545ZM236.093 572.365V581.388H250.037V572.365H236.093ZM256.189 571.545H255.779V571.955V581.798V582.208H256.189H288.177H288.587V581.798V571.955V571.545H288.177H256.189ZM256.599 581.388V572.365H287.767V581.388H256.599ZM255.779 555.961H256.189H288.177H288.587V556.371V566.214V566.624H288.177H256.189H255.779V566.214V556.371V555.961ZM256.599 556.781V565.804H287.767V556.781H256.599Z" fill="#A09281"/>
</svg>
