<svg width="1138" height="496" viewBox="0 0 1138 496" fill="none" xmlns="http://www.w3.org/2000/svg">
<path id="ControlOffForeground" fill-rule="evenodd" clip-rule="evenodd" d="M519.838 6.72391L509.585 12.8755V0.572266L519.838 6.72391ZM157.907 81.5731H156.168V80.7201H160.605V81.5731H158.842V86.5436H157.907V81.5731ZM164.658 85.5676C164.477 85.8957 164.231 86.1581 163.92 86.355C163.613 86.5518 163.233 86.6503 162.78 86.6503C162.359 86.6503 161.984 86.5573 161.656 86.3714C161.333 86.18 161.082 85.9148 160.901 85.5758C160.721 85.2367 160.631 84.8512 160.631 84.4193C160.631 83.9928 160.718 83.61 160.893 83.271C161.074 82.9319 161.32 82.6667 161.631 82.4753C161.948 82.284 162.304 82.1883 162.698 82.1883C163.102 82.1883 163.452 82.2703 163.747 82.4343C164.043 82.5984 164.267 82.8308 164.42 83.1315C164.573 83.4268 164.65 83.7686 164.65 84.1568C164.65 84.3154 164.639 84.4767 164.617 84.6407H161.516C161.56 85.029 161.7 85.3297 161.935 85.543C162.17 85.7562 162.462 85.8629 162.812 85.8629C163.069 85.8629 163.288 85.8082 163.469 85.6988C163.649 85.584 163.802 85.4227 163.928 85.2149L164.658 85.5676ZM162.698 82.9347C162.375 82.9347 162.115 83.0304 161.918 83.2217C161.722 83.4131 161.593 83.6674 161.533 83.9846H163.788C163.767 83.6346 163.66 83.3721 163.469 83.1971C163.283 83.0222 163.026 82.9347 162.698 82.9347ZM169.259 86.5436H168.25L167.233 85.018L166.199 86.5436H165.207L166.683 84.3536L165.297 82.3031H166.29L167.233 83.6811L168.152 82.3031H169.16L167.791 84.3536L169.259 86.5436ZM172.968 86.3222C172.679 86.5409 172.318 86.6503 171.886 86.6503C171.443 86.6503 171.085 86.5354 170.811 86.3058C170.543 86.0706 170.409 85.7207 170.409 85.2559V83.0085H169.597V82.3031H170.409V80.999H171.295V82.3031H172.665V83.0085H171.295V85.1C171.295 85.3352 171.344 85.5211 171.443 85.6578C171.541 85.7945 171.716 85.8629 171.968 85.8629C172.099 85.8629 172.217 85.8464 172.32 85.8136C172.424 85.7808 172.536 85.7289 172.657 85.6578L172.968 86.3222ZM219.013 81.5731H217.274V80.7201H221.711V81.5731H219.948V86.5436H219.013V81.5731ZM225.764 85.5676C225.584 85.8957 225.338 86.1581 225.026 86.355C224.72 86.5518 224.34 86.6503 223.886 86.6503C223.465 86.6503 223.09 86.5573 222.762 86.3714C222.44 86.18 222.188 85.9148 222.008 85.5758C221.827 85.2367 221.737 84.8512 221.737 84.4193C221.737 83.9928 221.824 83.61 221.999 83.271C222.18 82.9319 222.426 82.6667 222.738 82.4753C223.055 82.284 223.41 82.1883 223.804 82.1883C224.208 82.1883 224.558 82.2703 224.854 82.4343C225.149 82.5984 225.373 82.8308 225.526 83.1315C225.679 83.4268 225.756 83.7686 225.756 84.1568C225.756 84.3154 225.745 84.4767 225.723 84.6407H222.623C222.666 85.029 222.806 85.3297 223.041 85.543C223.276 85.7562 223.569 85.8629 223.919 85.8629C224.176 85.8629 224.394 85.8082 224.575 85.6988C224.755 85.584 224.908 85.4227 225.034 85.2149L225.764 85.5676ZM223.804 82.9347C223.481 82.9347 223.221 83.0304 223.025 83.2217C222.828 83.4131 222.699 83.6674 222.639 83.9846H224.895C224.873 83.6346 224.766 83.3721 224.575 83.1971C224.389 83.0222 224.132 82.9347 223.804 82.9347ZM230.365 86.5436H229.356L228.339 85.018L227.306 86.5436H226.313L227.79 84.3536L226.403 82.3031H227.396L228.339 83.6811L229.258 82.3031H230.267L228.897 84.3536L230.365 86.5436ZM234.075 86.3222C233.785 86.5409 233.424 86.6503 232.992 86.6503C232.549 86.6503 232.191 86.5354 231.918 86.3058C231.65 86.0706 231.516 85.7207 231.516 85.2559V83.0085H230.704V82.3031H231.516V80.999H232.401V82.3031H233.771V83.0085H232.401V85.1C232.401 85.3352 232.451 85.5211 232.549 85.6578C232.648 85.7945 232.823 85.8629 233.074 85.8629C233.205 85.8629 233.323 85.8464 233.427 85.8136C233.531 85.7808 233.643 85.7289 233.763 85.6578L234.075 86.3222ZM139.353 114.382H141.092V119.352H142.027V114.382H143.791V113.529H139.353V114.382ZM147.105 119.164C147.417 118.967 147.663 118.704 147.843 118.376L147.113 118.024C146.988 118.231 146.835 118.393 146.654 118.508C146.474 118.617 146.255 118.672 145.998 118.672C145.648 118.672 145.355 118.565 145.12 118.352C144.885 118.138 144.746 117.838 144.702 117.449H147.802C147.824 117.285 147.835 117.124 147.835 116.966C147.835 116.577 147.759 116.236 147.606 115.94C147.452 115.64 147.228 115.407 146.933 115.243C146.638 115.079 146.288 114.997 145.883 114.997C145.489 114.997 145.134 115.093 144.817 115.284C144.505 115.475 144.259 115.741 144.079 116.08C143.904 116.419 143.816 116.801 143.816 117.228C143.816 117.66 143.906 118.045 144.087 118.385C144.267 118.724 144.519 118.989 144.841 119.18C145.17 119.366 145.544 119.459 145.965 119.459C146.419 119.459 146.799 119.361 147.105 119.164ZM145.104 116.03C145.301 115.839 145.56 115.743 145.883 115.743C146.211 115.743 146.468 115.831 146.654 116.006C146.845 116.181 146.952 116.443 146.974 116.793H144.718C144.779 116.476 144.907 116.222 145.104 116.03ZM151.435 119.352H152.444L150.976 117.162L152.346 115.112H151.337L150.418 116.49L149.475 115.112H148.483L149.869 117.162L148.392 119.352H149.385L150.418 117.827L151.435 119.352ZM155.071 119.459C155.503 119.459 155.864 119.35 156.154 119.131L155.842 118.467C155.722 118.538 155.61 118.59 155.506 118.622C155.402 118.655 155.285 118.672 155.153 118.672C154.902 118.672 154.727 118.603 154.628 118.467C154.53 118.33 154.481 118.144 154.481 117.909V115.817H155.85V115.112H154.481V113.808H153.595V115.112H152.783V115.817H153.595V118.065C153.595 118.529 153.729 118.879 153.997 119.115C154.27 119.344 154.628 119.459 155.071 119.459ZM168.159 114.382H166.42V113.529H170.858V114.382H169.094V119.352H168.159V114.382ZM174.911 118.376C174.73 118.704 174.484 118.967 174.172 119.164C173.866 119.361 173.486 119.459 173.032 119.459C172.611 119.459 172.237 119.366 171.909 119.18C171.586 118.989 171.334 118.724 171.154 118.385C170.974 118.045 170.883 117.66 170.883 117.228C170.883 116.801 170.971 116.419 171.146 116.08C171.326 115.741 171.572 115.475 171.884 115.284C172.201 115.093 172.557 114.997 172.95 114.997C173.355 114.997 173.705 115.079 174 115.243C174.295 115.407 174.52 115.64 174.673 115.94C174.826 116.236 174.902 116.577 174.902 116.966C174.902 117.124 174.891 117.285 174.87 117.449H171.769C171.813 117.838 171.952 118.138 172.187 118.352C172.423 118.565 172.715 118.672 173.065 118.672C173.322 118.672 173.541 118.617 173.721 118.508C173.902 118.393 174.055 118.231 174.181 118.024L174.911 118.376ZM172.95 115.743C172.628 115.743 172.368 115.839 172.171 116.03C171.974 116.222 171.846 116.476 171.786 116.793H174.041C174.019 116.443 173.913 116.181 173.721 116.006C173.535 115.831 173.278 115.743 172.95 115.743ZM179.512 119.352H178.503L177.486 117.827L176.452 119.352H175.46L176.936 117.162L175.55 115.112H176.542L177.486 116.49L178.404 115.112H179.413L178.043 117.162L179.512 119.352ZM183.221 119.131C182.931 119.35 182.57 119.459 182.138 119.459C181.696 119.459 181.337 119.344 181.064 119.115C180.796 118.879 180.662 118.529 180.662 118.065V115.817H179.85V115.112H180.662V113.808H181.548V115.112H182.918V115.817H181.548V117.909C181.548 118.144 181.597 118.33 181.696 118.467C181.794 118.603 181.969 118.672 182.22 118.672C182.352 118.672 182.469 118.655 182.573 118.622C182.677 118.59 182.789 118.538 182.909 118.467L183.221 119.131ZM217.274 114.382H219.013V119.352H219.948V114.382H221.711V113.529H217.274V114.382ZM225.026 119.164C225.338 118.967 225.584 118.704 225.764 118.376L225.034 118.024C224.908 118.231 224.755 118.393 224.575 118.508C224.394 118.617 224.176 118.672 223.919 118.672C223.569 118.672 223.276 118.565 223.041 118.352C222.806 118.138 222.666 117.838 222.623 117.449H225.723C225.745 117.285 225.756 117.124 225.756 116.966C225.756 116.577 225.679 116.236 225.526 115.94C225.373 115.64 225.149 115.407 224.854 115.243C224.558 115.079 224.208 114.997 223.804 114.997C223.41 114.997 223.055 115.093 222.738 115.284C222.426 115.475 222.18 115.741 221.999 116.08C221.824 116.419 221.737 116.801 221.737 117.228C221.737 117.66 221.827 118.045 222.008 118.385C222.188 118.724 222.44 118.989 222.762 119.18C223.09 119.366 223.465 119.459 223.886 119.459C224.34 119.459 224.72 119.361 225.026 119.164ZM223.025 116.03C223.221 115.839 223.481 115.743 223.804 115.743C224.132 115.743 224.389 115.831 224.575 116.006C224.766 116.181 224.873 116.443 224.895 116.793H222.639C222.699 116.476 222.828 116.222 223.025 116.03ZM229.356 119.352H230.365L228.897 117.162L230.267 115.112H229.258L228.339 116.49L227.396 115.112H226.403L227.79 117.162L226.313 119.352H227.306L228.339 117.827L229.356 119.352ZM232.992 119.459C233.424 119.459 233.785 119.35 234.075 119.131L233.763 118.467C233.643 118.538 233.531 118.59 233.427 118.622C233.323 118.655 233.205 118.672 233.074 118.672C232.823 118.672 232.648 118.603 232.549 118.467C232.451 118.33 232.401 118.144 232.401 117.909V115.817H233.771V115.112H232.401V113.808H231.516V115.112H230.704V115.817H231.516V118.065C231.516 118.529 231.65 118.879 231.918 119.115C232.191 119.344 232.549 119.459 232.992 119.459ZM141.502 127.505H139.763V126.652H144.201V127.505H142.437V132.476H141.502V127.505ZM148.254 131.5C148.073 131.828 147.827 132.09 147.515 132.287C147.209 132.484 146.829 132.582 146.375 132.582C145.954 132.582 145.58 132.49 145.252 132.304C144.929 132.112 144.677 131.847 144.497 131.508C144.316 131.169 144.226 130.783 144.226 130.351C144.226 129.925 144.314 129.542 144.489 129.203C144.669 128.864 144.915 128.599 145.227 128.408C145.544 128.216 145.899 128.12 146.293 128.12C146.698 128.12 147.048 128.203 147.343 128.367C147.638 128.531 147.863 128.763 148.016 129.064C148.169 129.359 148.245 129.701 148.245 130.089C148.245 130.248 148.234 130.409 148.213 130.573H145.112C145.156 130.961 145.295 131.262 145.53 131.475C145.766 131.688 146.058 131.795 146.408 131.795C146.665 131.795 146.884 131.74 147.064 131.631C147.245 131.516 147.398 131.355 147.524 131.147L148.254 131.5ZM146.293 128.867C145.971 128.867 145.711 128.963 145.514 129.154C145.317 129.345 145.189 129.6 145.128 129.917H147.384C147.362 129.567 147.256 129.304 147.064 129.129C146.878 128.954 146.621 128.867 146.293 128.867ZM152.854 132.476H151.846L150.828 130.95L149.795 132.476H148.803L150.279 130.286L148.893 128.235H149.885L150.828 129.613L151.747 128.235H152.756L151.386 130.286L152.854 132.476ZM156.564 132.254C156.274 132.473 155.913 132.582 155.481 132.582C155.038 132.582 154.68 132.468 154.407 132.238C154.139 132.003 154.005 131.653 154.005 131.188V128.941H153.193V128.235H154.005V126.931H154.891V128.235H156.261V128.941H154.891V131.032C154.891 131.267 154.94 131.453 155.038 131.59C155.137 131.727 155.312 131.795 155.563 131.795C155.695 131.795 155.812 131.779 155.916 131.746C156.02 131.713 156.132 131.661 156.252 131.59L156.564 132.254ZM172.162 127.505H173.901V132.476H174.836V127.505H176.599V126.652H172.162V127.505ZM179.914 132.287C180.226 132.09 180.472 131.828 180.652 131.5L179.922 131.147C179.796 131.355 179.643 131.516 179.463 131.631C179.282 131.74 179.064 131.795 178.807 131.795C178.457 131.795 178.164 131.688 177.929 131.475C177.694 131.262 177.554 130.961 177.511 130.573H180.611C180.633 130.409 180.644 130.248 180.644 130.089C180.644 129.701 180.567 129.359 180.414 129.064C180.261 128.763 180.037 128.531 179.742 128.367C179.446 128.203 179.096 128.12 178.692 128.12C178.298 128.12 177.943 128.216 177.626 128.408C177.314 128.599 177.068 128.864 176.887 129.203C176.712 129.542 176.625 129.925 176.625 130.351C176.625 130.783 176.715 131.169 176.896 131.508C177.076 131.847 177.328 132.112 177.65 132.304C177.978 132.49 178.353 132.582 178.774 132.582C179.228 132.582 179.608 132.484 179.914 132.287ZM177.913 129.154C178.109 128.963 178.369 128.867 178.692 128.867C179.02 128.867 179.277 128.954 179.463 129.129C179.654 129.304 179.761 129.567 179.783 129.917H177.527C177.587 129.6 177.716 129.345 177.913 129.154ZM184.244 132.476H185.253L183.785 130.286L185.155 128.235H184.146L183.227 129.613L182.284 128.235H181.291L182.678 130.286L181.201 132.476H182.194L183.227 130.95L184.244 132.476ZM187.88 132.582C188.312 132.582 188.673 132.473 188.963 132.254L188.651 131.59C188.531 131.661 188.419 131.713 188.315 131.746C188.211 131.779 188.093 131.795 187.962 131.795C187.711 131.795 187.536 131.727 187.437 131.59C187.339 131.453 187.289 131.267 187.289 131.032V128.941H188.659V128.235H187.289V126.931H186.404V128.235H185.592V128.941H186.404V131.188C186.404 131.653 186.538 132.003 186.806 132.238C187.079 132.468 187.437 132.582 187.88 132.582ZM157.907 140.629H156.168V139.776H160.605V140.629H158.842V145.599H157.907V140.629ZM164.658 144.623C164.477 144.951 164.231 145.214 163.92 145.411C163.613 145.608 163.233 145.706 162.78 145.706C162.359 145.706 161.984 145.613 161.656 145.427C161.333 145.236 161.082 144.971 160.901 144.632C160.721 144.292 160.631 143.907 160.631 143.475C160.631 143.048 160.718 142.666 160.893 142.327C161.074 141.988 161.32 141.722 161.631 141.531C161.948 141.34 162.304 141.244 162.698 141.244C163.102 141.244 163.452 141.326 163.747 141.49C164.043 141.654 164.267 141.887 164.42 142.187C164.573 142.483 164.65 142.824 164.65 143.213C164.65 143.371 164.639 143.532 164.617 143.696H161.516C161.56 144.085 161.7 144.385 161.935 144.599C162.17 144.812 162.462 144.919 162.812 144.919C163.069 144.919 163.288 144.864 163.469 144.755C163.649 144.64 163.802 144.478 163.928 144.271L164.658 144.623ZM162.698 141.99C162.375 141.99 162.115 142.086 161.918 142.277C161.721 142.469 161.593 142.723 161.533 143.04H163.788C163.767 142.69 163.66 142.428 163.469 142.253C163.283 142.078 163.026 141.99 162.698 141.99ZM169.259 145.599H168.25L167.233 144.074L166.199 145.599H165.207L166.683 143.409L165.297 141.359H166.29L167.233 142.737L168.151 141.359H169.16L167.791 143.409L169.259 145.599ZM172.968 145.378C172.679 145.597 172.318 145.706 171.886 145.706C171.443 145.706 171.085 145.591 170.811 145.361C170.543 145.126 170.409 144.776 170.409 144.312V142.064H169.597V141.359H170.409V140.055H171.295V141.359H172.665V142.064H171.295V144.156C171.295 144.391 171.344 144.577 171.443 144.714C171.541 144.85 171.716 144.919 171.968 144.919C172.099 144.919 172.217 144.902 172.32 144.869C172.424 144.837 172.536 144.785 172.657 144.714L172.968 145.378ZM204.561 140.629H206.299V145.599H207.235V140.629H208.998V139.776H204.561V140.629ZM212.313 145.411C212.624 145.214 212.87 144.951 213.051 144.623L212.321 144.271C212.195 144.478 212.042 144.64 211.861 144.755C211.681 144.864 211.462 144.919 211.205 144.919C210.855 144.919 210.563 144.812 210.328 144.599C210.093 144.385 209.953 144.085 209.909 143.696H213.01C213.032 143.532 213.043 143.371 213.043 143.213C213.043 142.824 212.966 142.483 212.813 142.187C212.66 141.887 212.436 141.654 212.14 141.49C211.845 141.326 211.495 141.244 211.09 141.244C210.697 141.244 210.341 141.34 210.024 141.531C209.713 141.722 209.466 141.988 209.286 142.327C209.111 142.666 209.024 143.048 209.024 143.475C209.024 143.907 209.114 144.292 209.294 144.632C209.475 144.971 209.726 145.236 210.049 145.427C210.377 145.613 210.751 145.706 211.173 145.706C211.626 145.706 212.006 145.608 212.313 145.411ZM210.311 142.277C210.508 142.086 210.768 141.99 211.09 141.99C211.419 141.99 211.676 142.078 211.861 142.253C212.053 142.428 212.16 142.69 212.181 143.04H209.926C209.986 142.723 210.114 142.469 210.311 142.277ZM216.643 145.599H217.652L216.184 143.409L217.553 141.359H216.544L215.626 142.737L214.683 141.359H213.69L215.076 143.409L213.6 145.599H214.592L215.626 144.074L216.643 145.599ZM220.279 145.706C220.711 145.706 221.072 145.597 221.361 145.378L221.05 144.714C220.929 144.785 220.817 144.837 220.713 144.869C220.609 144.902 220.492 144.919 220.361 144.919C220.109 144.919 219.934 144.85 219.836 144.714C219.737 144.577 219.688 144.391 219.688 144.156V142.064H221.058V141.359H219.688V140.055H218.802V141.359H217.99V142.064H218.802V144.312C218.802 144.776 218.936 145.126 219.204 145.361C219.478 145.591 219.836 145.706 220.279 145.706ZM238.698 140.629H236.959V139.776H241.397V140.629H239.633V145.599H238.698V140.629ZM245.449 144.623C245.269 144.951 245.023 145.214 244.711 145.411C244.405 145.608 244.025 145.706 243.571 145.706C243.15 145.706 242.776 145.613 242.447 145.427C242.125 145.236 241.873 144.971 241.693 144.632C241.512 144.292 241.422 143.907 241.422 143.475C241.422 143.048 241.51 142.666 241.685 142.327C241.865 141.988 242.111 141.722 242.423 141.531C242.74 141.34 243.095 141.244 243.489 141.244C243.894 141.244 244.244 141.326 244.539 141.49C244.834 141.654 245.058 141.887 245.212 142.187C245.365 142.483 245.441 142.824 245.441 143.213C245.441 143.371 245.43 143.532 245.408 143.696H242.308C242.352 144.085 242.491 144.385 242.726 144.599C242.961 144.812 243.254 144.919 243.604 144.919C243.861 144.919 244.08 144.864 244.26 144.755C244.441 144.64 244.594 144.478 244.719 144.271L245.449 144.623ZM243.489 141.99C243.166 141.99 242.907 142.086 242.71 142.277C242.513 142.469 242.385 142.723 242.324 143.04H244.58C244.558 142.69 244.451 142.428 244.26 142.253C244.074 142.078 243.817 141.99 243.489 141.99ZM250.05 145.599H249.041L248.024 144.074L246.991 145.599H245.998L247.475 143.409L246.089 141.359H247.081L248.024 142.737L248.943 141.359H249.952L248.582 143.409L250.05 145.599ZM253.76 145.378C253.47 145.597 253.109 145.706 252.677 145.706C252.234 145.706 251.876 145.591 251.603 145.361C251.335 145.126 251.201 144.776 251.201 144.312V142.064H250.389V141.359H251.201V140.055H252.087V141.359H253.456V142.064H252.087V144.156C252.087 144.391 252.136 144.577 252.234 144.714C252.333 144.85 252.508 144.919 252.759 144.919C252.891 144.919 253.008 144.902 253.112 144.869C253.216 144.837 253.328 144.785 253.448 144.714L253.76 145.378ZM209.072 153.752H210.811V158.723H211.746V153.752H213.509V152.899H209.072V153.752ZM216.824 158.534C217.135 158.337 217.382 158.075 217.562 157.747L216.832 157.394C216.706 157.602 216.553 157.763 216.373 157.878C216.192 157.987 215.973 158.042 215.716 158.042C215.367 158.042 215.074 157.935 214.839 157.722C214.604 157.509 214.464 157.208 214.421 156.82H217.521C217.543 156.656 217.554 156.495 217.554 156.336C217.554 155.948 217.477 155.606 217.324 155.311C217.171 155.01 216.947 154.778 216.652 154.614C216.356 154.45 216.006 154.367 215.602 154.367C215.208 154.367 214.853 154.463 214.535 154.655C214.224 154.846 213.978 155.111 213.797 155.45C213.622 155.789 213.535 156.172 213.535 156.598C213.535 157.03 213.625 157.416 213.805 157.755C213.986 158.094 214.237 158.359 214.56 158.551C214.888 158.737 215.263 158.829 215.684 158.829C216.138 158.829 216.518 158.731 216.824 158.534ZM214.822 155.401C215.019 155.21 215.279 155.114 215.602 155.114C215.93 155.114 216.187 155.201 216.373 155.376C216.564 155.551 216.671 155.814 216.693 156.164H214.437C214.497 155.847 214.626 155.592 214.822 155.401ZM221.154 158.723H222.163L220.695 156.533L222.064 154.482H221.056L220.137 155.86L219.194 154.482H218.201L219.587 156.533L218.111 158.723H219.103L220.137 157.197L221.154 158.723ZM224.79 158.829C225.222 158.829 225.583 158.72 225.873 158.501L225.561 157.837C225.441 157.908 225.328 157.96 225.225 157.993C225.121 158.026 225.003 158.042 224.872 158.042C224.62 158.042 224.445 157.974 224.347 157.837C224.248 157.7 224.199 157.514 224.199 157.279V155.188H225.569V154.482H224.199V153.178H223.313V154.482H222.501V155.188H223.313V157.435C223.313 157.9 223.447 158.25 223.715 158.485C223.989 158.715 224.347 158.829 224.79 158.829ZM55.7894 380.953H54.0505V380.1H58.4879V380.953H56.7244V385.924H55.7894V380.953ZM62.5407 384.947C62.3602 385.276 62.1142 385.538 61.8025 385.735C61.4963 385.932 61.1162 386.03 60.6624 386.03C60.2413 386.03 59.8668 385.937 59.5387 385.751C59.2161 385.56 58.9645 385.295 58.7841 384.956C58.6036 384.617 58.5134 384.231 58.5134 383.799C58.5134 383.373 58.6009 382.99 58.7759 382.651C58.9563 382.312 59.2024 382.047 59.5141 381.855C59.8312 381.664 60.1867 381.568 60.5804 381.568C60.985 381.568 61.335 381.65 61.6302 381.814C61.9255 381.978 62.1497 382.211 62.3028 382.511C62.4559 382.807 62.5325 383.148 62.5325 383.537C62.5325 383.695 62.5215 383.857 62.4997 384.021H59.3993C59.443 384.409 59.5824 384.71 59.8176 384.923C60.0527 385.136 60.3452 385.243 60.6952 385.243C60.9522 385.243 61.1709 385.188 61.3514 385.079C61.5318 384.964 61.6849 384.803 61.8107 384.595L62.5407 384.947ZM60.5804 382.315C60.2577 382.315 59.998 382.41 59.8012 382.602C59.6043 382.793 59.4758 383.047 59.4157 383.364H61.6713C61.6494 383.014 61.5428 382.752 61.3514 382.577C61.1655 382.402 60.9085 382.315 60.5804 382.315ZM67.1416 385.924H66.1327L65.1157 384.398L64.0822 385.924H63.0897L64.5661 383.734L63.1799 381.683H64.1724L65.1157 383.061L66.0343 381.683H67.0432L65.6734 383.734L67.1416 385.924ZM70.8512 385.702C70.5614 385.921 70.2005 386.03 69.7685 386.03C69.3256 386.03 68.9675 385.915 68.6941 385.686C68.4261 385.451 68.2922 385.101 68.2922 384.636V382.388H67.4801V381.683H68.2922V380.379H69.178V381.683H70.5478V382.388H69.178V384.48C69.178 384.715 69.2272 384.901 69.3256 385.038C69.4241 385.174 69.599 385.243 69.8506 385.243C69.9818 385.243 70.0994 385.226 70.2033 385.194C70.3072 385.161 70.4193 385.109 70.5396 385.038L70.8512 385.702ZM54.0505 398.998H55.7894V403.968H56.7244V398.998H58.4879V398.145H54.0505V398.998ZM61.8025 403.78C62.1142 403.583 62.3602 403.32 62.5407 402.992L61.8107 402.64C61.6849 402.847 61.5318 403.009 61.3514 403.124C61.1709 403.233 60.9522 403.288 60.6952 403.288C60.3452 403.288 60.0527 403.181 59.8176 402.968C59.5824 402.754 59.443 402.454 59.3993 402.065H62.4997C62.5215 401.901 62.5325 401.74 62.5325 401.582C62.5325 401.193 62.4559 400.852 62.3028 400.556C62.1497 400.255 61.9255 400.023 61.6302 399.859C61.335 399.695 60.985 399.613 60.5804 399.613C60.1867 399.613 59.8312 399.709 59.5141 399.9C59.2024 400.091 58.9563 400.357 58.7759 400.696C58.6009 401.035 58.5134 401.417 58.5134 401.844C58.5134 402.276 58.6036 402.661 58.7841 403C58.9645 403.34 59.2161 403.605 59.5387 403.796C59.8668 403.982 60.2413 404.075 60.6624 404.075C61.1162 404.075 61.4963 403.977 61.8025 403.78ZM59.8012 400.646C59.998 400.455 60.2577 400.359 60.5804 400.359C60.9085 400.359 61.1655 400.447 61.3514 400.622C61.5428 400.797 61.6494 401.059 61.6713 401.409H59.4157C59.4758 401.092 59.6043 400.838 59.8012 400.646ZM66.1327 403.968H67.1416L65.6734 401.778L67.0432 399.728H66.0343L65.1157 401.106L64.1724 399.728H63.1799L64.5661 401.778L63.0897 403.968H64.0822L65.1157 402.443L66.1327 403.968ZM69.7685 404.075C70.2005 404.075 70.5614 403.966 70.8512 403.747L70.5396 403.083C70.4193 403.154 70.3072 403.206 70.2033 403.238C70.0994 403.271 69.9818 403.288 69.8506 403.288C69.599 403.288 69.4241 403.219 69.3256 403.083C69.2272 402.946 69.178 402.76 69.178 402.525V400.433H70.5478V399.728H69.178V398.424H68.2922V399.728H67.4801V400.433H68.2922V402.681C68.2922 403.145 68.4261 403.495 68.6941 403.73C68.9675 403.96 69.3256 404.075 69.7685 404.075ZM229.266 353.886H227.527V353.033H231.964V353.886H230.201V358.856H229.266V353.886ZM236.017 357.88C235.836 358.208 235.59 358.471 235.279 358.668C234.973 358.865 234.592 358.963 234.139 358.963C233.718 358.963 233.343 358.87 233.015 358.684C232.692 358.493 232.441 358.227 232.26 357.888C232.08 357.549 231.99 357.164 231.99 356.732C231.99 356.305 232.077 355.923 232.252 355.584C232.433 355.245 232.679 354.979 232.99 354.788C233.307 354.597 233.663 354.501 234.057 354.501C234.461 354.501 234.811 354.583 235.106 354.747C235.402 354.911 235.626 355.143 235.779 355.444C235.932 355.74 236.009 356.081 236.009 356.469C236.009 356.628 235.998 356.789 235.976 356.953H232.875C232.919 357.342 233.059 357.642 233.294 357.856C233.529 358.069 233.821 358.176 234.171 358.176C234.428 358.176 234.647 358.121 234.828 358.012C235.008 357.897 235.161 357.735 235.287 357.528L236.017 357.88ZM234.057 355.247C233.734 355.247 233.474 355.343 233.277 355.534C233.081 355.726 232.952 355.98 232.892 356.297H235.147C235.126 355.947 235.019 355.685 234.828 355.51C234.642 355.335 234.385 355.247 234.057 355.247ZM240.618 358.856H239.609L238.592 357.331L237.558 358.856H236.566L238.042 356.666L236.656 354.616H237.649L238.592 355.994L239.511 354.616H240.519L239.15 356.666L240.618 358.856ZM244.327 358.635C244.038 358.854 243.677 358.963 243.245 358.963C242.802 358.963 242.444 358.848 242.17 358.618C241.902 358.383 241.768 358.033 241.768 357.569V355.321H240.956V354.616H241.768V353.312H242.654V354.616H244.024V355.321H242.654V357.413C242.654 357.648 242.703 357.834 242.802 357.97C242.9 358.107 243.075 358.176 243.327 358.176C243.458 358.176 243.576 358.159 243.68 358.126C243.783 358.094 243.895 358.042 244.016 357.97L244.327 358.635ZM227.527 367.829H229.266V372.8H230.201V367.829H231.964V366.976H227.527V367.829ZM235.279 372.611C235.59 372.415 235.836 372.152 236.017 371.824L235.287 371.471C235.161 371.679 235.008 371.84 234.828 371.955C234.647 372.065 234.428 372.119 234.171 372.119C233.821 372.119 233.529 372.013 233.294 371.799C233.059 371.586 232.919 371.285 232.875 370.897H235.976C235.998 370.733 236.009 370.572 236.009 370.413C236.009 370.025 235.932 369.683 235.779 369.388C235.626 369.087 235.402 368.855 235.106 368.691C234.811 368.527 234.461 368.445 234.057 368.445C233.663 368.445 233.307 368.54 232.99 368.732C232.679 368.923 232.433 369.188 232.252 369.527C232.077 369.866 231.99 370.249 231.99 370.676C231.99 371.108 232.08 371.493 232.26 371.832C232.441 372.171 232.692 372.436 233.015 372.628C233.343 372.814 233.718 372.907 234.139 372.907C234.592 372.907 234.973 372.808 235.279 372.611ZM233.277 369.478C233.474 369.287 233.734 369.191 234.057 369.191C234.385 369.191 234.642 369.279 234.828 369.454C235.019 369.629 235.126 369.891 235.147 370.241H232.892C232.952 369.924 233.081 369.67 233.277 369.478ZM239.609 372.8H240.618L239.15 370.61L240.519 368.559H239.511L238.592 369.937L237.649 368.559H236.656L238.042 370.61L236.566 372.8H237.558L238.592 371.274L239.609 372.8ZM243.245 372.907C243.677 372.907 244.038 372.797 244.327 372.579L244.016 371.914C243.895 371.985 243.783 372.037 243.68 372.07C243.576 372.103 243.458 372.119 243.327 372.119C243.075 372.119 242.9 372.051 242.802 371.914C242.703 371.777 242.654 371.592 242.654 371.356V369.265H244.024V368.559H242.654V367.255H241.768V368.559H240.956V369.265H241.768V371.512C241.768 371.977 241.902 372.327 242.17 372.562C242.444 372.792 242.802 372.907 243.245 372.907ZM229.266 387.515H227.527V386.662H231.964V387.515H230.201V392.485H229.266V387.515ZM236.017 391.509C235.836 391.837 235.59 392.1 235.279 392.297C234.973 392.493 234.592 392.592 234.139 392.592C233.718 392.592 233.343 392.499 233.015 392.313C232.692 392.122 232.441 391.856 232.26 391.517C232.08 391.178 231.99 390.793 231.99 390.361C231.99 389.934 232.077 389.552 232.252 389.213C232.433 388.874 232.679 388.608 232.99 388.417C233.307 388.226 233.663 388.13 234.057 388.13C234.461 388.13 234.811 388.212 235.106 388.376C235.402 388.54 235.626 388.772 235.779 389.073C235.932 389.368 236.009 389.71 236.009 390.098C236.009 390.257 235.998 390.418 235.976 390.582H232.875C232.919 390.971 233.059 391.271 233.294 391.485C233.529 391.698 233.821 391.804 234.171 391.804C234.428 391.804 234.647 391.75 234.828 391.64C235.008 391.526 235.161 391.364 235.287 391.156L236.017 391.509ZM234.057 388.876C233.734 388.876 233.474 388.972 233.277 389.163C233.081 389.355 232.952 389.609 232.892 389.926H235.147C235.126 389.576 235.019 389.314 234.828 389.139C234.642 388.964 234.385 388.876 234.057 388.876ZM240.618 392.485H239.609L238.592 390.96L237.558 392.485H236.566L238.042 390.295L236.656 388.245H237.649L238.592 389.623L239.511 388.245H240.519L239.15 390.295L240.618 392.485ZM244.327 392.264C244.038 392.482 243.677 392.592 243.245 392.592C242.802 392.592 242.444 392.477 242.17 392.247C241.902 392.012 241.768 391.662 241.768 391.197V388.95H240.956V388.245H241.768V386.941H242.654V388.245H244.024V388.95H242.654V391.042C242.654 391.277 242.703 391.463 242.802 391.599C242.9 391.736 243.075 391.804 243.327 391.804C243.458 391.804 243.576 391.788 243.68 391.755C243.783 391.722 243.895 391.67 244.016 391.599L244.327 392.264ZM227.527 414.582H229.266V419.553H230.201V414.582H231.964V413.729H227.527V414.582ZM235.279 419.364C235.59 419.167 235.836 418.905 236.017 418.576L235.287 418.224C235.161 418.432 235.008 418.593 234.828 418.708C234.647 418.817 234.428 418.872 234.171 418.872C233.821 418.872 233.529 418.765 233.294 418.552C233.059 418.339 232.919 418.038 232.875 417.65H235.976C235.998 417.486 236.009 417.324 236.009 417.166C236.009 416.777 235.932 416.436 235.779 416.14C235.626 415.84 235.402 415.607 235.106 415.443C234.811 415.279 234.461 415.197 234.057 415.197C233.663 415.197 233.307 415.293 232.99 415.484C232.679 415.676 232.433 415.941 232.252 416.28C232.077 416.619 231.99 417.002 231.99 417.428C231.99 417.86 232.08 418.246 232.26 418.585C232.441 418.924 232.692 419.189 233.015 419.38C233.343 419.566 233.718 419.659 234.139 419.659C234.592 419.659 234.973 419.561 235.279 419.364ZM233.277 416.231C233.474 416.039 233.734 415.944 234.057 415.944C234.385 415.944 234.642 416.031 234.828 416.206C235.019 416.381 235.126 416.643 235.147 416.993H232.892C232.952 416.676 233.081 416.422 233.277 416.231ZM239.609 419.553H240.618L239.15 417.363L240.519 415.312H239.511L238.592 416.69L237.649 415.312H236.656L238.042 417.363L236.566 419.553H237.558L238.592 418.027L239.609 419.553ZM243.245 419.659C243.677 419.659 244.038 419.55 244.327 419.331L244.016 418.667C243.895 418.738 243.783 418.79 243.68 418.823C243.576 418.855 243.458 418.872 243.327 418.872C243.075 418.872 242.9 418.803 242.802 418.667C242.703 418.53 242.654 418.344 242.654 418.109V416.017H244.024V415.312H242.654V414.008H241.768V415.312H240.956V416.017H241.768V418.265C241.768 418.73 241.902 419.08 242.17 419.315C242.444 419.544 242.802 419.659 243.245 419.659ZM229.266 428.526H227.527V427.673H231.964V428.526H230.201V433.496H229.266V428.526ZM236.017 432.52C235.836 432.848 235.59 433.111 235.279 433.308C234.973 433.504 234.592 433.603 234.139 433.603C233.718 433.603 233.343 433.51 233.015 433.324C232.692 433.133 232.441 432.867 232.26 432.528C232.08 432.189 231.99 431.804 231.99 431.372C231.99 430.945 232.077 430.563 232.252 430.224C232.433 429.885 232.679 429.619 232.99 429.428C233.307 429.237 233.663 429.141 234.057 429.141C234.461 429.141 234.811 429.223 235.106 429.387C235.402 429.551 235.626 429.783 235.779 430.084C235.932 430.379 236.009 430.721 236.009 431.109C236.009 431.268 235.998 431.429 235.976 431.593H232.875C232.919 431.982 233.059 432.282 233.294 432.496C233.529 432.709 233.821 432.815 234.171 432.815C234.428 432.815 234.647 432.761 234.828 432.651C235.008 432.537 235.161 432.375 235.287 432.167L236.017 432.52ZM234.057 429.887C233.734 429.887 233.474 429.983 233.277 430.174C233.081 430.366 232.952 430.62 232.892 430.937H235.147C235.126 430.587 235.019 430.325 234.828 430.15C234.642 429.975 234.385 429.887 234.057 429.887ZM240.618 433.496H239.609L238.592 431.971L237.558 433.496H236.566L238.042 431.306L236.656 429.256H237.649L238.592 430.634L239.511 429.256H240.519L239.15 431.306L240.618 433.496ZM244.327 433.275C244.038 433.493 243.677 433.603 243.245 433.603C242.802 433.603 242.444 433.488 242.17 433.258C241.902 433.023 241.768 432.673 241.768 432.208V429.961H240.956V429.256H241.768V427.952H242.654V429.256H244.024V429.961H242.654V432.053C242.654 432.288 242.703 432.474 242.802 432.61C242.9 432.747 243.075 432.815 243.327 432.815C243.458 432.815 243.576 432.799 243.68 432.766C243.783 432.733 243.895 432.681 244.016 432.61L244.327 433.275ZM227.527 454.773H229.266V459.743H230.201V454.773H231.964V453.92H227.527V454.773ZM235.279 459.555C235.59 459.358 235.836 459.095 236.017 458.767L235.287 458.414C235.161 458.622 235.008 458.784 234.828 458.898C234.647 459.008 234.428 459.062 234.171 459.062C233.821 459.062 233.529 458.956 233.294 458.742C233.059 458.529 232.919 458.228 232.875 457.84H235.976C235.998 457.676 236.009 457.515 236.009 457.356C236.009 456.968 235.932 456.626 235.779 456.331C235.626 456.03 235.402 455.798 235.106 455.634C234.811 455.47 234.461 455.388 234.057 455.388C233.663 455.388 233.307 455.483 232.99 455.675C232.679 455.866 232.433 456.131 232.252 456.47C232.077 456.81 231.99 457.192 231.99 457.619C231.99 458.051 232.08 458.436 232.26 458.775C232.441 459.114 232.692 459.38 233.015 459.571C233.343 459.757 233.718 459.85 234.139 459.85C234.592 459.85 234.973 459.751 235.279 459.555ZM233.277 456.421C233.474 456.23 233.734 456.134 234.057 456.134C234.385 456.134 234.642 456.222 234.828 456.397C235.019 456.572 235.126 456.834 235.147 457.184H232.892C232.952 456.867 233.081 456.613 233.277 456.421ZM239.609 459.743H240.618L239.15 457.553L240.519 455.503H239.511L238.592 456.881L237.649 455.503H236.656L238.042 457.553L236.566 459.743H237.558L238.592 458.218L239.609 459.743ZM243.245 459.85C243.677 459.85 244.038 459.74 244.327 459.522L244.016 458.857C243.895 458.928 243.783 458.98 243.68 459.013C243.576 459.046 243.458 459.062 243.327 459.062C243.075 459.062 242.9 458.994 242.802 458.857C242.703 458.721 242.654 458.535 242.654 458.3V456.208H244.024V455.503H242.654V454.198H241.768V455.503H240.956V456.208H241.768V458.455C241.768 458.92 241.902 459.27 242.17 459.505C242.444 459.735 242.802 459.85 243.245 459.85ZM229.266 472.817H227.527V471.964H231.964V472.817H230.201V477.788H229.266V472.817ZM236.017 476.812C235.836 477.14 235.59 477.402 235.279 477.599C234.973 477.796 234.592 477.895 234.139 477.895C233.718 477.895 233.343 477.802 233.015 477.616C232.692 477.424 232.441 477.159 232.26 476.82C232.08 476.481 231.99 476.096 231.99 475.664C231.99 475.237 232.077 474.854 232.252 474.515C232.433 474.176 232.679 473.911 232.99 473.72C233.307 473.528 233.663 473.433 234.057 473.433C234.461 473.433 234.811 473.515 235.106 473.679C235.402 473.843 235.626 474.075 235.779 474.376C235.932 474.671 236.009 475.013 236.009 475.401C236.009 475.56 235.998 475.721 235.976 475.885H232.875C232.919 476.273 233.059 476.574 233.294 476.787C233.529 477.001 233.821 477.107 234.171 477.107C234.428 477.107 234.647 477.053 234.828 476.943C235.008 476.828 235.161 476.667 235.287 476.459L236.017 476.812ZM234.057 474.179C233.734 474.179 233.474 474.275 233.277 474.466C233.081 474.658 232.952 474.912 232.892 475.229H235.147C235.126 474.879 235.019 474.616 234.828 474.441C234.642 474.267 234.385 474.179 234.057 474.179ZM240.618 477.788H239.609L238.592 476.262L237.558 477.788H236.566L238.042 475.598L236.656 473.547H237.649L238.592 474.925L239.511 473.547H240.519L239.15 475.598L240.618 477.788ZM244.327 477.567C244.038 477.785 243.677 477.895 243.245 477.895C242.802 477.895 242.444 477.78 242.17 477.55C241.902 477.315 241.768 476.965 241.768 476.5V474.253H240.956V473.547H241.768V472.243H242.654V473.547H244.024V474.253H242.654V476.344C242.654 476.58 242.703 476.765 242.802 476.902C242.9 477.039 243.075 477.107 243.327 477.107C243.458 477.107 243.576 477.091 243.68 477.058C243.783 477.025 243.895 476.973 244.016 476.902L244.327 477.567ZM227.527 490.862H229.266V495.833H230.201V490.862H231.964V490.009H227.527V490.862ZM235.279 495.644C235.59 495.447 235.836 495.185 236.017 494.857L235.287 494.504C235.161 494.712 235.008 494.873 234.828 494.988C234.647 495.097 234.428 495.152 234.171 495.152C233.821 495.152 233.529 495.045 233.294 494.832C233.059 494.619 232.919 494.318 232.875 493.93H235.976C235.998 493.766 236.009 493.605 236.009 493.446C236.009 493.058 235.932 492.716 235.779 492.421C235.626 492.12 235.402 491.888 235.106 491.724C234.811 491.559 234.461 491.477 234.057 491.477C233.663 491.477 233.307 491.573 232.99 491.764C232.679 491.956 232.433 492.221 232.252 492.56C232.077 492.899 231.99 493.282 231.99 493.708C231.99 494.14 232.08 494.526 232.26 494.865C232.441 495.204 232.692 495.469 233.015 495.661C233.343 495.846 233.718 495.939 234.139 495.939C234.592 495.939 234.973 495.841 235.279 495.644ZM233.277 492.511C233.474 492.32 233.734 492.224 234.057 492.224C234.385 492.224 234.642 492.311 234.828 492.486C235.019 492.661 235.126 492.924 235.147 493.274H232.892C232.952 492.957 233.081 492.702 233.277 492.511ZM239.609 495.833H240.618L239.15 493.643L240.519 491.592H239.511L238.592 492.97L237.649 491.592H236.656L238.042 493.643L236.566 495.833H237.558L238.592 494.307L239.609 495.833ZM243.245 495.939C243.677 495.939 244.038 495.83 244.327 495.611L244.016 494.947C243.895 495.018 243.783 495.07 243.68 495.103C243.576 495.136 243.458 495.152 243.327 495.152C243.075 495.152 242.9 495.084 242.802 494.947C242.703 494.81 242.654 494.624 242.654 494.389V492.298H244.024V491.592H242.654V490.288H241.768V491.592H240.956V492.298H241.768V494.545C241.768 495.01 241.902 495.36 242.17 495.595C242.444 495.825 242.802 495.939 243.245 495.939ZM166.109 490.862H164.37V490.009H168.807V490.862H167.044V495.833H166.109V490.862ZM172.86 494.857C172.68 495.185 172.434 495.447 172.122 495.644C171.816 495.841 171.436 495.939 170.982 495.939C170.561 495.939 170.186 495.846 169.858 495.661C169.535 495.469 169.284 495.204 169.103 494.865C168.923 494.526 168.833 494.14 168.833 493.708C168.833 493.282 168.92 492.899 169.095 492.56C169.276 492.221 169.522 491.956 169.833 491.764C170.151 491.573 170.506 491.477 170.9 491.477C171.304 491.477 171.654 491.559 171.95 491.724C172.245 491.888 172.469 492.12 172.622 492.421C172.775 492.716 172.852 493.058 172.852 493.446C172.852 493.605 172.841 493.766 172.819 493.93H169.719C169.762 494.318 169.902 494.619 170.137 494.832C170.372 495.045 170.665 495.152 171.015 495.152C171.272 495.152 171.49 495.097 171.671 494.988C171.851 494.873 172.004 494.712 172.13 494.504L172.86 494.857ZM170.9 492.224C170.577 492.224 170.317 492.32 170.121 492.511C169.924 492.702 169.795 492.957 169.735 493.274H171.991C171.969 492.924 171.862 492.661 171.671 492.486C171.485 492.311 171.228 492.224 170.9 492.224ZM177.461 495.833H176.452L175.435 494.307L174.402 495.833H173.409L174.886 493.643L173.499 491.592H174.492L175.435 492.97L176.354 491.592H177.363L175.993 493.643L177.461 495.833ZM181.171 495.611C180.881 495.83 180.52 495.939 180.088 495.939C179.645 495.939 179.287 495.825 179.013 495.595C178.746 495.36 178.612 495.01 178.612 494.545V492.298H177.8V491.592H178.612V490.288H179.497V491.592H180.867V492.298H179.497V494.389C179.497 494.624 179.547 494.81 179.645 494.947C179.743 495.084 179.918 495.152 180.17 495.152C180.236 495.152 180.299 495.148 180.359 495.139C180.381 495.136 180.402 495.133 180.423 495.128C180.436 495.126 180.449 495.123 180.462 495.12C180.483 495.115 180.503 495.109 180.523 495.103C180.627 495.07 180.739 495.018 180.859 494.947L181.171 495.611ZM48.0903 357.749C48.495 358.012 48.9871 358.143 49.5667 358.143C49.9604 358.143 50.3077 358.072 50.6084 357.929C50.9146 357.782 51.1498 357.577 51.3138 357.314C51.4833 357.046 51.5681 356.74 51.5681 356.396C51.5681 356.035 51.4833 355.74 51.3138 355.51C51.1498 355.28 50.9365 355.102 50.674 354.977C50.4116 354.845 50.0862 354.725 49.698 354.616C49.3261 354.512 49.0445 354.4 48.8531 354.28C48.6618 354.154 48.5661 353.965 48.5661 353.714C48.5661 353.489 48.6454 353.306 48.8039 353.164C48.968 353.016 49.1867 352.943 49.4601 352.943C50.0233 352.943 50.3952 353.213 50.5756 353.755L51.4286 353.476C51.3411 353.077 51.1252 352.748 50.7807 352.491C50.4416 352.234 50.0097 352.106 49.4847 352.106C49.1348 352.106 48.8176 352.177 48.5333 352.319C48.2544 352.456 48.0357 352.65 47.8771 352.902C47.7185 353.153 47.6392 353.437 47.6392 353.755C47.6392 354.11 47.7212 354.4 47.8853 354.624C48.0493 354.843 48.2489 355.009 48.484 355.124C48.7192 355.234 49.0063 355.338 49.3453 355.436C49.6515 355.529 49.8921 355.614 50.0671 355.69C50.2421 355.767 50.3815 355.865 50.4854 355.986C50.5893 356.1 50.6412 356.248 50.6412 356.428C50.6412 356.707 50.5428 356.923 50.3459 357.076C50.1491 357.23 49.8948 357.306 49.5831 357.306C49.2004 357.306 48.8887 357.21 48.6481 357.019C48.4075 356.828 48.2435 356.565 48.156 356.232L47.2783 356.552C47.415 357.082 47.6857 357.481 48.0903 357.749ZM55.6011 357.847C55.9128 357.651 56.1589 357.388 56.3393 357.06L55.6093 356.707C55.4835 356.915 55.3304 357.076 55.15 357.191C54.9695 357.301 54.7508 357.355 54.4938 357.355C54.1439 357.355 53.8513 357.249 53.6162 357.035C53.3811 356.822 53.2416 356.521 53.1979 356.133H56.2983C56.3202 355.969 56.3311 355.808 56.3311 355.649C56.3311 355.261 56.2546 354.919 56.1014 354.624C55.9483 354.323 55.7241 354.091 55.4289 353.927C55.1336 353.763 54.7836 353.681 54.379 353.681C53.9853 353.681 53.6299 353.776 53.3127 353.968C53.001 354.159 52.755 354.424 52.5745 354.763C52.3995 355.102 52.312 355.485 52.312 355.912C52.312 356.344 52.4023 356.729 52.5827 357.068C52.7632 357.407 53.0147 357.672 53.3373 357.864C53.6654 358.05 54.04 358.143 54.461 358.143C54.9149 358.143 55.2949 358.044 55.6011 357.847ZM53.5998 354.714C53.7966 354.523 54.0564 354.427 54.379 354.427C54.7071 354.427 54.9641 354.515 55.15 354.69C55.3414 354.865 55.448 355.127 55.4699 355.477H53.2143C53.2744 355.16 53.4029 354.906 53.5998 354.714ZM59.2258 358.143C59.6578 358.143 60.0187 358.033 60.3085 357.815L59.9968 357.15C59.8765 357.221 59.7644 357.273 59.6605 357.306C59.5566 357.339 59.439 357.355 59.3078 357.355C59.0563 357.355 58.8813 357.287 58.7829 357.15C58.6844 357.014 58.6352 356.828 58.6352 356.593V354.501H60.005V353.796H58.6352V352.491H57.7494V353.796H56.9374V354.501H57.7494V356.748C57.7494 357.213 57.8833 357.563 58.1513 357.798C58.4247 358.028 58.7829 358.143 59.2258 358.143ZM111.903 358.553C111.324 358.553 110.832 358.422 110.427 358.159C110.022 357.891 109.752 357.492 109.615 356.962L110.493 356.642C110.58 356.975 110.744 357.238 110.985 357.429C111.225 357.621 111.537 357.716 111.92 357.716C112.231 357.716 112.486 357.64 112.683 357.487C112.879 357.333 112.978 357.117 112.978 356.839C112.978 356.658 112.926 356.51 112.822 356.396C112.718 356.275 112.579 356.177 112.404 356.1C112.229 356.024 111.988 355.939 111.682 355.846C111.343 355.748 111.056 355.644 110.821 355.534C110.586 355.42 110.386 355.253 110.222 355.034C110.058 354.81 109.976 354.52 109.976 354.165C109.976 353.848 110.055 353.563 110.214 353.312C110.372 353.06 110.591 352.866 110.87 352.729C111.154 352.587 111.471 352.516 111.821 352.516C112.346 352.516 112.778 352.645 113.117 352.902C113.462 353.159 113.678 353.487 113.765 353.886L112.912 354.165C112.732 353.623 112.36 353.353 111.797 353.353C111.523 353.353 111.305 353.426 111.141 353.574C110.982 353.716 110.903 353.899 110.903 354.124C110.903 354.375 110.998 354.564 111.19 354.69C111.381 354.81 111.663 354.922 112.035 355.026C112.423 355.135 112.748 355.256 113.011 355.387C113.273 355.513 113.486 355.69 113.65 355.92C113.82 356.15 113.905 356.445 113.905 356.806C113.905 357.15 113.82 357.457 113.65 357.724C113.486 357.987 113.251 358.192 112.945 358.34C112.644 358.482 112.297 358.553 111.903 358.553ZM118.676 357.47C118.496 357.798 118.249 358.061 117.938 358.258C117.632 358.454 117.252 358.553 116.798 358.553C116.377 358.553 116.002 358.46 115.674 358.274C115.351 358.083 115.1 357.817 114.919 357.478C114.739 357.139 114.649 356.754 114.649 356.322C114.649 355.895 114.736 355.513 114.911 355.174C115.092 354.835 115.338 354.569 115.649 354.378C115.967 354.187 116.322 354.091 116.716 354.091C117.12 354.091 117.47 354.173 117.766 354.337C118.061 354.501 118.285 354.733 118.438 355.034C118.591 355.329 118.668 355.671 118.668 356.059C118.668 356.218 118.657 356.379 118.635 356.543H115.535C115.578 356.932 115.718 357.232 115.953 357.446C116.188 357.659 116.481 357.765 116.83 357.765C117.087 357.765 117.306 357.711 117.487 357.601C117.667 357.487 117.82 357.325 117.946 357.117L118.676 357.47ZM116.716 354.837C116.393 354.837 116.133 354.933 115.936 355.124C115.74 355.316 115.611 355.57 115.551 355.887H117.807C117.785 355.537 117.678 355.275 117.487 355.1C117.301 354.925 117.044 354.837 116.716 354.837ZM122.645 358.225C122.355 358.443 121.994 358.553 121.562 358.553C121.12 358.553 120.761 358.438 120.488 358.208C120.22 357.973 120.086 357.623 120.086 357.158V354.911H119.274V354.206H120.086V352.902H120.972V354.206H122.342V354.911H120.972V357.003C120.972 357.238 121.021 357.424 121.12 357.56C121.218 357.697 121.393 357.765 121.644 357.765C121.776 357.765 121.893 357.749 121.997 357.716C122.101 357.683 122.213 357.631 122.333 357.56L122.645 358.225ZM110.427 417.625C110.832 417.887 111.324 418.019 111.903 418.019C112.297 418.019 112.644 417.948 112.945 417.805C113.251 417.658 113.486 417.453 113.65 417.19C113.82 416.922 113.905 416.616 113.905 416.272C113.905 415.911 113.82 415.615 113.65 415.386C113.486 415.156 113.273 414.978 113.011 414.853C112.748 414.721 112.423 414.601 112.035 414.492C111.663 414.388 111.381 414.276 111.19 414.155C110.998 414.03 110.903 413.841 110.903 413.59C110.903 413.365 110.982 413.182 111.141 413.04C111.305 412.892 111.523 412.818 111.797 412.818C112.36 412.818 112.732 413.089 112.912 413.63L113.765 413.352C113.678 412.952 113.462 412.624 113.117 412.367C112.778 412.11 112.346 411.982 111.821 411.982C111.471 411.982 111.154 412.053 110.87 412.195C110.591 412.332 110.372 412.526 110.214 412.777C110.055 413.029 109.976 413.313 109.976 413.63C109.976 413.986 110.058 414.276 110.222 414.5C110.386 414.719 110.586 414.885 110.821 415C111.056 415.11 111.343 415.214 111.682 415.312C111.988 415.405 112.229 415.49 112.404 415.566C112.579 415.643 112.718 415.741 112.822 415.862C112.926 415.976 112.978 416.124 112.978 416.304C112.978 416.583 112.879 416.799 112.683 416.952C112.486 417.105 112.231 417.182 111.92 417.182C111.537 417.182 111.225 417.086 110.985 416.895C110.744 416.704 110.58 416.441 110.493 416.108L109.615 416.427C109.752 416.958 110.022 417.357 110.427 417.625ZM117.938 417.723C118.249 417.527 118.496 417.264 118.676 416.936L117.946 416.583C117.82 416.791 117.667 416.952 117.487 417.067C117.306 417.177 117.087 417.231 116.83 417.231C116.481 417.231 116.188 417.125 115.953 416.911C115.718 416.698 115.578 416.397 115.535 416.009H118.635C118.657 415.845 118.668 415.684 118.668 415.525C118.668 415.137 118.591 414.795 118.438 414.5C118.285 414.199 118.061 413.967 117.766 413.803C117.47 413.639 117.12 413.557 116.716 413.557C116.322 413.557 115.967 413.652 115.649 413.844C115.338 414.035 115.092 414.3 114.911 414.639C114.736 414.978 114.649 415.361 114.649 415.788C114.649 416.22 114.739 416.605 114.919 416.944C115.1 417.283 115.351 417.548 115.674 417.74C116.002 417.926 116.377 418.019 116.798 418.019C117.252 418.019 117.632 417.92 117.938 417.723ZM115.936 414.59C116.133 414.399 116.393 414.303 116.716 414.303C117.044 414.303 117.301 414.391 117.487 414.566C117.678 414.741 117.785 415.003 117.807 415.353H115.551C115.611 415.036 115.74 414.782 115.936 414.59ZM121.562 418.019C121.994 418.019 122.355 417.909 122.645 417.691L122.333 417.026C122.213 417.097 122.101 417.149 121.997 417.182C121.893 417.215 121.776 417.231 121.644 417.231C121.393 417.231 121.218 417.163 121.12 417.026C121.021 416.889 120.972 416.704 120.972 416.468V414.377H122.342V413.672H120.972V412.367H120.086V413.672H119.274V414.377H120.086V416.624C120.086 417.089 120.22 417.439 120.488 417.674C120.761 417.904 121.12 418.019 121.562 418.019ZM49.1567 418.019C48.5771 418.019 48.085 417.887 47.6803 417.625C47.2757 417.357 47.005 416.958 46.8683 416.427L47.7459 416.108C47.8334 416.441 47.9975 416.704 48.2381 416.895C48.4787 417.086 48.7903 417.182 49.1731 417.182C49.4848 417.182 49.7391 417.105 49.9359 416.952C50.1328 416.799 50.2312 416.583 50.2312 416.304C50.2312 416.124 50.1792 415.976 50.0754 415.862C49.9715 415.741 49.832 415.643 49.657 415.566C49.4821 415.49 49.2415 415.405 48.9352 415.312C48.5962 415.214 48.3091 415.11 48.074 415C47.8389 414.885 47.6393 414.719 47.4753 414.5C47.3112 414.276 47.2292 413.986 47.2292 413.63C47.2292 413.313 47.3085 413.029 47.4671 412.777C47.6256 412.526 47.8444 412.332 48.1232 412.195C48.4076 412.053 48.7247 411.982 49.0747 411.982C49.5996 411.982 50.0316 412.11 50.3706 412.367C50.7151 412.624 50.9311 412.952 51.0186 413.352L50.1656 413.63C49.9851 413.089 49.6133 412.818 49.0501 412.818C48.7767 412.818 48.5579 412.892 48.3939 413.04C48.2353 413.182 48.156 413.365 48.156 413.59C48.156 413.841 48.2517 414.03 48.4431 414.155C48.6345 414.276 48.9161 414.388 49.2879 414.492C49.6762 414.601 50.0015 414.721 50.264 414.853C50.5265 414.978 50.7397 415.156 50.9038 415.386C51.0733 415.615 51.158 415.911 51.158 416.272C51.158 416.616 51.0733 416.922 50.9038 417.19C50.7397 417.453 50.5046 417.658 50.1984 417.805C49.8976 417.948 49.5504 418.019 49.1567 418.019ZM55.9293 416.936C55.7488 417.264 55.5028 417.527 55.1911 417.723C54.8849 417.92 54.5048 418.019 54.051 418.019C53.6299 418.019 53.2554 417.926 52.9273 417.74C52.6047 417.548 52.3531 417.283 52.1727 416.944C51.9922 416.605 51.902 416.22 51.902 415.788C51.902 415.361 51.9895 414.978 52.1645 414.639C52.3449 414.3 52.591 414.035 52.9027 413.844C53.2198 413.652 53.5752 413.557 53.969 413.557C54.3736 413.557 54.7236 413.639 55.0188 413.803C55.3141 413.967 55.5383 414.199 55.6914 414.5C55.8445 414.795 55.9211 415.137 55.9211 415.525C55.9211 415.684 55.9101 415.845 55.8883 416.009H52.7878C52.8316 416.397 52.971 416.698 53.2062 416.911C53.4413 417.125 53.7338 417.231 54.0838 417.231C54.3408 417.231 54.5595 417.177 54.74 417.067C54.9204 416.952 55.0735 416.791 55.1993 416.583L55.9293 416.936ZM53.969 414.303C53.6463 414.303 53.3866 414.399 53.1897 414.59C52.9929 414.782 52.8644 415.036 52.8042 415.353H55.0598C55.038 415.003 54.9313 414.741 54.74 414.566C54.554 414.391 54.297 414.303 53.969 414.303ZM59.8984 417.691C59.6086 417.909 59.2477 418.019 58.8157 418.019C58.3728 418.019 58.0147 417.904 57.7413 417.674C57.4733 417.439 57.3393 417.089 57.3393 416.624V414.377H56.5273V413.672H57.3393V412.367H58.2252V413.672H59.595V414.377H58.2252V416.468C58.2252 416.704 58.2744 416.889 58.3728 417.026C58.4713 417.163 58.6462 417.231 58.8978 417.231C59.029 417.231 59.1466 417.215 59.2505 417.182C59.3544 417.149 59.4664 417.097 59.5868 417.026L59.8984 417.691ZM148.786 153.752H150.525V158.723H151.46V153.752H153.223V152.899H148.786V153.752ZM156.538 158.534C156.849 158.337 157.096 158.075 157.276 157.747L156.546 157.394C156.42 157.602 156.267 157.763 156.087 157.878C155.906 157.987 155.687 158.042 155.43 158.042C155.081 158.042 154.788 157.935 154.553 157.722C154.318 157.509 154.178 157.208 154.135 156.82H157.235C157.257 156.656 157.268 156.495 157.268 156.336C157.268 155.948 157.191 155.606 157.038 155.311C156.885 155.01 156.661 154.778 156.366 154.614C156.07 154.45 155.72 154.367 155.316 154.367C154.922 154.367 154.567 154.463 154.249 154.655C153.938 154.846 153.692 155.111 153.511 155.45C153.336 155.789 153.249 156.172 153.249 156.598C153.249 157.03 153.339 157.416 153.519 157.755C153.7 158.094 153.951 158.359 154.274 158.551C154.602 158.737 154.977 158.829 155.398 158.829C155.852 158.829 156.232 158.731 156.538 158.534ZM154.536 155.401C154.733 155.21 154.993 155.114 155.316 155.114C155.644 155.114 155.901 155.201 156.087 155.376C156.278 155.551 156.385 155.814 156.407 156.164H154.151C154.211 155.847 154.34 155.592 154.536 155.401ZM160.868 158.723H161.877L160.409 156.533L161.778 154.482H160.77L159.851 155.86L158.908 154.482H157.915L159.301 156.533L157.825 158.723H158.817L159.851 157.197L160.868 158.723ZM164.504 158.829C164.936 158.829 165.297 158.72 165.587 158.501L165.275 157.837C165.155 157.908 165.042 157.96 164.939 157.993C164.835 158.026 164.717 158.042 164.586 158.042C164.334 158.042 164.159 157.974 164.061 157.837C163.962 157.7 163.913 157.514 163.913 157.279V155.188H165.283V154.482H163.913V153.178H163.027V154.482H162.215V155.188H163.027V157.435C163.027 157.9 163.161 158.25 163.429 158.485C163.703 158.715 164.061 158.829 164.504 158.829ZM539.113 1.39252H528.451V12.0554H539.113V1.39252ZM0.22998 34.6113L4.22855 31.77L4.22855 37.4527L0.22998 34.6113ZM1112.88 85.4363C1113.29 85.6988 1113.78 85.83 1114.36 85.83C1114.75 85.83 1115.1 85.7589 1115.4 85.6168C1115.71 85.4691 1115.94 85.2641 1116.11 85.0016C1116.28 84.7337 1116.36 84.4275 1116.36 84.083C1116.36 83.7221 1116.28 83.4268 1116.11 83.1971C1115.94 82.9675 1115.73 82.7897 1115.47 82.664C1115.2 82.5327 1114.88 82.4124 1114.49 82.3031C1114.12 82.1992 1113.84 82.0871 1113.65 81.9668C1113.45 81.841 1113.36 81.6524 1113.36 81.4008C1113.36 81.1767 1113.44 80.9935 1113.6 80.8513C1113.76 80.7037 1113.98 80.6298 1114.25 80.6298C1114.82 80.6298 1115.19 80.9005 1115.37 81.4419L1116.22 81.163C1116.13 80.7638 1115.92 80.4357 1115.57 80.1787C1115.23 79.9217 1114.8 79.7932 1114.28 79.7932C1113.93 79.7932 1113.61 79.8643 1113.33 80.0065C1113.05 80.1432 1112.83 80.3373 1112.67 80.5888C1112.51 80.8404 1112.43 81.1247 1112.43 81.4419C1112.43 81.7973 1112.51 82.0871 1112.68 82.3113C1112.84 82.53 1113.04 82.6968 1113.28 82.8116C1113.51 82.921 1113.8 83.0249 1114.14 83.1233C1114.44 83.2163 1114.68 83.301 1114.86 83.3776C1115.03 83.4541 1115.17 83.5526 1115.28 83.6729C1115.38 83.7877 1115.43 83.9353 1115.43 84.1158C1115.43 84.3946 1115.34 84.6106 1115.14 84.7637C1114.94 84.9168 1114.69 84.9934 1114.38 84.9934C1113.99 84.9934 1113.68 84.8977 1113.44 84.7063C1113.2 84.5149 1113.04 84.2525 1112.95 83.9189L1112.07 84.2388C1112.21 84.7692 1112.48 85.1684 1112.88 85.4363ZM1114.36 130.122C1113.78 130.122 1113.29 129.991 1112.88 129.728C1112.48 129.46 1112.21 129.061 1112.07 128.531L1112.95 128.211C1113.04 128.544 1113.2 128.807 1113.44 128.998C1113.68 129.19 1113.99 129.285 1114.38 129.285C1114.69 129.285 1114.94 129.209 1115.14 129.056C1115.34 128.902 1115.43 128.686 1115.43 128.408C1115.43 128.227 1115.38 128.079 1115.28 127.965C1115.17 127.844 1115.03 127.746 1114.86 127.669C1114.68 127.593 1114.44 127.508 1114.14 127.415C1113.8 127.317 1113.51 127.213 1113.28 127.103C1113.04 126.989 1112.84 126.822 1112.68 126.603C1112.51 126.379 1112.43 126.089 1112.43 125.734C1112.43 125.417 1112.51 125.132 1112.67 124.881C1112.83 124.629 1113.05 124.435 1113.33 124.298C1113.61 124.156 1113.93 124.085 1114.28 124.085C1114.8 124.085 1115.23 124.214 1115.57 124.471C1115.92 124.728 1116.13 125.056 1116.22 125.455L1115.37 125.734C1115.19 125.192 1114.82 124.922 1114.25 124.922C1113.98 124.922 1113.76 124.995 1113.6 125.143C1113.44 125.285 1113.36 125.468 1113.36 125.693C1113.36 125.944 1113.45 126.133 1113.65 126.259C1113.84 126.379 1114.12 126.491 1114.49 126.595C1114.88 126.704 1115.2 126.825 1115.47 126.956C1115.73 127.082 1115.94 127.259 1116.11 127.489C1116.28 127.719 1116.36 128.014 1116.36 128.375C1116.36 128.719 1116.28 129.025 1116.11 129.293C1115.94 129.556 1115.71 129.761 1115.4 129.909C1115.1 130.051 1114.75 130.122 1114.36 130.122ZM1112.88 218.312C1113.29 218.574 1113.78 218.705 1114.36 218.705C1114.75 218.705 1115.1 218.634 1115.4 218.492C1115.71 218.345 1115.94 218.14 1116.11 217.877C1116.28 217.609 1116.36 217.303 1116.36 216.958C1116.36 216.598 1116.28 216.302 1116.11 216.073C1115.94 215.843 1115.73 215.665 1115.47 215.539C1115.2 215.408 1114.88 215.288 1114.49 215.179C1114.12 215.075 1113.84 214.963 1113.65 214.842C1113.45 214.716 1113.36 214.528 1113.36 214.276C1113.36 214.052 1113.44 213.869 1113.6 213.727C1113.76 213.579 1113.98 213.505 1114.25 213.505C1114.82 213.505 1115.19 213.776 1115.37 214.317L1116.22 214.038C1116.13 213.639 1115.92 213.311 1115.57 213.054C1115.23 212.797 1114.8 212.669 1114.28 212.669C1113.93 212.669 1113.61 212.74 1113.33 212.882C1113.05 213.019 1112.83 213.213 1112.67 213.464C1112.51 213.716 1112.43 214 1112.43 214.317C1112.43 214.673 1112.51 214.963 1112.68 215.187C1112.84 215.405 1113.04 215.572 1113.28 215.687C1113.51 215.796 1113.8 215.9 1114.14 215.999C1114.44 216.092 1114.68 216.176 1114.86 216.253C1115.03 216.33 1115.17 216.428 1115.28 216.548C1115.38 216.663 1115.43 216.811 1115.43 216.991C1115.43 217.27 1115.34 217.486 1115.14 217.639C1114.94 217.792 1114.69 217.869 1114.38 217.869C1113.99 217.869 1113.68 217.773 1113.44 217.582C1113.2 217.39 1113.04 217.128 1112.95 216.794L1112.07 217.114C1112.21 217.645 1112.48 218.044 1112.88 218.312ZM1114.36 174.414C1113.78 174.414 1113.29 174.282 1112.88 174.02C1112.48 173.752 1112.21 173.353 1112.07 172.822L1112.95 172.503C1113.04 172.836 1113.2 173.099 1113.44 173.29C1113.68 173.481 1113.99 173.577 1114.38 173.577C1114.69 173.577 1114.94 173.5 1115.14 173.347C1115.34 173.194 1115.43 172.978 1115.43 172.699C1115.43 172.519 1115.38 172.371 1115.28 172.256C1115.17 172.136 1115.03 172.038 1114.86 171.961C1114.68 171.885 1114.44 171.8 1114.14 171.707C1113.8 171.609 1113.51 171.505 1113.28 171.395C1113.04 171.28 1112.84 171.114 1112.68 170.895C1112.51 170.671 1112.43 170.381 1112.43 170.025C1112.43 169.708 1112.51 169.424 1112.67 169.172C1112.83 168.921 1113.05 168.727 1113.33 168.59C1113.61 168.448 1113.93 168.377 1114.28 168.377C1114.8 168.377 1115.23 168.505 1115.57 168.762C1115.92 169.019 1116.13 169.347 1116.22 169.747L1115.37 170.025C1115.19 169.484 1114.82 169.213 1114.25 169.213C1113.98 169.213 1113.76 169.287 1113.6 169.435C1113.44 169.577 1113.36 169.76 1113.36 169.984C1113.36 170.236 1113.45 170.425 1113.65 170.55C1113.84 170.671 1114.12 170.783 1114.49 170.887C1114.88 170.996 1115.2 171.116 1115.47 171.248C1115.73 171.373 1115.94 171.551 1116.11 171.781C1116.28 172.01 1116.36 172.306 1116.36 172.667C1116.36 173.011 1116.28 173.317 1116.11 173.585C1115.94 173.848 1115.71 174.053 1115.4 174.2C1115.1 174.343 1114.75 174.414 1114.36 174.414ZM1112.88 262.604C1113.29 262.866 1113.78 262.997 1114.36 262.997C1114.75 262.997 1115.1 262.926 1115.4 262.784C1115.71 262.636 1115.94 262.431 1116.11 262.169C1116.28 261.901 1116.36 261.595 1116.36 261.25C1116.36 260.889 1116.28 260.594 1116.11 260.364C1115.94 260.135 1115.73 259.957 1115.47 259.831C1115.4 259.799 1115.34 259.768 1115.26 259.738C1115.21 259.713 1115.15 259.688 1115.08 259.664C1115.03 259.645 1114.98 259.626 1114.93 259.608C1114.84 259.577 1114.75 259.546 1114.65 259.516C1114.6 259.501 1114.54 259.485 1114.49 259.47C1114.12 259.366 1113.84 259.254 1113.65 259.134C1113.45 259.008 1113.36 258.82 1113.36 258.568C1113.36 258.344 1113.44 258.161 1113.6 258.019C1113.76 257.871 1113.98 257.797 1114.25 257.797C1114.82 257.797 1115.19 258.068 1115.37 258.609L1116.22 258.33C1116.13 257.931 1115.92 257.603 1115.57 257.346C1115.23 257.089 1114.8 256.96 1114.28 256.96C1113.93 256.96 1113.61 257.032 1113.33 257.174C1113.05 257.31 1112.83 257.505 1112.67 257.756C1112.51 258.008 1112.43 258.292 1112.43 258.609C1112.43 258.965 1112.51 259.254 1112.68 259.479C1112.84 259.697 1113.04 259.864 1113.28 259.979C1113.51 260.088 1113.8 260.192 1114.14 260.291C1114.44 260.384 1114.68 260.468 1114.86 260.545C1115.03 260.621 1115.17 260.72 1115.28 260.84C1115.38 260.955 1115.43 261.103 1115.43 261.283C1115.43 261.562 1115.34 261.778 1115.14 261.931C1114.94 262.084 1114.69 262.161 1114.38 262.161C1113.99 262.161 1113.68 262.065 1113.44 261.874C1113.2 261.682 1113.04 261.42 1112.95 261.086L1112.07 261.406C1112.21 261.936 1112.48 262.336 1112.88 262.604ZM1135 85.875C1136.59 85.875 1137.87 84.5898 1137.87 83.0043C1137.87 81.4188 1136.59 80.1335 1135 80.1335C1133.42 80.1335 1132.13 81.4188 1132.13 83.0043C1132.13 84.5898 1133.42 85.875 1135 85.875ZM1135.41 83.4144V80.9537H1136.23V84.2202L1136.03 84.4397C1135.59 84.8131 1135.21 85.0548 1134.59 85.0548C1134.39 85.0548 1133.86 85.0312 1133.78 84.7442C1133.71 84.4375 1133.81 84.2359 1133.98 84.0296C1134.13 83.8389 1134.39 83.7146 1134.59 83.6194L1134.64 83.5964C1134.89 83.4806 1135.03 83.4144 1135.41 83.4144ZM1137.87 127.296C1137.87 128.882 1136.59 130.167 1135 130.167C1133.42 130.167 1132.13 128.882 1132.13 127.296C1132.13 125.711 1133.42 124.425 1135 124.425C1136.59 124.425 1137.87 125.711 1137.87 127.296ZM1135.41 125.246V127.706C1135.03 127.706 1134.89 127.772 1134.64 127.888L1134.59 127.911C1134.39 128.006 1134.13 128.131 1133.98 128.321C1133.81 128.528 1133.71 128.729 1133.78 129.036C1133.86 129.323 1134.39 129.347 1134.59 129.347C1135.21 129.347 1135.59 129.105 1136.03 128.731L1136.23 128.512V125.246H1135.41ZM1135 218.75C1136.59 218.75 1137.87 217.465 1137.87 215.88C1137.87 214.294 1136.59 213.009 1135 213.009C1133.42 213.009 1132.13 214.294 1132.13 215.88C1132.13 217.465 1133.42 218.75 1135 218.75ZM1135.41 216.29V213.829H1136.23V217.096L1136.03 217.315C1135.59 217.688 1135.21 217.93 1134.59 217.93C1134.39 217.93 1133.86 217.907 1133.78 217.62C1133.71 217.313 1133.81 217.111 1133.98 216.905C1134.13 216.714 1134.39 216.59 1134.59 216.495L1134.64 216.472C1134.89 216.356 1135.03 216.29 1135.41 216.29ZM1137.87 260.172C1137.87 261.757 1136.59 263.042 1135 263.042C1133.42 263.042 1132.13 261.757 1132.13 260.172C1132.13 258.586 1133.42 257.301 1135 257.301C1136.59 257.301 1137.87 258.586 1137.87 260.172ZM1135.41 258.121V260.582C1135.03 260.582 1134.89 260.648 1134.64 260.764L1134.59 260.787C1134.39 260.882 1134.13 261.006 1133.98 261.197C1133.81 261.403 1133.71 261.605 1133.78 261.911C1133.86 262.198 1134.39 262.222 1134.59 262.222C1135.21 262.222 1135.59 261.98 1136.03 261.607L1136.23 261.387V258.121H1135.41Z" fill="#2B2929"/>
</svg>
