<svg width="1095" height="635" viewBox="0 0 1095 635" fill="none" xmlns="http://www.w3.org/2000/svg">
<path id="ControlOnForeground" fill-rule="evenodd" clip-rule="evenodd" d="M242.39 3.73962H241.583V3.06376H242.39V1.78421H241.583V1.11492H242.39V0.0322266H243.013V1.11492H243.965V0.0322266H244.588V1.11492H245.389V1.78421H244.588V3.06376H245.389V3.73962H244.588V4.8223H243.965V3.73962H243.013V4.8223H242.39V3.73962ZM243.965 3.06376V1.78421H243.013V3.06376H243.965ZM239.162 8.66011V2.05981H239.993V5.78199C240.108 5.64124 240.236 5.52722 240.377 5.43993C240.619 5.29065 240.857 5.21601 241.092 5.21601C241.397 5.21601 241.636 5.32975 241.806 5.55722C241.984 5.77759 242.073 6.07615 242.073 6.4529C242.073 6.89363 241.952 7.2846 241.71 7.62581C241.469 7.96702 241.134 8.23359 240.708 8.42553C240.516 8.51083 240.32 8.57125 240.121 8.6068C239.922 8.64234 239.709 8.66011 239.482 8.66011H239.162ZM239.993 7.90623V6.66132C240.082 6.53442 240.185 6.4223 240.303 6.32495C240.466 6.18277 240.626 6.11169 240.783 6.11169C240.875 6.11169 240.95 6.14723 241.006 6.21832C241.063 6.2894 241.092 6.41025 241.092 6.58085C241.092 6.73013 241.07 6.87586 241.028 7.01803C240.985 7.15309 240.914 7.27749 240.815 7.39123C240.729 7.51208 240.619 7.61515 240.484 7.70045C240.356 7.78576 240.214 7.84973 240.057 7.89238C240.036 7.89743 240.015 7.90204 239.993 7.90623ZM554.35 2.2631C554.35 1.58361 554.901 1.03278 555.58 1.03278C556.259 1.03278 556.81 1.58361 556.81 2.2631C556.81 2.9426 556.259 3.49343 555.58 3.49343C554.901 3.49343 554.35 2.9426 554.35 2.2631ZM555.58 0.212556C554.448 0.212556 553.529 1.13062 553.529 2.2631C553.529 2.68104 553.654 3.06978 553.869 3.39395L551.789 5.47376C551.465 5.25899 551.076 5.1339 550.658 5.1339C549.526 5.1339 548.608 6.05197 548.608 7.18445C548.608 8.31694 549.526 9.235 550.658 9.235C551.791 9.235 552.709 8.31694 552.709 7.18445C552.709 6.7666 552.584 6.37793 552.369 6.05381L554.449 3.97393C554.773 4.18862 555.162 4.31365 555.58 4.31365C556.712 4.31365 557.631 3.39559 557.631 2.2631C557.631 1.13062 556.712 0.212556 555.58 0.212556ZM549.428 7.18445C549.428 6.50496 549.979 5.95412 550.658 5.95412C551.338 5.95412 551.889 6.50496 551.889 7.18445C551.889 7.86394 551.338 8.41478 550.658 8.41478C549.979 8.41478 549.428 7.86394 549.428 7.18445ZM537.125 4.31372V1.03285H537.945V4.31372H541.226V5.13394H537.945V8.41482H537.125V5.13394H533.844V4.31372H537.125ZM369.8 1.85305V4.31371H366.519V5.13393H369.8V7.59459L373.901 4.72382L369.8 1.85305ZM374.721 5.13393H376.362V4.31371H374.721V5.13393ZM377.182 4.31371H378.822V5.13393H377.182V4.31371ZM716.343 1.85312C716.116 1.85312 715.932 2.03673 715.932 2.26323V7.18454C715.932 7.41104 716.116 7.59465 716.343 7.59465H718.393V8.41487H716.343C715.663 8.41487 715.112 7.86403 715.112 7.18454V2.26323C715.112 1.58374 715.663 1.0329 716.343 1.0329H724.545C725.224 1.0329 725.775 1.58374 725.775 2.26323V7.18454C725.775 7.86403 725.224 8.41487 724.545 8.41487H722.392V9.78062L719.624 8.00479L722.392 6.22897V7.59465H724.545C724.771 7.59465 724.955 7.41104 724.955 7.18454V2.26323C724.955 2.03673 724.771 1.85312 724.545 1.85312H716.343ZM1039.42 83.469C1039.74 83.7042 1040.11 83.8217 1040.54 83.8217C1040.96 83.8217 1041.33 83.7042 1041.65 83.469C1041.97 83.2284 1042.22 82.8812 1042.4 82.4274C1042.58 81.9735 1042.67 81.4349 1042.67 80.8115C1042.67 80.1882 1042.58 79.6496 1042.4 79.1957C1042.22 78.7418 1041.97 78.3973 1041.65 78.1622C1041.33 77.9216 1040.96 77.8013 1040.54 77.8013C1040.11 77.8013 1039.74 77.9216 1039.42 78.1622C1039.1 78.3973 1038.85 78.7418 1038.67 79.1957C1038.49 79.6496 1038.4 80.1882 1038.4 80.8115C1038.4 81.4349 1038.49 81.9735 1038.67 82.4274C1038.85 82.8812 1039.1 83.2284 1039.42 83.469ZM1041.18 82.7472C1040.99 82.9168 1040.78 83.0015 1040.54 83.0015C1040.3 83.0015 1040.08 82.9168 1039.9 82.7472C1039.71 82.5723 1039.57 82.3207 1039.46 81.9926C1039.36 81.6591 1039.31 81.2654 1039.31 80.8115C1039.31 80.3522 1039.36 79.9585 1039.46 79.6304C1039.57 79.2969 1039.71 79.0453 1039.9 78.8758C1040.08 78.7063 1040.3 78.6215 1040.54 78.6215C1040.78 78.6215 1040.99 78.7063 1041.18 78.8758C1041.36 79.0453 1041.51 79.2969 1041.61 79.6304C1041.71 79.9585 1041.77 80.3522 1041.77 80.8115C1041.77 81.2654 1041.71 81.6591 1041.61 81.9926C1041.51 82.3207 1041.36 82.5723 1041.18 82.7472ZM1040.54 128.114C1040.11 128.114 1039.74 127.996 1039.42 127.761C1039.1 127.52 1038.85 127.173 1038.67 126.719C1038.49 126.265 1038.4 125.727 1038.4 125.103C1038.4 124.48 1038.49 123.941 1038.67 123.488C1038.85 123.034 1039.1 122.689 1039.42 122.454C1039.74 122.213 1040.11 122.093 1040.54 122.093C1040.96 122.093 1041.33 122.213 1041.65 122.454C1041.97 122.689 1042.22 123.034 1042.4 123.488C1042.58 123.941 1042.67 124.48 1042.67 125.103C1042.67 125.727 1042.58 126.265 1042.4 126.719C1042.22 127.173 1041.97 127.52 1041.65 127.761C1041.33 127.996 1040.96 128.114 1040.54 128.114ZM1040.54 127.293C1040.78 127.293 1040.99 127.209 1041.18 127.039C1041.36 126.864 1041.51 126.613 1041.61 126.284C1041.71 125.951 1041.77 125.557 1041.77 125.103C1041.77 124.644 1041.71 124.25 1041.61 123.922C1041.51 123.589 1041.36 123.337 1041.18 123.168C1040.99 122.998 1040.78 122.913 1040.54 122.913C1040.3 122.913 1040.08 122.998 1039.9 123.168C1039.71 123.337 1039.57 123.589 1039.46 123.922C1039.36 124.25 1039.31 124.644 1039.31 125.103C1039.31 125.557 1039.36 125.951 1039.46 126.284C1039.57 126.613 1039.71 126.864 1039.9 127.039C1040.08 127.209 1040.3 127.293 1040.54 127.293ZM1039.42 216.344C1039.74 216.58 1040.11 216.697 1040.54 216.697C1040.96 216.697 1041.33 216.58 1041.65 216.344C1041.97 216.104 1042.22 215.757 1042.4 215.303C1042.58 214.849 1042.67 214.31 1042.67 213.687C1042.67 213.064 1042.58 212.525 1042.4 212.071C1042.22 211.617 1041.97 211.273 1041.65 211.038C1041.33 210.797 1040.96 210.677 1040.54 210.677C1040.11 210.677 1039.74 210.797 1039.42 211.038C1039.1 211.273 1038.85 211.617 1038.67 212.071C1038.49 212.525 1038.4 213.064 1038.4 213.687C1038.4 214.31 1038.49 214.849 1038.67 215.303C1038.85 215.757 1039.1 216.104 1039.42 216.344ZM1041.18 215.623C1040.99 215.792 1040.78 215.877 1040.54 215.877C1040.3 215.877 1040.08 215.792 1039.9 215.623C1039.71 215.448 1039.57 215.196 1039.46 214.868C1039.36 214.535 1039.31 214.141 1039.31 213.687C1039.31 213.228 1039.36 212.834 1039.46 212.506C1039.57 212.172 1039.71 211.921 1039.9 211.751C1040.08 211.582 1040.3 211.497 1040.54 211.497C1040.78 211.497 1040.99 211.582 1041.18 211.751C1041.36 211.921 1041.51 212.172 1041.61 212.506C1041.71 212.834 1041.77 213.228 1041.77 213.687C1041.77 214.141 1041.71 214.535 1041.61 214.868C1041.51 215.196 1041.36 215.448 1041.18 215.623ZM1040.54 172.405C1040.11 172.405 1039.74 172.288 1039.42 172.053C1039.1 171.812 1038.85 171.465 1038.67 171.011C1038.49 170.557 1038.4 170.019 1038.4 169.395C1038.4 168.772 1038.49 168.233 1038.67 167.779C1038.85 167.326 1039.1 166.981 1039.42 166.746C1039.74 166.505 1040.11 166.385 1040.54 166.385C1040.96 166.385 1041.33 166.505 1041.65 166.746C1041.97 166.981 1042.22 167.326 1042.4 167.779C1042.58 168.233 1042.67 168.772 1042.67 169.395C1042.67 170.019 1042.58 170.557 1042.4 171.011C1042.22 171.465 1041.97 171.812 1041.65 172.053C1041.33 172.288 1040.96 172.405 1040.54 172.405ZM1040.54 171.585C1040.78 171.585 1040.99 171.5 1041.18 171.331C1041.36 171.156 1041.51 170.904 1041.61 170.576C1041.71 170.243 1041.77 169.849 1041.77 169.395C1041.77 168.936 1041.71 168.542 1041.61 168.214C1041.51 167.881 1041.36 167.629 1041.18 167.459C1040.99 167.29 1040.78 167.205 1040.54 167.205C1040.3 167.205 1040.08 167.29 1039.9 167.459C1039.71 167.629 1039.57 167.881 1039.46 168.214C1039.36 168.542 1039.31 168.936 1039.31 169.395C1039.31 169.849 1039.36 170.243 1039.46 170.576C1039.57 170.904 1039.71 171.156 1039.9 171.331C1040.08 171.5 1040.3 171.585 1040.54 171.585ZM1039.42 260.636C1039.74 260.871 1040.11 260.989 1040.54 260.989C1040.96 260.989 1041.33 260.871 1041.65 260.636C1041.97 260.396 1042.22 260.048 1042.4 259.595C1042.58 259.141 1042.67 258.602 1042.67 257.979C1042.67 257.355 1042.58 256.817 1042.4 256.363C1042.22 255.909 1041.97 255.565 1041.65 255.329C1041.33 255.089 1040.96 254.969 1040.54 254.969C1040.11 254.969 1039.74 255.089 1039.42 255.329C1039.1 255.565 1038.85 255.909 1038.67 256.363C1038.49 256.817 1038.4 257.355 1038.4 257.979C1038.4 258.602 1038.49 259.141 1038.67 259.595C1038.85 260.048 1039.1 260.396 1039.42 260.636ZM1041.18 259.915C1040.99 260.084 1040.78 260.169 1040.54 260.169C1040.3 260.169 1040.08 260.084 1039.9 259.915C1039.71 259.74 1039.57 259.488 1039.46 259.16C1039.36 258.826 1039.31 258.433 1039.31 257.979C1039.31 257.519 1039.36 257.126 1039.46 256.798C1039.57 256.464 1039.71 256.213 1039.9 256.043C1040.08 255.874 1040.3 255.789 1040.54 255.789C1040.78 255.789 1040.99 255.874 1041.18 256.043C1041.36 256.213 1041.51 256.464 1041.61 256.798C1041.71 257.126 1041.77 257.519 1041.77 257.979C1041.77 258.433 1041.71 258.826 1041.61 259.16C1041.51 259.488 1041.36 259.74 1041.18 259.915ZM45.9099 561.811H47.6487V566.782H48.5838V561.811H50.3472V560.958H45.9099V561.811ZM53.6618 566.593C53.9735 566.396 54.2196 566.134 54.4 565.806L53.67 565.453C53.5443 565.661 53.3911 565.822 53.2107 565.937C53.0303 566.046 52.8115 566.101 52.5545 566.101C52.2046 566.101 51.912 565.994 51.6769 565.781C51.4418 565.568 51.3023 565.267 51.2586 564.879H54.359C54.3809 564.715 54.3918 564.553 54.3918 564.395C54.3918 564.007 54.3153 563.665 54.1622 563.37C54.009 563.069 53.7849 562.836 53.4896 562.672C53.1943 562.508 52.8443 562.426 52.4397 562.426C52.046 562.426 51.6906 562.522 51.3734 562.713C51.0617 562.905 50.8157 563.17 50.6352 563.509C50.4602 563.848 50.3727 564.231 50.3727 564.657C50.3727 565.089 50.463 565.475 50.6434 565.814C50.8239 566.153 51.0754 566.418 51.398 566.609C51.7261 566.795 52.1007 566.888 52.5217 566.888C52.9756 566.888 53.3556 566.79 53.6618 566.593ZM51.6605 563.46C51.8573 563.268 52.1171 563.173 52.4397 563.173C52.7678 563.173 53.0248 563.26 53.2107 563.435C53.4021 563.61 53.5087 563.873 53.5306 564.223H51.275C51.3351 563.905 51.4636 563.651 51.6605 563.46ZM57.9921 566.782H59.0009L57.5327 564.592L58.9025 562.541H57.8936L56.975 563.919L56.0317 562.541H55.0393L56.4254 564.592L54.949 566.782H55.9415L56.975 565.256L57.9921 566.782ZM61.6279 566.888C62.0599 566.888 62.4207 566.779 62.7106 566.56L62.3989 565.896C62.2786 565.967 62.1665 566.019 62.0626 566.052C61.9587 566.084 61.8411 566.101 61.7099 566.101C61.4584 566.101 61.2834 566.033 61.185 565.896C61.0865 565.759 61.0373 565.573 61.0373 565.338V563.247H62.4071V562.541H61.0373V561.237H60.1515V562.541H59.3395V563.247H60.1515V565.494C60.1515 565.959 60.2854 566.309 60.5534 566.544C60.8268 566.773 61.185 566.888 61.6279 566.888ZM136.954 595.44H138.693V600.411H139.628V595.44H141.392V594.587H136.954V595.44ZM144.706 600.222C145.018 600.025 145.264 599.763 145.444 599.435L144.714 599.082C144.589 599.29 144.435 599.451 144.255 599.566C144.075 599.675 143.856 599.73 143.599 599.73C143.249 599.73 142.956 599.623 142.721 599.41C142.486 599.197 142.347 598.896 142.303 598.508H145.403C145.425 598.344 145.436 598.182 145.436 598.024C145.436 597.636 145.36 597.294 145.206 596.999C145.053 596.698 144.829 596.465 144.534 596.301C144.239 596.137 143.889 596.055 143.484 596.055C143.09 596.055 142.735 596.151 142.418 596.342C142.106 596.534 141.86 596.799 141.68 597.138C141.505 597.477 141.417 597.86 141.417 598.286C141.417 598.718 141.507 599.104 141.688 599.443C141.868 599.782 142.12 600.047 142.442 600.238C142.77 600.424 143.145 600.517 143.566 600.517C144.02 600.517 144.4 600.419 144.706 600.222ZM142.705 597.089C142.902 596.897 143.161 596.802 143.484 596.802C143.812 596.802 144.069 596.889 144.255 597.064C144.446 597.239 144.553 597.502 144.575 597.852H142.319C142.379 597.534 142.508 597.28 142.705 597.089ZM149.036 600.411H150.045L148.577 598.221L149.947 596.17H148.938L148.019 597.548L147.076 596.17H146.084L147.47 598.221L145.993 600.411H146.986L148.019 598.885L149.036 600.411ZM152.672 600.517C153.104 600.517 153.465 600.408 153.755 600.189L153.443 599.525C153.371 599.567 153.302 599.603 153.236 599.632C153.192 599.651 153.149 599.667 153.107 599.681C153.003 599.713 152.885 599.73 152.754 599.73C152.503 599.73 152.328 599.661 152.229 599.525C152.131 599.388 152.082 599.202 152.082 598.967V596.875H153.451V596.17H152.082V594.866H151.196V596.17H150.384V596.875H151.196V599.123C151.196 599.588 151.33 599.938 151.598 600.173C151.871 600.402 152.229 600.517 152.672 600.517ZM138.693 629.479H136.954V628.626H141.392V629.479H139.628V634.45H138.693V629.479ZM145.444 633.474C145.264 633.802 145.018 634.064 144.706 634.261C144.4 634.458 144.02 634.556 143.566 634.556C143.145 634.556 142.77 634.463 142.442 634.278C142.12 634.086 141.868 633.821 141.688 633.482C141.507 633.143 141.417 632.757 141.417 632.325C141.417 631.899 141.505 631.516 141.68 631.177C141.86 630.838 142.106 630.573 142.418 630.381C142.735 630.19 143.09 630.094 143.484 630.094C143.889 630.094 144.239 630.176 144.534 630.34C144.829 630.505 145.053 630.737 145.206 631.038C145.36 631.333 145.436 631.675 145.436 632.063C145.436 632.221 145.425 632.383 145.403 632.547H142.303C142.347 632.935 142.486 633.236 142.721 633.449C142.956 633.662 143.249 633.769 143.599 633.769C143.856 633.769 144.075 633.714 144.255 633.605C144.435 633.49 144.589 633.329 144.714 633.121L145.444 633.474ZM143.484 630.841C143.161 630.841 142.902 630.937 142.705 631.128C142.508 631.319 142.379 631.574 142.319 631.891H144.575C144.553 631.541 144.446 631.278 144.255 631.103C144.069 630.928 143.812 630.841 143.484 630.841ZM150.045 634.45H149.036L148.019 632.924L146.986 634.45H145.993L147.47 632.26L146.084 630.209H147.076L148.019 631.587L148.938 630.209H149.947L148.577 632.26L150.045 634.45ZM153.755 634.228C153.465 634.447 153.104 634.556 152.672 634.556C152.229 634.556 151.871 634.442 151.598 634.212C151.33 633.977 151.196 633.627 151.196 633.162V630.915H150.384V630.209H151.196V628.905H152.082V630.209H153.451V630.915H152.082V633.006C152.082 633.241 152.131 633.427 152.229 633.564C152.328 633.701 152.503 633.769 152.754 633.769C152.885 633.769 153.003 633.753 153.107 633.72C153.211 633.687 153.323 633.635 153.443 633.564L153.755 634.228ZM90.6118 629.479H92.3507V634.45H93.2857V629.479H95.0492V628.626H90.6118V629.479ZM98.3638 634.261C98.6755 634.064 98.9215 633.802 99.102 633.474L98.372 633.121C98.2462 633.329 98.0931 633.49 97.9127 633.605C97.7322 633.714 97.5135 633.769 97.2565 633.769C96.9065 633.769 96.614 633.662 96.3789 633.449C96.1437 633.236 96.0043 632.935 95.9605 632.547H99.061C99.0828 632.383 99.0938 632.221 99.0938 632.063C99.0938 631.675 99.0172 631.333 98.8641 631.038C98.711 630.737 98.4868 630.505 98.1915 630.34C97.8963 630.176 97.5463 630.094 97.1417 630.094C96.7479 630.094 96.3925 630.19 96.0754 630.381C95.7637 630.573 95.5176 630.838 95.3372 631.177C95.1622 631.516 95.0747 631.899 95.0747 632.325C95.0747 632.757 95.1649 633.143 95.3454 633.482C95.5258 633.821 95.7774 634.086 96.1 634.278C96.4281 634.463 96.8026 634.556 97.2237 634.556C97.6775 634.556 98.0576 634.458 98.3638 634.261ZM96.3624 631.128C96.5593 630.937 96.819 630.841 97.1417 630.841C97.4697 630.841 97.7267 630.928 97.9127 631.103C98.104 631.278 98.2107 631.541 98.2325 631.891H95.9769C96.0371 631.574 96.1656 631.319 96.3624 631.128ZM102.694 634.45H103.703L102.235 632.26L103.604 630.209H102.596L101.677 631.587L100.734 630.209H99.7412L101.127 632.26L99.651 634.45H100.643L101.677 632.924L102.694 634.45ZM106.33 634.556C106.762 634.556 107.123 634.447 107.413 634.228L107.101 633.564C106.981 633.635 106.868 633.687 106.765 633.72C106.661 633.753 106.543 633.769 106.412 633.769C106.16 633.769 105.985 633.701 105.887 633.564C105.788 633.427 105.739 633.241 105.739 633.006V630.915H107.109V630.209H105.739V628.905H104.853V630.209H104.041V630.915H104.853V633.162C104.853 633.627 104.987 633.977 105.255 634.212C105.529 634.442 105.887 634.556 106.33 634.556ZM2.53672 629.479H0.797852V628.626H5.23524V629.479H3.47177V634.45H2.53672V629.479ZM9.28801 633.474C9.10757 633.802 8.8615 634.064 8.54982 634.261C8.2436 634.458 7.86357 634.556 7.40971 634.556C6.98867 634.556 6.6141 634.463 6.28601 634.278C5.96339 634.086 5.71186 633.821 5.53141 633.482C5.35096 633.143 5.26074 632.757 5.26074 632.325C5.26074 631.899 5.34823 631.516 5.52321 631.177C5.70366 630.838 5.94972 630.573 6.26141 630.381C6.57856 630.19 6.93399 630.094 7.32769 630.094C7.73233 630.094 8.08229 630.176 8.37757 630.34C8.67285 630.505 8.89704 630.737 9.05015 631.038C9.20326 631.333 9.27981 631.675 9.27981 632.063C9.27981 632.221 9.26888 632.383 9.247 632.547H6.14658C6.19032 632.935 6.32976 633.236 6.56489 633.449C6.80002 633.662 7.09256 633.769 7.44252 633.769C7.69952 633.769 7.91825 633.714 8.0987 633.605C8.27915 633.49 8.43225 633.329 8.55802 633.121L9.28801 633.474ZM7.32769 630.841C7.00507 630.841 6.74534 630.937 6.54848 631.128C6.35163 631.319 6.22313 631.574 6.16298 631.891H8.41858C8.39671 631.541 8.29008 631.278 8.0987 631.103C7.91278 630.928 7.65578 630.841 7.32769 630.841ZM13.8889 634.45H12.8801L11.863 632.924L10.8295 634.45H9.83705L11.3134 632.26L9.92727 630.209H10.9197L11.863 631.587L12.7816 630.209H13.7905L12.4207 632.26L13.8889 634.45ZM17.5986 634.228C17.3087 634.447 16.9479 634.556 16.5159 634.556C16.073 634.556 15.7148 634.442 15.4414 634.212C15.1734 633.977 15.0395 633.627 15.0395 633.162V630.915H14.2275V630.209H15.0395V628.905H15.9253V630.209H17.2951V630.915H15.9253V633.006C15.9253 633.241 15.9745 633.427 16.073 633.564C16.1714 633.701 16.3464 633.769 16.5979 633.769C16.7291 633.769 16.8467 633.753 16.9506 633.72C17.0545 633.687 17.1666 633.635 17.2869 633.564L17.5986 634.228ZM0.797852 595.44H2.53672V600.411H3.47177V595.44H5.23524V594.587H0.797852V595.44ZM8.54982 600.222C8.8615 600.025 9.10757 599.763 9.28801 599.435L8.55802 599.082C8.43225 599.29 8.27915 599.451 8.0987 599.566C7.91825 599.675 7.69952 599.73 7.44252 599.73C7.09256 599.73 6.80002 599.623 6.56489 599.41C6.32976 599.197 6.19032 598.896 6.14658 598.508H9.247C9.26888 598.344 9.27981 598.182 9.27981 598.024C9.27981 597.636 9.20326 597.294 9.05015 596.999C8.89704 596.698 8.67285 596.465 8.37757 596.301C8.08229 596.137 7.73233 596.055 7.32769 596.055C6.93399 596.055 6.57856 596.151 6.26141 596.342C5.94972 596.534 5.70366 596.799 5.52321 597.138C5.34823 597.477 5.26074 597.86 5.26074 598.286C5.26074 598.718 5.35096 599.104 5.53141 599.443C5.71186 599.782 5.96339 600.047 6.28601 600.238C6.6141 600.424 6.98867 600.517 7.40971 600.517C7.86357 600.517 8.2436 600.419 8.54982 600.222ZM6.54848 597.089C6.74534 596.897 7.00507 596.802 7.32769 596.802C7.65578 596.802 7.91278 596.889 8.0987 597.064C8.29008 597.239 8.39671 597.502 8.41858 597.852H6.16298C6.22313 597.534 6.35163 597.28 6.54848 597.089ZM12.8801 600.411H13.8889L12.4207 598.221L13.7905 596.17H12.7816L11.863 597.548L10.9197 596.17H9.92727L11.3134 598.221L9.83705 600.411H10.8295L11.863 598.885L12.8801 600.411ZM16.5159 600.517C16.9479 600.517 17.3087 600.408 17.5986 600.189L17.2869 599.525C17.1666 599.596 17.0545 599.648 16.9506 599.681C16.8467 599.713 16.7291 599.73 16.5979 599.73C16.3464 599.73 16.1714 599.661 16.073 599.525C15.9745 599.388 15.9253 599.202 15.9253 598.967V596.875H17.2951V596.17H15.9253V594.866H15.0395V596.17H14.2275V596.875H15.0395V599.123C15.0395 599.588 15.1734 599.938 15.4414 600.173C15.7148 600.402 16.073 600.517 16.5159 600.517ZM1094.87 169.588C1094.87 171.173 1093.59 172.459 1092 172.459C1090.42 172.459 1089.13 171.173 1089.13 169.588C1089.13 168.002 1090.42 166.717 1092 166.717C1093.59 166.717 1094.87 168.002 1094.87 169.588ZM1092.41 167.537V169.998C1092.03 169.998 1091.89 170.064 1091.64 170.18L1091.59 170.203C1091.39 170.298 1091.13 170.423 1090.98 170.613C1090.81 170.82 1090.71 171.021 1090.78 171.328C1090.86 171.615 1091.39 171.638 1091.59 171.638C1092.21 171.638 1092.59 171.397 1093.03 171.023L1093.23 170.804V167.537H1092.41Z" fill="#2B2929"/>
</svg>
