<svg width="11" height="102" viewBox="0 0 11 102" fill="none" xmlns="http://www.w3.org/2000/svg">
<path id="DeactivatedPoti" fill-rule="evenodd" clip-rule="evenodd" d="M0.94873 0.478455C6.38441 0.478749 10.7908 4.88533 10.7908 10.3211C10.7908 11.5172 10.5774 12.6635 10.1867 13.724L8.68701 13.0456C8.98713 12.1931 9.15037 11.2762 9.15037 10.3211C9.15037 5.79132 5.47842 2.11919 0.94873 2.11889V0.478455ZM0.94873 45.1804C6.38441 45.1806 10.7908 49.5872 10.7908 55.023C10.7908 56.2191 10.5774 57.3655 10.1867 58.426L8.687 57.7476C8.98712 56.8951 9.15037 55.9781 9.15037 55.023C9.15037 50.4932 5.47842 46.8211 0.94873 46.8208V45.1804ZM10.7908 98.4946C10.7908 93.0588 6.38441 88.6523 0.94873 88.652V90.2924C5.47842 90.2927 9.15037 93.9648 9.15037 98.4946C9.15037 99.4497 8.98712 100.367 8.687 101.219L10.1867 101.898C10.5774 100.837 10.7908 99.6908 10.7908 98.4946Z" fill="#CBBDAF"/>
</svg>
