<svg width="17" height="115" viewBox="0 0 17 115" fill="none" xmlns="http://www.w3.org/2000/svg">
<path id="DrumRackScroller2" fill-rule="evenodd" clip-rule="evenodd" d="M4.63448 0.456055H7.91536V3.73693H4.63448V0.456055ZM3.81432 0.456071H0.533447V3.73695H3.81432V0.456071ZM3.81435 33.2648H0.53347V36.5457H3.81435V33.2648ZM0.53347 66.0736H3.81435V69.3545H0.53347V66.0736ZM3.81435 98.8823H0.53347V102.163H3.81435V98.8823ZM0.53347 4.55717H3.81435V7.83804H0.53347V4.55717ZM3.81435 37.3659H0.53347V40.6468H3.81435V37.3659ZM0.53347 70.1746H3.81435V73.4555H0.53347V70.1746ZM3.81435 102.983H0.53347V106.264H3.81435V102.983ZM0.53347 8.65828H3.81435V11.9392H0.53347V8.65828ZM3.81435 41.467H0.53347V44.7479H3.81435V41.467ZM0.53347 107.084H3.81435V110.365H0.53347V107.084ZM3.81435 12.7593H0.53347V16.0402H3.81435V12.7593ZM0.53347 45.5681H3.81435V48.8489H0.53347V45.5681ZM3.81435 111.186H0.53347V114.466H3.81435V111.186ZM7.91536 33.2648H4.63448V36.5457H7.91536V33.2648ZM4.63448 66.0736H7.91536V69.3545H4.63448V66.0736ZM7.91536 98.8823H4.63448V102.163H7.91536V98.8823ZM4.63448 4.55717H7.91536V7.83804H4.63448V4.55717ZM7.91536 37.3659H4.63448V40.6468H7.91536V37.3659ZM4.63448 102.983H7.91536V106.264H4.63448V102.983ZM7.91536 8.65828H4.63448V11.9392H7.91536V8.65828ZM4.63448 41.467H7.91536V44.7479H4.63448V41.467ZM7.91536 74.2757H4.63448V77.5566H7.91536V74.2757ZM4.63448 107.084H7.91536V110.365H4.63448V107.084ZM7.91536 12.7593H4.63448V16.0402H7.91536V12.7593ZM4.63448 45.5681H7.91536V48.8489H4.63448V45.5681ZM7.91536 78.3769H4.63448V81.6577H7.91536V78.3769ZM4.63448 111.186H7.91536V114.466H4.63448V111.186ZM12.0165 0.456055H8.73562V3.73693H12.0165V0.456055ZM8.73562 33.2648H12.0165V36.5457H8.73562V33.2648ZM12.0165 66.0736H8.73562V69.3545H12.0165V66.0736ZM8.73562 98.8823H12.0165V102.163H8.73562V98.8823ZM12.0165 4.55717H8.73562V7.83804H12.0165V4.55717ZM8.73562 37.3659H12.0165V40.6468H8.73562V37.3659ZM12.0165 70.1746H8.73562V73.4555H12.0165V70.1746ZM8.73562 102.983H12.0165V106.264H8.73562V102.983ZM12.0165 8.65828H8.73562V11.9392H12.0165V8.65828ZM8.73562 41.467H12.0165V44.7479H8.73562V41.467ZM12.0165 74.2757H8.73562V77.5566H12.0165V74.2757ZM8.73562 107.084H12.0165V110.365H8.73562V107.084ZM12.0165 12.7593H8.73562V16.0402H12.0165V12.7593ZM8.73562 45.5681H12.0165V48.8489H8.73562V45.5681ZM12.0165 111.186H8.73562V114.466H12.0165V111.186ZM12.8368 0.456055H16.1176V3.73693H12.8368V0.456055ZM16.1176 33.2648H12.8368V36.5457H16.1176V33.2648ZM12.8368 66.0736H16.1176V69.3545H12.8368V66.0736ZM16.1176 98.8823H12.8368V102.163H16.1176V98.8823ZM12.8368 4.55717H16.1176V7.83804H12.8368V4.55717ZM16.1176 37.3659H12.8368V40.6468H16.1176V37.3659ZM12.8368 70.1746H16.1176V73.4555H12.8368V70.1746ZM16.1176 102.983H12.8368V106.264H16.1176V102.983ZM12.8368 8.65828H16.1176V11.9392H12.8368V8.65828ZM16.1176 41.467H12.8368V44.7479H16.1176V41.467ZM12.8368 107.084H16.1176V110.365H12.8368V107.084ZM16.1176 12.7593H12.8368V16.0402H16.1176V12.7593ZM12.8368 45.5681H16.1176V48.8489H12.8368V45.5681ZM16.1176 111.186H12.8368V114.466H16.1176V111.186Z" fill="#AEA59D"/>
</svg>
