<svg width="17" height="131" viewBox="0 0 17 131" fill="none" xmlns="http://www.w3.org/2000/svg">
<path id="DrumRackScroller1" fill-rule="evenodd" clip-rule="evenodd" d="M4.63448 0.152771H7.91536V3.43365H4.63448V0.152771ZM3.81432 0.152787H0.533447V3.43366H3.81432V0.152787ZM3.81435 32.9615H0.53347V36.2424H3.81435V32.9615ZM0.53347 65.7703H3.81435V69.0512H0.53347V65.7703ZM3.81435 98.579H0.53347V101.86H3.81435V98.579ZM0.53347 28.8604H3.81435V32.1413H0.53347V28.8604ZM3.81435 61.6692H0.53347V64.9501H3.81435V61.6692ZM0.53347 94.4779H3.81435V97.7588H0.53347V94.4779ZM3.81435 4.25388H0.53347V7.53476H3.81435V4.25388ZM0.53347 37.0626H3.81435V40.3435H0.53347V37.0626ZM3.81435 69.8714H0.53347V73.1522H3.81435V69.8714ZM0.53347 102.68H3.81435V105.961H0.53347V102.68ZM3.81435 8.355H0.53347V11.6359H3.81435V8.355ZM0.53347 41.1637H3.81435V44.4446H0.53347V41.1637ZM3.81435 73.9725H0.53347V77.2533H3.81435V73.9725ZM0.53347 106.781H3.81435V110.062H0.53347V106.781ZM3.81435 127.287H0.53347V130.568H3.81435V127.287ZM7.91536 32.9615H4.63448V36.2424H7.91536V32.9615ZM4.63448 65.7703H7.91536V69.0512H4.63448V65.7703ZM7.91536 98.579H4.63448V101.86H7.91536V98.579ZM4.63448 28.8604H7.91536V32.1413H4.63448V28.8604ZM7.91536 61.6692H4.63448V64.9501H7.91536V61.6692ZM4.63448 94.4779H7.91536V97.7588H4.63448V94.4779ZM7.91536 4.25388H4.63448V7.53476H7.91536V4.25388ZM4.63448 37.0626H7.91536V40.3435H4.63448V37.0626ZM7.91536 69.8714H4.63448V73.1522H7.91536V69.8714ZM4.63448 102.68H7.91536V105.961H4.63448V102.68ZM7.91536 8.355H4.63448V11.6359H7.91536V8.355ZM4.63448 41.1637H7.91536V44.4446H4.63448V41.1637ZM7.91536 73.9725H4.63448V77.2533H7.91536V73.9725ZM4.63448 106.781H7.91536V110.062H4.63448V106.781ZM7.91536 127.287H4.63448V130.568H7.91536V127.287ZM8.73562 0.152771H12.0165V3.43365H8.73562V0.152771ZM12.0165 32.9615H8.73562V36.2424H12.0165V32.9615ZM8.73562 65.7703H12.0165V69.0512H8.73562V65.7703ZM12.0165 98.579H8.73562V101.86H12.0165V98.579ZM8.73562 28.8604H12.0165V32.1413H8.73562V28.8604ZM12.0165 61.6692H8.73562V64.9501H12.0165V61.6692ZM8.73562 94.4779H12.0165V97.7588H8.73562V94.4779ZM12.0165 4.25388H8.73562V7.53476H12.0165V4.25388ZM8.73562 37.0626H12.0165V40.3435H8.73562V37.0626ZM12.0165 69.8714H8.73562V73.1522H12.0165V69.8714ZM8.73562 102.68H12.0165V105.961H8.73562V102.68ZM12.0165 8.355H8.73562V11.6359H12.0165V8.355ZM8.73562 41.1637H12.0165V44.4446H8.73562V41.1637ZM12.0165 73.9725H8.73562V77.2533H12.0165V73.9725ZM8.73562 106.781H12.0165V110.062H8.73562V106.781ZM12.0165 127.287H8.73562V130.568H12.0165V127.287ZM12.8368 0.152771H16.1176V3.43365H12.8368V0.152771ZM16.1176 32.9615H12.8368V36.2424H16.1176V32.9615ZM12.8368 65.7703H16.1176V69.0512H12.8368V65.7703ZM16.1176 98.579H12.8368V101.86H16.1176V98.579ZM12.8368 28.8604H16.1176V32.1413H12.8368V28.8604ZM16.1176 61.6692H12.8368V64.9501H16.1176V61.6692ZM12.8368 94.4779H16.1176V97.7588H12.8368V94.4779ZM16.1176 4.25388H12.8368V7.53476H16.1176V4.25388ZM12.8368 37.0626H16.1176V40.3435H12.8368V37.0626ZM16.1176 69.8714H12.8368V73.1522H16.1176V69.8714ZM12.8368 102.68H16.1176V105.961H12.8368V102.68ZM16.1176 8.355H12.8368V11.6359H16.1176V8.355ZM12.8368 41.1637H16.1176V44.4446H12.8368V41.1637ZM16.1176 73.9725H12.8368V77.2533H16.1176V73.9725ZM12.8368 106.781H16.1176V110.062H12.8368V106.781ZM16.1176 127.287H12.8368V130.568H16.1176V127.287Z" fill="#C4BCB7"/>
</svg>
