<svg width="197" height="87" viewBox="0 0 197 87" fill="none" xmlns="http://www.w3.org/2000/svg">
<path id="FilledDrumPad" fill-rule="evenodd" clip-rule="evenodd" d="M64.5105 2.01207C64.5105 1.33257 65.0613 0.781738 65.7408 0.781738H105.111C105.791 0.781738 106.342 1.33257 106.342 2.01207V19.6468H64.5105V2.01207ZM154.735 35.641C154.735 34.9615 155.285 34.4107 155.965 34.4107H195.335C196.015 34.4107 196.566 34.9615 196.566 35.641V53.2757H154.735V35.641ZM155.965 68.0397C155.285 68.0397 154.735 68.5905 154.735 69.27V86.9047H196.566V69.27C196.566 68.5905 196.015 68.0397 195.335 68.0397H155.965ZM109.623 69.27C109.623 68.5905 110.173 68.0397 110.853 68.0397H150.223C150.903 68.0397 151.454 68.5905 151.454 69.27V86.9047H109.623V69.27ZM20.6288 34.4107C19.9493 34.4107 19.3984 34.9615 19.3984 35.641V53.2757H61.2296V35.641C61.2296 34.9615 60.6788 34.4107 59.9993 34.4107H20.6288ZM19.3984 69.27C19.3984 68.5905 19.9493 68.0397 20.6288 68.0397H59.9993C60.6788 68.0397 61.2296 68.5905 61.2296 69.27V86.9047H19.3984V69.27ZM4.63446 49.1746H7.91533V52.4555H4.63446V49.1746ZM12.8367 53.2757H16.1176V56.5566H12.8367V53.2757ZM12.8367 57.3769H16.1176V60.6577H12.8367V57.3769ZM12.0165 57.3769H8.73559V60.6577H12.0165V57.3769ZM0.533447 57.3769H3.81432V60.6577H0.533447V57.3769ZM3.81432 53.2757H0.533447V56.5566H3.81432V53.2757Z" fill="#8C8785"/>
</svg>
