<svg width="665" height="236" viewBox="0 0 665 236" fill="none" xmlns="http://www.w3.org/2000/svg">
<path id="GridLineBase" fill-rule="evenodd" clip-rule="evenodd" d="M0.995509 0H0V236H0.995509V0ZM23.8922 0H22.8967V236H23.8922V0ZM45.7935 0H46.789V236H45.7935V0ZM69.6857 0H68.6902V236H69.6857V0ZM91.5869 0H92.5824V236H91.5869V0ZM115.479 0H114.483V236H115.479V0ZM137.38 0H138.376V236H137.38V0ZM161.272 0H160.277V236H161.272V0ZM183.174 0H184.169V236H183.174V0ZM207.066 0H206.07V236H207.066V0ZM228.967 0H229.963V236H228.967V0ZM252.859 0H251.864V236H252.859V0ZM274.76 0H275.756V236H274.76V0ZM298.653 0H297.657V236H298.653V0ZM320.554 0H321.549V236H320.554V0ZM344.446 0H343.451V236H344.446V0ZM366.347 0H367.343V236H366.347V0ZM390.24 0H389.244V236H390.24V0ZM412.141 0H413.136V236H412.141V0ZM436.033 0H435.037V236H436.033V0ZM457.934 0H458.93V236H457.934V0ZM481.826 0H480.831V236H481.826V0ZM503.728 0H504.723V236H503.728V0ZM527.62 0H526.624V236H527.62V0ZM549.521 0H550.516V236H549.521V0ZM573.413 0H572.418V236H573.413V0ZM595.314 0H596.31V236H595.314V0ZM619.206 0H618.211V236H619.206V0ZM641.108 0H642.103V236H641.108V0ZM665 0H664.004V236H665V0Z" fill="#B4A290"/>
</svg>
