<svg width="10" height="102" viewBox="0 0 10 102" fill="none" xmlns="http://www.w3.org/2000/svg">
<path id="RangeDisabled" fill-rule="evenodd" clip-rule="evenodd" d="M9.94873 0.478455C4.5128 0.478455 0.106107 4.88515 0.106107 10.3211C0.106107 11.5173 0.319488 12.6636 0.710263 13.7241L2.20993 13.0457C1.9098 12.1932 1.74655 11.2762 1.74655 10.3211C1.74655 5.79114 5.41879 2.11889 9.94873 2.11889V0.478455ZM9.94858 45.1803C4.51265 45.1803 0.105957 49.587 0.105957 55.023C0.105957 56.2191 0.319338 57.3655 0.710112 58.426L2.20978 57.7476C1.90965 56.8951 1.74639 55.9781 1.74639 55.023C1.74639 50.493 5.41864 46.8208 9.94858 46.8208V45.1803ZM0.105957 98.4946C0.105957 93.0586 4.51265 88.6519 9.94858 88.6519V90.2924C5.41864 90.2924 1.74639 93.9646 1.74639 98.4946C1.74639 99.4497 1.90965 100.367 2.20978 101.219L0.710112 101.898C0.319338 100.837 0.105957 99.6908 0.105957 98.4946Z" fill="#828282"/>
</svg>
