<svg width="30" height="7" viewBox="0 0 30 7" fill="none" xmlns="http://www.w3.org/2000/svg">
<path id="StandbySelectionForeground" d="M3.09385 6.90765C2.51423 6.90765 2.0221 6.77642 1.61746 6.51395C1.21282 6.24601 0.942147 5.84684 0.805443 5.31643L1.68308 4.99654C1.77057 5.3301 1.93461 5.59257 2.17521 5.78395C2.41581 5.97534 2.72749 6.07103 3.11026 6.07103C3.42194 6.07103 3.67621 5.99448 3.87306 5.84137C4.06991 5.68826 4.16834 5.47227 4.16834 5.1934C4.16834 5.01295 4.11639 4.86531 4.0125 4.75048C3.9086 4.63018 3.76917 4.53175 3.59419 4.4552C3.41921 4.37865 3.17861 4.29389 2.8724 4.20093C2.53337 4.10251 2.24629 3.99861 2.01117 3.88925C1.77604 3.77442 1.57645 3.60764 1.41241 3.38891C1.24836 3.16472 1.16634 2.87491 1.16634 2.51948C1.16634 2.20233 1.24563 1.91799 1.4042 1.66646C1.56278 1.41492 1.7815 1.2208 2.06038 1.0841C2.34472 0.941928 2.66187 0.870843 3.01183 0.870843C3.53677 0.870843 3.96875 0.999344 4.30778 1.25635C4.65227 1.51335 4.86826 1.84144 4.95575 2.24061L4.10272 2.51948C3.92228 1.97814 3.55044 1.70747 2.98723 1.70747C2.71382 1.70747 2.49509 1.78129 2.33105 1.92893C2.17248 2.0711 2.09319 2.25428 2.09319 2.47847C2.09319 2.73001 2.18888 2.91866 2.38026 3.04442C2.57165 3.16472 2.85326 3.27682 3.22509 3.38071C3.61333 3.49008 3.93868 3.61037 4.20115 3.74161C4.46362 3.86738 4.67688 4.04509 4.84092 4.27475C5.01043 4.50441 5.09519 4.79969 5.09519 5.16059C5.09519 5.50508 5.01043 5.81129 4.84092 6.07923C4.67688 6.3417 4.44175 6.54676 4.13553 6.6944C3.83479 6.83657 3.48756 6.90765 3.09385 6.90765ZM7.97992 6.90765C7.56981 6.90765 7.20072 6.81196 6.87263 6.62058C6.55001 6.42919 6.29574 6.16399 6.10982 5.82496C5.92938 5.48594 5.83915 5.10317 5.83915 4.67666C5.83915 4.25561 5.92938 3.87558 6.10982 3.53655C6.29574 3.19753 6.55001 2.93233 6.87263 2.74094C7.20072 2.54956 7.56981 2.45387 7.97992 2.45387C8.39003 2.45387 8.75913 2.54956 9.08722 2.74094C9.41531 2.93233 9.66957 3.19753 9.85002 3.53655C10.0359 3.87558 10.1289 4.25561 10.1289 4.67666C10.1289 5.10317 10.0359 5.48594 9.85002 5.82496C9.66957 6.16399 9.41531 6.42919 9.08722 6.62058C8.75913 6.81196 8.39003 6.90765 7.97992 6.90765ZM7.97992 6.11204C8.22599 6.11204 8.44471 6.04916 8.6361 5.92339C8.83295 5.79762 8.98332 5.62538 9.08722 5.40665C9.19111 5.18793 9.24306 4.9446 9.24306 4.67666C9.24306 4.41419 9.19111 4.17359 9.08722 3.95487C8.98332 3.73614 8.83295 3.56389 8.6361 3.43813C8.44471 3.31236 8.22599 3.24948 7.97992 3.24948C7.73386 3.24948 7.51513 3.31236 7.32375 3.43813C7.13236 3.56389 6.98472 3.73614 6.88083 3.95487C6.77694 4.17359 6.72499 4.41419 6.72499 4.67666C6.72499 4.9446 6.77694 5.18793 6.88083 5.40665C6.98472 5.62538 7.13236 5.79762 7.32375 5.92339C7.51513 6.04916 7.73386 6.11204 7.97992 6.11204ZM14.8967 2.56049V6.80103H14.0601V6.3335C13.8031 6.71627 13.3984 6.90765 12.8461 6.90765C12.3103 6.90765 11.8865 6.74908 11.5748 6.43193C11.2686 6.11478 11.1155 5.67186 11.1155 5.10317V2.56049H12.0013V5.00475C12.0013 5.36017 12.0915 5.63085 12.272 5.81676C12.4524 5.99721 12.7012 6.08743 13.0184 6.08743C13.3246 6.08743 13.5652 5.99448 13.7402 5.80856C13.9206 5.61718 14.0108 5.34104 14.0108 4.98014V2.56049H14.8967ZM18.2941 2.45387C18.8245 2.45387 19.2401 2.61244 19.5408 2.92959C19.8471 3.24674 20.0002 3.6924 20.0002 4.26655V6.80103H19.1143V4.38958C19.1143 4.02322 19.0241 3.74708 18.8437 3.56116C18.6687 3.36978 18.4253 3.27408 18.1137 3.27408C17.802 3.27408 17.5532 3.37251 17.3673 3.56936C17.1813 3.76622 17.0884 4.04782 17.0884 4.41419V6.80103H16.2026V2.56049H17.0556V3.06083C17.3181 2.65619 17.7309 2.45387 18.2941 2.45387ZM25.2263 0.977471V6.80103H24.3405V6.3417C24.0069 6.719 23.5722 6.90765 23.0363 6.90765C22.6426 6.90765 22.2927 6.8147 21.9864 6.62878C21.6857 6.4374 21.4506 6.17219 21.2811 5.83317C21.117 5.49414 21.035 5.10864 21.035 4.67666C21.035 4.25014 21.117 3.86738 21.2811 3.52835C21.4506 3.18933 21.6857 2.92686 21.9864 2.74094C22.2927 2.54956 22.6426 2.45387 23.0363 2.45387C23.5722 2.45387 24.0069 2.64252 24.3405 3.01982V0.977471H25.2263ZM23.1347 6.11204C23.3753 6.11204 23.5886 6.04916 23.7745 5.92339C23.9659 5.79762 24.1135 5.62538 24.2174 5.40665C24.3213 5.18793 24.3733 4.9446 24.3733 4.67666C24.3733 4.24468 24.2584 3.90018 24.0288 3.64318C23.8046 3.38071 23.5066 3.24948 23.1347 3.24948C22.7793 3.24948 22.4868 3.38345 22.2571 3.65138C22.0329 3.91385 21.9208 4.25561 21.9208 4.67666C21.9208 5.10317 22.0329 5.4504 22.2571 5.71834C22.4868 5.98081 22.7793 6.11204 23.1347 6.11204ZM28.0286 6.91586C27.5528 6.91586 27.1373 6.80649 26.7818 6.58777C26.4319 6.36904 26.2186 6.04369 26.1421 5.61171L26.9377 5.39845C26.9924 5.62811 27.1127 5.81403 27.2986 5.9562C27.49 6.09837 27.736 6.16946 28.0368 6.16946C28.2555 6.16946 28.4359 6.12024 28.5781 6.02182C28.7203 5.92339 28.7914 5.78669 28.7914 5.61171C28.7914 5.4422 28.7176 5.31643 28.5699 5.23441C28.4223 5.14692 28.1844 5.0649 27.8563 4.98834C27.572 4.92272 27.3259 4.84617 27.1181 4.75868C26.9103 4.67119 26.7326 4.54542 26.585 4.38138C26.4428 4.21187 26.3717 3.99314 26.3717 3.7252C26.3717 3.47914 26.4346 3.26041 26.5604 3.06903C26.6916 2.87218 26.8748 2.71907 27.1099 2.60971C27.3451 2.49488 27.613 2.43746 27.9137 2.43746C28.3403 2.43746 28.6957 2.53315 28.98 2.72454C29.2644 2.91592 29.4421 3.16199 29.5132 3.46273L28.7258 3.7252C28.6601 3.55569 28.5535 3.42172 28.4059 3.3233C28.2637 3.22487 28.0915 3.17566 27.8891 3.17566C27.6813 3.17566 27.52 3.22214 27.4052 3.3151C27.2958 3.40805 27.2412 3.52562 27.2412 3.66779C27.2412 3.8209 27.3068 3.93573 27.438 4.01228C27.5692 4.08337 27.788 4.15719 28.0942 4.23374C28.4332 4.31576 28.7094 4.40325 28.9226 4.49621C29.1359 4.5837 29.3108 4.7122 29.4475 4.88171C29.5843 5.05123 29.6526 5.27542 29.6526 5.55429C29.6526 5.97534 29.4995 6.30889 29.1933 6.55496C28.8871 6.79556 28.4988 6.91586 28.0286 6.91586Z" fill="black"/>
</svg>
