<svg width="320" height="9" viewBox="0 0 320 9" fill="none" xmlns="http://www.w3.org/2000/svg">
<path id="TransportOffForeground" fill-rule="evenodd" clip-rule="evenodd" d="M74.1278 8.47081V0.622803H74.9108V8.47081H74.1278ZM77.5294 0.622803V8.47081H78.3124V0.622803H77.5294ZM80.078 8.47081V0.622803H80.8609V8.47081H80.078ZM81.624 8.47081V0.622803H82.8823V8.47081H81.624ZM59.8925 0.874472V8.72248H58.6342V0.874472H59.8925ZM61.4385 0.874472V8.72248H60.6556V0.874472H61.4385ZM63.9871 8.72248V0.874472H63.2041V8.72248H63.9871ZM67.3887 0.874472V8.72248H66.6057V0.874472H67.3887ZM96.1128 5.0542H96.9576V5.8088H96.1128V7.16217H95.2187V5.8088H92.5858V5.13622L95.0055 1.33861H96.1128V5.0542ZM93.5455 5.0542H95.2187V2.4049L93.5455 5.0542ZM105.677 1.09255H106.562L103.938 7.57227H103.052L105.677 1.09255ZM114.351 5.0542H115.196V5.8088H114.351V7.16217H113.457V5.8088H110.824V5.13622L113.244 1.33861H114.351V5.0542ZM111.784 5.0542H113.457V2.4049L111.784 5.0542ZM26.947 6.39936H28.2511V7.16217H24.5355V6.39936H26.0365V2.4213L24.921 3.20871L24.4453 2.59355L26.176 1.33861H26.947V6.39936ZM33.1528 6.36655V7.16217H29.2978V6.47318L30.93 4.91477C31.3456 4.51559 31.6546 4.16837 31.8569 3.87309C32.0647 3.57781 32.1686 3.28253 32.1686 2.98725C32.1686 2.70838 32.0784 2.48418 31.8979 2.31467C31.7175 2.14516 31.4769 2.0604 31.1761 2.0604C30.5254 2.0604 30.1262 2.46778 29.9786 3.28253L29.1256 3.10208C29.1638 2.73025 29.2732 2.40216 29.4537 2.11782C29.6396 1.83348 29.8829 1.61475 30.1836 1.46164C30.4844 1.30854 30.8234 1.23198 31.2007 1.23198C31.5835 1.23198 31.9143 1.30854 32.1932 1.46164C32.4775 1.61475 32.6935 1.82527 32.8412 2.09321C32.9943 2.35568 33.0708 2.64823 33.0708 2.97085C33.0708 3.288 33.0025 3.58874 32.8658 3.87309C32.7345 4.15196 32.5541 4.4199 32.3244 4.6769C32.0948 4.9339 31.7831 5.24559 31.3894 5.61195L30.5856 6.36655H33.1528ZM36.127 7.26059C35.706 7.26059 35.3342 7.14303 35.0115 6.9079C34.6889 6.6673 34.4374 6.32007 34.2569 5.86622C34.082 5.41236 33.9945 4.87375 33.9945 4.25039C33.9945 3.62702 34.082 3.08841 34.2569 2.63456C34.4374 2.1807 34.6889 1.83621 35.0115 1.60108C35.3342 1.36048 35.706 1.24018 36.127 1.24018C36.5481 1.24018 36.9199 1.36048 37.2425 1.60108C37.5652 1.83621 37.8139 2.1807 37.9889 2.63456C38.1694 3.08841 38.2596 3.62702 38.2596 4.25039C38.2596 4.87375 38.1694 5.41236 37.9889 5.86622C37.8139 6.32007 37.5652 6.6673 37.2425 6.9079C36.9199 7.14303 36.5481 7.26059 36.127 7.26059ZM36.127 6.44037C36.3676 6.44037 36.5809 6.35562 36.7668 6.1861C36.9527 6.01112 37.0976 5.75959 37.2015 5.4315C37.3054 5.09795 37.3574 4.70424 37.3574 4.25039C37.3574 3.79107 37.3054 3.39736 37.2015 3.06927C37.0976 2.73572 36.9527 2.48418 36.7668 2.31467C36.5809 2.14516 36.3676 2.0604 36.127 2.0604C35.8864 2.0604 35.6732 2.14516 35.4873 2.31467C35.3013 2.48418 35.1564 2.73572 35.0525 3.06927C34.9487 3.39736 34.8967 3.79107 34.8967 4.25039C34.8967 4.70424 34.9487 5.09795 35.0525 5.4315C35.1564 5.75959 35.3013 6.01112 35.4873 6.1861C35.6732 6.35562 35.8864 6.44037 36.127 6.44037ZM39.8804 7.21958C39.7055 7.21958 39.5523 7.15396 39.4211 7.02273C39.2899 6.89149 39.2243 6.73839 39.2243 6.56341C39.2243 6.38843 39.2899 6.23532 39.4211 6.10408C39.5578 5.97285 39.7109 5.90723 39.8804 5.90723C40.0554 5.90723 40.2085 5.97285 40.3398 6.10408C40.471 6.23532 40.5366 6.38843 40.5366 6.56341C40.5366 6.73839 40.471 6.89149 40.3398 7.02273C40.2085 7.15396 40.0554 7.21958 39.8804 7.21958ZM43.6404 7.26059C43.2193 7.26059 42.8475 7.14303 42.5249 6.9079C42.2022 6.6673 41.9507 6.32007 41.7703 5.86622C41.5953 5.41236 41.5078 4.87375 41.5078 4.25039C41.5078 3.62702 41.5953 3.08841 41.7703 2.63456C41.9507 2.1807 42.2022 1.83621 42.5249 1.60108C42.8475 1.36048 43.2193 1.24018 43.6404 1.24018C44.0614 1.24018 44.4332 1.36048 44.7559 1.60108C45.0785 1.83621 45.3273 2.1807 45.5023 2.63456C45.6827 3.08841 45.7729 3.62702 45.7729 4.25039C45.7729 4.87375 45.6827 5.41236 45.5023 5.86622C45.3273 6.32007 45.0785 6.6673 44.7559 6.9079C44.4332 7.14303 44.0614 7.26059 43.6404 7.26059ZM43.6404 6.44037C43.881 6.44037 44.0942 6.35562 44.2801 6.1861C44.4661 6.01112 44.611 5.75959 44.7149 5.4315C44.8187 5.09795 44.8707 4.70424 44.8707 4.25039C44.8707 3.79107 44.8187 3.39736 44.7149 3.06927C44.611 2.73572 44.4661 2.48418 44.2801 2.31467C44.0942 2.14516 43.881 2.0604 43.6404 2.0604C43.3998 2.0604 43.1865 2.14516 43.0006 2.31467C42.8147 2.48418 42.6698 2.73572 42.5659 3.06927C42.462 3.39736 42.41 3.79107 42.41 4.25039C42.41 4.70424 42.462 5.09795 42.5659 5.4315C42.6698 5.75959 42.8147 6.01112 43.0006 6.1861C43.1865 6.35562 43.3998 6.44037 43.6404 6.44037ZM48.5585 7.26059C48.1374 7.26059 47.7656 7.14303 47.443 6.9079C47.1204 6.6673 46.8688 6.32007 46.6884 5.86622C46.5134 5.41236 46.4259 4.87375 46.4259 4.25039C46.4259 3.62702 46.5134 3.08841 46.6884 2.63456C46.8688 2.1807 47.1204 1.83621 47.443 1.60108C47.7656 1.36048 48.1374 1.24018 48.5585 1.24018C48.9795 1.24018 49.3514 1.36048 49.674 1.60108C49.9966 1.83621 50.2454 2.1807 50.4204 2.63456C50.6008 3.08841 50.691 3.62702 50.691 4.25039C50.691 4.87375 50.6008 5.41236 50.4204 5.86622C50.2454 6.32007 49.9966 6.6673 49.674 6.9079C49.3514 7.14303 48.9795 7.26059 48.5585 7.26059ZM48.5585 6.44037C48.7991 6.44037 49.0123 6.35562 49.1982 6.1861C49.3842 6.01112 49.5291 5.75959 49.633 5.4315C49.7369 5.09795 49.7888 4.70424 49.7888 4.25039C49.7888 3.79107 49.7369 3.39736 49.633 3.06927C49.5291 2.73572 49.3842 2.48418 49.1982 2.31467C49.0123 2.14516 48.7991 2.0604 48.5585 2.0604C48.3179 2.0604 48.1046 2.14516 47.9187 2.31467C47.7328 2.48418 47.5879 2.73572 47.484 3.06927C47.3801 3.39736 47.3281 3.79107 47.3281 4.25039C47.3281 4.70424 47.3801 5.09795 47.484 5.4315C47.5879 5.75959 47.7328 6.01112 47.9187 6.1861C48.1046 6.35562 48.3179 6.44037 48.5585 6.44037ZM0.591797 2.19164H2.33066V7.16217H3.26571V2.19164H5.02918V1.33861H0.591797V2.19164ZM8.32736 3.23332C7.9938 2.94897 7.54815 2.8068 6.9904 2.8068C6.58029 2.8068 6.21119 2.9025 5.88311 3.09388C5.56049 3.2798 5.32809 3.55047 5.18592 3.9059L5.98153 4.18477C6.06902 4.00432 6.19479 3.85668 6.35883 3.74185C6.52834 3.62155 6.73613 3.5614 6.9822 3.5614C7.31029 3.5614 7.55635 3.64616 7.7204 3.81567C7.88444 3.98518 7.96646 4.22578 7.96646 4.53746V4.6605H6.88377C6.35336 4.6605 5.93505 4.77533 5.62884 5.00499C5.32262 5.22918 5.16952 5.5436 5.16952 5.94824C5.16952 6.19978 5.2324 6.4267 5.35817 6.62902C5.48393 6.82588 5.66438 6.98445 5.89951 7.10475C6.14011 7.21958 6.42172 7.277 6.74434 7.277C7.05055 7.277 7.31029 7.21685 7.52354 7.09655C7.7368 6.97625 7.89811 6.81494 8.00747 6.61262V7.16217H8.82769V4.48005C8.82769 3.93324 8.66091 3.51766 8.32736 3.23332ZM7.66298 6.30914C7.46613 6.46224 7.21733 6.5388 6.91658 6.5388C6.63224 6.5388 6.41351 6.48412 6.26041 6.37475C6.1073 6.25992 6.03075 6.11229 6.03075 5.93184C6.03075 5.74592 6.1073 5.59828 6.26041 5.48892C6.41898 5.37409 6.65411 5.31667 6.96579 5.31667H7.96646V5.57914C7.96646 5.90723 7.8653 6.15056 7.66298 6.30914ZM13.3313 3.10208C13.0306 2.9107 12.6806 2.81501 12.2815 2.81501C11.751 2.81501 11.3163 3.00092 10.9773 3.37275V2.92163H10.0915V8.59755H10.9773V6.70284C11.3109 7.08014 11.7456 7.26879 12.2815 7.26879C12.6806 7.26879 13.0306 7.17584 13.3313 6.98992C13.6375 6.79853 13.8727 6.53333 14.0367 6.19431C14.2062 5.85528 14.291 5.46978 14.291 5.0378C14.291 4.60582 14.2062 4.22305 14.0367 3.88949C13.8727 3.55047 13.6375 3.288 13.3313 3.10208ZM12.8146 6.29273C12.6341 6.41303 12.4264 6.47318 12.1912 6.47318C11.8194 6.47318 11.5186 6.34468 11.289 6.08768C11.0593 5.82521 10.9445 5.47525 10.9445 5.0378C10.9445 4.76986 10.9964 4.52926 11.1003 4.31601C11.2097 4.09728 11.3573 3.92503 11.5433 3.79927C11.7346 3.6735 11.9506 3.61062 12.1912 3.61062C12.4264 3.61062 12.6341 3.67077 12.8146 3.79107C13.0005 3.91136 13.1454 4.08088 13.2493 4.2996C13.3532 4.51286 13.4052 4.75892 13.4052 5.0378C13.4052 5.31667 13.3532 5.56547 13.2493 5.7842C13.1454 6.00292 13.0005 6.17243 12.8146 6.29273ZM131.133 6.77445C132.266 6.77445 133.184 5.85639 133.184 4.72391C133.184 3.59142 132.266 2.67336 131.133 2.67336C130.001 2.67336 129.083 3.59142 129.083 4.72391C129.083 5.85639 130.001 6.77445 131.133 6.77445ZM131.133 7.59467C132.719 7.59467 134.004 6.30939 134.004 4.72391C134.004 3.13843 132.719 1.85314 131.133 1.85314C129.548 1.85314 128.262 3.13843 128.262 4.72391C128.262 6.30939 129.548 7.59467 131.133 7.59467ZM138.515 7.59467C140.1 7.59467 141.386 6.30939 141.386 4.72391C141.386 3.13843 140.1 1.85314 138.515 1.85314C136.93 1.85314 135.644 3.13843 135.644 4.72391C135.644 6.30939 136.93 7.59467 138.515 7.59467ZM150.818 5.95425L152.594 3.4936H149.042L150.818 5.95425ZM260.453 3.90368L258.677 6.36434L256.901 3.90368H260.453ZM317.733 6.36434L319.509 3.90368H315.957L317.733 6.36434ZM234.291 4.28101H235.162C235.127 4.01538 235.051 3.77925 234.934 3.57264C234.819 3.36448 234.672 3.18894 234.494 3.04603C234.315 2.90156 234.112 2.79204 233.883 2.71747C233.655 2.64291 233.408 2.60562 233.142 2.60562C232.726 2.60562 232.353 2.70271 232.024 2.8969C231.694 3.09108 231.434 3.37147 231.243 3.73809C231.052 4.10315 230.957 4.54277 230.957 5.05696C230.957 5.5696 231.051 6.00922 231.241 6.37584C231.43 6.74245 231.69 7.02284 232.019 7.21703C232.348 7.41121 232.723 7.5083 233.142 7.5083C233.426 7.5083 233.685 7.46635 233.918 7.38247C234.151 7.29703 234.355 7.17897 234.529 7.02828C234.703 6.87604 234.843 6.70051 234.95 6.50166C235.059 6.30282 235.13 6.09 235.162 5.8632L234.291 5.85854C234.265 5.99835 234.216 6.12262 234.147 6.23136C234.078 6.34011 233.993 6.43176 233.893 6.50632C233.793 6.58089 233.68 6.63759 233.555 6.67643C233.43 6.71371 233.297 6.73235 233.154 6.73235C232.896 6.73235 232.667 6.66944 232.466 6.54361C232.268 6.41622 232.111 6.22826 231.996 5.97971C231.882 5.7296 231.826 5.42202 231.826 5.05696C231.826 4.69811 231.882 4.39442 231.996 4.14587C232.109 3.89576 232.266 3.70624 232.466 3.5773C232.667 3.44682 232.897 3.38157 233.156 3.38157C233.302 3.38157 233.438 3.40177 233.564 3.44215C233.691 3.48099 233.805 3.53924 233.904 3.61692C234.004 3.69459 234.087 3.78935 234.154 3.9012C234.22 4.01149 234.266 4.1381 234.291 4.28101Z" fill="#2B2929"/>
</svg>
