<svg width="25" height="7" viewBox="0 0 25 7" fill="none" xmlns="http://www.w3.org/2000/svg">
<path id="TransportOffDisabledForeground" d="M0.417396 0.799249H3.99355V1.65228H1.35245V3.29271H3.40299V4.14574H1.35245V6.6228H0.417396V0.799249ZM6.55449 6.72943C6.14438 6.72943 5.77528 6.63374 5.4472 6.44235C5.12458 6.25097 4.87031 5.98577 4.68439 5.64674C4.50394 5.30772 4.41372 4.92495 4.41372 4.49844C4.41372 4.07739 4.50394 3.69736 4.68439 3.35833C4.87031 3.01931 5.12458 2.7541 5.4472 2.56272C5.77528 2.37133 6.14438 2.27564 6.55449 2.27564C6.9646 2.27564 7.3337 2.37133 7.66179 2.56272C7.98987 2.7541 8.24414 3.01931 8.42459 3.35833C8.61051 3.69736 8.70347 4.07739 8.70347 4.49844C8.70347 4.92495 8.61051 5.30772 8.42459 5.64674C8.24414 5.98577 7.98987 6.25097 7.66179 6.44235C7.3337 6.63374 6.9646 6.72943 6.55449 6.72943ZM6.55449 5.93382C6.80056 5.93382 7.01928 5.87094 7.21067 5.74517C7.40752 5.6194 7.55789 5.44716 7.66179 5.22843C7.76568 5.00971 7.81763 4.76637 7.81763 4.49844C7.81763 4.23597 7.76568 3.99537 7.66179 3.77664C7.55789 3.55792 7.40752 3.38567 7.21067 3.25991C7.01928 3.13414 6.80056 3.07125 6.55449 3.07125C6.30843 3.07125 6.0897 3.13414 5.89832 3.25991C5.70693 3.38567 5.55929 3.55792 5.4554 3.77664C5.3515 3.99537 5.29956 4.23597 5.29956 4.49844C5.29956 4.76637 5.3515 5.00971 5.4554 5.22843C5.55929 5.44716 5.70693 5.6194 5.89832 5.74517C6.0897 5.87094 6.30843 5.93382 6.55449 5.93382ZM9.76385 0.799249H10.6497V6.6228H9.76385V0.799249ZM12.0227 0.799249H12.9085V6.6228H12.0227V0.799249ZM16.1024 6.72943C15.6922 6.72943 15.3231 6.63374 14.9951 6.44235C14.6724 6.25097 14.4182 5.98577 14.2323 5.64674C14.0518 5.30772 13.9616 4.92495 13.9616 4.49844C13.9616 4.07739 14.0518 3.69736 14.2323 3.35833C14.4182 3.01931 14.6724 2.7541 14.9951 2.56272C15.3231 2.37133 15.6922 2.27564 16.1024 2.27564C16.5125 2.27564 16.8816 2.37133 17.2096 2.56272C17.5377 2.7541 17.792 3.01931 17.9725 3.35833C18.1584 3.69736 18.2513 4.07739 18.2513 4.49844C18.2513 4.92495 18.1584 5.30772 17.9725 5.64674C17.792 5.98577 17.5377 6.25097 17.2096 6.44235C16.8816 6.63374 16.5125 6.72943 16.1024 6.72943ZM16.1024 5.93382C16.3484 5.93382 16.5671 5.87094 16.7585 5.74517C16.9554 5.6194 17.1058 5.44716 17.2096 5.22843C17.3135 5.00971 17.3655 4.76637 17.3655 4.49844C17.3655 4.23597 17.3135 3.99537 17.2096 3.77664C17.1058 3.55792 16.9554 3.38567 16.7585 3.25991C16.5671 3.13414 16.3484 3.07125 16.1024 3.07125C15.8563 3.07125 15.6376 3.13414 15.4462 3.25991C15.2548 3.38567 15.1072 3.55792 15.0033 3.77664C14.8994 3.99537 14.8474 4.23597 14.8474 4.49844C14.8474 4.76637 14.8994 5.00971 15.0033 5.22843C15.1072 5.44716 15.2548 5.6194 15.4462 5.74517C15.6376 5.87094 15.8563 5.93382 16.1024 5.93382ZM23.9469 2.38227H24.8327L23.6188 6.6228H22.7576L21.8143 3.80945L20.9121 6.6228H20.0263L18.7877 2.38227H19.7146L20.5348 5.35967L21.4863 2.38227H22.167L23.1513 5.39247L23.9469 2.38227Z" fill="#DCCFC1"/>
</svg>
