<svg width="1085" height="15" viewBox="0 0 1085 15" fill="none" xmlns="http://www.w3.org/2000/svg">
<path id="TransportOffBackground" fill-rule="evenodd" clip-rule="evenodd" d="M0.398438 0.752075H32.387V14.6958H0.398438V0.752075ZM91.4427 0.752104H56.9935V14.6958H91.4427V0.752104ZM932.167 0.752104H938.729V7.31385H932.167V0.752104ZM932.167 8.13407H938.729V14.6958H932.167V8.13407ZM263.689 0.752104H299.778V14.6958H263.689V0.752104ZM358.834 0.752104H301.419V14.6958H358.834V0.752104ZM192.33 0.752104H160.341V14.6958H192.33V0.752104ZM124.251 0.752104H158.701V14.6958H124.251V0.752104ZM1076.53 0.752104H1053.56V14.6958H1076.53V0.752104ZM1078.17 0.752104H1084.73V7.31385H1078.17V0.752104ZM1084.73 8.13407H1078.17V14.6958H1084.73V8.13407ZM1005.99 0.752104H1051.92V14.6958H1005.99V0.752104ZM1004.76 0.752104H964.976V14.6958H1004.76V0.752104ZM193.56 0.752104H230.47V14.671H193.56V0.752104ZM462.182 0.752104H394.514V14.6958H462.182V0.752104ZM761.561 0.752104H828.819V14.6958H761.561V0.752104ZM703.326 0.752104H636.068V14.6958H703.326V0.752104ZM93.0832 0.752104H107.027V14.671H93.0832V0.752104ZM122.611 0.752104H108.667V14.671H122.611V0.752104ZM704.966 0.752104H722.191V14.6958H704.966V0.752104ZM587.675 0.752104H573.731V14.6958H587.675V0.752104ZM589.315 0.752104H603.259V14.6958H589.315V0.752104ZM618.843 0.752162H604.899V14.6959H618.843V0.752162ZM877.622 0.752104H891.976V14.6958H877.622V0.752104ZM907.56 0.752104H893.617V14.6958H907.56V0.752104ZM909.201 0.752104H930.116V14.6958H909.201V0.752104ZM963.335 0.752104H940.369V14.6958H963.335V0.752104ZM743.107 0.752104H759.921V14.6958H743.107V0.752104ZM55.3531 0.752104H34.0274V14.6958H55.3531V0.752104Z" fill="#8C8785"/>
</svg>
