<svg width="23" height="7" viewBox="0 0 23 7" fill="none" xmlns="http://www.w3.org/2000/svg">
<path id="TreeColumnHeadForeground" d="M4.19421 0.370972H5.08004V6.19453H4.29263L1.37265 1.77355V6.19453H0.486816V0.370972H1.43007L4.19421 4.55409V0.370972ZM8.12498 1.83916C8.68272 1.83916 9.12838 1.98133 9.46193 2.26568C9.79549 2.55002 9.96227 2.9656 9.96227 3.51241V6.19453H9.14205V5.64498C9.03269 5.8473 8.87138 6.00861 8.65812 6.12891C8.44486 6.24921 8.18513 6.30936 7.87891 6.30936C7.55629 6.30936 7.27468 6.25194 7.03409 6.13711C6.79896 6.01681 6.61851 5.85824 6.49274 5.66138C6.36697 5.45906 6.30409 5.23214 6.30409 4.9806C6.30409 4.57596 6.4572 4.26154 6.76341 4.03735C7.06963 3.80769 7.48794 3.69286 8.01835 3.69286H9.10104V3.56983C9.10104 3.25814 9.01901 3.01754 8.85497 2.84803C8.69093 2.67852 8.44486 2.59377 8.11677 2.59377C7.87071 2.59377 7.66292 2.65391 7.49341 2.77421C7.32936 2.88904 7.2036 3.03668 7.11611 3.21713L6.32049 2.93826C6.46267 2.58283 6.69506 2.31216 7.01768 2.12624C7.34577 1.93486 7.71487 1.83916 8.12498 1.83916ZM8.05116 5.57116C8.3519 5.57116 8.6007 5.49461 8.79756 5.3415C8.99988 5.18292 9.10104 4.93959 9.10104 4.6115V4.34903H8.10037C7.78869 4.34903 7.55356 4.40645 7.39498 4.52128C7.24187 4.63064 7.16532 4.77828 7.16532 4.9642C7.16532 5.14465 7.24187 5.29228 7.39498 5.40712C7.54809 5.51648 7.76681 5.57116 8.05116 5.57116ZM15.7537 1.86377C16.2348 1.86377 16.6149 2.00868 16.8938 2.29849C17.1726 2.5883 17.3121 3.00387 17.3121 3.54522V6.19453H16.4262V3.63544C16.4262 3.31829 16.3497 3.08316 16.1966 2.93005C16.0435 2.77695 15.8357 2.70039 15.5732 2.70039C15.3162 2.70039 15.1084 2.78515 14.9498 2.95466C14.7967 3.11871 14.7202 3.35657 14.7202 3.66825V6.19453H13.8343V3.63544C13.8343 3.32376 13.7551 3.09136 13.5965 2.93826C13.4379 2.77968 13.2274 2.70039 12.9649 2.70039C12.7079 2.70039 12.5001 2.78242 12.3415 2.94646C12.1884 3.10503 12.1119 3.3429 12.1119 3.66005V6.19453H11.226V1.95399H12.0791V2.47073C12.3142 2.06609 12.6915 1.86377 13.211 1.86377C13.4898 1.86377 13.7359 1.91845 13.9492 2.02781C14.1679 2.13718 14.3429 2.29849 14.4741 2.51174C14.6163 2.30395 14.794 2.14538 15.0073 2.03602C15.226 1.92119 15.4748 1.86377 15.7537 1.86377ZM22.3356 5.21847C22.1551 5.54655 21.9091 5.80902 21.5974 6.00588C21.2912 6.20273 20.9111 6.30115 20.4573 6.30115C20.0362 6.30115 19.6617 6.2082 19.3336 6.02228C19.011 5.8309 18.7594 5.56569 18.579 5.22667C18.3985 4.88764 18.3083 4.50214 18.3083 4.07016C18.3083 3.64365 18.3958 3.26088 18.5708 2.92185C18.7512 2.58283 18.9973 2.31762 19.309 2.12624C19.6261 1.93486 19.9816 1.83916 20.3753 1.83916C20.7799 1.83916 21.1299 1.92119 21.4251 2.08523C21.7204 2.24927 21.9446 2.48167 22.0977 2.78242C22.2508 3.07769 22.3274 3.41945 22.3274 3.80769C22.3274 3.96626 22.3165 4.12757 22.2946 4.29162H19.1942C19.2379 4.67985 19.3773 4.9806 19.6125 5.19386C19.8476 5.40712 20.1401 5.51374 20.4901 5.51374C20.7471 5.51374 20.9658 5.45906 21.1463 5.3497C21.3267 5.23487 21.4798 5.07356 21.6056 4.86577L22.3356 5.21847ZM20.3753 2.58556C20.0526 2.58556 19.7929 2.68125 19.5961 2.87264C19.3992 3.06402 19.2707 3.31829 19.2106 3.63544H21.4662C21.4443 3.28548 21.3377 3.02301 21.1463 2.84803C20.9604 2.67305 20.7034 2.58556 20.3753 2.58556Z" fill="#746E69"/>
</svg>
